<?xml version="1.0" encoding="utf-8"?>
<!-- Generator: Adobe Illustrator 16.0.3, SVG Export Plug-In . SVG Version: 6.00 Build 0)  -->
<!DOCTYPE svg PUBLIC "-//W3C//DTD SVG 1.1//EN" "http://www.w3.org/Graphics/SVG/1.1/DTD/svg11.dtd">
<svg version="1.1" id="Layer_1" xmlns="http://www.w3.org/2000/svg" xmlns:xlink="http://www.w3.org/1999/xlink" x="0px" y="0px"
	 width="200px" height="200px" viewBox="0 0 200 200" enable-background="new 0 0 200 200" xml:space="preserve">
<g>
	<path d="M100,197c-53.486,0-97-43.514-97-97C3,46.514,46.514,3,100,3c53.486,0,97,43.514,97,97C197,153.486,153.486,197,100,197z"
		/>
	<path fill="#FFFFFF" d="M100,5c52.467,0,95,42.533,95,95c0,52.467-42.533,95-95,95c-52.467,0-95-42.533-95-95
		C5,47.533,47.533,5,100,5 M100,1C45.411,1,1,45.411,1,100s44.411,99,99,99s99-44.411,99-99S154.589,1,100,1L100,1z"/>
</g>
</svg>
