<svg id="Layer_1" data-name="Layer 1" xmlns="http://www.w3.org/2000/svg" viewBox="0 0 315.17 132.3"><defs><style>.cls-1{fill:#f4ed0f;}</style></defs><title>title-social</title><path class="cls-1" d="M2.21,106.8a8,8,0,0,1-.08,1.1A8.78,8.78,0,0,0,2,109.18a2.94,2.94,0,0,0,.34.85,4.66,4.66,0,0,0,1.19-2.21,2.78,2.78,0,0,1,2.21-2.21,3.87,3.87,0,0,0,1.53-.85,3.71,3.71,0,0,0,.85-.77,3.76,3.76,0,0,1,.85-.76q1.19-.85,2.38-1.62A22.05,22.05,0,0,0,13.6,100c.68-.57,1.39-1.11,2.13-1.62s1.45-1,2.13-1.62a1.89,1.89,0,0,0,.68-1.87,7.76,7.76,0,0,0-.94-3.06q-.76-1.36-1.44-2.72a.28.28,0,0,0-.17-.25.27.27,0,0,1-.17-.25,6.73,6.73,0,0,0-1.19-2.81,29.79,29.79,0,0,1-1.7-2.46l-.34-.68a7.54,7.54,0,0,0-1.19-2.55A10.89,10.89,0,0,1,10,77.56a4.11,4.11,0,0,0-.68-1,3.66,3.66,0,0,1-1-1.1c-.23-.4-.45-.82-.68-1.27A13.71,13.71,0,0,1,6.8,72q-.34-1.1-.68-2.12a4.12,4.12,0,0,1-.43-1.27,2.88,2.88,0,0,0-.59-1.27,2.89,2.89,0,0,1-.17-1.19v-1a2.62,2.62,0,0,1,.85-3.06,1.5,1.5,0,0,1-.43-.85,3.18,3.18,0,0,0-.25-.85,2.41,2.41,0,0,1,0-1.78,2.17,2.17,0,0,1,1-1.28,28,28,0,0,0,2.72-1.7A2,2,0,0,1,10,55a4.15,4.15,0,0,0,1.36-.42l.34.17a18,18,0,0,1,2.38-.51,24.49,24.49,0,0,0,2.55-.51,3.13,3.13,0,0,1,.85-.25,3,3,0,0,0,.85-.25H19a4.81,4.81,0,0,1,3.57,0,1.09,1.09,0,0,0,.85,0,3.25,3.25,0,0,1,1-.17,1.37,1.37,0,0,1,1,.68c0,.11.28.17.85.17a2.43,2.43,0,0,1,1.87,1,5.73,5.73,0,0,1,1,3.23,14.94,14.94,0,0,0,.17,2.29q.17,1.11.34,2.29v1.36a5.53,5.53,0,0,0,.17,1.36,2.47,2.47,0,0,1,0,1.27q-.17.6-.34,1.45c-.11-.11-.2-.17-.25-.17s-.14-.06-.25-.17a5,5,0,0,0-1.19,1.36,5,5,0,0,0,.34.59,1.06,1.06,0,0,1,.17.6,3,3,0,0,1-1.19,3.06L26,74.67H24.82a6.43,6.43,0,0,1-.51-1.36c-.45.45-.68.74-.68.85q0,1,.51,1a2.81,2.81,0,0,1,1.28.94l.76,1.1a8.5,8.5,0,0,1,1,1.19,3.7,3.7,0,0,1,.68.85q.85,1.53,1.62,3.06t1.62,3.06a3.56,3.56,0,0,0,.68.85,3.61,3.61,0,0,1,1.53-.94,1.88,1.88,0,0,0,1.19-1.45c.11-.57.68-.79,1.7-.68A9.51,9.51,0,0,1,37,81.9a8.79,8.79,0,0,1,.94-1.1L39.1,80c.45-.28.85-.54,1.19-.77A8.25,8.25,0,0,0,42,77.73a4.08,4.08,0,0,1,2-1.36l2.38-.68a1.54,1.54,0,0,1,.68.17l.68.34q.51.34.17,1.19a5.46,5.46,0,0,0,.34,1.36,10.49,10.49,0,0,1-2.21,1.7,6.76,6.76,0,0,1-2.55.85,2.59,2.59,0,0,0-.34,1,.49.49,0,0,0-.34.17,1.88,1.88,0,0,0-1.7.68,10.47,10.47,0,0,1-1,1.44,10.9,10.9,0,0,0-1,1.44l-.68-.34a3,3,0,0,0-.85-.34c-.11,0-.28.23-.51.68-.11.11-.2.17-.25.17s-.14.06-.25.17a.49.49,0,0,0-.34.17,2.59,2.59,0,0,1-1,2.55,9.31,9.31,0,0,0-.68.77,9.59,9.59,0,0,1-.68.77v.68A9.6,9.6,0,0,1,35,94.05l.68,2.72a.72.72,0,0,0,.08.34.78.78,0,0,1,.08.34,3.26,3.26,0,0,1,.76,1.62,14.89,14.89,0,0,1,.08,1.61,6.8,6.8,0,0,0,.17,1.87,4.23,4.23,0,0,1,.17,2.63c-.23.85-.45,1.67-.68,2.47a3.18,3.18,0,0,0-.17,1,3.27,3.27,0,0,1-.17,1,5.09,5.09,0,0,1-1.19,2.72l-.76.77a2.34,2.34,0,0,0-.59.94,5.83,5.83,0,0,1-1,2,21.57,21.57,0,0,1-1.53,1.7q-.34.34-.77.85c-.28.34-.54.62-.76.85a3.24,3.24,0,0,0-1.28,1.36,9.89,9.89,0,0,1-1.1,1.7,2.09,2.09,0,0,1-.51.34,2.54,2.54,0,0,0-.68.51,3.47,3.47,0,0,1,.08-.85,2.86,2.86,0,0,0,.08-.68,14.57,14.57,0,0,0-2.12,1.1,18.69,18.69,0,0,0-2,1.45,8.92,8.92,0,0,0-1.19-.51,3.74,3.74,0,0,1,.17-1.19h-1.7A3.73,3.73,0,0,0,18,123a6.54,6.54,0,0,1-2.3.25c-.74-.06-1.44-.14-2.12-.25a20,20,0,0,1-2.63-.51l-2.63-.68a.35.35,0,0,0-.08-.25.67.67,0,0,1-.08-.43q-.51-.51-.34-.51a5,5,0,0,1-2-1,5.49,5.49,0,0,0-1.62-1A3.4,3.4,0,0,1,2,117.17,9.64,9.64,0,0,0,2.55,116a13.72,13.72,0,0,0-.85-1.45q-.51-.76-1-1.61a.77.77,0,0,1-.17-.85A1.45,1.45,0,0,0,.6,110.8c-.17-.4-.37-.82-.6-1.28a1.63,1.63,0,0,0,.77-1.44,5.33,5.33,0,0,1,.08-1.61,1.69,1.69,0,0,0,.77.17,1.71,1.71,0,0,1,.76.17ZM7.31,108a8,8,0,0,0-2,2,3.86,3.86,0,0,0-.42,3,1.85,1.85,0,0,1,.08.94c-.06.28.14.48.59.59s.62.43.85.6.51.14.85-.08q1.19,1.87,2.55.85a2.77,2.77,0,0,1,2-.51,1.74,1.74,0,0,1,1.7-1.19,1.1,1.1,0,0,0,1-.68,8.53,8.53,0,0,0,1.53-2.55q.68-1.19,1.36-2.29a8.75,8.75,0,0,0,1-2.47q.17-.85.34-1.78a9,9,0,0,1,.51-1.79,1.63,1.63,0,0,0-.51-1.53c-.57.34-1.11.65-1.62.94a5,5,0,0,0-1.45,1.28l-.51.51a11.54,11.54,0,0,0-4.76,4.08,12.79,12.79,0,0,0-1.44,1.7,13.18,13.18,0,0,1-1.45,1.7q-.34.85-1-.17l1-3.06ZM24,59.88a6.7,6.7,0,0,0-1.44-.43A4.1,4.1,0,0,1,21.25,59a4.42,4.42,0,0,0-2.46,0,3.5,3.5,0,0,0-1.45,1.87c-.11.11-.17.2-.17.25s-.06.14-.17.25a2.55,2.55,0,0,1,.34,1.7,3.71,3.71,0,0,0,.08,2.38,5.72,5.72,0,0,1,.42,2.21l.51.51c.23.34.42.65.59.93s.37.6.59.94a1.09,1.09,0,0,0,1.19.51l.68-.34c.45.34.57.65.34.93a1.28,1.28,0,0,0-.34.77q1-.51,1.28-.68a2.44,2.44,0,0,0,.59-1c.11-.11.2-.17.25-.17s.14-.06.25-.17a3.72,3.72,0,0,0,.94-1.19q.08-.34-.6-1.19a3,3,0,0,0,.34-2.72V64.3A4.54,4.54,0,0,0,24.57,62Q24.31,60.9,24,59.88ZM23.8,71.61q-1,.51-1.87.85l1,.68A1.23,1.23,0,0,0,23.8,71.61Z"/><path class="cls-1" d="M96.39,94.39q.17-.68,1.53-.34a1.25,1.25,0,0,1-.59,1.19,2.08,2.08,0,0,1-.93.34c-.91,0-1.36.4-1.36,1.19a2.71,2.71,0,0,1-.85,1.53,3.59,3.59,0,0,1-2,1.36,6.8,6.8,0,0,1-2.55-.17,1.64,1.64,0,0,0-2.55,1q-.85,1.87-1.79,3.48t-2,3.49l-1,1a14.11,14.11,0,0,1-5.44,4.59,5.81,5.81,0,0,1-2.55,1.53,2.06,2.06,0,0,0-.76.17,9.38,9.38,0,0,1-1.11.34q-.17.85-1.87.85a2.43,2.43,0,0,0-1.7.85,3.44,3.44,0,0,1-1.53,0,1.59,1.59,0,0,0-.94-.42,1.26,1.26,0,0,0-1.1.42,1.4,1.4,0,0,1-1,.26,7.12,7.12,0,0,0-1.19-.08,12.79,12.79,0,0,1-2.21-.51,4.2,4.2,0,0,0-2.38,0,1.39,1.39,0,0,1-.85-.51,7.75,7.75,0,0,0-2-1.45l-2.21-1.1a6.45,6.45,0,0,0-.68-.59,1.66,1.66,0,0,1-.51-.6,6,6,0,0,0-2.38-2.38,3.42,3.42,0,0,1-1.7-1A10.7,10.7,0,0,1,47,106.72a7.62,7.62,0,0,0-1.27-2.12,4.67,4.67,0,0,0-.42-.68,6.89,6.89,0,0,0-.6-.68v-.51a3.41,3.41,0,0,1-1.27-1.27c-.28-.51-.6-1-.94-1.62a14.38,14.38,0,0,1-2-4.76,15,15,0,0,1-.85-3.91q-.17-2-.17-3.91a15.85,15.85,0,0,1,.34-3.06,4.07,4.07,0,0,0,.59-1.62A14.86,14.86,0,0,0,40.46,81a5.65,5.65,0,0,1,.85-3.06,6.66,6.66,0,0,1,.85-1.53,17.61,17.61,0,0,0,1-1.53q.34-.85.68-1.62A3.93,3.93,0,0,1,45,71.78l.34-1a3.82,3.82,0,0,0,.17-1.19,5.15,5.15,0,0,1,.34-.6,1.28,1.28,0,0,1,.68-.42,4.21,4.21,0,0,0,2.13-1.7q.76-1.19,1.62-2.55a14.55,14.55,0,0,1,1.87-1.87q1-.85,1.87-1.7c.23-.34.45-.51.68-.51a1.39,1.39,0,0,1,.59-.17,2.67,2.67,0,0,0,.77-.17,4.22,4.22,0,0,0,.51-.6,2.31,2.31,0,0,1,.85-.59,1.06,1.06,0,0,1,.77-.34,1,1,0,0,0,.76-.51c.23-.45.51-.6.85-.43a2,2,0,0,0,.85.26,8.24,8.24,0,0,1-1.79,2.8q-1.11,1.11-2.29,2.47a1.54,1.54,0,0,1-.85.85l-1,.34q-1.36.68-.68,1.87a3.73,3.73,0,0,0,1.36-.51,7.68,7.68,0,0,1,1.36-.68q-.35,1.19-.61,2A4.14,4.14,0,0,1,55,68.55a3.32,3.32,0,0,0-1.92,2.72c0,.68-.23,1.08-.7,1.19a11.84,11.84,0,0,0-.88,1.7,11.86,11.86,0,0,1-.87,1.7,4.13,4.13,0,0,0-.17,1.53V81.3a.69.69,0,0,1-.34.68,1.42,1.42,0,0,0,0,1.36,1.63,1.63,0,0,1,.34,1.7A11.46,11.46,0,0,0,50,90.31a.76.76,0,0,1-.08.34.74.74,0,0,0-.08.34,17.91,17.91,0,0,0,.26,3.15,5.3,5.3,0,0,0,1.63,2.81,12.64,12.64,0,0,0,1.38,1.19q-.34,1,.86,1.87l.68.68a2.59,2.59,0,0,0,.69.51,4.45,4.45,0,0,0,3.61.68c.11,0,.4-.45.86-1.36a2.15,2.15,0,0,0,1.55-.68,5.13,5.13,0,0,1,1.12-1.1A10,10,0,0,1,63.74,98a4.17,4.17,0,0,1,.6-.51,2.87,2.87,0,0,0,.43-.34,2.28,2.28,0,0,0,.51-.77c.11-.28,0-.54-.34-.77l-.17-.34a4.4,4.4,0,0,1,.17-1.36c0-.11.14-.14.42-.08a3.8,3.8,0,0,0,.76.08.35.35,0,0,1,.08-.25.68.68,0,0,0,.08-.43c-.34-.68-.11-1.3.68-1.87a17.26,17.26,0,0,0,1-1.7,1.53,1.53,0,0,1,1.36-1,2.32,2.32,0,0,0,.93-.51,2.5,2.5,0,0,0,.08-.85.59.59,0,0,1-.08-.51.28.28,0,0,0-.08-.34,1.66,1.66,0,0,1,.34-1.53,4.25,4.25,0,0,1,.6-.51,2.69,2.69,0,0,0,.42-.34v-.51a4.14,4.14,0,0,0-.76-.6,1.46,1.46,0,0,1-.6-.59,1.67,1.67,0,0,1-.17-.77v-.77a3,3,0,0,0-.34-2,11.67,11.67,0,0,1-.85-1.7A6.46,6.46,0,0,1,67.32,74a2.31,2.31,0,0,0-1-1.53,10.39,10.39,0,0,1-1.7-2.21A15.63,15.63,0,0,0,63.07,68v-.51a3.75,3.75,0,0,0-.51-2.89A4,4,0,0,1,62,61.58V60.9a1.77,1.77,0,0,1-.68-1.62q.17-.76.34-1.44a10.59,10.59,0,0,0,.51-1.62A2.14,2.14,0,0,1,63.07,55a1.28,1.28,0,0,0,.76-1,4.17,4.17,0,0,1,.42-1.36.49.49,0,0,1,.17-.34.7.7,0,0,0,.17-.51,1.76,1.76,0,0,1,.17,2.38,6.51,6.51,0,0,0-.25,1,1.61,1.61,0,0,0,.42,1.19q1-.68,2-1.36a4.3,4.3,0,0,0,1.44-2q.17-.34-.68-1.19a3.06,3.06,0,0,1-1.53.51A.69.69,0,0,1,65.7,52a2,2,0,0,0-.76-.42,5,5,0,0,1,4.25-1.36,3,3,0,0,1,1.19.17,5.67,5.67,0,0,0,1.28.94,2.29,2.29,0,0,0,1.62.25q.17,0,.25.25a1,1,0,0,0,.25.43,5.83,5.83,0,0,1,.68.85l.68,1a2,2,0,0,1,2.21,0l.85.6a.62.62,0,0,1,.17.77,4.41,4.41,0,0,0,.08,1l.25,1a5.83,5.83,0,0,1,1,2,3.61,3.61,0,0,1,.68-.85,12.19,12.19,0,0,1,.51,3.06A2.44,2.44,0,0,1,82.79,64c.11.57.23,1.13.34,1.7A2.94,2.94,0,0,0,84,67.19a1.63,1.63,0,0,1,.51,1.19c0,.45.28.79.85,1a1.72,1.72,0,0,0,.51,1.87,2,2,0,0,1,.51,2c0,.11.11.23.34.34a2.09,2.09,0,0,1,.51.34,2,2,0,0,0,1.36.34,1.86,1.86,0,0,1,1.53,2.55l-.51.17a2.84,2.84,0,0,1-.25,2.29,5.16,5.16,0,0,0-.76,2,1.53,1.53,0,0,1-.17.68.33.33,0,0,0,.17.51,1.57,1.57,0,0,1,.17,2,2.49,2.49,0,0,0-.17,2,2.3,2.3,0,0,1-.51,2.21v.34a.15.15,0,0,0,.17.17,4.22,4.22,0,0,1,.34,1.53v1.53a4.87,4.87,0,0,0,.51,2.21c0,.45.34.68,1,.68a8.72,8.72,0,0,0,2,.51,6.58,6.58,0,0,0,2.55-.17,5.3,5.3,0,0,1,.93-.51A1.72,1.72,0,0,0,96.39,94.39ZM58.31,64c0-.68.23-1,.68-.85l.34.17Q59,64,58.82,64Zm16,6.29a.49.49,0,0,0,.17-.34c0-.34-.06-.51-.17-.51a2.3,2.3,0,0,0-.42-.6l-.42-.42Q72.08,68,72.25,67a2.15,2.15,0,0,0-.17-1.53v-.17l.17-.34h.17l.17.34v.17c0,.11.17.23.51.34h.17a1.92,1.92,0,0,0-.08-.59,1.34,1.34,0,0,1-.08-.43,7.47,7.47,0,0,1-1-2.38,4.62,4.62,0,0,1,.34-1.27q.34-.93.68-1.1,1.53-.51.17-1.36a1.2,1.2,0,0,1-.85-1.19A2.16,2.16,0,0,0,71.74,56a4,4,0,0,0-1.11-.51A7.08,7.08,0,0,1,69.36,55a1.47,1.47,0,0,0-1,.51,3.93,3.93,0,0,0-1.19,1.44,4.85,4.85,0,0,1-1,1.44v.34q.51.85.25,1.27a4.06,4.06,0,0,0-.42,1.1,1.42,1.42,0,0,1-.08.42.38.38,0,0,0,.08.43q.17.85.34,1.78a9,9,0,0,0,.51,1.79,5.79,5.79,0,0,0,1.61,3.15l2.64,2.63h.34V71.1a5.23,5.23,0,0,0,.25-.59,1.65,1.65,0,0,1,.42-.6c.23-.23.45-.2.68.08s.4.43.51.43A3.19,3.19,0,0,0,74.29,70.25ZM73.1,72.63a1.27,1.27,0,0,0-.51.42,2.9,2.9,0,0,1-.34.43,1.93,1.93,0,0,1-.59-1c-.06-.34-.31-.4-.76-.17a.47.47,0,0,0-.08.68,1.64,1.64,0,0,0,.59.51,4.11,4.11,0,0,0,1.7,0Zm1.7-11.05c-.23-.23-.4-.34-.51-.34a1.28,1.28,0,0,1-.51-.17.69.69,0,0,0-.17.51C73.72,61.92,74.12,61.92,74.8,61.58ZM75.14,66c-.23-.11-.34-.23-.34-.34a.15.15,0,0,0-.17-.17h-.17c-.11,0-.17.11-.17.34.11,0,.28.11.51.34Zm33.49,14.28a1.37,1.37,0,0,1,.25,1.61,13.88,13.88,0,0,0-.76,1.62q-.34.85-.68,1.53a3.4,3.4,0,0,1-1,1.19l-1.27,1.61a1.78,1.78,0,0,1-1.45.77,1.65,1.65,0,0,0-.42.59,6.44,6.44,0,0,1-.77,1.1,1.11,1.11,0,0,0-.51.51,2.24,2.24,0,0,1-2.38,1.7,1,1,0,0,1-.68-.17,4,4,0,0,0,.76-1,3.21,3.21,0,0,1,.59-.85,14.92,14.92,0,0,1,3.4-3.06.67.67,0,0,0,.51-.68,3.69,3.69,0,0,1,1.11-2.12,3.83,3.83,0,0,0,1.1-2.29A1.4,1.4,0,0,1,107.1,81,9.75,9.75,0,0,1,108.63,80.28Z"/><path class="cls-1" d="M130.73,68.38a2.89,2.89,0,0,1-.17-1.19q-.17-2.21-.34-4a17.5,17.5,0,0,0-.85-3.83c-.11-.45-.23-.88-.34-1.27s-.23-.88-.34-1.44a2.87,2.87,0,0,0-.51-1.62q-.51-.76-1-1.44-.34-.85-1.19-.34a.94.94,0,0,1-1.19.17,1,1,0,0,0-.68-.17q.17,2.55.42,5.18a30.17,30.17,0,0,1,.08,5,33.74,33.74,0,0,1-1.7,8.08q-1.36,4-2.72,7.9a10.37,10.37,0,0,0-.93,3.91,28.79,28.79,0,0,1-.43,3.91,29,29,0,0,1-1.1,4.76,7,7,0,0,0-.08,4.42A5.59,5.59,0,0,0,119,99.24a6.75,6.75,0,0,0,2.72,1.27,11.83,11.83,0,0,0,6-.17,3.34,3.34,0,0,0,1.53-.94,10.13,10.13,0,0,1,1.36-1.27,17.06,17.06,0,0,1,3-2.38,17.17,17.17,0,0,0,3-2.38q1.7-1.7,3.31-3.48T143,86.23a25.83,25.83,0,0,1,2.21-2.64,2.23,2.23,0,0,1,3.06-.42.86.86,0,0,1,.42.68.92.92,0,0,1-.25.85c-.34.57-.74,1.16-1.19,1.79s-.91,1.22-1.36,1.78c0,.11-.11.17-.34.17a1.45,1.45,0,0,0-1.19.42,9.59,9.59,0,0,1-.68.77,3.7,3.7,0,0,1-1.1,1,5.24,5.24,0,0,0-1.11.85q-.68.51-1.36,1.1a8.48,8.48,0,0,0-1.19,1.27,6.8,6.8,0,0,1-1.45,1.61,18,18,0,0,0-1.62,1.45,1.11,1.11,0,0,0-.34,1.36.56.56,0,0,1,.17.68c-.11.23-.4.34-.85.34s-.68.51-.68,1.19a2.18,2.18,0,0,1-1.11,1,6,6,0,0,0-1.28.85q-.85.85-1.7,1.87a6,6,0,0,0-1.19,2.21,2.49,2.49,0,0,1-.85,1.19,3.15,3.15,0,0,0-.77.68,6.21,6.21,0,0,1-.59.68q-.34.51-.76,1a11.77,11.77,0,0,0-.77,1,.91.91,0,0,0-.68,1c0,.23-.06.34-.17.34s-.28.11-.51.34a28.29,28.29,0,0,1-10.62-.26q-4.34-1.11-8.75-5.86a11.84,11.84,0,0,1-2.81-4.5,35.46,35.46,0,0,1-1.44-5.36A40,40,0,0,1,100,84.53a60.87,60.87,0,0,1,2.72-11.9q1.36-3.57,3.06-7.06t3.74-6.88q1.36-2.21,2.63-4.59a9.66,9.66,0,0,1,3.49-3.74,3.41,3.41,0,0,1,1.79-1,11,11,0,0,1,2-.17,6.51,6.51,0,0,1,1.87.25,5.87,5.87,0,0,0,1.7.25,2.1,2.1,0,0,0,1.19,0,2.06,2.06,0,0,1,1.36.17,3.63,3.63,0,0,0,1.36.68,3.18,3.18,0,0,0,.85.6,3.29,3.29,0,0,1,.85.59,8.78,8.78,0,0,0,1.7,1.36,3.92,3.92,0,0,1,1.36,1.36c.34.45.88,1.19,1.62,2.21s1,1.81.77,2.38q-.51.51,0,.85a4,4,0,0,1,.34,1.36v1.19a1.15,1.15,0,0,0,.08.51.61.61,0,0,1-.08.51q-.34,1.36-.6,2.55a12.17,12.17,0,0,0-.25,2.55v.34a1.07,1.07,0,0,0-.34,1.1c.11.4.23.77.34,1.1a.9.9,0,0,0,.34.43c.11.06.17.2.17.42a1.77,1.77,0,0,1-.17,1h-.68a2.38,2.38,0,0,1-1.79-1.79A17.36,17.36,0,0,1,130.73,68.38Z"/><path class="cls-1" d="M168,115.47a1.45,1.45,0,0,1-.68.6,2,2,0,0,0-.85.94q-.34.51-.76,1.27a6.62,6.62,0,0,1-1.11,1.44,4.27,4.27,0,0,0-.68.94,2.76,2.76,0,0,1-.85.94,4.16,4.16,0,0,0-1.27,1,6.08,6.08,0,0,1-1.45,1.19q-.34.34-.76.68a1.26,1.26,0,0,1-1.28,0,1.26,1.26,0,0,0-.76.34,4.62,4.62,0,0,1-.77.51l-.85.26a3.64,3.64,0,0,1-.85.08q-1.19.34-1.87-1.19a1.84,1.84,0,0,0-.85-.68,9.23,9.23,0,0,1-4.59-3.57,2.64,2.64,0,0,0-.68-.51,2.66,2.66,0,0,1-.68-.51,1,1,0,0,0,.17-.68,2.51,2.51,0,0,0,.25-1.27,2.58,2.58,0,0,0-.77-1.1,2.73,2.73,0,0,1-1.87-2.38q-.17-1-.26-2a11.74,11.74,0,0,0-.42-2.21,7.07,7.07,0,0,1-.25-2.46,6.29,6.29,0,0,0-.42-2.63v-1.36a12.61,12.61,0,0,0,.17-2,9.49,9.49,0,0,1,.17-1.87v-.34a8,8,0,0,1-.25-2.55q.08-1.19.08-2.55V91.84a5.13,5.13,0,0,1-.17-1.53c.11-.68.2-1.39.25-2.12a11.42,11.42,0,0,1,.42-2.29c.23-.23.28-.37.17-.42s-.17-.2-.17-.43a2.86,2.86,0,0,0-.17-.85.77.77,0,0,1,.17-.85,8.11,8.11,0,0,0,.34-2.21,15.7,15.7,0,0,1,.17-2.21,15.84,15.84,0,0,0,.17-2.21,5,5,0,0,1,.34-1.87v-.51q-.17-1-.25-2a4.82,4.82,0,0,1,.08-1.62,9.4,9.4,0,0,0-1.19-5.1,1.33,1.33,0,0,0-1.36-1,11.29,11.29,0,0,1-1.87,3.91,17.19,17.19,0,0,0-1.53,1A7.78,7.78,0,0,0,137,70.93a.36.36,0,0,0-.25.08c-.06.06-.2.08-.42.08v-.68a6.21,6.21,0,0,0,.42-1.79A2.31,2.31,0,0,1,137.7,67a1,1,0,0,0,.17-.68,2.58,2.58,0,0,1,1-2,9.06,9.06,0,0,0,2.55-2.55l.6-.6.59-.6a2.61,2.61,0,0,1,.42.51,2.28,2.28,0,0,0,.42.51,1.54,1.54,0,0,0,1.7-.68,1.63,1.63,0,0,1,1.7-.34,6.21,6.21,0,0,0,1.79,1,3.69,3.69,0,0,1,1.61,1.19,1,1,0,0,0,.6.68,5.38,5.38,0,0,1,.93.51,8.89,8.89,0,0,1,3.06,2.72q.34,1,1.7.34a4.64,4.64,0,0,1,1.28,1.53q.42.85.76,1.7a6.37,6.37,0,0,0,.94,1.36,1.9,1.9,0,0,1,.25,1.87H161a2.23,2.23,0,0,0,.43.59,2.3,2.3,0,0,1,.42.6,1.85,1.85,0,0,1,.51,1.7.39.39,0,0,0,.25.43.39.39,0,0,1,.25.42,1.16,1.16,0,0,0,.08.51,1.77,1.77,0,0,1,.08.68l-.17.34a3.47,3.47,0,0,1,.34,2.55,6.29,6.29,0,0,0-.17,2.55,16.21,16.21,0,0,1,.08,2.89,9.56,9.56,0,0,0,.26,2.89,11.85,11.85,0,0,1,.42,2.21,3.81,3.81,0,0,1-.42,2,2.68,2.68,0,0,0-.17,1.61,4,4,0,0,1,0,1.62,26.38,26.38,0,0,0,0,4.25,1.18,1.18,0,0,1,.08.77,4.64,4.64,0,0,0-.08.93,2.37,2.37,0,0,1-.17,1q-.34,1.36-.59,2.47a5.23,5.23,0,0,0,.08,2.46,4,4,0,0,1-.08.77,3.77,3.77,0,0,0-.08.76v1.7a10.36,10.36,0,0,0,1-.85,5.84,5.84,0,0,0,.68-.85l2.13-2.46a5,5,0,0,1,3-1.61.9.9,0,0,0,1-1,2.3,2.3,0,0,1,.17-1.53,3.94,3.94,0,0,1,.68-1c.45-.57.85-1.1,1.19-1.61a2.85,2.85,0,0,1,1.53-1.1.5.5,0,0,1,.17.34.48.48,0,0,0,.17.34,1.46,1.46,0,0,1,0,1.87,4.77,4.77,0,0,0-1.36,3.06c0,.23-.06.34-.17.34a7.54,7.54,0,0,0-1,1.62c-.23.51-.45,1-.68,1.61a2.63,2.63,0,0,0-.42.94,2.75,2.75,0,0,1-.42.94.36.36,0,0,1-.08.25.34.34,0,0,0-.08.26,1.91,1.91,0,0,1-.68,2A3.12,3.12,0,0,0,168,115.47ZM145.86,50q-.34-.68-.51-1.1a5.41,5.41,0,0,0-.51-.93,2.51,2.51,0,0,1-.25-1.45,1.43,1.43,0,0,1,.59-1.1,1.71,1.71,0,0,0,1-.77,9.15,9.15,0,0,0,.34-1.1c.11-.68.68-1.19,1.7-1.53a9.15,9.15,0,0,1,1.87-.51,3.46,3.46,0,0,1,1.87.17q.68.68,1.87-.17a2.92,2.92,0,0,1,2.13-.76,9,9,0,0,1,2.13.42,5.33,5.33,0,0,0,1.53.34,5.85,5.85,0,0,1,2,1,.81.81,0,0,1,.42.6,2.62,2.62,0,0,0,.42.94,6.66,6.66,0,0,0,1.53,2,6.81,6.81,0,0,1,1.36,4.08,1.34,1.34,0,0,1-.17.85q-.68.34-.51.94a1.28,1.28,0,0,1-.17,1.1q-.17.68-.51,2.38a1.28,1.28,0,0,0-.76.76q-.26.6-1.11.43-.68,2.21-3.4,1.7a7.79,7.79,0,0,0-1.1-.17,4.14,4.14,0,0,0-1.11.34,8.13,8.13,0,0,1-1.27-.42,8.64,8.64,0,0,0-1.28-.42v.17l-.34-.68a3.71,3.71,0,0,0-1-1.19,4,4,0,0,0-1.53-.51c-.45,0-.79-.28-1-.85a10.24,10.24,0,0,1-1.53-1.19,10.22,10.22,0,0,0-1.36-1.19,2.17,2.17,0,0,0-.51-.85A1.7,1.7,0,0,1,145.86,50ZM176.8,97.45a9,9,0,0,1-1.7,2.72,15.51,15.51,0,0,1-.85-1.36q.34-.85.68-1.78a4.35,4.35,0,0,1,1-1.62h1a6.68,6.68,0,0,0,.08.94A1.55,1.55,0,0,1,176.8,97.45Zm1.7-3.23c-.23.68-.62.91-1.19.68a10.75,10.75,0,0,0-.17-2c.45.23.82.42,1.11.59A.59.59,0,0,1,178.5,94.22Zm.51-2.55a2.94,2.94,0,0,0,.59-.94c.17-.4.31-.77.42-1.1l.68.34A1.74,1.74,0,0,1,179,91.67Z"/><path class="cls-1" d="M256.53,85.38c.79.11,1.19.74,1.19,1.87a3.27,3.27,0,0,1-2,3.06c-.23.23-.51.48-.85.77s-.62.54-.85.77l-3.57,4.59a7.56,7.56,0,0,0-1.87,2.38,9.05,9.05,0,0,1-1.7,2.38,10,10,0,0,1-1.36,1,5.44,5.44,0,0,1-1.36,3.4l-.68,1.36c-.23.45-.45,1-.68,1.53a6.46,6.46,0,0,1-1.7,2.38,1.14,1.14,0,0,0-.51,1,14.19,14.19,0,0,1-3.06,5.44l-.68.68a5.38,5.38,0,0,0-.68.85,1.82,1.82,0,0,1-.59.85,8.49,8.49,0,0,0-.76.68,10.64,10.64,0,0,0-1.19.68,6.73,6.73,0,0,0-1,.85,2.67,2.67,0,0,1,.51.68,2.61,2.61,0,0,0,.51.68q-.17.85-1.36,1.19a6.83,6.83,0,0,1-2.47.85,5.43,5.43,0,0,0-2.47,1c-.23.23-.4.34-.51.34a20.63,20.63,0,0,0-4.18.08,7.41,7.41,0,0,1-4-.6,4.29,4.29,0,0,0-1.88-.59,11.82,11.82,0,0,1-2.21-.43v-.51a2.58,2.58,0,0,0-1.37-2.55l-.34-.34q-.85-1.36-1.71-2.63t-1.71-2.64a5.42,5.42,0,0,1-.68-2,18.08,18.08,0,0,0-.51-2.38,4.16,4.16,0,0,1-.43-1.36,12,12,0,0,0-.25-1.36,16.06,16.06,0,0,1-.17-2.29,16.56,16.56,0,0,0-.17-2.29,3.63,3.63,0,0,1,.17-.94,4.11,4.11,0,0,0,.17-1.1,2.77,2.77,0,0,0-.08-1.53,1.74,1.74,0,0,1,.25-1.53,1.06,1.06,0,0,0-.17-.59,5,5,0,0,1-.34-.6,1.57,1.57,0,0,0-1.2.17,15.86,15.86,0,0,0-1.71,1.19l-1.71,1.36a11.41,11.41,0,0,1-1,1.19l-1,1a2.67,2.67,0,0,0-2.22.59,5.09,5.09,0,0,1-2,1.1c-.57.23-.91.31-1,.26a10.31,10.31,0,0,1-1-.77,5.87,5.87,0,0,0-.6,1.19A5.86,5.86,0,0,1,193,107a1.7,1.7,0,0,1-1,.42,1.16,1.16,0,0,1-1-.25.48.48,0,0,1-.17-.34,5.54,5.54,0,0,1-2.22.17q-1.37-.34-2.56-.59a3.26,3.26,0,0,1-2-1.62,1.25,1.25,0,0,1-.34-.94,1.07,1.07,0,0,0-.51-.94A17.89,17.89,0,0,1,180,98.3a5.68,5.68,0,0,1-.68-2.55,4.55,4.55,0,0,1-.43-1.11,1.51,1.51,0,0,0-.42-.76,22.86,22.86,0,0,1-1.19-2.38,9.3,9.3,0,0,1-.68-2.55,44.51,44.51,0,0,1-.42-4.84q-.09-2.46-.42-5.19c.45.11.85.2,1.19.25s.74.14,1.19.25a2.78,2.78,0,0,1,.17-.85,3.26,3.26,0,0,0,.17-1,2.48,2.48,0,0,1,.42-2.29l1.45-1.78a3.89,3.89,0,0,0,.85-1.53,8.31,8.31,0,0,1,3.07-3.74.92.92,0,0,0,.42-.34.93.93,0,0,1,.43-.34,11,11,0,0,0,1.19-1l1.2-1.19a2.42,2.42,0,0,1,1.28-2,10.73,10.73,0,0,1,2.47-.94l.51-.25a2.36,2.36,0,0,0,.51-.42c.68-.45,1.14-.74,1.37-.85q1.71-.34,3.32-.6a13.1,13.1,0,0,1,3.33-.08c.57,0,1.16,0,1.79.08a4.75,4.75,0,0,0,2-.25.92.92,0,0,1,.85-.25q.51.09,1.2.25a2.3,2.3,0,0,0,1.62-.25,1.53,1.53,0,0,1,1.62.08h.34a2,2,0,0,1,1.79-.68,7.38,7.38,0,0,1,2,.68H214a2.09,2.09,0,0,1,1.54-.08,9.77,9.77,0,0,0,1.54.42,9.77,9.77,0,0,1,5.12,2.38,12.42,12.42,0,0,0,1.45.94,12.15,12.15,0,0,1,1.62,1.1,4.13,4.13,0,0,1,.85.51,18.73,18.73,0,0,1,3.41,3.74,2.15,2.15,0,0,1,.51.85,1.62,1.62,0,0,0,.68.85,2.6,2.6,0,0,1,.85,1.87v2c.11.45.2.85.25,1.19s.14.74.25,1.19a17.13,17.13,0,0,1,1.37,5.1,5.26,5.26,0,0,1,0,1.87,11.35,11.35,0,0,0-.17,1.87,13.32,13.32,0,0,1,.08,2.55,9.22,9.22,0,0,1-.59,2.55q-.34.34,0,.51a11.84,11.84,0,0,1-.25,4.68,11.75,11.75,0,0,0-.26,4.67,4.53,4.53,0,0,1-1,3.06,1.89,1.89,0,0,0-.17.85,8.39,8.39,0,0,0-.17,1.7,4.56,4.56,0,0,1-.34,1.7,7,7,0,0,0-.68,2.13,12.85,12.85,0,0,1-.51,2.13,1.88,1.88,0,0,0-.17.85v1a3.8,3.8,0,0,1,1.37-.68l.68-.68.68-.68a3.16,3.16,0,0,0,1.45-.85,5.17,5.17,0,0,0,.76-1.36q.68-1,1.36-1a1.1,1.1,0,0,0,.25-.43.77.77,0,0,1,.42-.42,4.18,4.18,0,0,0,.51-.6,1.28,1.28,0,0,1,.68-.42,6,6,0,0,0,.93-.77,2.44,2.44,0,0,0,.6-1.27l.34-.17a6.1,6.1,0,0,0,2.13-2.21,10.88,10.88,0,0,1,1.79-2.38,2.19,2.19,0,0,0,.76-.85,9.19,9.19,0,0,1,.59-1,4.06,4.06,0,0,1,1.11-1.53q.76-.68,1.44-1.36c.45-.23.68-.51.68-.85a4.63,4.63,0,0,1,1.19-2l1.7-1.7a1.49,1.49,0,0,1,.76-.43,4.62,4.62,0,0,0,1.11-.42q.51-.85,1-1.79a7.9,7.9,0,0,1,1.36-1.78C255.28,85.27,255.85,84.93,256.53,85.38ZM181,81.47a1.71,1.71,0,0,0,.77-1.53,16.48,16.48,0,0,1-.08-1.7q-1,.34-1,.51a9,9,0,0,0-.17,2Q180.54,81,181,81.47Zm26.69,8.84a15.57,15.57,0,0,1,.17-2.21,17.08,17.08,0,0,0,.17-2.38q0-1.87-.17-3.83t-.17-3.82q0-2.38-2.21-2.21a18.67,18.67,0,0,0-3.57,1,10.27,10.27,0,0,1-2.46,1l-2.46.68a3.3,3.3,0,0,1-.68.26.79.79,0,0,0-.51.59,2.27,2.27,0,0,1-.93,1.19,4.93,4.93,0,0,1-1.28.51,11.69,11.69,0,0,0-2.38.85,3.24,3.24,0,0,0-1.53,1.87c-.11.45-.28.68-.51.68l-1.36,1a10.92,10.92,0,0,0-1.19,1,7.11,7.11,0,0,0-.17,1.7c-.57,0-.91-.06-1-.17a8.29,8.29,0,0,1-1,1.19,3.17,3.17,0,0,0-.34,1.7,4.8,4.8,0,0,1,.34,1.79,9,9,0,0,0,.17,1.78.76.76,0,0,1-.08.34,1.16,1.16,0,0,0-.08.51,10.62,10.62,0,0,1,.34,2.55,1.37,1.37,0,0,0,.25.85c.17.23.37.51.6.85a4.35,4.35,0,0,0,2.63,1.1,15.49,15.49,0,0,1,2.8.43,9.58,9.58,0,0,1,2.8-.6,7.14,7.14,0,0,0,2.81-.77,11.34,11.34,0,0,1,2.8-1.27,4.5,4.5,0,0,0,2.46-2l.68-.34a.58.58,0,0,1,.42-.17,1.36,1.36,0,0,0,.59-.17,16.66,16.66,0,0,1,1.87-2.47q1-1.1,1.87-2.12A1.39,1.39,0,0,0,207.74,90.31ZM196,106.46q.34-.51.51-.51a4.87,4.87,0,0,1,1,.34A2.46,2.46,0,0,1,196,106.46Z"/><path class="cls-1" d="M254.65,113.94a13.33,13.33,0,0,0-.26-2.64q-.25-1.28-.59-2.63a1.07,1.07,0,0,0-.17-.6,5,5,0,0,1-.34-.59l-3.4-4.59.85-.85a5.48,5.48,0,0,0,.25-3.91,20.36,20.36,0,0,1-.76-3.91,26.57,26.57,0,0,1,.59-8.25,35.43,35.43,0,0,0,.93-8.07q0-5.44-.34-10.71t-.51-10.71a113.35,113.35,0,0,1,1.53-20.57l1-5.44q.51-2.72,1.19-5.61.51-2,.93-4.17a11.06,11.06,0,0,0-.08-4.5,3.12,3.12,0,0,1,0-2,7,7,0,0,0,.42-2.89,5.63,5.63,0,0,1,.59-2.89,1.39,1.39,0,0,0-.34-1,2.55,2.55,0,0,0-.59-.68,3.87,3.87,0,0,1-.59-.51q-1.7-1.19-.51-2.72a1.5,1.5,0,0,0,.42-.77,2.64,2.64,0,0,1,.42-.94l.85-.85a1.6,1.6,0,0,0,1.45,0,2,2,0,0,1,1.45-.17A5.32,5.32,0,0,0,260.6.38,1.57,1.57,0,0,1,262,0a6.83,6.83,0,0,1,1.36.51q1,.34,1.7.51h.51a6.55,6.55,0,0,0,2.29,1.36q1.1.34,2.29.68a1.5,1.5,0,0,0,.85.43A2.66,2.66,0,0,1,272,4h.51a6.8,6.8,0,0,0,2.29,1.53A6.79,6.79,0,0,1,277.09,7a12,12,0,0,1,2.38,4.5,21.93,21.93,0,0,1,.77,5.1,42.8,42.8,0,0,1-.17,5.35q-.26,2.72-.26,5.1-.17,3.4-.59,7t-1.1,7a38.11,38.11,0,0,0-.43,4.25,33.61,33.61,0,0,1-.42,4.08q-.51,2.89-.93,5.69t-.77,5.52a110.5,110.5,0,0,0-1,12.24q-.17,6.12-.17,12.24v7q0,3.57.17,7.14.17,3.4.42,6.88t.42,7.06q.34,2.72.68,5.52a7,7,0,0,0,2.55,4.67,3.69,3.69,0,0,0,2.46,1.45,5.77,5.77,0,0,0,2.55-.43A11.76,11.76,0,0,0,286.1,123q1.19-.85,2.21-1.7,1.19-1,2.3-2a16.3,16.3,0,0,1,2.46-1.87,5.25,5.25,0,0,1,2.38-.51,1.61,1.61,0,0,0,1.7-1.36,21.34,21.34,0,0,1,1.36-2.89,28.83,28.83,0,0,0,2.46-2.8,24.55,24.55,0,0,0,2-3,16.28,16.28,0,0,1,1.36-2.29,14,14,0,0,0,1.19-2,11.87,11.87,0,0,1,1.53-2.12,5.29,5.29,0,0,0,1.19-2.12c0-.11.11-.28.34-.51a4.66,4.66,0,0,0,1.45-2c.28-.79.59-1.59.93-2.38a5.3,5.3,0,0,0,.51-.94,5.1,5.1,0,0,1,.51-.93c.68.23,1.47.45,2.38.68v.17a4.71,4.71,0,0,1,.85,1.87c0,.34-.4,1-1.19,1.87a.93.93,0,0,0-.34.59,7.3,7.3,0,0,0,.17,1.1l-1,.68-1,.68a.93.93,0,0,0-.42.34,2.48,2.48,0,0,1-.42.51q-.68,1.36-1.28,2.63a5.4,5.4,0,0,1-1.78,2.13.54.54,0,0,0-.34.51v.51a13.9,13.9,0,0,0-1.19,2l-.68.68a5.92,5.92,0,0,1-2,3.23,16.94,16.94,0,0,0-2.64,2.72,10.78,10.78,0,0,1-1,1.44,3.45,3.45,0,0,1-1.36.94.15.15,0,0,0-.17.17.5.5,0,0,1-.17.34,2.72,2.72,0,0,1-2.21,1.7,1.38,1.38,0,0,0-1.36,1.53,1.39,1.39,0,0,1-.34,1l-.68.68q-.85.68-1.87,1.36a12,12,0,0,0-1.87,1.53,2.61,2.61,0,0,1,.34,1l-.34.34a11.71,11.71,0,0,0-1.79.43,4.3,4.3,0,0,0-1.61,1.1,2.89,2.89,0,0,1-1,.59,2.81,2.81,0,0,0-1,.6,5,5,0,0,0-1.19,1.36,6.15,6.15,0,0,1-.93,1c-.17.11-.65.06-1.45-.17a8.08,8.08,0,0,0-2-.08c-.68.06-1.47.14-2.38.25q-.17,0-.25.26a.79.79,0,0,1-.42.42,5.07,5.07,0,0,0-3.4-.17,8.61,8.61,0,0,1-3.4,0,1.76,1.76,0,0,1-1.7-1q-1-2-2.72-1.36-1,.51-1.7-1-1-1.53-2.12-3.15t-2.12-3.32q-.68-1-1.53-2.12A7.33,7.33,0,0,1,256,118a16.77,16.77,0,0,0-.85-1.78A4.75,4.75,0,0,1,254.65,113.94Zm47.26-4.59c-.23.57-.42,1-.59,1.36a5.68,5.68,0,0,0-.43,1.19q1.19.34,1.53,0Q303.1,110.88,301.91,109.35Z"/></svg>