<svg id="Layer_1" data-name="Layer 1" xmlns="http://www.w3.org/2000/svg" viewBox="0 0 36 36"><title>Twitter</title><path d="M33.69,9A12.85,12.85,0,0,1,30,10a6.45,6.45,0,0,0,2.82-3.57A13,13,0,0,1,28.74,8,6.34,6.34,0,0,0,24,6a6.43,6.43,0,0,0-6.41,6.43,6.69,6.69,0,0,0,.17,1.47A18.29,18.29,0,0,1,4.5,7.18a6.41,6.41,0,0,0,2,8.57A6.36,6.36,0,0,1,3.57,15v0a6.44,6.44,0,0,0,5.16,6.32,6.31,6.31,0,0,1-2.9.11,6.42,6.42,0,0,0,6,4.47,12.78,12.78,0,0,1-8,2.76,13.08,13.08,0,0,1-1.53-.09,18.22,18.22,0,0,0,9.87,2.9c11.82,0,18.32-9.81,18.32-18.32,0-.28,0-.55,0-.84A12.86,12.86,0,0,0,33.69,9Z"/></svg>
