<?xml version="1.0" encoding="utf-8"?>
<!-- Generator: Adobe Illustrator 18.0.0, SVG Export Plug-In . SVG Version: 6.00 Build 0)  -->
<!DOCTYPE svg PUBLIC "-//W3C//DTD SVG 1.1//EN" "http://www.w3.org/Graphics/SVG/1.1/DTD/svg11.dtd">
<svg version="1.1" id="Layer_1" xmlns="http://www.w3.org/2000/svg" xmlns:xlink="http://www.w3.org/1999/xlink" x="0px" y="0px"
	 viewBox="0 0 801.6 388.2" enable-background="new 0 0 801.6 388.2" xml:space="preserve">
<g>
	<path fill="#FFFFFF" d="M221.4,94.3c5,16.2,11.7,30.4,11.7,41.2c0,9.4-7.9,17.3-18.9,26.5l0.2,0.2c44.6-30,74.4-72.5,74.4-100.8
		c0-9.2-5-15.8-13.7-15.8c-6.5,0-12.7,3.7-15.4,9.8c-11.3-0.8-16.7-7.3-16.7-17.3c0-14.4,11.3-23.9,23.9-23.9
		c13.5,0,27.5,10.8,27.5,34c0,46.7-44.2,94.5-83.3,117.3l-0.6-1.2c1.5-2.3,2.3-5.2,2.3-8.1c0-8.5-5-19.2-10.8-31.5
		c-13.1,16.2-29.6,30.8-47.1,40.8l-0.6-1.2c1.5-2.3,2.3-5.2,2.3-8.1c0-20.6-38.9-51.2-38.9-88.3c0-29,24-41.9,51.4-43.9V24
		c-24,0-45-18.9-68.9-18.9C88.5,5.2,80,10,80,20.2c0,9,6.7,12.1,12.7,12.1c5.2,0,10.6-2.5,14.6-7.7c22.5,10.2,8.1,38.5-14.8,38.5
		c-14,0-28.3-10.8-28.3-27.9c0-17.5,14.8-31.7,35.4-31.7c23.9,0,49.8,19.2,68.9,19.2c6.9,0,8.1-2.5,8.1-4.6c0-3.5-3.3-6.3-8.7-3.1
		c-4.4-8.3,1.9-15,8.8-15c4.8,0,10.4,3.1,10.4,9.8s-5.8,8.5-11.5,12.9c-12.9,10.2-17.3,24.2-17.3,39.1c0,29,16.4,61.6,16.4,76.6
		c0,9.4-5.6,14.4-16.5,23.7l0.2,0.2c17.3-11.7,31.9-25.4,42.9-39.2c-7.7-16.4-16.2-35-16.2-54.1c0-23.5,13.3-34.6,25-34.6
		c10.2,0,19.8,8.8,19.8,26.9C229.9,71.6,226.8,82.9,221.4,94.3z M220.6,91.2c4.6-10.6,7.1-20.8,7.1-29.4c0-6-1.2-13.5-5.4-13.5
		c-5,0-5.8,11.3-5.8,17.1C216.6,74.3,218.1,82.9,220.6,91.2z"/>
	<path fill="#FFFFFF" d="M309.1,66.8c0.6-3.8-2.5-6.7-7.9-5l-0.6-0.6c6.7-3.3,20.2-7.5,29.4-7.5c11,0,14.8,4,12.7,17.1l-7.3,44.2
		c-2.3,13.5-6.7,37.1,0.4,40.4l-0.6,0.6c-4.8,1-9.6,1.5-14,1.5c-14.6,0-26.2-6.5-22.1-30.2L309.1,66.8z M317.6,45.6
		c4-6.3,6-21,0.2-28.3c4.6-8.5,13.5-13.9,21.4-13.9c7.3,0,16,4.4,16,15.2c0,15-17.3,28.3-37.1,27.5L317.6,45.6z"/>
	<path fill="#FFFFFF" d="M364.3,66.8c0.6-3.8-2.5-6.7-7.9-5l-0.6-0.6c6.7-3.3,20.2-7.5,29.4-7.5c11,0,15.4,4,12.7,17.1l-10.6,43.5
		l0.8,0.2c12.9-49.2,32.1-60.8,49.4-60.8c24,0,22.5,19.8,20.2,33.1l-4.6,27.3c-2.9,16.5-4.6,38.1,3.8,41.4l-0.6,0.6
		c-4.6,1-9.4,1.5-14,1.5c-16,0-29.2-6.9-25.4-31.2l7.7-47.7c1.3-9,1.3-14.6-3.3-14.6c-10.8,0-24,22.1-31.2,50.8
		c-3.3,13.3-8.7,37.3-2.1,40.6l-0.6,0.6c-6.2,1-11.5,1.5-16.2,1.5c-15.2,0-22.1-6.5-17.9-30.2L364.3,66.8z"/>
	<path fill="#FFFFFF" d="M621.7,97c0,31.9-28.9,60.4-63.1,60.4c-27.5,0-46.6-18.1-46.6-43.5c0-32.9,28.3-60.2,62.9-60.2
		C602.5,53.7,621.7,71.6,621.7,97z M586.3,75.2c0-11.3-2.5-20-11.5-20c-21.2,0-27.5,60.8-27.5,80.8c0,11.3,2.7,19.8,11.5,19.8
		C580.2,153.1,586.3,97.9,586.3,75.2z"/>
	<path fill="#FFFFFF" d="M720.6,189.7c0,1.5,0,3.3,0.2,4.6c7.1-2.3,14.2-4,21.5-4c10.2,0,20.2,3.5,20.2,9.4
		c0,6.5-12.7,12.5-26.7,12.5c-10.8,0-21.7-3.7-30.4-10.6c-19.4,7.7-42.5,16.9-71.9,16.9c-47.5,0-96.2-24.6-131-24.6
		c-8.3,0-13.9,2.1-19,8.3l-1-0.6c14.2-28.1,37.9-37.1,56.6-37.1c42.1,0,71.4,44.4,126.8,44.4c14.2,0,26.7-4,38.3-8.5
		c-11-9.6-17.5-25-14.2-45.8l12.1-76c1.3-9,1.3-14.6-3.3-14.6c-10.8,0-24,22.1-31.2,50.8c-3.3,13.3-8.7,37.3-2.1,40.6l-0.6,0.6
		c-6.2,1-11.5,1.5-16.2,1.5c-15.2,0-22.1-6.5-17.9-30.2l10.8-60.6c0.6-3.8-2.5-6.7-7.9-5l-0.6-0.6c6.7-3.3,20.2-7.5,29.4-7.5
		c11,0,15.4,4,12.7,17.1l-10.6,43.5l0.8,0.2c12.9-49.2,32.1-60.8,49.4-60.8c24,0,22.5,19.8,20.2,33.1
		C721.6,165.2,720.6,178.9,720.6,189.7z M721,195.8c1.3,9.6,6,14.6,16.2,14.6c8.7,0,23.5-3.8,23.5-10.6c0-5.2-9.2-8.1-18.1-8.1
		C735.6,191.8,728.5,193.3,721,195.8z"/>
	<path fill="#FFFFFF" d="M121.2,266.4l-33.5,60.2l-4,25.6c-3.7,22.5-5.4,33.3,14.8,33.3l-0.2,1.3H19.4l0.2-1.3
		c20.2,0,21.9-10.8,25.6-33.3l2.9-19.4c-4.6-35.6-18.9-74.6-35.6-74.6c-2.5,0-6,1.9-9,4.4l-0.6-1C11.4,254.5,25,247,38.3,247
		c36.4,0,48.7,46.7,41.9,87.7l38.9-69.3c9.4-16.5,26-41,47.3-41c18.3,0,27.7,11.4,27.7,26.2c0,16.5-11.5,31.9-29.4,31.9
		c-14,0-22.7-9.2-22.7-19.8c0-6.2,3.1-15.4,14-18.3c2.3,5.2,6.2,8.1,11.9,8.1c8.1,0,12.7-6,12.7-13.1c0-6.5-3.7-11.7-14.4-11.7
		C149.7,227.8,135,241.6,121.2,266.4z"/>
	<path fill="#FFFFFF" d="M224.9,327.8c0,31.9-28.9,60.4-63.1,60.4c-27.5,0-46.6-18.1-46.6-43.5c0-32.9,28.3-60.2,62.9-60.2
		C205.6,284.5,224.9,302.4,224.9,327.8z M189.5,306.1c0-11.3-2.5-20-11.5-20c-21.2,0-27.5,60.8-27.5,80.8c0,11.3,2.7,19.8,11.5,19.8
		C183.3,384,189.5,328.8,189.5,306.1z"/>
	<path fill="#FFFFFF" d="M332.2,344.9c-3.1,16.5-4.6,38.1,3.8,41.4l-0.6,0.6c-4.4,1-9,1.3-13.7,1.3c-16.4,0-30.8-6.9-25-31l7.1-29.6
		l-0.8-0.2c-12.9,49.2-25.6,60.8-46,60.8c-26.5,0-25.8-19.8-23.7-33.1l9.4-57.5c0.6-3.8-2.5-6.7-7.9-5l-0.6-0.6
		c6.7-3.3,20.2-7.5,29.4-7.5c11,0,14.8,4,12.7,17.1l-10,61.6c-1.5,9,0.2,14.6,6.2,14.6c11.7,0,21.2-22.1,28.3-50.8
		c3.3-13.3,8.7-38.1,2.1-41.4l0.6-0.6c26.2-1.9,39.8-1.3,34,29.6L332.2,344.9z"/>
	<path fill="#FFFFFF" d="M407.8,222.2c32.3,0,82.1,13.1,108.3,13.1c8.8,0,15.8-1.3,22.7-7.7l0.8,0.4c-15,29.4-32.1,37.5-50.8,37.5
		c-7.5,0-15.4-1.3-23.5-3.3c-6.3,2.3-10.4,11.7-12.7,26.9l-11,68.9c-3.3,20.6-0.2,27.5,15.8,27.5l-0.2,1.3h-78.7l0.2-1.3
		c20.2,0,22.1-10.8,25.6-33.3l8.8-57.5c3.7-24.2,33.7-31.7,50.2-33.1c-31.5-8.5-66.4-27.9-92.3-27.9c-12.9,0-21,4.8-21,15
		c0,10.2,7.7,15.2,16.2,15.2c6.2,0,12.7-2.7,16.9-8.1c7.9,3.7,11.2,9.4,11.2,15.4c0,14.6-12.5,22.5-25.6,22.5
		c-13.5,0-27.5-8.5-28.7-27.1C341.1,231.6,376.5,222.2,407.8,222.2z"/>
	<path fill="#FFFFFF" d="M570.9,344.9c-3.1,16.5-4.6,38.1,3.8,41.4l-0.6,0.6c-4.4,1-9,1.3-13.7,1.3c-16.4,0-30.8-6.9-25-31l7.1-29.6
		l-0.8-0.2c-12.9,49.2-25.6,60.8-46,60.8c-26.5,0-25.8-19.8-23.7-33.1l9.4-57.5c0.6-3.8-2.5-6.7-7.9-5l-0.6-0.6
		c6.7-3.3,20.2-7.5,29.4-7.5c11,0,14.8,4,12.7,17.1l-10,61.6c-1.5,9,0.2,14.6,6.2,14.6c11.7,0,21.2-22.1,28.3-50.8
		c3.3-13.3,8.7-38.1,2.1-41.4l0.6-0.6c26.2-1.9,39.8-1.3,34,29.6L570.9,344.9z"/>
	<path fill="#FFFFFF" d="M627.7,324.7c10.4-32.7,23.7-41.7,39.1-41.7c18.3,0,28.5,11.5,28.5,32.3c0,31.2-19.6,72.9-59.8,72.9
		c-28.9,0-50-18.3-46-44.4l15.2-95.8c0.6-3.8-2.5-6.7-7.9-5l-0.6-0.6c6.7-3.3,20.2-7.5,29.4-7.5c11,0,15.2,4,13.1,17.1l-18.5,112.9
		c-0.6,3.7-3.7,20.2,4.8,20.2c16.7,0,35.6-52.3,35.8-82.1c0-8.1-1.2-13.9-5.2-13.9c-7.7,0-19,13.5-26.4,36.2L627.7,324.7z"/>
	<path fill="#FFFFFF" d="M774.1,298.6c0-7.5-4.6-12.5-11.2-12.5c-14.8,0-25.4,23.3-26.5,42.7c-1.2,20.4,6.2,38.3,27.5,38.3
		c8.8,0,20.6-3.1,29.6-13.7l1.2,0.6c-12.1,20-32.5,34.2-54.8,34.2c-23.3,0-39.8-15.4-39.8-41.2c0-32.9,28.1-62.5,64.6-62.5
		c15,0,36.9,3.7,36.9,21.5c0,14.2-16.5,32.9-63.9,20.4l0.2-0.8C763.9,327,774.1,312.2,774.1,298.6z"/>
</g>
</svg>
