<?xml version="1.0" encoding="utf-8"?>
<!-- Generator: Adobe Illustrator 15.0.2, SVG Export Plug-In . SVG Version: 6.00 Build 0)  -->
<!DOCTYPE svg PUBLIC "-//W3C//DTD SVG 1.1//EN" "http://www.w3.org/Graphics/SVG/1.1/DTD/svg11.dtd">
<svg version="1.1" id="Layer_1" xmlns="http://www.w3.org/2000/svg" xmlns:xlink="http://www.w3.org/1999/xlink" x="0px" y="0px"
	 width="133px" height="103.75px" viewBox="0 0 133 103.75" enable-background="new 0 0 133 103.75" xml:space="preserve">
<g>
	<path fill="#333333" d="M40.98,101.338c-15.055,0-22.51-8.602-22.51-22.939v-37.85H4.851V25.781h13.62V6.856l17.922-4.444v23.369
		h18.781v14.768H36.393v36.273c0,5.734,2.58,8.172,8.315,8.172c3.728,0,6.738-0.144,11.613-0.717v15.054
		C51.303,100.621,46.285,101.338,40.98,101.338z"/>
	<path fill="#333333" d="M110.229,100.335V54.6c0-8.746-2.868-14.051-12.33-14.051c-6.309,0-10.467,4.015-12.903,9.463
		c-2.581,5.878-2.438,13.62-2.438,19.929v30.395H64.636V25.781h15.054l1.291,9.606c4.444-7.886,13.333-11.47,21.936-11.47
		c15.914,0,25.233,11.183,25.233,26.667v49.75H110.229z"/>
</g>
</svg>
