<svg xmlns="http://www.w3.org/2000/svg" viewBox="0 0 24 24">
  <g id="ic_crop_square_black_24dp" transform="translate(0 0)">
    <path id="Path_20" data-name="Path 20" class="social-icon-fill-1" d="M0,0H24V24H0Z"/>
    <path id="behance-2" class="social-icon-fill-2" d="M22.429,16.059a2.5,2.5,0,0,0-.662-1.545A2.187,2.187,0,0,0,20.221,14a2.108,2.108,0,0,0-1.545.589,2.5,2.5,0,0,0-.662,1.545h4.416ZM25,15.839a14.279,14.279,0,0,1,.074,1.987H17.866a2.283,2.283,0,0,0,1.03,2.061,2.818,2.818,0,0,0,1.4.368,2.122,2.122,0,0,0,1.4-.442,2.673,2.673,0,0,0,.589-.662h2.649a3.031,3.031,0,0,1-.957,1.766,4.668,4.668,0,0,1-3.68,1.4,5.4,5.4,0,0,1-3.459-1.251,4.951,4.951,0,0,1-1.472-3.974,5.327,5.327,0,0,1,1.325-3.9,4.822,4.822,0,0,1,3.532-1.4,5.486,5.486,0,0,1,2.281.442A4.046,4.046,0,0,1,24.2,13.7,5.365,5.365,0,0,1,25,15.839M11.39,18.046a1.478,1.478,0,0,0-.883-1.472,3.459,3.459,0,0,0-1.4-.221H6.165v3.68h2.87a3.709,3.709,0,0,0,1.4-.221,1.713,1.713,0,0,0,.957-1.766M6.165,14.072h2.87a2.9,2.9,0,0,0,1.472-.368,1.337,1.337,0,0,0,.589-1.178,1.231,1.231,0,0,0-.736-1.251,5.058,5.058,0,0,0-1.619-.221H6.165Zm7.58,2.208a3.645,3.645,0,0,1,.515,1.987,4.5,4.5,0,0,1-.589,2.208,4.7,4.7,0,0,1-.957,1.1,3.659,3.659,0,0,1-1.545.662,8.022,8.022,0,0,1-1.913.221H3V8.7H9.623a4.012,4.012,0,0,1,3.532,1.472,3.29,3.29,0,0,1,.662,2.061,2.818,2.818,0,0,1-.662,1.987,2.967,2.967,0,0,1-1.03.81,3.129,3.129,0,0,1,1.619,1.251m9.2-5.667h-5.52v-1.4h5.52Z" transform="translate(-2.039 -3.868)"/>
  </g>
</svg>
