<svg id="Layer_1" data-name="Layer 1" xmlns="http://www.w3.org/2000/svg" viewBox="0 0 6 6">
  <defs>
    <style>
      .icon-quote {
        fill: none;
      }
    </style>
  </defs>
  <title>icon-quote</title>
  <g>
    <path class="icon-quote-fill" d="M2.67,1.807a2.092,2.092,0,0,0-.936,1.139.6.6,0,0,1,.241-.036.814.814,0,0,1,.815.863.958.958,0,0,1-.947.948A1.107,1.107,0,0,1,.775,3.5,2.727,2.727,0,0,1,2.01,1.279Zm2.447,0a2.038,2.038,0,0,0-.936,1.139.59.59,0,0,1,.24-.036.812.812,0,0,1,.8.863.95.95,0,0,1-.948.948A1.1,1.1,0,0,1,3.222,3.5,2.715,2.715,0,0,1,4.445,1.279Z"/>
    <rect class="icon-quote" width="6" height="6"/>
  </g>
</svg>
