<svg xmlns="http://www.w3.org/2000/svg" viewBox="0 0 24 24">
  <g id="ic_crop_square_black_24dp" transform="translate(0 0)">
    <path id="Path_20" data-name="Path 20" class="social-icon-fill-1" d="M0,0H24V24H0Z"/>
    <path id="instagram-2" class="social-icon-fill-2" d="M8.338,3h7.731a5.344,5.344,0,0,1,5.338,5.338v7.731a5.338,5.338,0,0,1-5.338,5.338H8.338A5.344,5.344,0,0,1,3,16.069V8.338A5.338,5.338,0,0,1,8.338,3M8.154,4.841A3.313,3.313,0,0,0,4.841,8.154h0v8.1a3.313,3.313,0,0,0,3.313,3.313h8.1a3.313,3.313,0,0,0,3.313-3.313h0v-8.1a3.313,3.313,0,0,0-3.313-3.313h-8.1m8.884,1.38a1.153,1.153,0,1,1-1.153,1.153,1.153,1.153,0,0,1,1.153-1.153M12.2,7.6a4.6,4.6,0,1,1-4.6,4.6,4.6,4.6,0,0,1,4.6-4.6m0,1.841A2.761,2.761,0,1,0,14.964,12.2,2.761,2.761,0,0,0,12.2,9.442Z" transform="translate(-0.203 -0.203)"/>
  </g>
</svg>
