<svg xmlns="http://www.w3.org/2000/svg" viewBox="0 0 355.27 107.29"><g id="Layer_2" data-name="Layer 2"><g id="Layer_1-2" data-name="Layer 1"><path d="M20.8,76.28c-.2.2-.2,0-.39,0v-.19c-.2-.39-.39-.39-.39-.59s.19-.2.39-.39V73.93h-.2a2.63,2.63,0,0,0-.78.59c-.2.39,0,.78,0,1.18a1.87,1.87,0,0,0,.39,1.37,1.31,1.31,0,0,1,.2,1.18c0,.58.58,1,1,1.37h.39c.39,0,.59-.2.78-.2v-2C22.17,76.28,22,76.09,20.8,76.28Z"/><path d="M59.85,91.39a8,8,0,0,0-1.18.4c0,.19.2.58.2.78a.92.92,0,0,0,1,.59c.39,0,.59-.2,1-.39a2.53,2.53,0,0,1-.59-.4C59.65,92.37,59.65,92.18,59.85,91.39Z"/><path d="M210.94,62.16c1-2,2.75-2.75,4.12-4.13a1.57,1.57,0,0,0,.59-1.76,1.54,1.54,0,0,1-.39-1,1.12,1.12,0,0,0-1.37-.79c-1,.4-2.36.4-3.14,1.38-.2.19-.59.58-.79.58-1.37.4-2.16,1.57-3.14,2.56-1.37,1.57-2.74,3.14-4.31,4.71-.4.58-1,1-1.57,1.76-.59-3.73.59-6.87,1-10.2,0-1,.59-2.16.59-3.14a10.84,10.84,0,0,1,0-2.55,7.83,7.83,0,0,0,.78-3.54c.2-1.37.39-2.94.59-4.31a6.28,6.28,0,0,1,.39-2.75,9.84,9.84,0,0,0,.4-4.12c-.2-2.35-.59-4.71-1-7.26a3.67,3.67,0,0,0-1-2.75,9,9,0,0,1-1.57-3.73,21,21,0,0,0-.78-2c-1.77.39-1.77.39-2-1.37a2.61,2.61,0,0,0-1.18-2,3.09,3.09,0,0,1-2-2.16,2.69,2.69,0,0,0-1.38-1.18,5.3,5.3,0,0,0-1.76.2,2.53,2.53,0,0,1-2.36-.4,1.52,1.52,0,0,0-.78-.39c-.79,0-1-.39-1.38-1-.59-1-1.17-1-2.35-.59a.59.59,0,0,1-.2.39,3.73,3.73,0,0,1,.79,1c-.2.2-.4.59-.79.79a9.71,9.71,0,0,0-4.32,2.55c-.39.2-.78.59-1.17.59-1.77.39-2.55,2-3.53,3.34a2.18,2.18,0,0,0,2.55.39,5.74,5.74,0,0,0,1.57.78c.58.2,1,.39.78,1a1.22,1.22,0,0,1-.78,1.38c-1,.39-.79.39-.59,1.57a2.33,2.33,0,0,1,.19,1.57c-.78,1.76-.39,3.73-1.37,5.49a.6.6,0,0,0,0,.79,3.17,3.17,0,0,1-.2,2,5.6,5.6,0,0,0-.19,1.76v1.18a16,16,0,0,0-.79,2.94,7.21,7.21,0,0,1-.59,1.58,2.2,2.2,0,0,0,.2,3.13,13.68,13.68,0,0,0-1.18,2.36,17.8,17.8,0,0,0-.39,3.34c-.2,2.15-.39,4.31-.59,6.47,0,.39.2.59.2,1s.19,1,0,1.38c-.2.78-.59,1.76-.79,2.55a5.92,5.92,0,0,1-.78,1.17,35.23,35.23,0,0,1-2.94,2.75c-1.18,1-2,2.36-3.34,3.14-.39.2-.79.79-1.18.39a2.12,2.12,0,0,1-.39-1.17,8.51,8.51,0,0,0,.39-2,14.82,14.82,0,0,0,.39-2.94,11.83,11.83,0,0,1,.2-4.51,5.64,5.64,0,0,0,.39-1.77,14.57,14.57,0,0,1,.59-5.69v-.59a24.19,24.19,0,0,1,.2-6.47,2.14,2.14,0,0,0-.2-1c0-1.17-.39-2.35,0-3.33a9.7,9.7,0,0,0,0-4.12c-.19-1.57-.19-3.14-.39-4.71A20.64,20.64,0,0,0,166.2,27a1.31,1.31,0,0,0-.78-1,1.08,1.08,0,0,1-.79-1.18,3,3,0,0,0-2.94-2.35c-.39-.79-.59-1.77-1.57-2a3.54,3.54,0,0,1-2.94-2.74.91.91,0,0,0-1-.59,4.1,4.1,0,0,1-3.54-1.37c-.39.58-1,.39-1.76.19a1.28,1.28,0,0,0-1.18,0,3.94,3.94,0,0,1-4.12.39,1.51,1.51,0,0,0-1.77.2,7.43,7.43,0,0,1-2.15,1.18,1.22,1.22,0,0,0-.79.19,33.77,33.77,0,0,1-2.55,3.14c-.59.4-.79,1.18-1.18,1.77a1.27,1.27,0,0,0,.59,2.16c.79.19,1.57.19,2.36.39a1.64,1.64,0,0,0,1.57-1,17.16,17.16,0,0,1,1-2.16c.39.2.59.2.78.39,1,.79.79,2,.79,3.14,0,.59,0,1-.79,1.18-.39,0-.78.59-.78.79a1.67,1.67,0,0,0,.59,1l1.17.59c.2,1.76-.59,3.14-1.17,4.7.19.79.58,1.38.39,2,0,.19-.79.19-1.18.59a5.23,5.23,0,0,0-.78,3.53c0,.39-.2,1-.2,1.57-.2.39-.2.78-.39,1.17a6.55,6.55,0,0,1-.4,2.75,23.32,23.32,0,0,0-.19,3.73,2.35,2.35,0,0,1-.2,2,7,7,0,0,0-.39,4.91,3.75,3.75,0,0,1-.2,1.57,8.12,8.12,0,0,0-.13,2.76l-5.75,9.21L126.17,82s-.39,1.77-1.37,2.16c-.2.2-.2.59-.39.79-.2.39-.2.59-.39,1a5.55,5.55,0,0,0-1,1.37c-.4.79-.79,1.38-1.57,1.38-.2,0-.59-.2-.59-.4,0-.78.19-1.37.19-2.15s.4-1.38-.19-2.16v-.2c0-.39.19-.78.19-1.18a5.5,5.5,0,0,0,.2-3.14.61.61,0,0,0-.2-.39c-.19-.2-.19-.39.2-.78,1-.79,0-3.73,0-4.91.2-3.14,1.37-6.08,1.57-9,.39-4.9,1.76-12,.59-16.87-.59-2.75.39-5.69.19-8.44-.19-1.77-1.57-3.73-1.17-5.3v-.78c-1-4.91-2-9.42-5.11-13.35-.19-.19-.19-.39-.39-.39-.59-.39-1-.78-1.57-1.18a11.62,11.62,0,0,0-2.55-1.57c-.78-.39-1.77-.19-2.55-1h-.2a3.32,3.32,0,0,1-2,.2c-.78-.39-1.18.2-1.76.39a5.66,5.66,0,0,1-3.14.59h-1.38c-.19,0-.39.2-.59.2-.58.19-1.37.39-2,.59-5.49,1.57-7.65,7.26-9,12.36-2,6.47-3.14,13.34-6.48,19.42-.39.59-.2,1.38-.59,2.16a8.19,8.19,0,0,0-.78,2.36,1.15,1.15,0,0,1-.2.78c-.2.59-.39,1.38-.59,2A10,10,0,0,0,81,57.84c-.19.39-.59.59-.59,1,.2,1-.39,1.77-1,2.75a1.55,1.55,0,0,1-.19-.79V57.64c0-.59.19-1.18.19-1.76.2-1.18-.39-2.56.2-3.73V52a1.81,1.81,0,0,1-.2-2V49.6a2.34,2.34,0,0,1,0-2,3.06,3.06,0,0,0-.19-3.14v-.58c0-.4.19-1,0-1.38-.2-1.17.19-2.35-.4-3.73a.66.66,0,0,0,.2-.39,9.82,9.82,0,0,0,.39-2.16c0-3.92-1.18-12-5.1-13.93a1.63,1.63,0,0,1-1-1c0-.2-.2-.39-.2-.59-1-.39-2-1.18-3.14-1.18-.19,0-.39-.39-.59-.39a3.08,3.08,0,0,0-1.37-.78c0-.2-.39-.2-.59-.2-3.92-1.37-11,1.37-13.73,4.51-.79,1-1,3.73-2.16,4.32-.2,0-.2,0-.2.2-2,4.71-4.32,9.22-6.08,14.13-1.18,3.13-2,6.67-3.34,9.81-.19.19-.19.39-.39.78a7.16,7.16,0,0,1-.78,2.16c-.2.59-.2,1.18-1,1,0-1.57-1-3.14-.39-4.71V50c0-.39-.19-.79-.19-1.37a9.42,9.42,0,0,1-.2-2.36,11.26,11.26,0,0,1-.39-2.55,37.37,37.37,0,0,0-.79-4.51c0-1-.59-2.16-.39-3.34v-.39c-.59-.59-.39-1.18-.59-1.77-.2-.39-.2-.78-.39-1.17-2.75-4.52-5.69-8.84-10-11.78-6.08-4.32-9.81-4.51-15.7,0-2,1.37-4.51,2.55-6.08,4.32-.39.19-.59.59-1,.78-.59.4-1,1-1.57,1.18a6.54,6.54,0,0,1-2,.2,1.74,1.74,0,0,1-.2,1c0,.39.2.39.59.39H2c.2,0,.39.2.59.39a.88.88,0,0,0,1.18.4c.19-.2.39-.2.59-.4.59-.39,1.57-.39,2-1.17.39-.4,2.55-1,2.94-1.38,1-.78,2-2.94,3.53-2.75a2.11,2.11,0,0,1,.59-.19,1.48,1.48,0,0,1,1.38-1c.19,0,.59,0,.59-.2.58-.2.78,0,1,.39a4.83,4.83,0,0,0,.78,1.38,3.16,3.16,0,0,1,.39,2,1.45,1.45,0,0,0,.2,1c1.37,1.37.59,3.53.39,5.3a35.92,35.92,0,0,0-.19,6.47c.39,4.12,1,8.25.59,12.56a86.82,86.82,0,0,0,.19,14.33c.39,3.14.59,7.45,3.34,9.42a.19.19,0,0,0-.2.19c2,.79,2,3,2.75,4.71l.39-.39c-.78-1.18,2.55.59,2.55.59,1.38-.59,2.75,1,3.93,1.37,1.57.59,2.55-.39,3.72,0,.4-.39.59-1.37,1.18-1.76.39-.2,1.18,0,1.38-.2a4.86,4.86,0,0,0,2-3.92v-.4a2.8,2.8,0,0,0,.59-2.16c0-.19.19-.39.19-.58a2.52,2.52,0,0,0,.2-2.36,4.91,4.91,0,0,1,0-3.73c0-.19.2-.39.2-.59-.4-1,.19-2,.39-2.94,0-.39.39-.59.39-1a13.11,13.11,0,0,1,1-2.55.88.88,0,0,0-.39-1.18c-.39-.2-.2-.59-.39-1,.39,0,.59-.2,1-.2v1h.39a9.66,9.66,0,0,0,1-2.55,6.88,6.88,0,0,1,1.18-3.14V52c0-.59.19-1.37.19-2-.19-.39.2-1-.58-1v-.2l.19-.19a4.21,4.21,0,0,1,1,.58,7.21,7.21,0,0,0,1-1.76c.4-.39.79-.79.59-1.38a2.72,2.72,0,0,1,.4-1.17c.19-.79.19-1.38.39-2a.72.72,0,0,1,.19-.58,9.6,9.6,0,0,0,.79-2.56c0-.19.2-.58.2-.78-.4-.59-.2-1,0-1.57a16.44,16.44,0,0,0,1.57-3.14,12,12,0,0,1,1.37-2.75c.39-.78.78-1.37,1.18-2.15.19-.2.19-.59.39-.59.39,0,.59.19,1,.19a1.54,1.54,0,0,0,.59-.19c-.39.39-.59.59-.59.78,0,.59-.2,1.18-.2,1.77a28.36,28.36,0,0,1,.2,4.12v2.16c0,2-.59,4.12-.39,6.08,0,2.35,1,4.51,1,6.67a55.76,55.76,0,0,1-.39,7.85c-.2,3.53.39,7.06.58,10.6,0,.78,1.58,11,1.77,10.79-1,.59-.59,1.37-.39,2.35a5.54,5.54,0,0,1,0,2.56,1.54,1.54,0,0,0,.39,1c.2.19.59.19.79.39s.39.39.39.59c.19,0,0,.39-.2.39-.59,0-.59.39-.59,1v1.57c0,.2.2.2.2.39.39.4.78.79,1.18,1.18,1.17-.39,1.17-.59.78-.78.39-.2.79-.2,1-.4a.88.88,0,0,1,1.18.59c.39.39.39.59.79.2l1.17-1.18a1.44,1.44,0,0,1,1.57-.78,2.29,2.29,0,0,0,2-.2h1a23.45,23.45,0,0,0,5.29-3.92C81.24,77.85,82.42,68.24,86,58.62c1.18-2.94,1.18-6.08,2-9a88.46,88.46,0,0,1,3.53-10c.79-1.77,1.77-3.34,2.55-5.3v.2c.2-.4.59-.59.59-1,.39-1,.79-2,1.18-2.75a5.86,5.86,0,0,1,2.35-2.94c.4-.2,1-.2,1.18.19.39.59.39,1.18,1,1.38v3.14a.7.7,0,0,0,.2.58c.59,1.18.2,2.55,0,3.73a4.15,4.15,0,0,0,0,1.57.26.26,0,0,1,0,.39c-.79,1.18.2,5.89.2,7.07-.2,10.2-1.38,20.21-1.57,30.41h-.2c-.39.59-.2,1,.2,1.18A4.55,4.55,0,0,0,98.7,79c-.19,1,.4,2,0,3.14-.19,9,.4,18.64,8.44,24.33a4.83,4.83,0,0,0,1.37.79c.4,0,1-.2,1.38-.2a7.62,7.62,0,0,0,2.16-.19,2.24,2.24,0,0,1,2,.19c.19-.78.78-1,1.37-1.18.2-.19.39-.39.39-.39a14.74,14.74,0,0,1,1.57-1.76,2.56,2.56,0,0,0,1.38-2.36,4.93,4.93,0,0,1,1-2.35,8.23,8.23,0,0,0,1-1.77c2,0,1.18-2,2.16-2.75,2.35-1.37,3.14-4.71,4.51-6.87a66.2,66.2,0,0,1,4.91-7.84c3-4.41,6.61-8.66,9.45-13,.06.09.11.19.16.27A20.47,20.47,0,0,1,143.25,70,14,14,0,0,0,146,73.93c1.77,2,3.34,3.92,5.1,5.89.59.39,1.38.78,2,1.17,1,.4,2,.4,2.74,1,2.16,1.38,4.52,1.18,6.68.59,1.17-.19,2.15-.78,3.33-1a2.65,2.65,0,0,0,1.77-3.73c-.39-.59-.2-1,.19-1.57.59-.78,1-1.57,1.57-2.35.2-.39.2-.59.59-.79.79-1,1.57-1.76,2.36-2.74a4.06,4.06,0,0,1,2-1.57c.39.78.78,1.37,1.18,2.16a7.07,7.07,0,0,0,1,2.15c1,1.57,2.16,3,3.14,4.52,1,1.37,1.76,2.75,2.74,4.12a3,3,0,0,0,.79.59,10.57,10.57,0,0,1,1.77,1.37,18,18,0,0,0,4.51,1.77c.59.19,1.37,0,2,.59h.79c.39-1,1.37-.59,2.15-.79a2.13,2.13,0,0,0,1.38-.59A16,16,0,0,1,198,83.15c1.38-1,2.95-1.76,3.34-3.73.39-1,.59-1.76-.39-2.55a.84.84,0,0,1-.2-1.37c1.57-1.57,2.35-3.73,3.93-5.1a42.25,42.25,0,0,1,2.94-3.14,8.75,8.75,0,0,0,2.35-3C210.16,63.53,210.75,62.94,210.94,62.16ZM21.19,70.79c-.78-.2-.78-.2-.59-1.77h.2C21,69.61,21.58,70.2,21.19,70.79ZM45.92,48.42c-.2.2-1-.59-1-1a2.86,2.86,0,0,0,1.37-.2l.2.2A4.84,4.84,0,0,1,45.92,48.42Zm1.57-9.62c.19-.19.39-.58.78-1a2.53,2.53,0,0,0,.79.59C48.66,39,48.08,38.8,47.49,38.8ZM59.26,78.44c-.78.2-1.37.2-1.57-.39A4.76,4.76,0,0,1,59.26,78.44Zm-.2,5.1c-.39,0-.58.2-1.17.2v-.59h1.17l.2.2A.19.19,0,0,0,59.06,83.54Zm.2-2.15a2.84,2.84,0,0,1-1.37-.2.42.42,0,0,1-.39-.39c.39.19,1.17-.79,1.56.39a.61.61,0,0,0,.2-.39h.2A2,2,0,0,1,59.26,81.39Zm33-53.77a.72.72,0,0,1-.59.2.2.2,0,0,1-.2-.2c.2-.39.39-.39.59-.59h.2C92.23,27.23,92.42,27.62,92.23,27.62Zm28.06,64.56a.87.87,0,0,1-.59-.59c0-.39.2-.79,1-.79,0,.2.39.4.39.59C120.88,91.79,120.68,92.18,120.29,92.18Z"/><path d="M262.94,10.74a2.2,2.2,0,0,0,1,1.57,2.16,2.16,0,0,1,.59,1,11.68,11.68,0,0,1,1.57,1.38A13.63,13.63,0,0,0,267.85,16c.39.79.78,1,1.17,1a3.59,3.59,0,0,1,3,2c0,.19.19.39.39.78v-.2c1,.2,2,.79,2.94,1a3.72,3.72,0,0,1,2.55-.19c1.77.39,3.34-.2,3.93-2,1.18.19,1.37-1.18,2.16-1.38.19-1,.39-2,.59-2.74.39-.79-.2-2,.78-2.36.2-.2.2-.78.2-1a8,8,0,0,0-1.57-4.71,6.64,6.64,0,0,1-1.77-2.35c-.39-.79-.39-1.57-1-1.77A8.91,8.91,0,0,0,278.83.93a5.64,5.64,0,0,1-1.76-.39c-1.57-.59-3.34-1-4.91.39-.78.59-1.37,1-2.16.2a5.53,5.53,0,0,0-4.31.39c-1.18.39-1.77.79-2,1.77s-.39,1.76-1.56,2.16c-.79.39-.79,2-.4,2.94A23.32,23.32,0,0,1,262.94,10.74Z"/><path d="M297.67,63.14a9.25,9.25,0,0,0-2,3.92c.2.39.59,1,1,1.57a11.54,11.54,0,0,0,2-3.14,4.9,4.9,0,0,0,.2-2.35Z"/><path d="M295.12,68.63c-1.57.59-2.16,2-3.14,3.14a4.06,4.06,0,0,0-1,2.94,1,1,0,0,1-1.18,1.18c-2.94.59-4.31,2.94-5.88,4.71a6.09,6.09,0,0,1-2,2v-2c0-.39.2-1.18.2-1.77a11.38,11.38,0,0,1,.59-5.69A2.84,2.84,0,0,0,283,72a6.81,6.81,0,0,0,0-2,20.07,20.07,0,0,1,0-4.9c.19-1.18-.2-2.55.19-3.73.79-1.57.39-3.14,0-4.91-.39-2.15-.19-4.51-.39-6.67s.78-3.92-.2-5.88a.7.7,0,0,1,.2-.4,10.86,10.86,0,0,0-.2-1.37c0-.39-.59-.59-.59-1a2,2,0,0,0-.59-2c-.19-.4-.78-.79-1-1.38H279c.59-1.76-.78-2.74-1.37-3.73-.59-1.37-1-2.74-2.36-3.72-.78.39-1.76.19-2-.4a10.87,10.87,0,0,0-3.53-3.14c-.79-.39-1.57-.58-1.77-1.37-1-1.37-2.55-1.57-3.92-2.55a1.92,1.92,0,0,0-2,.39c-.4.79-1,1-2,.79-.39-.4-.59-.79-1-1.18a8.85,8.85,0,0,0-1.37,1.37,8.5,8.5,0,0,1-2.95,2.95,2.8,2.8,0,0,0-1.17,2.35,1.18,1.18,0,0,1-.2.79c-1.18,1-1.18,2.55-1.57,3.92-.2.2,0,.59,0,.79.39,0,.59-.2.79-.2a14.6,14.6,0,0,1,3.33-2.75,13.59,13.59,0,0,0,2.16-4.51,1.49,1.49,0,0,1,1.57,1.18,10,10,0,0,1,1.37,5.88,15.59,15.59,0,0,0,.2,4.12v.59a5.35,5.35,0,0,0-.35,1.32,7.49,7.49,0,0,0-4,2,8.42,8.42,0,0,1-2,1.76c-.78.59-2,1.18-2.74,1.77a14,14,0,0,0-2,2.75c-1.17-.2-1.76,0-2,.78-.59,1.77-2.16,1.77-3.14,2.75a3.35,3.35,0,0,1-.78-1c-1.18-2.36-2.36-4.71-3.73-7.07a4.42,4.42,0,0,0-.79-1,8.32,8.32,0,0,0-1.17-1.37c-.59-.78-1-2-2.36-2.36-.2,0-.59-.58-.59-1.17,0-.2.39-.59.79-1a6.42,6.42,0,0,0,.59,1.57h1.37L240,37.82a3.64,3.64,0,0,0,1.38-3.53,4.28,4.28,0,0,0-.59-1.37,5.18,5.18,0,0,1,1.37-1.57c.2.19.39.19.59.39a9,9,0,0,0,.39-3.14,17.43,17.43,0,0,1-.19-3.14,47.73,47.73,0,0,1-.59-5.3,6.45,6.45,0,0,0-1.18-3.73A2.47,2.47,0,0,0,239,15.26c-.39,0-1,0-1-.2a1.93,1.93,0,0,0-2.35-.59.89.89,0,0,1-1,0,6,6,0,0,0-4.12,0c-.19.2-.58,0-.78,0-.59.2-1.37.39-2,.59-2,.39-3.93.79-5.69,1.18a.7.7,0,0,1-.4-.2c-1,.39-2.15.39-2.94,1.18a17.15,17.15,0,0,1-3.14,2,3.39,3.39,0,0,0-1.18,3.53,8.54,8.54,0,0,0,.79,2,3.07,3.07,0,0,0-1,3.53v1.18a3.42,3.42,0,0,0,.19,1.37c.79,1,.79,2,1.18,2.94a48.29,48.29,0,0,0,1.77,4.91,9,9,0,0,0,2,2.75,5.51,5.51,0,0,1,.78,1.17c.79,2.16,2.36,3.73,3,5.89,0,.2.19.39.39.78,1.37,2,2.94,3.54,3.34,6.09,0,.19.39.39.39.59,1,2.15,2.55,4.12,2.75,6.67a1.87,1.87,0,0,1-.79,2.16c-1.57,1.37-3.34,2.55-4.9,3.72a50.9,50.9,0,0,1-5.3,3.73c-.79.59-1.18,1.38-2,1.77a5.18,5.18,0,0,1-1.76,1,3.35,3.35,0,0,0-2.55,2.55A4.68,4.68,0,0,1,211.33,80a3.4,3.4,0,0,1-.39-1c0-1,.2-2,.2-2.75h.19c-.58-.19-1.17-.19-1.76-.39-.2,1.37.19,2.55-1,3.53.39,1,1,2,.59,3a.87.87,0,0,0,.19,1c.79,1.18,1.57,2.55,2.16,3.53a9.31,9.31,0,0,1-.59,1.37,3.54,3.54,0,0,0,2.55,1.57c1.38.59,2.36,2,4.12,2.36.2,0,.2.39.4.59,0,.39.19.59.19.78a38.44,38.44,0,0,0,6.09,1.38,11.39,11.39,0,0,0,5.1,0,13.59,13.59,0,0,1,2.94-.2h.39a3.94,3.94,0,0,0-.19,1.37,9.31,9.31,0,0,1,1.37.59,23.16,23.16,0,0,1,4.71-2.94c0,.59-.2,1-.2,1.76a10.74,10.74,0,0,1,1.38-1c1-1.37,1.57-2.74,2.74-3.53.59-.59,1.18-1.37,1.77-2a12.86,12.86,0,0,0,2.94-4.32c.2-.78,1-1.37,1.57-2a5.75,5.75,0,0,0,1.38-3.14c.19-.79.19-1.57.39-2.36.59-1.76,1.37-3.72.59-5.88a7.26,7.26,0,0,1-.2-2.16,5.16,5.16,0,0,0-1-3.73c0-.2-.2-.59-.2-.78a23.69,23.69,0,0,0-2.15-6.28v-.79a13.19,13.19,0,0,1,1.57-1.76,2.53,2.53,0,0,0,1.17-3,.71.71,0,0,1,.4-.19c.19-.2.39-.2.58-.4.59-1,.59-1,1.57-.39.2.2.4.2.79.39.78-1.17,1.57-2.15,2.35-3.33a1.88,1.88,0,0,1,2-.79.67.67,0,0,1,.39-.19,2.7,2.7,0,0,1,.39-1.18,7,7,0,0,0,1.83-.43,10.29,10.29,0,0,1-.46,2.78c-.39.59,0,1.57,0,2s.39.59,0,1c-.39,1.76-.59,3.53-.78,5.1A5.06,5.06,0,0,0,259.6,59v2.15c0,2-.39,3.93.2,5.89v.39c-.2,1.38-.2,3-.39,4.52v1.57c.78,2.16.19,4.12.78,5.88.39,1.77.59,3.34.79,4.91a3.14,3.14,0,0,0,2.16,2.75c1,1,1,1.37.58,2.74,0,.4,0,.59-.19.79.59.39,1,.78,1.57,1.18a10.13,10.13,0,0,0,5.3,4.12c.39.19.78.19,1,.78.59,1.18,1.37,1.57,2.16,1.38a6.91,6.91,0,0,0,2-.4c.59-.19,1.37-1,1.76-1,1.18.59,1.77-.39,2.36-.78,1.18-.79,2.16-2,3.14-2.55a8.86,8.86,0,0,0,1.77-2.16,23,23,0,0,0,2.15-3.14c.4-1,1.57-1.38,1.77-1.77.59-1.76,2.35-2.35,2.16-4.32,0-.19.19-.39.19-.58.4-.79.59-1.38,1-2.16a16.76,16.76,0,0,1,2-3.73c.19,0,.19-.2.19-.39a6,6,0,0,1,1.57-3.54c.59-1,.59-1.17,0-2.15C295.32,69.22,295.32,68.83,295.12,68.63ZM231,71.38a29.3,29.3,0,0,0-1,4.12c-.4,2-1.77,3.73-2.75,5.49a11.54,11.54,0,0,1-1.77,3,1.59,1.59,0,0,1-1.17.78,2.13,2.13,0,0,0-2,1.38,2.58,2.58,0,0,0-2.35.58c-1,.79-2.16.2-2.95-1-.78.59-1.17-.19-2-.59-1-.19-.59-1-.78-1.76-.59-2.75,1-4.32,2.74-5.69h.4c-.4,1.17-.79,2.35-1.18,3.53.39.59.78,1,1.18.2,1.17-1.18,2.16-2.56,3.33-3.93a12.91,12.91,0,0,1,5.5-4.71c.19-.19.59-.39.59-.59,1-1.37,2.35-1.76,3.53-2.55A1.59,1.59,0,0,1,231,71.38Zm2.35-35.32c0-.59,1-1.18,0-2-.19.2-.39.2-.78.4a1.09,1.09,0,0,1-1.38-.59c-.39-.79-1-1.37-1.37-2.16l-.59-.59c0-1.76-1-3.33-.59-5.3a2.54,2.54,0,0,0-.39-2c.2-.2.2-.39.39-.59,1-2.35,2-2.75,4.52-2.16,1,.4,2,.59,3.13,1,.4,1.57,1.18,3.34.59,5.11v.59a3.56,3.56,0,0,1-.39,3.13c1,1.38,1,1.58-.39,2.75-.2.2-.39.2-.59.39C234.88,35.27,234.88,35.27,233.31,36.06Zm1.77,1.37c-.2,0-.59-.39-1.18-.78a23.72,23.72,0,0,0,2.16-1A1.37,1.37,0,0,1,235.08,37.43Z"/><path d="M354.77,49c-2.55-1.57-4.9,1.76-6.08,3.53a102.36,102.36,0,0,1-7.46,8.24c-2.16,2.16-4.9,3.34-6.87,5.5-1.17,1-1.76,2-3.33,2.55a13.57,13.57,0,0,1-6.87.19c-2.75-.78-3.92-1.57-4.71-4.71-1-3.14,1-7.06,1.37-10.59.4-2.95.4-6.09,1.57-9,2.16-6.08,4.52-12.16,5.11-18.44.19-3.73-.4-7.85-.59-11.78a1.15,1.15,0,0,1,.78.2,1,1,0,0,0,1.38-.2.85.85,0,0,1,1.37.39c.78,1,1.77,2.16,1.77,3.54.19,1.17.58,2.15.78,3.14a34.42,34.42,0,0,1,1.37,9,2.9,2.9,0,0,0,.2,1.38c.2,2.15.59,4.9,2.75,5.29.19,0,.78.2.78,0,.2-.19.2-.78.2-1.17s-.39-.59-.59-1c-.2-.79-.78-1.77,0-2.55v-.4a19.38,19.38,0,0,1,1-5.88c.2-.4,0-.59,0-1.18a8.22,8.22,0,0,0-.39-2.95.88.88,0,0,1,0-1c.39-1.17-2-4.31-2.75-5.29-.78-1.18-2.35-2-3.53-3.14-.59-.4-1.37-1-2-1.38a3.87,3.87,0,0,1-1.57-.78c-1.18-.59-2,0-3-.2-1.37,0-2.55-.59-4.12-.59a6,6,0,0,0-4.31,1.38c-3.34,2.15-4.91,6.28-7.07,9.61a87,87,0,0,0-7.85,16.09c-2.94,8.44-4.51,19-2.94,27.87.78,4.12,2,8.43,4.9,11.38,6.87,7.26,12.76,8.24,22.37,7.06.4-.39.79-.39.79-.78a1.23,1.23,0,0,1,.78-1.18,19.88,19.88,0,0,1,1.77-2.36c.39-.39.79-1.17,1.57-1.57a2.22,2.22,0,0,0,1-1.37c.59-1.76,2.16-3.33,3.34-4.71.59-.39,2.55-1.37,2.74-2.16,0-.78,0-1.17.79-1.37,1,0,1.18-.79.78-1.18-.39-.59,0-1.18.4-1.57,1.17-1.17,2.55-2,3.53-3.53a19.67,19.67,0,0,1,2.94-2.75,22.34,22.34,0,0,0,2.55-2.16,2.55,2.55,0,0,1,2.16-1.37c.2,0,.39,0,.39-.19,1-1.38,2.16-2.75,3-4.13A1.21,1.21,0,0,0,354.77,49Z"/></g></g></svg>