<svg id="svg-tn" data-name="svg-tn" xmlns="http://www.w3.org/2000/svg" viewBox="0 0 603.61 275">
  <defs>
    <style>.tn-letter{fill:#00FFA7;}</style>
  </defs>
  <g class="firstname">
    <path class="tn-letter" d="M71.4,83.68q.85,1.36.77,1.7a8,8,0,0,1-1.1,1.7c-.23.23-.34.4-.34.51a8.2,8.2,0,0,0,.17,1l-1,.68A5.71,5.71,0,0,0,69,90a3.05,3.05,0,0,0-.85.85q-.51,1.19-1.1,2.29a6.6,6.6,0,0,1-1.61,2c-.23.11-.34.4-.34.85a7.59,7.59,0,0,0-1.19,1.87l-.51.51a4.8,4.8,0,0,1-1.7,3,11.8,11.8,0,0,0-2.38,2.64,11.9,11.9,0,0,1-.85,1.1,2.31,2.31,0,0,1-1.36.76A.35.35,0,0,1,57,106a.34.34,0,0,0-.08.25,2,2,0,0,1-2,1.53c-.91.11-1.36.57-1.36,1.36a1.63,1.63,0,0,1-1,1.53L50.92,112a17.24,17.24,0,0,0-1.62,1.45,2.6,2.6,0,0,1,.34,1c-.11,0-.17,0-.17.08s-.06.08-.17.08l-1.61.34a2.61,2.61,0,0,0-1.44,1,3,3,0,0,1-.94.6,2.89,2.89,0,0,0-.94.59,5.87,5.87,0,0,0-1.19,1.19c-.34.57-.6.88-.77.94a3.75,3.75,0,0,1-1.27-.08,4,4,0,0,0-1.87-.25q-1,.08-2,.25-.17,0-.25.25a.79.79,0,0,1-.43.42,6.31,6.31,0,0,0-3.23-.17,2.56,2.56,0,0,1-1.44.25,14.19,14.19,0,0,0-1.61-.08,2.72,2.72,0,0,1-1.53-1.19q-.85-1.7-2.38-1a1.8,1.8,0,0,1-1.7-.85q-.85-1.53-1.78-3.06t-1.79-2.89c-.45-.68-.94-1.33-1.44-2a6.15,6.15,0,0,1-1.1-2q-.34-.85-.77-1.7a4.5,4.5,0,0,1-.43-2,10.2,10.2,0,0,0-.25-2.29q-.25-1.1-.59-2.29a4.42,4.42,0,0,1-.26-.59L16,97.28,12.92,93.2a2.46,2.46,0,0,1,.51-.43.92.92,0,0,0,.34-.42A4.15,4.15,0,0,0,14,89a17.3,17.3,0,0,1-.76-3.57,21.64,21.64,0,0,1,.59-7.4,29.79,29.79,0,0,0,.94-7.39q0-4.42-.34-9t-.51-9H0V49.68H13.94a71.18,71.18,0,0,1,.17-8.58q.34-4.16,1-8.42l1-5.1q.51-2.55,1.19-4.93a39.92,39.92,0,0,0,.85-3.91A9.05,9.05,0,0,0,18,14.83a3.12,3.12,0,0,1,0-2,6.28,6.28,0,0,0,.42-2.64A5.08,5.08,0,0,1,19,7.52a1.47,1.47,0,0,0-.51-1,.78.78,0,0,0-.43-.42,1.65,1.65,0,0,1-.59-.43,1.56,1.56,0,0,1-.34-2.55l.34-.68.34-.68L18.7.89A1.27,1.27,0,0,0,20,.89,1.68,1.68,0,0,1,21.25.72h.68a1,1,0,0,0,.68-.34A1.73,1.73,0,0,1,24,0a9.68,9.68,0,0,1,1.19.51,3.16,3.16,0,0,0,.68.25,3.63,3.63,0,0,1,.68.25h.68a4,4,0,0,0,2,1.11q1.1.25,2.13.59a12.65,12.65,0,0,0,1.7.68.15.15,0,0,0,.17.17h.17A6.2,6.2,0,0,0,35.44,5,5.26,5.26,0,0,1,37.57,6.5a12,12,0,0,1,2.21,4.08,17.84,17.84,0,0,1,.76,4.59,33.57,33.57,0,0,1-.17,4.76,43.18,43.18,0,0,0-.25,4.59q-.17,3.23-.6,6.38t-1.1,6.38A27.59,27.59,0,0,0,38,41a28.38,28.38,0,0,1-.43,3.74q-.17,1.36-.25,2.46a15.23,15.23,0,0,1-.42,2.46H55.08v2.89H36.55A9.94,9.94,0,0,0,36.21,55q-.68,5.44-.94,11t-.25,11q0,3.23.08,6.38t.25,6.38q0,3.23.26,6.38t.59,6.38q.17,2.38.51,4.84a7.44,7.44,0,0,0,2.21,4.33A3.25,3.25,0,0,0,41.14,113a5.84,5.84,0,0,0,2.38-.34,10,10,0,0,0,2.29-1.19,14.28,14.28,0,0,0,2-1.62q1-.85,2-1.78A8.66,8.66,0,0,1,52,106.46a3,3,0,0,1,2.13-.6,1.45,1.45,0,0,0,1.62-1.27,14.2,14.2,0,0,0,.59-1.36,3.32,3.32,0,0,1,.77-1.19q1-1.36,2-2.64A28,28,0,0,0,61,96.77a13.78,13.78,0,0,1,1.19-2,13.92,13.92,0,0,0,1.19-2A10.55,10.55,0,0,1,64.6,91a6.08,6.08,0,0,0,1-1.87l.51-.51a5.8,5.8,0,0,0,1.28-1.87c.28-.68.59-1.36.93-2a5.82,5.82,0,0,1,.85-1.7l2,.51ZM60.52,101.36q.51-.85-.51-2.21a4.27,4.27,0,0,0-.43,1.19,2.66,2.66,0,0,1-.42,1C59.84,101.59,60.29,101.59,60.52,101.36Z"/>
    <path class="tn-letter" d="M120.36,94.39a1.9,1.9,0,0,1,1.87.68,2.94,2.94,0,0,1,.68,1.87l-.34,1a1.6,1.6,0,0,1-1,.85q-1,.68-2,1.28a7.81,7.81,0,0,0-1.79,1.62,1,1,0,0,0-.34.68q-.34,0-1.44,1.87t-2.55,4.5q-1.45,2.63-3.06,5.87l-3,5.95q-1.36,2.72-2.38,4.68a19.66,19.66,0,0,1-1.19,2.13,15.47,15.47,0,0,1-1.78,1.53,6.65,6.65,0,0,1-2.3,1c-.45.11-.68.51-.68,1.19a1.65,1.65,0,0,0-.43.6,5.27,5.27,0,0,1-.25.59,21.63,21.63,0,0,0-1.87,2,2,2,0,0,1-2.21.68h-.76a1.71,1.71,0,0,0-.94.34H92c-.57-.23-.91-.28-1-.17a4.43,4.43,0,0,1-3.23-1,8.76,8.76,0,0,1-3.23-2.72,3.28,3.28,0,0,1-.25-.68c-.06-.23-.14-.51-.25-.85a6.71,6.71,0,0,1-.6-1.11c-.17-.4-.31-.76-.42-1.1a6.21,6.21,0,0,1-.43-1.53,12.13,12.13,0,0,0-.25-1.36q-.34-1.19-1.19-1.19a1.13,1.13,0,0,1-.68-.25,6.12,6.12,0,0,1-.68-.6,6.7,6.7,0,0,0,.59-.68,4.7,4.7,0,0,0,.43-.68,2.52,2.52,0,0,0,.08-1.7,1.78,1.78,0,0,0-1.1-1.19c-.68-.68-.85-1.25-.51-1.7a3,3,0,0,1,.34-1.36,3.8,3.8,0,0,1,.08-.76,1.17,1.17,0,0,0-.08-.77,10.1,10.1,0,0,0-.17-1.79,9.34,9.34,0,0,0-.51-1.78,5.81,5.81,0,0,1,.17-2.47c.23-.74.45-1.44.68-2.12a5.26,5.26,0,0,0,.17-2.21,6,6,0,0,1,.08-1,7.43,7.43,0,0,0,.08-1.19A9,9,0,0,1,80.66,99a20.79,20.79,0,0,0,.77-2.21,14.91,14.91,0,0,0,.68-3.06q.17-1.53.51-3.23a2.59,2.59,0,0,1,.85-1,2.75,2.75,0,0,0,.68-2,2.35,2.35,0,0,1,.08-1.87c.28-.57.59-1.13.94-1.7Q86.7,81,83.81,79.6a6,6,0,0,1-1.19-1,11.9,11.9,0,0,1-1.53-1.36q-.68,1.19-1.27,2a3.46,3.46,0,0,0-.6,2c-.23.57-.42,1-.59,1.36A5.45,5.45,0,0,0,78.2,84c-.34.34-.51.57-.51.68-.23.57-.45,1.1-.68,1.61s-.45,1-.68,1.62q-.85,1.36-1.44,2.55a17.87,17.87,0,0,1-1.44,2.38,15.16,15.16,0,0,0-1.53,2.21,17.56,17.56,0,0,0-1.19,2.55,3.37,3.37,0,0,1-.85,1.1c-.34.28-.74.65-1.19,1.11a5.93,5.93,0,0,0-.08-1.11,3.76,3.76,0,0,1-.08-.76,11.77,11.77,0,0,0-1.36,1.53,6.46,6.46,0,0,0-.6.68c-.17.23-.37.51-.59.85a2.41,2.41,0,0,1-2.38,1.7,6.14,6.14,0,0,0-.42,1.62,1.33,1.33,0,0,1-.94,1.1,3,3,0,0,1-1.36.34,3,3,0,0,0-1.36.34,28.25,28.25,0,0,1-3.06,4.5,6.88,6.88,0,0,1-2.55,2.13,1.4,1.4,0,0,1-.17-.6,1.35,1.35,0,0,0-.17-.59c-.23-.23-.37-.34-.42-.34s-.2-.11-.43-.34a1.05,1.05,0,0,0,.25-.42,1.1,1.1,0,0,1,.26-.43,1.25,1.25,0,0,1,.51.43,3,3,0,0,0,.34.42,4.16,4.16,0,0,0,2.38-2.21c.11-.34.25-.71.42-1.11a1.88,1.88,0,0,1,.94-.93c.23-.11.34-.25.34-.42a.59.59,0,0,1,.17-.43,3.17,3.17,0,0,0,.6-.85,3.28,3.28,0,0,1,.6-.85,4.47,4.47,0,0,0,.25-.6,5.37,5.37,0,0,1,.25-.59,3.11,3.11,0,0,1,.68-1.45q.51-.59,1-1.27a8.06,8.06,0,0,0,2-3.06,7.39,7.39,0,0,1,.68-1.36q.34-.51.85-1.19l.17-.17q1.87-2.89,3.91-6.29a17.36,17.36,0,0,0,1.44-2.89,24.58,24.58,0,0,0,.94-2.89A26.28,26.28,0,0,1,73.18,79a32.42,32.42,0,0,0,1.45-3.15c.23-.34.42-.65.59-.93a4.69,4.69,0,0,0,.43-.94,1.53,1.53,0,0,0-.51-1.36,2.5,2.5,0,0,1-1.19-2.38c0-.11-.11-.28-.34-.51a2,2,0,0,1-.6-.93c-.06-.28-.14-.65-.25-1.1q0-1.19-1.53-1.53a3.17,3.17,0,0,1-2.38-1.7c-.34-.57-.4-1-.17-1.19a2.5,2.5,0,0,0,.25-1.87c-.17-.57-.31-1.13-.42-1.7s-.2-1-.25-1.45S68.11,57.45,68,57a3.67,3.67,0,0,0,1.7-2,7.78,7.78,0,0,0,.34-2.3,4.82,4.82,0,0,0-.08-.93.8.8,0,0,1,.26-.76,1.16,1.16,0,0,0,.34-.85,6,6,0,0,1,1.27-2.46,4.32,4.32,0,0,1,2.29-1.45,4,4,0,0,1,.77.08,3.78,3.78,0,0,0,.77.09c.45.57.85.68,1.19.34a2.07,2.07,0,0,1,1.53-.08A4.32,4.32,0,0,0,79.9,47a6.43,6.43,0,0,1,1.53.17q.68.17,1,1.19,0,.34.68.68a2.79,2.79,0,0,0,.34-1.53,3.43,3.43,0,0,1,1.1.85,6.4,6.4,0,0,1,.77,1.19,2.76,2.76,0,0,1,.51.68,2.88,2.88,0,0,1,.68,1.11q0,.25-.85,1.1l-.34.68a1.35,1.35,0,0,0,.59.17.59.59,0,0,1,.43.17l.68.68a1.31,1.31,0,0,0,.09,1.36A1.62,1.62,0,0,1,87.21,57c-.11.34-.26.74-.43,1.19a1.33,1.33,0,0,0-.08,1,1.84,1.84,0,0,1,0,1.1,3,3,0,0,0-.17,1.11,2.49,2.49,0,0,1-1.19,1.53q-.51.34-.51,1.53.34,1.36.51,2.21a6.73,6.73,0,0,0,3.06.68A7.6,7.6,0,0,1,93,68.72a.5.5,0,0,1,.34.17,3.62,3.62,0,0,1,2.72.76,6.69,6.69,0,0,0,2.55,1.28,6.25,6.25,0,0,1,2.89,1.36,6.18,6.18,0,0,0,2.38.85,7.91,7.91,0,0,1,4.25,4.08v.17a2.38,2.38,0,0,1,1,1.79V81.3a11.51,11.51,0,0,1-.59,3.66,38.06,38.06,0,0,1-1.45,3.65q-.51,1.87-1,3.57a32.75,32.75,0,0,0-.85,3.57,3.85,3.85,0,0,1-1.53,2.38,1.49,1.49,0,0,0-.85,1.7,5.74,5.74,0,0,1-.51,3.74,4.33,4.33,0,0,0-1,2q-.17.94-.51,2.29c-.11.45-.23.94-.34,1.45a10.8,10.8,0,0,1-.51,1.62,9.61,9.61,0,0,1-.34,2.21c0,.45-.06.68-.17.68a4.39,4.39,0,0,0-.77,2.13q-.09,1.1-.25,2.13a17.94,17.94,0,0,0-.51,2.29,5.28,5.28,0,0,1-.85,2.13,1.65,1.65,0,0,0,.17,1.87l2-1a10,10,0,0,0,1.27-.77l1.19-.85a14.4,14.4,0,0,0,1.62-1.45,19.79,19.79,0,0,0,1.19-2l2.46-4.5q1.44-2.64,3.06-5.7t3.06-5.69q1.44-2.63,2.46-4.42c.68-1.19,1.13-1.79,1.36-1.79a7.28,7.28,0,0,0,1-.68A3.66,3.66,0,0,1,120.36,94.39Zm-66,14.45a3.66,3.66,0,0,1,1.7-3.4A4.52,4.52,0,0,1,54.4,108.84ZM68.17,51.38A10.12,10.12,0,0,1,67,52.74a2.25,2.25,0,0,1,.17-1.19A1.78,1.78,0,0,1,68.17,51.38ZM70.89,47a1.62,1.62,0,0,1-.76.34,1.39,1.39,0,0,0-.6.17.5.5,0,0,0-.17-.34Q69.52,46.28,70.89,47ZM69.53,95.75q.51-.17.94-.34c.28-.11.48-.45.59-1a2,2,0,0,0-1.27.25A1.65,1.65,0,0,0,69.53,95.75Zm1.19-14.28a.48.48,0,0,0,.17.34l-.34.34a1.93,1.93,0,0,1-.51.34,1.35,1.35,0,0,0-.17-.51,1.1,1.1,0,0,1,.43-.25A1.05,1.05,0,0,0,70.72,81.47Zm9.35-23.12q1.19-.85,1.27-1.19a3.37,3.37,0,0,0-.42-1.53,1,1,0,0,1-.26-.42.79.79,0,0,0-.42-.43c.45-.45.68-.79.68-1q-.17-.85-.34-1.53A3.84,3.84,0,0,0,80.07,51q0-.34-.85-.85a.75.75,0,0,0-.85.85,1.52,1.52,0,0,1-.17.68q-.85-1.19-1.53-.76a4.5,4.5,0,0,1-1.53.59,1.15,1.15,0,0,1-.85-.34,6.84,6.84,0,0,1-.85,1l-.85.85q.85.85,1.36.17a1.47,1.47,0,0,1,1.19-.68.5.5,0,0,1,.17.34A8.65,8.65,0,0,1,74.63,57a6.43,6.43,0,0,1,1.19,1.53q.68,1.36,1.19,2.63t1.19,2.64a2.26,2.26,0,0,1,1.36-.51q.17-1.36.26-2.55C79.87,59.94,80,59.15,80.07,58.35Zm-1.19-4.93a6.56,6.56,0,0,1,.42,1.87q.08,1,.25,2a11.6,11.6,0,0,0-.85,1.19,3.55,3.55,0,0,1-.6-2.63q.25-1.27.42-2.46Zm.51,66.64h.34v1.53h-.34Zm3.74-55.59a2.67,2.67,0,0,1,.68-.51c.23-.11.23-.4,0-.85h-.68c-.34.23-.45.45-.34.68Zm1.19-11.39a4.61,4.61,0,0,0-.08,1.44c.06.17.37.31.94.43a1.82,1.82,0,0,1-.08-1Q85.17,53.25,84.32,53.08Zm1,4.42a2.16,2.16,0,0,1-.51,1c-.23.23-.11.45.34.68.23.34.42.42.59.25l.6-.6a2.3,2.3,0,0,0-.43-.59A5.1,5.1,0,0,1,85.34,57.5Z"/>
    <path class="tn-letter" d="M195.84,83.34c.79.11,1.19.74,1.19,1.87a3.27,3.27,0,0,1-2,3.06c-.23.23-.51.48-.85.77s-.62.54-.85.76l-3.57,4.59a7.54,7.54,0,0,0-1.87,2.38,9.07,9.07,0,0,1-1.7,2.38,10,10,0,0,1-1.36,1,5.44,5.44,0,0,1-1.36,3.4l-.68,1.36q-.34.68-.68,1.53a6.45,6.45,0,0,1-1.7,2.38,1.14,1.14,0,0,0-.51,1,14.21,14.21,0,0,1-3.06,5.44l-.68.68a5.32,5.32,0,0,0-.68.85,1.82,1.82,0,0,1-.6.85,8.56,8.56,0,0,0-.77.68,10.7,10.7,0,0,0-1.19.68,6.72,6.72,0,0,0-1,.85,2.65,2.65,0,0,1,.51.68,2.61,2.61,0,0,0,.51.68q-.17.85-1.36,1.19a6.81,6.81,0,0,1-2.47.85,5.43,5.43,0,0,0-2.47,1c-.23.23-.4.34-.51.34a20.62,20.62,0,0,0-4.18.08,7.41,7.41,0,0,1-4-.59,4.29,4.29,0,0,0-1.88-.59,11.87,11.87,0,0,1-2.22-.42v-.51a2.58,2.58,0,0,0-1.37-2.55l-.34-.34q-.85-1.36-1.71-2.63t-1.71-2.63a5.47,5.47,0,0,1-.68-2,18.07,18.07,0,0,0-.51-2.38,4.16,4.16,0,0,1-.43-1.36,12.13,12.13,0,0,0-.26-1.36,16.12,16.12,0,0,1-.17-2.29,16.48,16.48,0,0,0-.17-2.29,3.62,3.62,0,0,1,.17-.93,4.1,4.1,0,0,0,.17-1.11,2.77,2.77,0,0,0-.08-1.53,1.73,1.73,0,0,1,.26-1.53,1.06,1.06,0,0,0-.17-.6,5.07,5.07,0,0,1-.34-.59,1.57,1.57,0,0,0-1.2.17,15.66,15.66,0,0,0-1.71,1.19l-1.71,1.36a11.31,11.31,0,0,1-1,1.19l-1,1a2.67,2.67,0,0,0-2.22.6,5.1,5.1,0,0,1-2,1.1c-.57.23-.91.31-1,.25a10.1,10.1,0,0,1-1-.76,5.78,5.78,0,0,0-.6,1.19,5.81,5.81,0,0,1-.6,1.19,1.7,1.7,0,0,1-1,.42,1.16,1.16,0,0,1-1-.25.48.48,0,0,1-.17-.34,5.54,5.54,0,0,1-2.22.17q-1.37-.34-2.56-.59a3.26,3.26,0,0,1-2-1.62,1.25,1.25,0,0,1-.34-.93,1.07,1.07,0,0,0-.51-.94,17.91,17.91,0,0,1-3.07-4.59,5.69,5.69,0,0,1-.68-2.55,4.56,4.56,0,0,1-.42-1.11,1.51,1.51,0,0,0-.43-.76,23,23,0,0,1-1.19-2.38,9.3,9.3,0,0,1-.68-2.55,44.51,44.51,0,0,1-.43-4.85q-.09-2.46-.42-5.18c.45.11.85.2,1.19.25s.74.14,1.19.25a2.77,2.77,0,0,1,.17-.85,3.25,3.25,0,0,0,.17-1,2.48,2.48,0,0,1,.43-2.29l1.45-1.79a3.9,3.9,0,0,0,.85-1.53,8.31,8.31,0,0,1,3.07-3.74.91.91,0,0,0,.42-.34.93.93,0,0,1,.43-.34,11.1,11.1,0,0,0,1.19-1l1.2-1.19a2.41,2.41,0,0,1,1.28-2,10.72,10.72,0,0,1,2.47-.94l.51-.25a2.34,2.34,0,0,0,.51-.42c.68-.45,1.14-.74,1.37-.85q1.71-.34,3.32-.59a13.1,13.1,0,0,1,3.33-.08c.57,0,1.16,0,1.79.08a4.75,4.75,0,0,0,2-.25.92.92,0,0,1,.85-.25q.51.09,1.2.25a2.31,2.31,0,0,0,1.62-.25,1.54,1.54,0,0,1,1.62.08H149a2,2,0,0,1,1.79-.68,7.4,7.4,0,0,1,2,.68h.51a2.09,2.09,0,0,1,1.54-.08,9.72,9.72,0,0,0,1.54.42,9.77,9.77,0,0,1,5.12,2.38,12.57,12.57,0,0,0,1.45.94,12.19,12.19,0,0,1,1.62,1.1,4.16,4.16,0,0,1,.85.51,18.71,18.71,0,0,1,3.41,3.74,2.14,2.14,0,0,1,.51.85,1.62,1.62,0,0,0,.68.85,2.6,2.6,0,0,1,.85,1.87v2c.11.45.2.85.26,1.19s.14.74.25,1.19a17.14,17.14,0,0,1,1.37,5.1,5.27,5.27,0,0,1,0,1.87,11.35,11.35,0,0,0-.17,1.87,13.32,13.32,0,0,1,.08,2.55,9.19,9.19,0,0,1-.6,2.55q-.34.34,0,.51a11.82,11.82,0,0,1-.25,4.67,11.73,11.73,0,0,0-.25,4.67,4.53,4.53,0,0,1-1,3.06,1.89,1.89,0,0,0-.17.85,8.42,8.42,0,0,0-.17,1.7,4.55,4.55,0,0,1-.34,1.7,7,7,0,0,0-.68,2.13,12.88,12.88,0,0,1-.51,2.13,1.88,1.88,0,0,0-.17.85v1a3.8,3.8,0,0,1,1.37-.68l.68-.68.69-.68a3.16,3.16,0,0,0,1.44-.85,5.15,5.15,0,0,0,.77-1.36q.68-1,1.36-1a1.1,1.1,0,0,0,.25-.42.77.77,0,0,1,.43-.42,4.25,4.25,0,0,0,.51-.6,1.28,1.28,0,0,1,.68-.42,6.07,6.07,0,0,0,.94-.76,2.45,2.45,0,0,0,.59-1.28l.34-.17a6.09,6.09,0,0,0,2.13-2.21,10.9,10.9,0,0,1,1.79-2.38,2.18,2.18,0,0,0,.77-.85,9.26,9.26,0,0,1,.59-1,4.08,4.08,0,0,1,1.1-1.53q.77-.68,1.45-1.36c.45-.23.68-.51.68-.85a4.63,4.63,0,0,1,1.19-2l1.7-1.7a1.5,1.5,0,0,1,.77-.42,4.62,4.62,0,0,0,1.1-.42q.51-.85,1-1.79a7.89,7.89,0,0,1,1.36-1.79Q194.81,82.67,195.84,83.34Zm-75.48-3.91a1.71,1.71,0,0,0,.76-1.53,16.6,16.6,0,0,1-.08-1.7c-.68.23-1,.4-1,.51a9,9,0,0,0-.17,2C119.85,78.87,120,79.09,120.36,79.43ZM147,88.27a15.57,15.57,0,0,1,.17-2.21,17.08,17.08,0,0,0,.17-2.38q0-1.87-.17-3.83T147,76q0-2.38-2.21-2.21a18.65,18.65,0,0,0-3.57,1,10.24,10.24,0,0,1-2.46,1l-2.46.68a3.26,3.26,0,0,1-.68.25.79.79,0,0,0-.51.59,2.28,2.28,0,0,1-.94,1.19,4.92,4.92,0,0,1-1.27.51,11.72,11.72,0,0,0-2.38.85A3.24,3.24,0,0,0,129,81.81c-.11.45-.28.68-.51.68l-1.36,1a11,11,0,0,0-1.19,1,7.12,7.12,0,0,0-.17,1.7c-.57,0-.91-.06-1-.17a8.42,8.42,0,0,1-1,1.19,3.17,3.17,0,0,0-.34,1.7,4.79,4.79,0,0,1,.34,1.78,9,9,0,0,0,.17,1.79.76.76,0,0,1-.08.34,1.16,1.16,0,0,0-.08.51,10.61,10.61,0,0,1,.34,2.55,1.37,1.37,0,0,0,.25.85c.17.23.37.51.6.85a4.36,4.36,0,0,0,2.64,1.1,15.53,15.53,0,0,1,2.8.42,9.59,9.59,0,0,1,2.81-.59,7.14,7.14,0,0,0,2.8-.76,11.31,11.31,0,0,1,2.81-1.28,4.5,4.5,0,0,0,2.46-2l.68-.34a.58.58,0,0,1,.42-.17,1.36,1.36,0,0,0,.6-.17,16.6,16.6,0,0,1,1.87-2.46q1-1.1,1.87-2.12A1.39,1.39,0,0,0,147,88.27Zm-11.73,16.15q.34-.51.51-.51a4.86,4.86,0,0,1,1,.34A2.46,2.46,0,0,1,135.32,104.42Z"/>
    <path class="tn-letter" d="M246.15,64a1.28,1.28,0,0,1,.17,2.21.49.49,0,0,1-.34.17c-.11,0-.17.11-.17.34a7,7,0,0,1-1.53,1.45,2.66,2.66,0,0,1-2,.08,1.55,1.55,0,0,0-.68-.17,1,1,0,0,1-.68-.34,6.73,6.73,0,0,0-2.72-1l-2.89-.34a15.69,15.69,0,0,0-.94,4.76,6.19,6.19,0,0,1-2,4.25,16.88,16.88,0,0,0,1.53,1.7,7.51,7.51,0,0,0,.59-2.46,3.52,3.52,0,0,1,1.1-2.29,10.62,10.62,0,0,0,.68,1.19,5.41,5.41,0,0,0,.68.85,1.91,1.91,0,0,1-1.19,1.61,1.73,1.73,0,0,0-1,1.79,5.59,5.59,0,0,1,1.36-.34q-.34,1.53-.77,3.06t-.77,2.89c0,.34-.23.62-.68.85a4.07,4.07,0,0,0-2,3.4q0,1.36-1.7,1a6.15,6.15,0,0,1,.43-2.38c.28-.68.59-1.36.94-2V84a4.36,4.36,0,0,0,.51-1c.11-.34.28-.79.51-1.36a5.85,5.85,0,0,0-1,.94,2.78,2.78,0,0,0,0,1.44v.17q-1.87.51-1.7,2a5.07,5.07,0,0,1-.25,1.62,2,2,0,0,1-.77,1.11,4.08,4.08,0,0,0-1.36,2.21,12.12,12.12,0,0,1-1.19,3.65,21.46,21.46,0,0,1-2,3.15,1.5,1.5,0,0,0-.43.68,1.51,1.51,0,0,1-.42.68,16.73,16.73,0,0,1-.85,1.79q-.51.94-1,2h2.21c-.34.45-.65.88-.94,1.28s-.54.76-.76,1.1q-.68.85-1.19,1.45a2.68,2.68,0,0,0-.51,1.79.57.57,0,0,1-.25.51,1.25,1.25,0,0,0-.43.51,3.56,3.56,0,0,0-.68.85,3,3,0,0,1-1.62,2.29q-1.28.59-2.63,1.1a13.68,13.68,0,0,1-2,.51,2.51,2.51,0,0,1-2-.68q-.34-.68-1.19-.17a3.24,3.24,0,0,1-3.74-.68,2.31,2.31,0,0,0-1.53-.34c-.57.11-1.1.2-1.62.25a1.64,1.64,0,0,1-1.44-.77c-.23-.23-.4-.34-.51-.34a2.22,2.22,0,0,1-2.21-.76q-.68-.94-1.36-2a18.85,18.85,0,0,1-1.19-2,3.23,3.23,0,0,0-1.87-1.53c-.11,0-.28-.23-.51-.68A33.14,33.14,0,0,1,192,101a27.74,27.74,0,0,1-.94-3.91,15.22,15.22,0,0,1-.42-2.89q-.09-1.53-.25-3.06a16.17,16.17,0,0,1-.25-1.87,6.59,6.59,0,0,1,.08-1.87,7.38,7.38,0,0,0-.26-2,3.21,3.21,0,0,1,.26-2.12,1.81,1.81,0,0,0,0-1.53l-.68-1.7a.78.78,0,0,0-.08-.34.72.72,0,0,1-.08-.34,4.81,4.81,0,0,0,.34-3.06,14,14,0,0,1-.34-3.06q.17-1.7.25-3.31a13.4,13.4,0,0,0-.25-3.32A22.42,22.42,0,0,1,189,58a5.82,5.82,0,0,0,.08-1.7,16.48,16.48,0,0,1-.08-1.7,1.16,1.16,0,0,0-.34-.85,3.69,3.69,0,0,0-.68-.85,4.13,4.13,0,0,1-1.19-3.23,4.68,4.68,0,0,1,1.7-3.06q.68-.85,1.87-.17a7.13,7.13,0,0,0,1.27.51c.4.11.82-.11,1.27-.68h2a15.86,15.86,0,0,1,2.21.17,2,2,0,0,1,1.36.68,6.37,6.37,0,0,0,4.76,1,1.93,1.93,0,0,1,.85.17,20.79,20.79,0,0,0,2.29,1.45,5.86,5.86,0,0,1,2,1.79,3.85,3.85,0,0,0,1,.68,11.56,11.56,0,0,0,.76,1,3.23,3.23,0,0,1,.6,1,14.07,14.07,0,0,0,1,3q.68,1.45,1.19,2.8a4.49,4.49,0,0,1-.34,3.4,2,2,0,0,0,.17,2.55,2.82,2.82,0,0,1,.51,2.55,14.17,14.17,0,0,0,.09,1.62q.08.76.25,1.61a10.24,10.24,0,0,1-.17,2.21,7.43,7.43,0,0,1-.08,1.19,2.9,2.9,0,0,0,.08,1.19,33.78,33.78,0,0,1,.42,4.08,33.27,33.27,0,0,1-.08,4.08,10.45,10.45,0,0,0,1,5.78q.34,1,.77,2a1.9,1.9,0,0,1-.43,2v.17a4.79,4.79,0,0,1,.17,3.74,6,6,0,0,0-.17,3.74,4.43,4.43,0,0,1,.43,1.53,6.11,6.11,0,0,0,.42,1.7l4.08-6.12q-.17-1.36,0-1.44a9.23,9.23,0,0,1,1.53-.25,9.77,9.77,0,0,0,.51-1.7,9.42,9.42,0,0,1,.51-1.7c0-.23.17-.45.51-.68l.17-.17.17-.17q-.68-1.7.42-2.29a8.3,8.3,0,0,0,2-1.44,1.16,1.16,0,0,0-.34-.85,3.63,3.63,0,0,1,.68-4.25,9.23,9.23,0,0,0,1.44-1.87,3.08,3.08,0,0,0,.25-2.38,2.29,2.29,0,0,1,.25-1.61c.28-.51.54-1,.77-1.45q1.19-1.36,2.72.17c0-.11,0-.17.08-.17s.08-.06.08-.17a4.15,4.15,0,0,0-.51-.85q-1.19-.85-1.27-1.19a3.34,3.34,0,0,1,.43-1.53q.34-.85.59-1.53c.17-.45.37-1,.6-1.53q.34-1.19,0-1.53a2.22,2.22,0,0,1,.51-3.4,9.25,9.25,0,0,1-.77-2.21,2.76,2.76,0,0,0-1.61-1.87q-1-.34-1-1.19a3.48,3.48,0,0,0-.6-2q-.6-.85-1.27-1.7a5.46,5.46,0,0,1-1-2.55,12,12,0,0,0-.68-2.72,8.55,8.55,0,0,1-.34-2.38V45.94a15.06,15.06,0,0,1,.17-2.29,7.89,7.89,0,0,0,0-2.29,1.31,1.31,0,0,1,.34-1.19,9,9,0,0,0,.85-1.36A3.69,3.69,0,0,1,227,38a9.49,9.49,0,0,0,.77-.68,4.07,4.07,0,0,1,3-1.44,5.33,5.33,0,0,1,3.15.76,3.81,3.81,0,0,0,.77.59c.28.17.31.37.08.59h-2.21a9.62,9.62,0,0,0-1.87.17,2.54,2.54,0,0,0-2,1.1,2.83,2.83,0,0,0-.25,2.29,6.7,6.7,0,0,1,.25,1.11,6.32,6.32,0,0,0,.42,1.44,16.48,16.48,0,0,0,1.7-1,2.59,2.59,0,0,1,.68,1.53,7.78,7.78,0,0,0,.17,1.53.35.35,0,0,1-.08.25.35.35,0,0,0-.08.26,8.77,8.77,0,0,1,.42,3.23,7,7,0,0,0,.6,3.23,1.75,1.75,0,0,0,.68,1.19c.57-.23.88-.54.94-.93a8,8,0,0,0,.08-1.11V50.79a1.07,1.07,0,0,1,.51-.94,1,1,0,0,0,.34-.68,3,3,0,0,1,.17-2.21,4.87,4.87,0,0,0,.51-2.21q.17-1,1-1a2.11,2.11,0,0,1,1.19.34c.34.23.45.46.34.68q0,.85-.08,1.79a17.9,17.9,0,0,1-.25,1.78.35.35,0,0,1-.08.26.34.34,0,0,0-.09.25V49q.68.68.34,1.1a1.46,1.46,0,0,0-.34.94,3.93,3.93,0,0,1-.34,1.61q-.34.77-.68,1.62-.68.68-.17,1.19a1,1,0,0,1,.51.85,6.32,6.32,0,0,1-.08,1,3,3,0,0,0,0,1,1.23,1.23,0,0,0,.76.85,16.57,16.57,0,0,1,1.87,1.44q.85.76,1.7,1.62a5.69,5.69,0,0,0,3.23,1.19,2.12,2.12,0,0,1,.77.17C245.67,63.74,245.93,63.85,246.15,64ZM229,93q-.34-1.53,1.36-2a6.92,6.92,0,0,0-.42,1.36C229.86,92.69,229.55,92.92,229,93Zm3.57-14.45a.67.67,0,0,1-.09.42.35.35,0,0,0-.08.25l.34.34a3.49,3.49,0,0,0,.25-.68,3.28,3.28,0,0,1,.25-.68A1,1,0,0,0,232.55,78.58Zm4.08-9.35h-.51v-1h.51Zm-.51,1.7h.68c.34.45.11.85-.68,1.19Z"/>
    <path class="tn-letter" d="M269.27,113.43a1.45,1.45,0,0,1-.68.59,2,2,0,0,0-.85.94q-.34.51-.76,1.27a6.67,6.67,0,0,1-1.11,1.45,4.23,4.23,0,0,0-.68.93,2.74,2.74,0,0,1-.85.94,4.16,4.16,0,0,0-1.27,1,6.07,6.07,0,0,1-1.45,1.19c-.23.23-.48.45-.77.68a1.26,1.26,0,0,1-1.28,0,1.27,1.27,0,0,0-.76.34,4.65,4.65,0,0,1-.77.51l-.85.25a3.64,3.64,0,0,1-.85.08q-1.19.34-1.87-1.19a1.84,1.84,0,0,0-.85-.68,9.23,9.23,0,0,1-4.59-3.57,2.61,2.61,0,0,0-.68-.51,2.67,2.67,0,0,1-.68-.51,1,1,0,0,0,.17-.68,2.51,2.51,0,0,0,.26-1.27,2.59,2.59,0,0,0-.77-1.11,2.73,2.73,0,0,1-1.87-2.38q-.17-1-.25-2a11.79,11.79,0,0,0-.43-2.21,7.1,7.1,0,0,1-.25-2.46,6.29,6.29,0,0,0-.42-2.63V101a12.6,12.6,0,0,0,.17-2,9.5,9.5,0,0,1,.17-1.87v-.34a8,8,0,0,1-.25-2.55q.08-1.19.08-2.55V89.8a5.13,5.13,0,0,1-.17-1.53q.17-1,.25-2.12a11.45,11.45,0,0,1,.42-2.29c.23-.23.28-.37.17-.42s-.17-.2-.17-.42a2.85,2.85,0,0,0-.17-.85.77.77,0,0,1,.17-.85,8.1,8.1,0,0,0,.34-2.21,15.57,15.57,0,0,1,.17-2.21,16,16,0,0,0,.17-2.21,5,5,0,0,1,.34-1.87v-.51c-.11-.68-.2-1.33-.25-2a4.83,4.83,0,0,1,.08-1.62,9.4,9.4,0,0,0-1.19-5.1,1.33,1.33,0,0,0-1.36-1,11.28,11.28,0,0,1-1.87,3.91,17.32,17.32,0,0,0-1.53,1,7.87,7.87,0,0,0-1.36,1.36.36.36,0,0,0-.25.08c-.06.06-.2.08-.42.08v-.68a6.22,6.22,0,0,0,.42-1.79A2.32,2.32,0,0,1,239,65a1,1,0,0,0,.17-.68,2.58,2.58,0,0,1,1-2,9.07,9.07,0,0,0,2.55-2.55l.59-.6.6-.59a2.63,2.63,0,0,1,.42.51,2.32,2.32,0,0,0,.42.51,1.54,1.54,0,0,0,1.7-.68,1.63,1.63,0,0,1,1.7-.34,6.26,6.26,0,0,0,1.78,1,3.69,3.69,0,0,1,1.62,1.19,1,1,0,0,0,.59.68,5.39,5.39,0,0,1,.94.51,8.87,8.87,0,0,1,3.06,2.72q.34,1,1.7.34a4.65,4.65,0,0,1,1.28,1.53q.42.85.76,1.7a6.35,6.35,0,0,0,.94,1.36,1.91,1.91,0,0,1,.26,1.87h1.19a2.22,2.22,0,0,0,.43.6,2.28,2.28,0,0,1,.42.59,1.85,1.85,0,0,1,.51,1.7.39.39,0,0,0,.26.42.39.39,0,0,1,.25.42,1.14,1.14,0,0,0,.09.51,1.78,1.78,0,0,1,.08.68l-.17.34a3.47,3.47,0,0,1,.34,2.55,6.31,6.31,0,0,0-.17,2.55,16.12,16.12,0,0,1,.09,2.89,9.53,9.53,0,0,0,.26,2.89,11.93,11.93,0,0,1,.42,2.21,3.8,3.8,0,0,1-.42,2,2.68,2.68,0,0,0-.17,1.62,3.94,3.94,0,0,1,0,1.61,26.16,26.16,0,0,0,0,4.25,1.18,1.18,0,0,1,.08.77,4.64,4.64,0,0,0-.08.93,2.36,2.36,0,0,1-.17,1q-.34,1.36-.59,2.46a5.22,5.22,0,0,0,.08,2.46,4.11,4.11,0,0,1-.08.76,3.78,3.78,0,0,0-.09.77v1.7a10.48,10.48,0,0,0,1-.85,5.92,5.92,0,0,0,.68-.85l2.13-2.46a5,5,0,0,1,3-1.62.9.9,0,0,0,1-1,2.31,2.31,0,0,1,.17-1.53,4,4,0,0,1,.68-1q.68-.85,1.19-1.62a2.85,2.85,0,0,1,1.53-1.1.5.5,0,0,1,.17.34.48.48,0,0,0,.17.34,1.46,1.46,0,0,1,0,1.87,4.77,4.77,0,0,0-1.36,3.06c0,.23-.06.34-.17.34a7.52,7.52,0,0,0-1,1.61q-.34.77-.68,1.62a2.6,2.6,0,0,0-.42.94,2.74,2.74,0,0,1-.43.93.36.36,0,0,1-.08.25.34.34,0,0,0-.09.25,1.91,1.91,0,0,1-.68,2A3.11,3.11,0,0,0,269.27,113.43ZM247.17,48c-.23-.45-.4-.82-.51-1.1a5.38,5.38,0,0,0-.51-.94,2.5,2.5,0,0,1-.25-1.44,1.43,1.43,0,0,1,.59-1.11,1.71,1.71,0,0,0,1-.76,9.16,9.16,0,0,0,.34-1.11q.17-1,1.7-1.53a9.13,9.13,0,0,1,1.87-.51,3.46,3.46,0,0,1,1.87.17q.68.68,1.87-.17a2.92,2.92,0,0,1,2.13-.76,9,9,0,0,1,2.12.42,5.33,5.33,0,0,0,1.53.34,5.83,5.83,0,0,1,2,1,.81.81,0,0,1,.43.59,2.6,2.6,0,0,0,.42.93,6.65,6.65,0,0,0,1.53,2,6.81,6.81,0,0,1,1.36,4.08,1.36,1.36,0,0,1-.17.85q-.68.34-.51.93a1.29,1.29,0,0,1-.17,1.11q-.17.68-.51,2.38a1.28,1.28,0,0,0-.77.76q-.25.6-1.11.42-.68,2.21-3.4,1.7a7.78,7.78,0,0,0-1.1-.17,4.14,4.14,0,0,0-1.11.34,8.13,8.13,0,0,1-1.27-.42,8.66,8.66,0,0,0-1.28-.42v.17l-.34-.68a3.71,3.71,0,0,0-1-1.19,4,4,0,0,0-1.53-.51c-.45,0-.79-.28-1-.85a10.22,10.22,0,0,1-1.53-1.19,10.24,10.24,0,0,0-1.36-1.19,2.17,2.17,0,0,0-.51-.85A1.7,1.7,0,0,1,247.17,48Zm30.94,47.43a9,9,0,0,1-1.7,2.72,15.68,15.68,0,0,1-.85-1.36c.23-.57.45-1.16.68-1.79a4.36,4.36,0,0,1,1-1.61h1a6.64,6.64,0,0,0,.08.93A1.55,1.55,0,0,1,278.11,95.41Zm1.7-3.23c-.23.68-.62.91-1.19.68a10.75,10.75,0,0,0-.17-2c.45.23.82.43,1.11.6A.59.59,0,0,1,279.81,92.18Zm.51-2.55a2.92,2.92,0,0,0,.6-.94c.17-.4.31-.76.42-1.1l.68.34A1.74,1.74,0,0,1,280.32,89.63Z"/>
    <path class="tn-letter" d="M309.9,98.64a14.92,14.92,0,0,0-.08-1.62,3.26,3.26,0,0,0-.76-1.61.78.78,0,0,0-.08-.34.72.72,0,0,1-.08-.34L308.2,92A9.59,9.59,0,0,0,307,89.29v-.68a9.49,9.49,0,0,0,.68-.76,9.38,9.38,0,0,1,.68-.76,2.59,2.59,0,0,0,1-2.55.49.49,0,0,1,.34-.17c.11-.11.2-.17.25-.17s.14-.06.25-.17c.23-.45.4-.68.51-.68a2,2,0,0,1,.58.21,3.37,3.37,0,0,1,1.83-1.16,14.65,14.65,0,0,1,.67-1.37,3.77,3.77,0,0,1,1.47-2.6,7.3,7.3,0,0,1,1.42-2.48,15.44,15.44,0,0,1,2.21-2.1l-1.42.41a3.44,3.44,0,0,1-2.77,2.25h0c-.41.45-.78.93-1.18,1.39a12,12,0,0,1-2,1.77,2.92,2.92,0,0,1-1.54.5,9.48,9.48,0,0,0-.57,1c-1-.11-1.59.11-1.7.68a1.88,1.88,0,0,1-1.19,1.45,3.61,3.61,0,0,0-1.53.93,3.55,3.55,0,0,1-.68-.85q-.85-1.53-1.62-3.06t-1.62-3.06a3.69,3.69,0,0,0-.68-.85,8.45,8.45,0,0,0-1-1.19l-.76-1.1a2.81,2.81,0,0,0-1.28-.94q-.51,0-.51-1c0-.11.23-.4.68-.85a6.45,6.45,0,0,0,.51,1.36h1.19l1.19-1.19a3,3,0,0,0,1.19-3.06,1.06,1.06,0,0,0-.17-.59,5,5,0,0,1-.34-.6,5,5,0,0,1,1.19-1.36c.11.11.2.17.25.17s.14.06.25.17c.11-.57.23-1,.34-1.45a2.47,2.47,0,0,0,0-1.27,5.53,5.53,0,0,1-.17-1.36V60.73q-.17-1.19-.34-2.29a14.94,14.94,0,0,1-.17-2.29,5.72,5.72,0,0,0-1-3.23,2.43,2.43,0,0,0-1.87-1c-.57,0-.85-.06-.85-.17a1.38,1.38,0,0,0-1-.68,3.26,3.26,0,0,0-1,.17,1.09,1.09,0,0,1-.85,0,4.81,4.81,0,0,0-3.57,0h-.68a3,3,0,0,1-.85.25,3.14,3.14,0,0,0-.85.25,24.49,24.49,0,0,1-2.55.51,18,18,0,0,0-2.38.51l-.34-.17a4.17,4.17,0,0,1-1.36.43,2,2,0,0,0-1.19.59,28.25,28.25,0,0,1-2.72,1.7,2.17,2.17,0,0,0-1,1.27,2.42,2.42,0,0,0,0,1.79,3.14,3.14,0,0,1,.26.85,1.5,1.5,0,0,0,.42.85,2.62,2.62,0,0,0-.85,3.06v1a2.89,2.89,0,0,0,.17,1.19,2.88,2.88,0,0,1,.6,1.28,4.11,4.11,0,0,0,.42,1.28q.34,1,.68,2.13a13.63,13.63,0,0,0,.85,2.13q.34.68.68,1.27a3.66,3.66,0,0,0,1,1.11,4.08,4.08,0,0,1,.68,1,10.89,10.89,0,0,0,1.36,2.55,7.54,7.54,0,0,1,1.19,2.55l.34.68a29.7,29.7,0,0,0,1.7,2.46,6.73,6.73,0,0,1,1.19,2.8.27.27,0,0,0,.17.26.28.28,0,0,1,.17.25q.68,1.36,1.44,2.72a7.76,7.76,0,0,1,.94,3.06,1.89,1.89,0,0,1-.68,1.87q-1,.85-2.12,1.62c-.74.51-1.44,1-2.12,1.62a22.16,22.16,0,0,1-2.21,1.62q-1.19.76-2.38,1.61a3.76,3.76,0,0,0-.85.77,3.69,3.69,0,0,1-.85.76,3.86,3.86,0,0,1-1.53.85,2.78,2.78,0,0,0-2.21,2.21,4.65,4.65,0,0,1-1.19,2.21,3,3,0,0,1-.34-.85,8.79,8.79,0,0,1,.08-1.28,8,8,0,0,0,.08-1.1h.17a1.71,1.71,0,0,0-.76-.17,1.69,1.69,0,0,1-.77-.17,5.35,5.35,0,0,0-.08,1.62,1.63,1.63,0,0,1-.76,1.44c.23.45.42.88.59,1.28a1.45,1.45,0,0,1-.08,1.27.78.78,0,0,0,.17.85q.51.85,1,1.62a13.8,13.8,0,0,1,.85,1.44,9.68,9.68,0,0,1-.51,1.19,3.4,3.4,0,0,0,2.21,1.36,5.52,5.52,0,0,1,1.62,1,5,5,0,0,0,2,1c-.11,0,0,.17.34.51a.66.66,0,0,0,.08.42.35.35,0,0,1,.08.25l2.63.68a19.83,19.83,0,0,0,2.63.51c.68.11,1.39.2,2.13.25a6.56,6.56,0,0,0,2.3-.25,3.73,3.73,0,0,1,1.19-.17h1.7a3.74,3.74,0,0,0-.17,1.19,8.85,8.85,0,0,1,1.19.51,18.67,18.67,0,0,1,2-1.44,14.57,14.57,0,0,1,2.13-1.11,2.86,2.86,0,0,1-.08.68,3.48,3.48,0,0,0-.08.85,2.53,2.53,0,0,1,.68-.51,2.06,2.06,0,0,0,.51-.34,9.91,9.91,0,0,0,1.1-1.7,3.24,3.24,0,0,1,1.28-1.36c.23-.23.48-.51.76-.85s.54-.62.77-.85a21.4,21.4,0,0,0,1.53-1.7,5.83,5.83,0,0,0,1-2,2.34,2.34,0,0,1,.59-.93l.76-.76a5.09,5.09,0,0,0,1.19-2.72,3.26,3.26,0,0,0,.17-1,3.19,3.19,0,0,1,.17-1q.34-1.19.68-2.46a4.23,4.23,0,0,0-.17-2.63A6.8,6.8,0,0,1,309.9,98.64Zm-17.34,1.87a9,9,0,0,0-.51,1.79q-.17.94-.34,1.79a8.76,8.76,0,0,1-1,2.46q-.68,1.1-1.36,2.29a8.54,8.54,0,0,1-1.53,2.55,1.1,1.1,0,0,1-1,.68,1.74,1.74,0,0,0-1.7,1.19,2.77,2.77,0,0,0-2,.51q-1.36,1-2.55-.85c-.34.23-.62.25-.85.08s-.51-.37-.85-.59-.65-.31-.6-.6a1.82,1.82,0,0,0-.08-.93,3.86,3.86,0,0,1,.43-3,8,8,0,0,1,2-2h.34l-1,3.06q.68,1,1,.17a13.17,13.17,0,0,0,1.44-1.7,12.93,12.93,0,0,1,1.45-1.7,11.53,11.53,0,0,1,4.76-4.08l.51-.51a5,5,0,0,1,1.45-1.27c.51-.28,1-.6,1.62-.94A1.63,1.63,0,0,1,292.56,100.51Zm2-30.6a1.28,1.28,0,0,1,.34-.77c.23-.28.11-.59-.34-.93l-.68.34a1.09,1.09,0,0,1-1.19-.51c-.23-.34-.42-.65-.59-.94s-.37-.59-.59-.93l-.51-.51a5.71,5.71,0,0,0-.42-2.21,3.72,3.72,0,0,1-.08-2.38,2.55,2.55,0,0,0-.34-1.7c.11-.11.17-.2.17-.26s.06-.14.17-.25A3.5,3.5,0,0,1,292,57a4.42,4.42,0,0,1,2.46,0,4.11,4.11,0,0,0,1.28.43,6.73,6.73,0,0,1,1.44.42q.34,1,.6,2.13a4.54,4.54,0,0,1-.08,2.29v.51a3,3,0,0,1-.34,2.72c.45.57.65,1,.6,1.19a3.72,3.72,0,0,1-.94,1.19c-.11.11-.2.17-.25.17s-.14.06-.25.17a2.44,2.44,0,0,1-.59,1C295.71,69.35,295.28,69.57,294.6,69.91Zm1.53,1.19-1-.68q.85-.34,1.87-.85A1.23,1.23,0,0,1,296.13,71.1Z"/>
  </g>
  <g class="lastname"><!-- mobile – transform: translate(-80px,40px); -->
    <path class="tn-letter" d="M238.34,213q-.34-.17-1.19.34l-.59.59-.6.6a3.66,3.66,0,0,0-.85.76q-.34.42-1.19.08l-.85.34a1.23,1.23,0,0,1-1.1.51,1.52,1.52,0,0,1-1.1-.34,5,5,0,0,0-.94-.51,5.3,5.3,0,0,1-.93-.51h-.34q-.85.34-1.27-.17a3.41,3.41,0,0,0-1.1-.85,1.34,1.34,0,0,1-.17-.85,3.48,3.48,0,0,0-1.53-2,3.92,3.92,0,0,1-.93-1.36,14.2,14.2,0,0,0-.6-1.36,3.73,3.73,0,0,1-.51-2,3.72,3.72,0,0,0-.51-2v-.17l-.17-.17c-.45,0-.65-.11-.6-.34a2.84,2.84,0,0,0,.08-.68,2.73,2.73,0,0,0-.68-2.55,2.31,2.31,0,0,1-.34-1.53c0-.57,0-1.16.09-1.79s.08-1.22.08-1.78v-.51a12,12,0,0,1,.08-1.53,3.75,3.75,0,0,0-.08-1.36,6.9,6.9,0,0,1,.34-2.21,4.22,4.22,0,0,0,.17-2,7.72,7.72,0,0,1,0-2.29,12.61,12.61,0,0,1,.51-2.12,14.38,14.38,0,0,0,.34-2.55,1.18,1.18,0,0,0,.08-.77,4.61,4.61,0,0,1-.08-.93v-1.19q.17-.85.25-1.53a4.15,4.15,0,0,1,.43-1.36,11.21,11.21,0,0,0,.34-2.72,11.11,11.11,0,0,1,.34-2.72,3,3,0,0,0,.34-1.36,7.84,7.84,0,0,1,.17-1.53,1.92,1.92,0,0,0-.08-.59,1.82,1.82,0,0,1-.09-.59q.34-1.36.51-2.21a3,3,0,0,0,.08-1.19,2,2,0,0,1,.25-1.19q.17-.85.26-1.61a3.35,3.35,0,0,0-.26-1.62v-.17a8,8,0,0,0,.17-1.53,7.84,7.84,0,0,1,.17-1.53,2.86,2.86,0,0,0-.08-.68,2.68,2.68,0,0,1-.09-.68.77.77,0,0,0-.08-.34.73.73,0,0,1-.08-.34,5.36,5.36,0,0,0,.17-2.29,15,15,0,0,1-.17-2.29,1.33,1.33,0,0,0-1-1.36l-1-.34a6.14,6.14,0,0,1-.85-.34.78.78,0,0,0-.85.51,12.9,12.9,0,0,1-1.53,3.06.92.92,0,0,1-.34.42,2.46,2.46,0,0,0-.51.42q-.51.51-.51.68a3.58,3.58,0,0,1-1.19,1.87,1.05,1.05,0,0,0-.34.76,1.06,1.06,0,0,1-.34.76,5.12,5.12,0,0,1-.85,1.45,6.29,6.29,0,0,0-.85,1.28q-.68.68-.51,1a.27.27,0,0,1-.17.25.27.27,0,0,0-.17.25,1.84,1.84,0,0,0-.68.85,6.49,6.49,0,0,0-.25,1,1.54,1.54,0,0,1-.42.85,2.64,2.64,0,0,0-.51,1.87v.51c-.23.34-.45.65-.68.93s-.45.59-.68.94l-1,1.53v.34a4.89,4.89,0,0,1-1.19,3.57,1.38,1.38,0,0,0-.34,1,1.51,1.51,0,0,0-.17.68,1.52,1.52,0,0,1-.17.68,5,5,0,0,0-.51.94c-.11.28-.23.59-.34.93a1,1,0,0,0-.34.68,1.39,1.39,0,0,1-.25,1.53,6.44,6.44,0,0,0-.94,1.36,9.19,9.19,0,0,0-.6,1,9.68,9.68,0,0,1-.59,1l-.17.17a1.25,1.25,0,0,1,0,1.27,6.22,6.22,0,0,0-.68,1.11q-.34,1.36-.77,2.72a5.5,5.5,0,0,0-.08,2.89.21.21,0,0,1,0,.34c-.23.79-.42,1.56-.59,2.29s-.37,1.5-.6,2.29l-.51,1a3.21,3.21,0,0,0-.26.68c-.06.23-.25.34-.59.34a1.29,1.29,0,0,1-1,.76c-.45.06-.74.37-.85.94a.5.5,0,0,1-.34.17.48.48,0,0,0-.34.17,5.11,5.11,0,0,0-.85.08,5.48,5.48,0,0,1-.85.08l-.68.34a2.45,2.45,0,0,0-2-.85,1.78,1.78,0,0,1-.94-.25,4,4,0,0,1-.76-.6c-.11,0-.17,0-.17-.08s-.06-.08-.17-.08a1.23,1.23,0,0,1-1.27-.34,11.66,11.66,0,0,1-.77-1A.49.49,0,0,0,188,195a1.31,1.31,0,0,1-.51-.17,2.08,2.08,0,0,1-1.36-.59,2.51,2.51,0,0,1-.85-1.27,4.16,4.16,0,0,0-.51-.85,1.28,1.28,0,0,1-.17-.51,1.36,1.36,0,0,0-.17-.51,1.36,1.36,0,0,1-.17-.6.94.94,0,0,0-.34-.59,8.26,8.26,0,0,1-1.36-5.1v-.68a4,4,0,0,1-.25-1.87q.08-1,.08-2a7.45,7.45,0,0,0-.08-1.19c-.06-.34-.14-.74-.26-1.19v-.34a2.06,2.06,0,0,0,.17-1.87,1.7,1.7,0,0,1,.25-1,6.41,6.41,0,0,1,.59-.68,1.16,1.16,0,0,0,.34-.85,5.72,5.72,0,0,1,.17-3.06,2.43,2.43,0,0,0,.08-1.11,7.55,7.55,0,0,1-.08-1.1,2.63,2.63,0,0,0-.34-1,1.86,1.86,0,0,1-.09-1.44,7.37,7.37,0,0,0,.43-1.45v-1a4.64,4.64,0,0,1,.08-.93,1.18,1.18,0,0,0-.08-.76,3.83,3.83,0,0,0-.17-1.19c-.11-.34-.23-.74-.34-1.19v-.34a3.5,3.5,0,0,0-.68-2.55,2.12,2.12,0,0,0-.51-.76A2.53,2.53,0,0,0,181,155a1.38,1.38,0,0,1-1-.34.86.86,0,0,0-1-.34,1.53,1.53,0,0,0-1,.85c-.11.11-.17.2-.17.25s-.06.14-.17.25a2.53,2.53,0,0,1-.51.68,3.62,3.62,0,0,1-.68-.85c-.11-.23-.14-.37-.08-.42s.08-.2.08-.42a1,1,0,0,1,.85-1,3.85,3.85,0,0,0,1-.68.54.54,0,0,0,.34-.51A.55.55,0,0,1,179,152a14.16,14.16,0,0,1,2-1.19,2,2,0,0,1,1.11-.34h1.11a1.67,1.67,0,0,1,1.2.17.92.92,0,0,0,.86.25,1.43,1.43,0,0,1,.86.08,4.09,4.09,0,0,1,.77.08,3.88,3.88,0,0,0,.77.08.7.7,0,0,0,.52.17,1.17,1.17,0,0,1,1.72.17,3.78,3.78,0,0,0,.86.51l1.54.51h1.72a.75.75,0,0,0,.86.85,1.49,1.49,0,0,1,1,.51l1.12.76a9.1,9.1,0,0,0,1.29.77,1.53,1.53,0,0,1,.43.68,1.5,1.5,0,0,0,.43.68,7.2,7.2,0,0,0,1.11,1.19,7.44,7.44,0,0,1,1.12,1.19,1.32,1.32,0,0,1,.17.51,1.28,1.28,0,0,0,.17.51,5.62,5.62,0,0,1,.6,2,11.35,11.35,0,0,0,.42,2.21v.34a1.88,1.88,0,0,1,.34,1.87v.85a1.48,1.48,0,0,1,.17,1.53v.85a5.87,5.87,0,0,1-.51,3.06v.34a2.77,2.77,0,0,1-.08,1.53q-.25.68-.6,1.53c-.11.57-.2,1.1-.25,1.61s-.14,1-.25,1.62v2.38h.33a11.19,11.19,0,0,1,.82-2,3.09,3.09,0,0,1,.33-.85,4.34,4.34,0,0,0,.49-1,4.27,4.27,0,0,1,.49-1,9.65,9.65,0,0,1,.74-1.28,9.61,9.61,0,0,0,.74-1.27,2.68,2.68,0,0,0,.41-1.11,4.25,4.25,0,0,1,.41-1.27v-.34a2.15,2.15,0,0,0,.51-.85,4.15,4.15,0,0,1,.51-1,3.37,3.37,0,0,0,.85-1.19l.17-.17a.3.3,0,0,0,.34-.34,6,6,0,0,0,.17-1.7,1.33,1.33,0,0,1,.51-1.19c.23,0,.34-.17.34-.51a6.63,6.63,0,0,0,.42-1.44,6.39,6.39,0,0,1,.42-1.45l.51-1c.11-.11.17-.2.17-.25s.06-.14.17-.25a17.45,17.45,0,0,1,.85-1.87,1.92,1.92,0,0,0-.08-.59c-.06-.17,0-.37.25-.59a3.2,3.2,0,0,0,.34-1.45,3.17,3.17,0,0,1,.34-1.45,5.3,5.3,0,0,0,.51-.93,2.52,2.52,0,0,0,.17-.94,7.43,7.43,0,0,1,.85-1.78,7.55,7.55,0,0,0,.85-1.79,3.1,3.1,0,0,1,.68-1.45,6.25,6.25,0,0,0,.85-1.27l.51-1a4.56,4.56,0,0,1,.85-1.19c.23-.34.48-.71.76-1.1s.54-.76.77-1.11.51-.62.85-.51c.11,0,.28-.11.51-.34a.15.15,0,0,0,.17-.17,1.42,1.42,0,0,0,1.36,0,1.43,1.43,0,0,1,1.36,0,15,15,0,0,0,2.89.34h.17a2.63,2.63,0,0,0,1.62.68h1.61a2,2,0,0,1,.85.26l.85.42c.57.23.85.4.85.51a1.87,1.87,0,0,1,.85.68q.85,1.53,2,1.36c.11,0,.28.11.51.34a10.88,10.88,0,0,0,1.36,1.7,3.79,3.79,0,0,1,1.19,1.53l.68,1.7a.94.94,0,0,1,.34.6,1.35,1.35,0,0,0,.17.59,4.67,4.67,0,0,0,.85,1l.34.34a4.3,4.3,0,0,1,.43,1.27,2.6,2.6,0,0,0,.42,1.11,4.31,4.31,0,0,1,0,1.7c-.23.34-.17.79.17,1.36s.45.88.68,1.28a2,2,0,0,1,.17,1.44,1.79,1.79,0,0,0,0,1.53c.11.57.2,1.11.25,1.62a5.32,5.32,0,0,1-.08,1.62,9.21,9.21,0,0,0-.34,2,16.54,16.54,0,0,1-.17,2.46,18.9,18.9,0,0,1-.51,2.29,2.19,2.19,0,0,0,0,1.7,3.13,3.13,0,0,1,0,1.44q-.17.6-.34,1.45l-.34,1a3.75,3.75,0,0,0-.17,1.19,5.37,5.37,0,0,1-.17,1.45q-.17.6-.34,1.44v1a.76.76,0,0,0-.08.59.39.39,0,0,1-.08.42,3.77,3.77,0,0,0-.34,1.7v1.36a.75.75,0,0,1-.08.34,1.17,1.17,0,0,0-.08.51,12.11,12.11,0,0,0,.08,1.53,4.86,4.86,0,0,1-.08,1.53.35.35,0,0,1-.08.25.67.67,0,0,0-.08.42,2.37,2.37,0,0,0-.17,1v.51a3.4,3.4,0,0,0-.17,1.87,12.6,12.6,0,0,1,.17,2,.69.69,0,0,1-.34.68.15.15,0,0,1-.17.17c-.11.45-.2.85-.26,1.19s-.14.74-.25,1.19a1,1,0,0,0,.51,1.36,2.3,2.3,0,0,1,.34,2.21,1.2,1.2,0,0,1-.08.51,1.14,1.14,0,0,0-.08.51v.34a3228149.9,3228149.9,0,0,0,.68-.34,2.44,2.44,0,0,1,1.7-.85l.34-.17a15.83,15.83,0,0,0,2-1.36c.23-.23.34-.4.34-.51q.34-.85,1-.68a.58.58,0,0,0,.77-.34l.43-.85a3.82,3.82,0,0,1,1.36-1.36,8.17,8.17,0,0,0,1.79-1.61q.76-.94,1.44-2a1.51,1.51,0,0,0,.42-.77,3,3,0,0,1,.26-.76,12,12,0,0,0,1.36-1.53.49.49,0,0,0,.34-.17,1.22,1.22,0,0,1,.51-.85,2.64,2.64,0,0,0,.68-.51c.11-.11.2-.17.25-.17s.14-.06.26-.17c.34-.45.65-.85.94-1.19s.59-.74.93-1.19a3.36,3.36,0,0,0,.85-1.19q.85-1.7,2.38-.85a1.28,1.28,0,0,0,.51.17,1.36,1.36,0,0,1,.51.17l.17.17a.15.15,0,0,0,.17.17v1.87a3.8,3.8,0,0,0-1.7,2,1.49,1.49,0,0,0-.43.77c-.06.28-.31.48-.76.59q-.17,0-.25.25a1.1,1.1,0,0,1-.25.42,4,4,0,0,1-.68,1,8,8,0,0,0-1,1.19,8.56,8.56,0,0,0-1.44,1.45,5.24,5.24,0,0,1-1.45,1.28,1.29,1.29,0,0,0-.59.93,6.67,6.67,0,0,1-.26,1.11.35.35,0,0,1-.08.25.34.34,0,0,0-.08.25,12.46,12.46,0,0,0-1.44,1.7,7.49,7.49,0,0,1-1.44,1.53,1.51,1.51,0,0,1-.77.43,1.46,1.46,0,0,0-.77.42,5.94,5.94,0,0,0-.94.76,6.33,6.33,0,0,1-.94.77l-1.53,1a3.78,3.78,0,0,0-2,1.7.39.39,0,0,1-.25.42,1.63,1.63,0,0,0-.6.42l-1.53,1a.5.5,0,0,1-.34.17.48.48,0,0,0-.34.17c-.11,0-.28.11-.51.34l.51.51.17.17A2.47,2.47,0,0,1,238.34,213Z"/>
    <path class="tn-letter" d="M303.79,184.45q.85-1.19,1.7-2.3t1.7-2.12a10.55,10.55,0,0,1,1.7-2.21,2.79,2.79,0,0,1-1,2.55,2.24,2.24,0,0,0-.51.76,5.32,5.32,0,0,1-.51.93l.85.85a4.23,4.23,0,0,0-.51,1,2.14,2.14,0,0,1-.51.85l-.34.34a4.16,4.16,0,0,0-1.79,1.19q-.76.85-1.62,1.7a5.93,5.93,0,0,0-1.19,2.55h1v.17a13.31,13.31,0,0,0-2.55,4.08L300,195a13.59,13.59,0,0,0-2,3.15,3.6,3.6,0,0,1-2.72,2.13,2,2,0,0,1,0,1.62,4.32,4.32,0,0,1-1.11,1.44l-1.53,1.36a6.42,6.42,0,0,0-1.11,1.19,12.65,12.65,0,0,1-5.1,3.57,14.68,14.68,0,0,1-7.65,1.36,23,23,0,0,1-7.82-1.7,23.68,23.68,0,0,1-6.8-4.25,22.61,22.61,0,0,1-7.05-11.64,73.49,73.49,0,0,1-2-13.69,3.26,3.26,0,0,0-.17-1,.71.71,0,0,0-.17-.51.21.21,0,0,1,0-.34,4.88,4.88,0,0,0,.08-1.53,12,12,0,0,1-.08-1.53,3,3,0,0,1,.34-1.36c.11-.34.2-.62.25-.85a4.59,4.59,0,0,0,.08-1,2,2,0,0,1,.25-.85l.43-.85c.23-.34.45-.71.68-1.11a1.62,1.62,0,0,0,0-1.45,28.61,28.61,0,0,0,1.19-2.72,28.64,28.64,0,0,1,1.19-2.72q1.53-2.55,3.31-5.27a31.14,31.14,0,0,1,4-4.93,16,16,0,0,1,4.93-3.4,12.57,12.57,0,0,1,6.29-.85,14.61,14.61,0,0,1,6.46,2.29,11.22,11.22,0,0,1,4.42,5.19l.94,1.87a15,15,0,0,1,.77,1.87,10.38,10.38,0,0,1,.34,2.46,15.93,15.93,0,0,0,.17,2.3,1.81,1.81,0,0,1,0,1.53l-1.28,2.55a5.15,5.15,0,0,1-2,2,.3.3,0,0,1-.34.34,2.31,2.31,0,0,1-.94,1.7,5.19,5.19,0,0,0-1.28,1.19,6.77,6.77,0,0,1-1.1.59.93.93,0,0,0-.6.94,1.87,1.87,0,0,0-1.28,1,5.81,5.81,0,0,1-.6,1.19l-.51.76c-.11.17-.45.14-1-.08a1.52,1.52,0,0,0-.77.25,3.92,3.92,0,0,0-.76.59,3.69,3.69,0,0,1-2.12.77,5.66,5.66,0,0,1-2.12-.94,1.74,1.74,0,0,1-2.38.17,1.94,1.94,0,0,1-.08.6,1.83,1.83,0,0,0-.09.59l.94.34a8.19,8.19,0,0,0,1.11.34,2.11,2.11,0,0,1-1.19.51,1.9,1.9,0,0,0-.85.17,9.61,9.61,0,0,1-.51,1.7q-.34.85-.68,1.87,1.19.68.68,2.38a6.47,6.47,0,0,0-.26,2.29,5.56,5.56,0,0,0,.94,2.47v.34a4.44,4.44,0,0,0,.94,3,11.56,11.56,0,0,0,2.13,2q1,1.36,2.21.68a7.45,7.45,0,0,1,3.91-1,2.51,2.51,0,0,0,2.72-.85h.17l.34-.17a1.23,1.23,0,0,0,1.28-.34,2.12,2.12,0,0,1,1.28-.68,1.17,1.17,0,0,0,.51-.08.75.75,0,0,1,.34-.08c.57-.23,1-.4,1.45-.51a4.64,4.64,0,0,1,1.28-.17,5.91,5.91,0,0,0,1.87-.34,21.63,21.63,0,0,1,2.29-1.44,6.65,6.65,0,0,0,2-1.62,7.87,7.87,0,0,1,1.79-1.36,12.36,12.36,0,0,0,1.79-1.19,8.46,8.46,0,0,1,.85-.51,2.63,2.63,0,0,0,.68-.51l.6-.59a5.29,5.29,0,0,1,.76-.59A4,4,0,0,1,303.79,184.45ZM272.5,171.53a6.06,6.06,0,0,1-.17,3.74c-.23.68,0,1,.68,1a1,1,0,0,1,.68.17.48.48,0,0,0,.34.17,6.1,6.1,0,0,0,1.79.08,3.32,3.32,0,0,0,1.79-.76,1,1,0,0,1,.68-.34,1.51,1.51,0,0,0,.68-.17c.57-.23,1.13-.48,1.7-.76a3.08,3.08,0,0,0,1.36-1.45,3.72,3.72,0,0,1,.68-1.53,6.67,6.67,0,0,0,.85-1.53,1.22,1.22,0,0,0-.17-1,14.12,14.12,0,0,1-.51-1.44,7.84,7.84,0,0,0-.51-1.28,14,14,0,0,0-.6-2.63q-.43-1.28-.77-2.46a5.2,5.2,0,0,0-.85-1.45,11.44,11.44,0,0,1-.85-1.11,3.68,3.68,0,0,0-1-1.78,11,11,0,0,1-1.36-1.45.3.3,0,0,0-.34-.34l-.34.68a12.2,12.2,0,0,1-.51,1.79c-.23.62-.45,1.22-.68,1.79a2.8,2.8,0,0,1-.34,1.53,11.83,11.83,0,0,0-.68,4.08,3.69,3.69,0,0,1-.68,3.06,11.81,11.81,0,0,0-.85,1.7A2.19,2.19,0,0,0,272.5,171.53Zm3.4,8.5a.91.91,0,0,1-.85.26,5.36,5.36,0,0,0-.85-.08c.34-.34.56-.51.68-.51A4.87,4.87,0,0,1,275.9,180Zm41.65-14.45q.17-1.19,1.87-1.87a8.2,8.2,0,0,1,.17,1.87q0,1.19-.85,1.36a2.25,2.25,0,0,0-.59.42l-.43.43-.34.34a5.67,5.67,0,0,0-2.38,2.72q-.51.51-.34.51a1.64,1.64,0,0,0-.68.85,4.29,4.29,0,0,1-.51,1,2,2,0,0,1-.26.42,1.88,1.88,0,0,0-.25.43,9.19,9.19,0,0,0-.6,1,3.28,3.28,0,0,1-.59.85,4.45,4.45,0,0,1-2.89,1.7,27.26,27.26,0,0,0,2.72-3.23l.34-.68a8.32,8.32,0,0,1,.93-1.7q.59-.85,1.11-1.7c0-.11,0-.17.09-.17s.08-.06.08-.17a2.75,2.75,0,0,1,.77-1.45,4.92,4.92,0,0,1,1.28-.93,4.88,4.88,0,0,0,.93-.85A3.12,3.12,0,0,0,317.56,165.58Z"/>
    <path class="tn-letter" d="M333.7,200.43a1.44,1.44,0,0,1-.68.59,2,2,0,0,0-.85.94q-.34.51-.76,1.27a6.6,6.6,0,0,1-1.11,1.45,4.26,4.26,0,0,0-.68.93,2.75,2.75,0,0,1-.85.94,4.16,4.16,0,0,0-1.27,1,6.07,6.07,0,0,1-1.45,1.19c-.23.23-.48.45-.76.68a1.26,1.26,0,0,1-1.28,0,1.27,1.27,0,0,0-.76.34,4.57,4.57,0,0,1-.77.51l-.85.25a3.64,3.64,0,0,1-.85.08q-1.19.34-1.87-1.19a1.84,1.84,0,0,0-.85-.68,9.23,9.23,0,0,1-4.59-3.57,2.62,2.62,0,0,0-.68-.51,2.66,2.66,0,0,1-.68-.51,1,1,0,0,0,.17-.68,2.51,2.51,0,0,0,.25-1.27,2.58,2.58,0,0,0-.77-1.11,2.72,2.72,0,0,1-1.87-2.38q-.17-1-.26-2a11.74,11.74,0,0,0-.42-2.21A7.07,7.07,0,0,1,309,192a6.29,6.29,0,0,0-.42-2.63V188a12.6,12.6,0,0,0,.17-2,9.5,9.5,0,0,1,.17-1.87v-.34a8,8,0,0,1-.25-2.55q.08-1.19.08-2.55V176.8a5.13,5.13,0,0,1-.17-1.53q.17-1,.25-2.12a11.42,11.42,0,0,1,.42-2.29c.23-.23.28-.37.17-.42s-.17-.2-.17-.42a2.87,2.87,0,0,0-.17-.85.77.77,0,0,1,.17-.85,8.11,8.11,0,0,0,.34-2.21,15.71,15.71,0,0,1,.17-2.21,15.85,15.85,0,0,0,.17-2.21,5,5,0,0,1,.34-1.87v-.51c-.11-.68-.2-1.33-.25-2a4.81,4.81,0,0,1,.08-1.62,9.4,9.4,0,0,0-1.19-5.1,1.33,1.33,0,0,0-1.36-1,11.29,11.29,0,0,1-1.87,3.91,17.19,17.19,0,0,0-1.53,1,7.84,7.84,0,0,0-1.36,1.36.36.36,0,0,0-.25.08c-.06.06-.2.08-.42.08v-.68a6.22,6.22,0,0,0,.42-1.79,2.31,2.31,0,0,1,.94-1.62,1,1,0,0,0,.17-.68,2.58,2.58,0,0,1,1-2,9.06,9.06,0,0,0,2.55-2.55l.6-.6.59-.59a2.63,2.63,0,0,1,.42.51,2.3,2.3,0,0,0,.42.51,1.54,1.54,0,0,0,1.7-.68,1.63,1.63,0,0,1,1.7-.34,6.25,6.25,0,0,0,1.79,1,3.69,3.69,0,0,1,1.61,1.19,1,1,0,0,0,.6.68,5.41,5.41,0,0,1,.93.51,8.88,8.88,0,0,1,3.06,2.72q.34,1,1.7.34a4.64,4.64,0,0,1,1.28,1.53q.42.85.76,1.7a6.35,6.35,0,0,0,.94,1.36,1.91,1.91,0,0,1,.25,1.87h1.19a2.24,2.24,0,0,0,.43.6,2.31,2.31,0,0,1,.42.59,1.85,1.85,0,0,1,.51,1.7.39.39,0,0,0,.25.42.39.39,0,0,1,.25.42,1.16,1.16,0,0,0,.08.51,1.77,1.77,0,0,1,.08.68l-.17.34a3.47,3.47,0,0,1,.34,2.55,6.29,6.29,0,0,0-.17,2.55,16.21,16.21,0,0,1,.08,2.89,9.56,9.56,0,0,0,.26,2.89,11.85,11.85,0,0,1,.42,2.21,3.81,3.81,0,0,1-.42,2,2.68,2.68,0,0,0-.17,1.62,3.94,3.94,0,0,1,0,1.61,26.38,26.38,0,0,0,0,4.25,1.18,1.18,0,0,1,.08.77,4.64,4.64,0,0,0-.08.93,2.38,2.38,0,0,1-.17,1q-.34,1.36-.59,2.46a5.23,5.23,0,0,0,.08,2.46,4,4,0,0,1-.08.76,3.78,3.78,0,0,0-.08.77v1.7a10.57,10.57,0,0,0,1-.85,5.86,5.86,0,0,0,.68-.85l2.13-2.46a5,5,0,0,1,3-1.62.9.9,0,0,0,1-1,2.3,2.3,0,0,1,.17-1.53,3.94,3.94,0,0,1,.68-1c.45-.57.85-1.1,1.19-1.62a2.85,2.85,0,0,1,1.53-1.1.5.5,0,0,1,.17.34.48.48,0,0,0,.17.34,1.46,1.46,0,0,1,0,1.87,4.77,4.77,0,0,0-1.36,3.06c0,.23-.06.34-.17.34a7.55,7.55,0,0,0-1,1.61q-.34.77-.68,1.62a2.62,2.62,0,0,0-.42.94,2.75,2.75,0,0,1-.42.93.36.36,0,0,1-.08.25.34.34,0,0,0-.08.25,1.91,1.91,0,0,1-.68,2A3.12,3.12,0,0,0,333.7,200.43ZM311.6,135c-.23-.45-.4-.82-.51-1.1a5.38,5.38,0,0,0-.51-.94,2.5,2.5,0,0,1-.25-1.44,1.43,1.43,0,0,1,.59-1.11,1.71,1.71,0,0,0,1-.76,9.25,9.25,0,0,0,.34-1.11c.11-.68.68-1.19,1.7-1.53a9.15,9.15,0,0,1,1.87-.51,3.46,3.46,0,0,1,1.87.17q.68.68,1.87-.17a2.92,2.92,0,0,1,2.13-.76,9,9,0,0,1,2.13.42,5.33,5.33,0,0,0,1.53.34,5.84,5.84,0,0,1,2,1,.81.81,0,0,1,.42.59,2.62,2.62,0,0,0,.42.93,6.65,6.65,0,0,0,1.53,2,6.81,6.81,0,0,1,1.36,4.08,1.35,1.35,0,0,1-.17.85q-.68.34-.51.93a1.28,1.28,0,0,1-.17,1.11q-.17.68-.51,2.38a1.28,1.28,0,0,0-.76.76q-.26.6-1.11.42-.68,2.21-3.4,1.7a7.79,7.79,0,0,0-1.1-.17,4.14,4.14,0,0,0-1.11.34,8.13,8.13,0,0,1-1.27-.42,8.64,8.64,0,0,0-1.28-.42v.17l-.34-.68a3.71,3.71,0,0,0-1-1.19,4,4,0,0,0-1.53-.51c-.45,0-.79-.28-1-.85a10.21,10.21,0,0,1-1.53-1.19,10.23,10.23,0,0,0-1.36-1.19,2.17,2.17,0,0,0-.51-.85A1.7,1.7,0,0,1,311.6,135Zm30.94,47.43a9,9,0,0,1-1.7,2.72,15.43,15.43,0,0,1-.85-1.36q.34-.85.68-1.79a4.35,4.35,0,0,1,1-1.61h1a6.67,6.67,0,0,0,.08.93A1.55,1.55,0,0,1,342.54,182.41Zm1.7-3.23c-.23.68-.62.91-1.19.68a10.75,10.75,0,0,0-.17-2c.45.23.82.43,1.11.6A.59.59,0,0,1,344.24,179.18Zm.51-2.55a2.94,2.94,0,0,0,.59-.94c.17-.4.31-.76.42-1.1l.68.34A1.74,1.74,0,0,1,344.75,176.63Z"/>
    <path class="tn-letter" d="M347.3,198.9a13.32,13.32,0,0,0-.26-2.63q-.25-1.27-.59-2.63a1.06,1.06,0,0,0-.17-.59,5,5,0,0,1-.34-.6l-3.4-4.59.85-.85a5.48,5.48,0,0,0,.25-3.91,20.36,20.36,0,0,1-.76-3.91,26.57,26.57,0,0,1,.59-8.25,35.43,35.43,0,0,0,.93-8.08q0-5.44-.34-10.71t-.51-10.71a113.34,113.34,0,0,1,1.53-20.57l1-5.44q.51-2.72,1.19-5.61.51-2,.93-4.17a11.06,11.06,0,0,0-.08-4.5,3.12,3.12,0,0,1,0-2,7,7,0,0,0,.42-2.89,5.63,5.63,0,0,1,.59-2.89,1.39,1.39,0,0,0-.34-1,2.55,2.55,0,0,0-.59-.68,3.84,3.84,0,0,1-.59-.51q-1.7-1.19-.51-2.72a1.49,1.49,0,0,0,.42-.76,2.64,2.64,0,0,1,.42-.93l.85-.85a1.6,1.6,0,0,0,1.45,0,2,2,0,0,1,1.45-.17,5.32,5.32,0,0,0,1.53-.34,1.57,1.57,0,0,1,1.36-.34,6.83,6.83,0,0,1,1.36.51q1,.34,1.7.51h.51a6.54,6.54,0,0,0,2.29,1.36q1.1.34,2.29.68a1.5,1.5,0,0,0,.85.42,2.65,2.65,0,0,1,1,.43h.51a6.79,6.79,0,0,0,2.29,1.53A6.8,6.8,0,0,1,369.74,92a12,12,0,0,1,2.38,4.5,21.93,21.93,0,0,1,.77,5.1,42.79,42.79,0,0,1-.17,5.35q-.26,2.72-.26,5.1-.17,3.4-.59,7t-1.1,7a38.11,38.11,0,0,0-.43,4.25,33.61,33.61,0,0,1-.42,4.08q-.51,2.89-.93,5.7t-.77,5.52a110.5,110.5,0,0,0-1,12.24Q367,163.88,367,170v7q0,3.57.17,7.14.17,3.4.42,6.89t.42,7.05q.34,2.72.68,5.53a7,7,0,0,0,2.55,4.67,3.69,3.69,0,0,0,2.46,1.44,5.77,5.77,0,0,0,2.55-.42,11.78,11.78,0,0,0,2.46-1.36q1.19-.85,2.21-1.7,1.19-1,2.3-2a16.24,16.24,0,0,1,2.46-1.87,5.25,5.25,0,0,1,2.38-.51,1.61,1.61,0,0,0,1.7-1.36,21.31,21.31,0,0,1,1.36-2.89,28.9,28.9,0,0,0,2.46-2.81,24.51,24.51,0,0,0,2-3,16.25,16.25,0,0,1,1.36-2.29,14.08,14.08,0,0,0,1.19-2,11.86,11.86,0,0,1,1.53-2.12,5.29,5.29,0,0,0,1.19-2.12c0-.11.11-.28.34-.51a4.67,4.67,0,0,0,1.45-2c.28-.79.59-1.59.93-2.38a5.34,5.34,0,0,0,.51-.94,5.1,5.1,0,0,1,.51-.93c3.07-1.87,1.47.45,2.38.68v.17a4.71,4.71,0,0,1,.85,1.87c0,.34-.4,1-1.19,1.87a.93.93,0,0,0-.34.59,7.33,7.33,0,0,0,.17,1.11l-1,.68-1,.68a.92.92,0,0,0-.42.34,2.49,2.49,0,0,1-.42.51q-.68,1.36-1.28,2.63a5.4,5.4,0,0,1-1.78,2.13.54.54,0,0,0-.34.51v.51a14,14,0,0,0-1.19,2l-.68.68a5.92,5.92,0,0,1-2,3.23,16.94,16.94,0,0,0-2.64,2.72,10.8,10.8,0,0,1-1,1.44,3.45,3.45,0,0,1-1.36.94.15.15,0,0,0-.17.17.5.5,0,0,1-.17.34,2.73,2.73,0,0,1-2.21,1.7,1.38,1.38,0,0,0-1.36,1.53,1.39,1.39,0,0,1-.34,1l-.68.68q-.85.68-1.87,1.36a12,12,0,0,0-1.87,1.53,2.61,2.61,0,0,1,.34,1l-.34.34a11.65,11.65,0,0,0-1.79.42,4.31,4.31,0,0,0-1.61,1.11,2.89,2.89,0,0,1-1,.59,2.8,2.8,0,0,0-1,.6,5,5,0,0,0-1.19,1.36,6.14,6.14,0,0,1-.93,1c-.17.11-.65.06-1.45-.17a8.08,8.08,0,0,0-2-.08c-.68.06-1.47.14-2.38.25q-.17,0-.25.25a.79.79,0,0,1-.42.42,5.07,5.07,0,0,0-3.4-.17,8.61,8.61,0,0,1-3.4,0,1.76,1.76,0,0,1-1.7-1q-1-2-2.72-1.36-1,.51-1.7-1-1-1.53-2.12-3.14t-2.12-3.32q-.68-1-1.53-2.12a7.32,7.32,0,0,1-1.19-2.12,16.82,16.82,0,0,0-.85-1.79A4.74,4.74,0,0,1,347.3,198.9Zm47.26-4.59c-.23.57-.42,1-.59,1.36a5.68,5.68,0,0,0-.43,1.19q1.19.34,1.53,0Q395.75,195.84,394.56,194.31Z"/>
    <path class="tn-letter" d="M397.62,191.76a8,8,0,0,1-.08,1.1,8.79,8.79,0,0,0-.08,1.28,3,3,0,0,0,.34.85,4.65,4.65,0,0,0,1.19-2.21,2.78,2.78,0,0,1,2.21-2.21,3.86,3.86,0,0,0,1.53-.85,3.69,3.69,0,0,0,.85-.76,3.76,3.76,0,0,1,.85-.77q1.19-.85,2.38-1.61A22.16,22.16,0,0,0,409,185c.68-.57,1.39-1.11,2.13-1.62s1.45-1,2.13-1.62a1.89,1.89,0,0,0,.68-1.87,7.76,7.76,0,0,0-.94-3.06q-.76-1.36-1.44-2.72a8.35,8.35,0,0,0-1.39-.42c-.11-.06-5.33,6.83-5.33,6.71-.23-1.13,3.55-7.45,3-8.19s1.07-3,.51-3.88l-.34-.68a7.54,7.54,0,0,0-1.19-2.55,10.89,10.89,0,0,1-1.36-2.55,4.08,4.08,0,0,0-.68-1,3.66,3.66,0,0,1-1-1.11q-.34-.59-.68-1.27a13.63,13.63,0,0,1-.85-2.12q-.34-1.1-.68-2.12a4.11,4.11,0,0,1-.42-1.28,2.88,2.88,0,0,0-.6-1.28,2.89,2.89,0,0,1-.17-1.19v-1a2.62,2.62,0,0,1,.85-3.06,1.5,1.5,0,0,1-.42-.85,3.14,3.14,0,0,0-.26-.85,2.42,2.42,0,0,1,0-1.79,2.17,2.17,0,0,1,1-1.27,28.25,28.25,0,0,0,2.72-1.7,2,2,0,0,1,1.19-.59,4.17,4.17,0,0,0,1.36-.43l.34.17a18,18,0,0,1,2.38-.51,24.49,24.49,0,0,0,2.55-.51,3.14,3.14,0,0,1,.85-.25,3,3,0,0,0,.85-.25h.68a4.81,4.81,0,0,1,3.57,0,1.09,1.09,0,0,0,.85,0,3.26,3.26,0,0,1,1-.17,1.38,1.38,0,0,1,1,.68c0,.11.28.17.85.17a2.43,2.43,0,0,1,1.87,1,5.72,5.72,0,0,1,1,3.23,14.94,14.94,0,0,0,.17,2.29q.17,1.11.34,2.29v1.36a5.53,5.53,0,0,0,.17,1.36,2.47,2.47,0,0,1,0,1.27c-.11.4-.23.88-.34,1.45-.11-.11-.2-.17-.25-.17s-.14-.06-.25-.17a5,5,0,0,0-1.19,1.36,5,5,0,0,0,.34.6,1.06,1.06,0,0,1,.17.59,3,3,0,0,1-1.19,3.06l-1.19,1.19h-1.19a6.45,6.45,0,0,1-.51-1.36c-.45.45-.68.74-.68.85q0,1,.51,1a2.81,2.81,0,0,1,1.28.94l.76,1.1a8.45,8.45,0,0,1,1,1.19,3.69,3.69,0,0,1,.68.85q.85,1.53,1.62,3.06t1.62,3.06a3.55,3.55,0,0,0,.68.85,3.61,3.61,0,0,1,1.53-.93,1.88,1.88,0,0,0,1.19-1.45c.11-.57.68-.79,1.7-.68a9.48,9.48,0,0,1,.76-1.28,8.75,8.75,0,0,1,.94-1.1l1.19-.77c.45-.28.85-.54,1.19-.76a8.23,8.23,0,0,0,1.7-1.53,4.08,4.08,0,0,1,2-1.36l2.38-.68a1.54,1.54,0,0,1,.68.17l.68.34q.51.34.17,1.19a5.46,5.46,0,0,0,.34,1.36,10.51,10.51,0,0,1-2.21,1.7,6.75,6.75,0,0,1-2.55.85,2.59,2.59,0,0,0-.34,1,.49.49,0,0,0-.34.17,1.87,1.87,0,0,0-1.7.68,10.51,10.51,0,0,1-1,1.45,10.89,10.89,0,0,0-1,1.44l-.68-.34a3,3,0,0,0-.85-.34c-.11,0-.28.23-.51.68-.11.11-.2.17-.25.17s-.14.06-.25.17a.49.49,0,0,0-.34.17,2.59,2.59,0,0,1-1,2.55,9.38,9.38,0,0,0-.68.76,9.49,9.49,0,0,1-.68.76v.68a9.59,9.59,0,0,1,1.19,2.72l.68,2.72a.72.72,0,0,0,.08.34.78.78,0,0,1,.08.34A3.26,3.26,0,0,1,432,184a14.92,14.92,0,0,1,.08,1.62,6.8,6.8,0,0,0,.17,1.87,4.23,4.23,0,0,1,.17,2.63q-.34,1.28-.68,2.46a3.19,3.19,0,0,0-.17,1,3.26,3.26,0,0,1-.17,1,5.09,5.09,0,0,1-1.19,2.72l-.76.76a2.34,2.34,0,0,0-.59.93,5.83,5.83,0,0,1-1,2,21.4,21.4,0,0,1-1.53,1.7q-.34.34-.77.85c-.28.34-.54.62-.76.85a3.24,3.24,0,0,0-1.28,1.36,9.91,9.91,0,0,1-1.1,1.7,2.06,2.06,0,0,1-.51.34,2.53,2.53,0,0,0-.68.51,3.48,3.48,0,0,1,.08-.85,2.86,2.86,0,0,0,.08-.68,14.57,14.57,0,0,0-2.12,1.11,18.67,18.67,0,0,0-2,1.44,8.85,8.85,0,0,0-1.19-.51,3.74,3.74,0,0,1,.17-1.19h-1.7a3.73,3.73,0,0,0-1.19.17,6.56,6.56,0,0,1-2.3.25c-.74-.06-1.44-.14-2.12-.25a19.83,19.83,0,0,1-2.63-.51l-2.63-.68a.35.35,0,0,0-.08-.25.66.66,0,0,1-.08-.42c-.34-.34-.45-.51-.34-.51a5,5,0,0,1-2-1,5.52,5.52,0,0,0-1.62-1,3.4,3.4,0,0,1-2.21-1.36,9.68,9.68,0,0,0,.51-1.19,13.8,13.8,0,0,0-.85-1.44q-.51-.77-1-1.62a.78.78,0,0,1-.17-.85,1.45,1.45,0,0,0,.08-1.27c-.17-.4-.37-.82-.59-1.28a1.63,1.63,0,0,0,.76-1.44,5.35,5.35,0,0,1,.08-1.62,1.69,1.69,0,0,0,.77.17,1.71,1.71,0,0,1,.76.17Zm5.1,1.19a8,8,0,0,0-2,2,3.86,3.86,0,0,0-.43,3,1.82,1.82,0,0,1,.08.93q-.09.42.6.6c.34.23.62.42.85.59s.51.14.85-.08q1.19,1.87,2.55.85a2.77,2.77,0,0,1,2-.51,1.74,1.74,0,0,1,1.7-1.19,1.1,1.1,0,0,0,1-.68,8.54,8.54,0,0,0,1.53-2.55q.68-1.19,1.36-2.29a8.76,8.76,0,0,0,1-2.46q.17-.85.34-1.79a9,9,0,0,1,.51-1.79,1.63,1.63,0,0,0-.51-1.53c-.57.34-1.11.65-1.62.94a5,5,0,0,0-1.45,1.27l-.51.51a11.53,11.53,0,0,0-4.76,4.08,12.93,12.93,0,0,0-1.45,1.7,13.17,13.17,0,0,1-1.44,1.7q-.34.85-1-.17l1-3.06Zm16.66-48.11a6.73,6.73,0,0,0-1.44-.42,4.11,4.11,0,0,1-1.28-.43,4.42,4.42,0,0,0-2.46,0,3.5,3.5,0,0,0-1.45,1.87c-.11.11-.17.2-.17.25s-.06.14-.17.26a2.55,2.55,0,0,1,.34,1.7,3.72,3.72,0,0,0,.08,2.38,5.71,5.71,0,0,1,.42,2.21l.51.51c.23.34.42.65.59.93s.37.6.59.94a1.09,1.09,0,0,0,1.19.51l.68-.34c.45.34.57.65.34.93a1.28,1.28,0,0,0-.34.77c.68-.34,1.11-.57,1.28-.68a2.44,2.44,0,0,0,.59-1c.11-.11.2-.17.25-.17s.14-.06.25-.17a3.72,3.72,0,0,0,.94-1.19c.06-.23-.14-.62-.6-1.19a3,3,0,0,0,.34-2.72v-.51A4.54,4.54,0,0,0,420,147Q419.72,145.86,419.38,144.84Zm-.17,11.73q-1,.51-1.87.85l1,.68A1.23,1.23,0,0,0,419.21,156.57Z"/>
    <path class="tn-letter" d="M603.49,191.59a1.78,1.78,0,0,0-.28-.1,3.85,3.85,0,0,1-2.1,1.59,2.42,2.42,0,0,1-.33.2,7.15,7.15,0,0,1-.29.75,10.1,10.1,0,0,1-1.12,2.13,9.06,9.06,0,0,1-3.95,3.2,25,25,0,0,1-2.2,2.35c-1.89,1.86-4,3.46-5.87,5.37A3.88,3.88,0,0,1,586,208a3,3,0,0,0-1.56,1.62,6.67,6.67,0,0,0-.59,1.11.72.72,0,0,1-.94.42,1.11,1.11,0,0,0-1.36.85.67.67,0,0,1-.51.68l-1.28.93a10,10,0,0,1-1.28.77l-.34.34H578a2.29,2.29,0,0,0-2,1,.15.15,0,0,1-.17.17h-.34a.55.55,0,0,1-.51.34v-.51a1.49,1.49,0,0,1,.17-.68,1.54,1.54,0,0,0,.17-.68,5.35,5.35,0,0,0,.08-1.62,1.44,1.44,0,0,0-.59-1.11,1.54,1.54,0,0,1-.68-1.87q.34-1.19.68-3.06a.15.15,0,0,0,.17-.17c.34-.11.51-.23.51-.34v-.51a13.4,13.4,0,0,0-.25-2.64,4.09,4.09,0,0,1,.25-2.46v-.68a2.9,2.9,0,0,1,.17-1.19.68.68,0,0,1,.17-.51.7.7,0,0,0,.17-.51,6.82,6.82,0,0,0,.08-1.87c-.06-.68-.08-1.36-.08-2a1.83,1.83,0,0,1,.08-.59,1.43,1.43,0,0,0,.08-.43v-1.87a5.46,5.46,0,0,1,.34-2,.56.56,0,0,0,.17-.68.55.55,0,0,1,.17-.68v-1.36a15,15,0,0,1,.42-1.87,6.48,6.48,0,0,0,.25-1.87,5.3,5.3,0,0,1,.17-1.45q.17-.59.34-1.45a9.33,9.33,0,0,0,.51-1.79,4.76,4.76,0,0,0,0-1.78,3.65,3.65,0,0,1,0-2.21q.34-1.53.6-3a18.11,18.11,0,0,0,.25-3.14,7.72,7.72,0,0,1,.51-2.72,12.51,12.51,0,0,0-.34-4.08,3.12,3.12,0,0,1,0-2,2.16,2.16,0,0,0-.08-1.78c-.28-.51-.59-1-.94-1.62a1.35,1.35,0,0,1-.17-1.87,7.28,7.28,0,0,0,0-2.21,10.66,10.66,0,0,1-.59-1.45c-.17-.51-.37-1-.59-1.62l-.34-.34a10,10,0,0,1-1.19-1.36,3,3,0,0,1-.25-.77,1.49,1.49,0,0,0-.42-.76,13,13,0,0,0-.84-2.21,5.93,5.93,0,0,0-1.52-1.87,8.44,8.44,0,0,1-.93-1.1c-.28-.4-.54-.77-.76-1.11s-.45-.51-.68-.51a1.87,1.87,0,0,1-1.61-.34,3.39,3.39,0,0,1-.93-1.36,2.49,2.49,0,0,0-1.18-.85.79.79,0,0,0-.42-.43,4.21,4.21,0,0,1-.59-.25,7,7,0,0,0-1.1-.59,2.8,2.8,0,0,0-1.1-.25c-.79,0-1.52,0-2.2-.08a3.64,3.64,0,0,1-2-.94h-.17c-.68,0-1.33,0-1.95-.08a16.19,16.19,0,0,1-1.77-.25,2.41,2.41,0,0,0-1.78,0,2,2,0,0,1-1.61,0v.17h-.34q-.51.51-.68.51c-.45-.34-.79-.11-1,.68l-1,1.36-1,1.36a4.1,4.1,0,0,0-.59.76q-.25.43-.42.77l-.34.68-.34.68c-.34.57-.71,1.13-1.1,1.7a4.56,4.56,0,0,0-.76,1.87,5.76,5.76,0,0,1-1.1,2.29,5.75,5.75,0,0,0-1.1,2.29,2.1,2.1,0,0,1-.34,1.19,10.81,10.81,0,0,0-.68,1.19,5,5,0,0,0-.34,1.87,3.56,3.56,0,0,1-.51,1.87.8.8,0,0,0-.25.77,4,4,0,0,1,.08.76,10.71,10.71,0,0,0-1,2.38c-.23.11-.34.23-.34.34a.49.49,0,0,1-.17.34l-.34.68-.34.68-1,3.57c0,.45-.17.68-.51.68a1.79,1.79,0,0,0-.68,1.53v1.1a3.53,3.53,0,0,1-.17,1.11.45.45,0,0,1-.51.51l-.17.17a3.58,3.58,0,0,1-1,1.53,14,14,0,0,0-.59,1.36,2,2,0,0,1-.76,1v.51a10.27,10.27,0,0,0-.51,1.62,6.33,6.33,0,0,1-.51,1.45,16.15,16.15,0,0,1-1.1,1.61,6.59,6.59,0,0,0-.94,1.62,13.9,13.9,0,0,0-.59,1.36,5.44,5.44,0,0,1-.76,1.36,2.6,2.6,0,0,0-.34,1q-.34.68-.68,1.27a4.73,4.73,0,0,0-.51,1.45H526v-3.06c.11-.68.2-1.39.25-2.12s.14-1.45.25-2.12a19.55,19.55,0,0,1,.76-2,3.32,3.32,0,0,0,.25-2v-.51a14.53,14.53,0,0,0,.6-1.87,3.59,3.59,0,0,0-.08-2v-1a1.92,1.92,0,0,0-.17-2v-1a4.85,4.85,0,0,0-.34-2.55v-.34q-.34-1.53-.51-2.81a8.48,8.48,0,0,0-.85-2.63,1.49,1.49,0,0,1-.17-.68,1,1,0,0,0-.34-.68,19.44,19.44,0,0,0-1.36-1.53,17.76,17.76,0,0,1-1.36-1.53,3.16,3.16,0,0,1-.59-.85,3.29,3.29,0,0,0-.59-.85q-.85-.51-1.62-1c-.51-.34-1-.68-1.45-1a1.62,1.62,0,0,0-1.36-.68.9.9,0,0,1-1-1h-2.21a10.78,10.78,0,0,0-2-.68,3.85,3.85,0,0,1-1-.68,1.54,1.54,0,0,0-2.21-.17,1,1,0,0,1-.68-.34,4.61,4.61,0,0,1-.93-.08,4.86,4.86,0,0,0-.94-.08,2.43,2.43,0,0,0-1.1-.08,1.52,1.52,0,0,1-1.11-.25q-1-.68-1.53-.34a13.34,13.34,0,0,0-1.45.08,4.32,4.32,0,0,0-1.45.42,8.46,8.46,0,0,0-2.55,1.53,1.07,1.07,0,0,0-.51.59,2.29,2.29,0,0,1-.51.77,1.65,1.65,0,0,1-.6.42,1.7,1.7,0,0,0-.59.42q-1.19.17-1.19,1.19a1.87,1.87,0,0,1-.08.59.77.77,0,0,0,.08.59,2.61,2.61,0,0,1,.43.51,2.3,2.3,0,0,0,.42.51,1.08,1.08,0,0,0,.68-.85,5.28,5.28,0,0,0,.51-.68,1.78,1.78,0,0,1,1.19-1.11,1.15,1.15,0,0,1,1.36.43,1.83,1.83,0,0,0,1.36.51,4.46,4.46,0,0,1,1.11.08c.17.06.37.37.59.93a15.38,15.38,0,0,1,.85,1.62,3.1,3.1,0,0,1,.17,1.79v.34q.17.85.34,1.53a6.43,6.43,0,0,1,.17,1.53,1.13,1.13,0,0,1,.17,1,3.75,3.75,0,0,0-.17,1.19v1.36a15.35,15.35,0,0,1-.42,1.87,2.94,2.94,0,0,0,0,1.66,1.4,1.4,0,0,0-.62,1.23,3.83,3.83,0,0,1-1.1,2.3,3.69,3.69,0,0,0-1.11,2.13.66.66,0,0,1-.51.68,14.94,14.94,0,0,0-3.4,3.06,3.23,3.23,0,0,0-.59.85,4,4,0,0,1-.76,1,1,1,0,0,0,.68.17,2.24,2.24,0,0,0,2.38-1.7,1.11,1.11,0,0,1,.51-.51,6.47,6.47,0,0,0,.77-1.1,1.65,1.65,0,0,1,.42-.6,1.78,1.78,0,0,0,1.45-.76l1.27-1.62a3.4,3.4,0,0,0,1-1.19l.22-.46a2,2,0,0,1-.22.8,10,10,0,0,0-.17,4.08,1.83,1.83,0,0,1-.34,1c-.23.23-.48.51-.77.85a2.05,2.05,0,0,0-.42,1.36q.17.68.25,1.19A1.62,1.62,0,0,1,501,180v.51q.17.85.25,1.53a12.67,12.67,0,0,1,.08,1.53q0,1.36-.08,2.55a5,5,0,0,0,.42,2.38v.85a9.06,9.06,0,0,0,1.7,6.63,1.49,1.49,0,0,1,.42.76,3,3,0,0,0,.25.77,1.51,1.51,0,0,1,.17.68,1.52,1.52,0,0,0,.17.68,7.13,7.13,0,0,1,.68,1,4.39,4.39,0,0,0,1.19,1.62,2.56,2.56,0,0,0,1.7.76.93.93,0,0,0,.59.34.57.57,0,0,1,.43.17c.34.45.71.91,1.1,1.36a1.39,1.39,0,0,0,1.62.34.15.15,0,0,1,.17.17.15.15,0,0,0,.17.17l1,.68a2.09,2.09,0,0,0,1.19.34,3.35,3.35,0,0,1,2.72,1,1.29,1.29,0,0,1,.51-.17.5.5,0,0,0,.34-.17,8,8,0,0,0,1.1-.08,7.57,7.57,0,0,1,1.11-.08c0,.11.17,0,.51-.34a.5.5,0,0,0,.34-.17c.11-.79.48-1.22,1.11-1.28a1.42,1.42,0,0,0,1.27-.93c.45,0,.71-.14.77-.43a2.62,2.62,0,0,1,.42-.93,5.46,5.46,0,0,0,.25-.59,4.4,4.4,0,0,1,.25-.6q.34-1.53.77-3t.76-3q.34-.17,0-.51a7.93,7.93,0,0,1,.17-3.65q.51-1.79,1-3.49a5.17,5.17,0,0,1,.85-1.45,1.39,1.39,0,0,0,0-1.61l.17-.17a6.86,6.86,0,0,1,.76-1.44,9.76,9.76,0,0,0,.77-1.28,15.62,15.62,0,0,1,1.19-1.7,2.15,2.15,0,0,0,.34-2,1.39,1.39,0,0,1,.51-.85,5.77,5.77,0,0,1,.42-1.19l.59-1.19a1.16,1.16,0,0,0,.34-.85,1.88,1.88,0,0,1,.17-.85,1.53,1.53,0,0,1,.51-1.36,7,7,0,0,0,1.53-4.59v-.51a9.85,9.85,0,0,0,.6-1,3.21,3.21,0,0,1,.59-.85,2.77,2.77,0,0,1,.93-1.27,2.78,2.78,0,0,0,.94-1.28v-.51a4.52,4.52,0,0,1,.51-2.55,1.37,1.37,0,0,0,.59-1,4.18,4.18,0,0,1,.42-1.36,2.78,2.78,0,0,1,.85-1,.49.49,0,0,1,.17-.34.49.49,0,0,0,.17-.34.7.7,0,0,1,.08-.77l.59-.59q.51-.85,1.11-1.7t1.1-1.7a2.66,2.66,0,0,0,.43-1.1,1.59,1.59,0,0,1,.42-.94,4.57,4.57,0,0,0,1.53-2.38.57.57,0,0,1,.26-.51,2.66,2.66,0,0,0,.42-.34l.59-.59.59-.6a11.27,11.27,0,0,0,1.87-3.91c.11-.45.51-.68,1.19-.68a8.13,8.13,0,0,0,2.38.85,1.87,1.87,0,0,1,1.19,1.87,17.62,17.62,0,0,0,.26,2.89,5.5,5.5,0,0,1-.26,2.89.68.68,0,0,0,.17.51.7.7,0,0,1,.17.51,3.76,3.76,0,0,0,.08.76,4.86,4.86,0,0,1,.08.93,11.83,11.83,0,0,0-.17,2,6.17,6.17,0,0,1-.34,2v.17a6.8,6.8,0,0,1,0,4.25,3.09,3.09,0,0,0-.25,1.53,4.86,4.86,0,0,1-.08,1.53q-.17.85-.34,1.44t-.34,1.45a3.78,3.78,0,0,0,.08.77,4,4,0,0,1,.08.76,16.2,16.2,0,0,0-.25,1.87,6.55,6.55,0,0,1-.42,1.87,15.15,15.15,0,0,0-.34,3.31,13.82,13.82,0,0,1-.51,3.66,14.75,14.75,0,0,0-.85,3.74v1.53a7.1,7.1,0,0,0,.08,1.19,2.13,2.13,0,0,1-.08,1,14.85,14.85,0,0,1-.08,1.62c-.06.51-.14,1-.25,1.62q-.34,1.36-.68,2.8a5.85,5.85,0,0,0,0,2.81,6.41,6.41,0,0,1-.25,2.72,9.6,9.6,0,0,0-.42,2.89,6.31,6.31,0,0,1,.08,1.79c-.06.62-.08,1.22-.08,1.79V203q0,1.19-.08,2.29c-.06.74-.08,1.5-.08,2.29v1.11a1.27,1.27,0,0,0,.34.93,3.37,3.37,0,0,1,.84,3.23,4.78,4.78,0,0,1-.08.93c-.06.28.2.43.76.43a.49.49,0,0,1,.17.34v.17a3.75,3.75,0,0,1,.76,2.46,4.31,4.31,0,0,0,.59,2.46,10.5,10.5,0,0,1,.84,1.79,5,5,0,0,0,1.18,1.79,7.3,7.3,0,0,1,1.18,1.1,3.14,3.14,0,0,1,.68,1.45,1.67,1.67,0,0,0,.34,1.19,10.47,10.47,0,0,1,1.43,1,1.56,1.56,0,0,0,1.6.17h.34a10.61,10.61,0,0,1,1.18.68,11.14,11.14,0,0,0,1.18.68,3.09,3.09,0,0,0,1.43.42,1.51,1.51,0,0,0,1.44-.59,2.31,2.31,0,0,0,.59-.43.46.46,0,0,1,.59-.08,1.15,1.15,0,0,0,1.35-.17,4.46,4.46,0,0,1,1.18-.85c.22-.23.45-.48.67-.76a3.66,3.66,0,0,1,.85-.77,4.61,4.61,0,0,0,.67-.42.87.87,0,0,1,.84-.08,3.39,3.39,0,0,0,2.7-1.53l-.34-.17a1.34,1.34,0,0,1-.25-.34.9.9,0,0,0-.42-.34.94.94,0,0,0,.42-.34.27.27,0,0,1,.25-.17,1.26,1.26,0,0,1,.51-.17.5.5,0,0,0,.34-.17l1-.68,1-.68q1-.68,1-1a4.7,4.7,0,0,1,2.72-2.21l1-.68a5.86,5.86,0,0,0,.85-.68,7.17,7.17,0,0,0,1.36-1,4.5,4.5,0,0,1,1.19-.85c.34-.23.65-.42.94-.6l.93-.59a8.87,8.87,0,0,0,2-1.87q.76-1,1.79-2.21c0-.23,0-.37.08-.42a.36.36,0,0,0,.08-.25,4.33,4.33,0,0,0,.42-1.45,1.79,1.79,0,0,1,.76-1.27,7.74,7.74,0,0,0,.87-.6,3.87,3.87,0,0,1,1-2.31c1-1.15,2-1.91,2.61-3.33a34,34,0,0,1,1.48-3.67,17.31,17.31,0,0,1,4-4.3Z"/>
    <path class="tn-letter" d="M491.8,179.35a1.72,1.72,0,0,1-.77.68,5.25,5.25,0,0,0-.93.51,6.56,6.56,0,0,1-2.55.17,8.74,8.74,0,0,1-2-.51q-1,0-1-.68a4.87,4.87,0,0,1-.51-2.21v-1.53a4.21,4.21,0,0,0-.34-1.53.15.15,0,0,1-.17-.17v-.34a2.3,2.3,0,0,0,.51-2.21,2.49,2.49,0,0,1,.17-2,1.57,1.57,0,0,0-.17-2,.33.33,0,0,1-.17-.51,1.52,1.52,0,0,0,.17-.68,5.16,5.16,0,0,1,.76-2A2.84,2.84,0,0,0,485,162l.51-.17a1.86,1.86,0,0,0-1.53-2.55,2,2,0,0,1-1.36-.34,2.06,2.06,0,0,0-.51-.34c-.23-.11-.34-.23-.34-.34a2,2,0,0,0-.51-2,1.72,1.72,0,0,1-.51-1.87c-.57-.23-.85-.57-.85-1a1.63,1.63,0,0,0-.51-1.19,2.93,2.93,0,0,1-.85-1.53c-.11-.57-.23-1.13-.34-1.7a2.44,2.44,0,0,0-1.87-2.21,12.2,12.2,0,0,0-.51-3.06,3.61,3.61,0,0,0-.68.85,5.83,5.83,0,0,0-1-2l-.25-1a4.4,4.4,0,0,1-.08-1,.63.63,0,0,0-.17-.77l-.85-.59a2,2,0,0,0-2.21,0l-.68-1a5.87,5.87,0,0,0-.68-.85,1,1,0,0,1-.25-.42q-.09-.25-.25-.25a2.29,2.29,0,0,1-1.62-.25,5.63,5.63,0,0,1-1.28-.94,3,3,0,0,0-1.19-.17,5,5,0,0,0-4.25,1.36,2,2,0,0,1,.76.42.69.69,0,0,0,.42.25,3.06,3.06,0,0,0,1.53-.51c.57.57.79,1,.68,1.19a4.3,4.3,0,0,1-1.44,2q-.94.68-2,1.36a1.61,1.61,0,0,1-.42-1.19,6.47,6.47,0,0,1,.25-1,1.76,1.76,0,0,0-.17-2.38.69.69,0,0,1-.17.51.49.49,0,0,0-.17.34,4.18,4.18,0,0,0-.42,1.36,1.29,1.29,0,0,1-.76,1,2.14,2.14,0,0,0-.85,1.27,10.59,10.59,0,0,1-.51,1.62c-.11.45-.23.93-.34,1.45a1.77,1.77,0,0,0,.68,1.61v.68a4,4,0,0,0,.51,3.06,3.74,3.74,0,0,1,.51,2.89V153a15.6,15.6,0,0,1,1.53,2.21,10.4,10.4,0,0,0,1.7,2.21,2.31,2.31,0,0,1,1,1.53,6.46,6.46,0,0,0,1.53,3.06,11.7,11.7,0,0,0,.85,1.7,3,3,0,0,1,.34,2v.76a1.67,1.67,0,0,0,.17.76,1.46,1.46,0,0,0,.6.6,4.11,4.11,0,0,1,.76.59V169a2.66,2.66,0,0,1-.42.34,4.2,4.2,0,0,0-.6.51,1.66,1.66,0,0,0-.34,1.53.28.28,0,0,1,.08.34.59.59,0,0,0,.08.51,2.5,2.5,0,0,1-.08.85,2.32,2.32,0,0,1-.93.51,1.53,1.53,0,0,0-1.36,1,17.37,17.37,0,0,1-1,1.7c-.79.57-1,1.19-.68,1.87a.67.67,0,0,1-.08.42.35.35,0,0,0-.08.25,3.76,3.76,0,0,1-.76-.08c-.28-.06-.42,0-.42.08a4.4,4.4,0,0,0-.17,1.36l.17.34c.34.23.45.48.34.76a2.27,2.27,0,0,1-.51.76,2.93,2.93,0,0,1-.43.34,4.19,4.19,0,0,0-.6.51,10.05,10.05,0,0,0-1.29.76,5.11,5.11,0,0,0-1.12,1.11,2.15,2.15,0,0,1-1.55.68c-.46.91-.75,1.36-.86,1.36a4.45,4.45,0,0,1-3.61-.68,2.58,2.58,0,0,1-.69-.51l-.68-.68q-1.2-.85-.86-1.87a12.59,12.59,0,0,1-1.38-1.19,5.29,5.29,0,0,1-1.63-2.8,17.92,17.92,0,0,1-.26-3.14.74.74,0,0,1,.08-.34.76.76,0,0,0,.08-.34,11.45,11.45,0,0,1,.51-5.27,1.63,1.63,0,0,0-.34-1.7,1.42,1.42,0,0,1,0-1.36.68.68,0,0,0,.34-.68v-3.91a4.14,4.14,0,0,1,.17-1.53,12,12,0,0,0,.87-1.7,11.58,11.58,0,0,1,.87-1.7c.46-.11.7-.51.7-1.19a3.32,3.32,0,0,1,1.92-2.72,4.16,4.16,0,0,0,1.13-1.7q.26-.85.61-2a7.6,7.6,0,0,0-1.36.68,3.74,3.74,0,0,1-1.36.51q-.68-1.19.68-1.87l1-.34a1.55,1.55,0,0,0,.85-.85q1.19-1.36,2.29-2.46a8.22,8.22,0,0,0,1.79-2.8,2,2,0,0,1-.85-.25c-.34-.17-.62,0-.85.42a1,1,0,0,1-.76.51,1.06,1.06,0,0,0-.77.34,2.32,2.32,0,0,0-.85.6,4.19,4.19,0,0,1-.51.59,2.65,2.65,0,0,1-.76.17,1.39,1.39,0,0,0-.59.17c-.23,0-.45.17-.68.51q-.85.85-1.87,1.7a14.69,14.69,0,0,0-1.87,1.87q-.85,1.36-1.61,2.55a4.22,4.22,0,0,1-2.12,1.7,1.28,1.28,0,0,0-.68.42,5.18,5.18,0,0,0-.34.59,3.82,3.82,0,0,1-.17,1.19l-.34,1a4,4,0,0,0-1.19,1.45c-.23.51-.45,1-.68,1.62a17.48,17.48,0,0,1-1,1.53,6.54,6.54,0,0,0-.85,1.53,5.65,5.65,0,0,0-.85,3.06,14.88,14.88,0,0,1-.08,1.62,4.06,4.06,0,0,1-.59,1.61,15.86,15.86,0,0,0-.34,3.06q0,1.87.17,3.91a15,15,0,0,0,.85,3.91,14.38,14.38,0,0,0,2,4.76c.34.57.65,1.1.94,1.61a3.4,3.4,0,0,0,1.27,1.28v.51a6.84,6.84,0,0,1,.6.68,4.7,4.7,0,0,1,.42.68,7.62,7.62,0,0,1,1.27,2.13,10.69,10.69,0,0,0,1.11,2.13,3.42,3.42,0,0,0,1.7,1,7.13,7.13,0,0,1,1.36,1,7,7,0,0,1,1,1.36,1.66,1.66,0,0,0,.51.59,6.45,6.45,0,0,1,.68.59L451,199.5a7.75,7.75,0,0,1,2,1.44,1.39,1.39,0,0,0,.85.51,4.2,4.2,0,0,1,2.38,0,12.79,12.79,0,0,0,2.21.51,7.12,7.12,0,0,1,1.19.08,1.4,1.4,0,0,0,1-.25,1.26,1.26,0,0,1,1.1-.43,1.6,1.6,0,0,1,.94.43,3.45,3.45,0,0,0,1.53,0,2.44,2.44,0,0,1,1.7-.85q1.7,0,1.87-.85a9.48,9.48,0,0,0,1.11-.34,2.05,2.05,0,0,1,.76-.17,5.82,5.82,0,0,0,2.55-1.53,14.11,14.11,0,0,0,5.44-4.59l1-1q1-1.87,2-3.48t1.79-3.49a1.64,1.64,0,0,1,2.55-1,6.82,6.82,0,0,0,2.55.17,3.6,3.6,0,0,0,2-1.36,2.71,2.71,0,0,0,.85-1.53c0-.79.45-1.19,1.36-1.19a2.09,2.09,0,0,0,.93-.34,1.25,1.25,0,0,0,.59-1.19Q492,178.67,491.8,179.35Zm-21.59-32.81c-.68.34-1.08.34-1.19,0a.69.69,0,0,1,.17-.51,1.28,1.28,0,0,0,.51.17Q469.87,146.2,470.21,146.54Zm-1.7,11.9a4.09,4.09,0,0,1-1.7,0,1.63,1.63,0,0,1-.59-.51.47.47,0,0,1,.08-.68c.45-.23.71-.17.76.17a1.92,1.92,0,0,0,.59,1A2.87,2.87,0,0,0,468,158a1.27,1.27,0,0,1,.51-.42Zm1.19-3.23a3.18,3.18,0,0,1-1,.17c-.11,0-.28-.14-.51-.42s-.45-.31-.68-.08a1.65,1.65,0,0,0-.42.59,5.23,5.23,0,0,1-.25.59v.17h-.34l-2.64-2.63a5.79,5.79,0,0,1-1.61-3.14,9,9,0,0,1-.51-1.79q-.17-.93-.34-1.79a.38.38,0,0,1-.08-.42,1.43,1.43,0,0,0,.08-.43,4.06,4.06,0,0,1,.42-1.1q.26-.42-.25-1.28v-.34a4.84,4.84,0,0,0,1-1.45,3.93,3.93,0,0,1,1.19-1.44,1.47,1.47,0,0,1,1-.51,7.11,7.11,0,0,0,1.27.51,4,4,0,0,1,1.11.51,2.16,2.16,0,0,1,.68,1.53,1.2,1.2,0,0,0,.85,1.19q1.36.85-.17,1.36-.34.17-.68,1.1a4.63,4.63,0,0,0-.34,1.28,7.47,7.47,0,0,0,1,2.38,1.34,1.34,0,0,0,.08.42,1.92,1.92,0,0,1,.08.6h-.17c-.34-.11-.51-.23-.51-.34v-.17l-.17-.34h-.17l-.17.34v.17a2.15,2.15,0,0,1,.17,1.53q-.17,1,1.19,1.36l.42.42a2.31,2.31,0,0,1,.42.59c.11,0,.17.17.17.51A.49.49,0,0,1,469.7,155.21Zm.51-4.08c-.23-.23-.4-.34-.51-.34,0-.23.06-.34.17-.34H470a.15.15,0,0,1,.17.17c0,.11.11.23.34.34Z"/>
  </g>
</svg>
