<svg xmlns="http://www.w3.org/2000/svg" xmlns:xlink="http://www.w3.org/1999/xlink" preserveAspectRatio="xMidYMid" width="12.88" height="12.91" viewBox="0 0 12.88 12.91">
  <defs>
    <style>
      .close-alt {
        fill: #000;
        stroke: #000;
        stroke-width: 1px;
        fill-rule: evenodd;
      }
    </style>
  </defs>
  <path d="M7.854,6.440 L12.097,10.683 C12.487,11.074 12.487,11.706 12.097,12.097 C11.706,12.487 11.074,12.487 10.683,12.097 L6.440,7.854 L2.197,12.097 C1.808,12.487 1.174,12.487 0.783,12.097 C0.393,11.706 0.393,11.074 0.783,10.683 L5.026,6.440 L0.783,2.198 C0.393,1.807 0.393,1.173 0.783,0.783 C1.174,0.393 1.808,0.393 2.197,0.783 L6.440,5.026 L10.683,0.783 C11.074,0.393 11.706,0.393 12.097,0.783 C12.487,1.173 12.487,1.807 12.097,2.198 L7.854,6.440 Z" class="close-alt"/>
</svg>
