<?xml version="1.0" encoding="utf-8"?>
<!-- Generator: Adobe Illustrator 19.0.0, SVG Export Plug-In . SVG Version: 6.00 Build 0)  -->
<!DOCTYPE svg PUBLIC "-//W3C//DTD SVG 1.1//EN" "http://www.w3.org/Graphics/SVG/1.1/DTD/svg11.dtd">
<svg version="1.1" id="All_glyphs" xmlns="http://www.w3.org/2000/svg" xmlns:xlink="http://www.w3.org/1999/xlink" x="0px" y="0px"
	 viewBox="-389.5 272.5 18 18" style="enable-background:new -389.5 272.5 18 18;" xml:space="preserve">
<style type="text/css">
	.st0{fill:#757575;}
</style>
<path class="st0" d="M-373.5,273.5c0.552,0,1,0.449,1,1v14c0,0.552-0.449,1-1,1h-14c-0.551,0-1-0.449-1-1v-14c0-0.551,0.448-1,1-1
	H-373.5 M-373.5,272.5h-14c-1.104,0-2,0.895-2,2v14c0,1.105,0.895,2,2,2h14c1.105,0,2-0.896,2-2v-14
	C-371.5,273.395-372.395,272.5-373.5,272.5L-373.5,272.5z"/>
</svg>
