<svg xmlns="http://www.w3.org/2000/svg" xmlns:xlink="http://www.w3.org/1999/xlink" preserveAspectRatio="xMidYMid" width="59" height="48" viewBox="0 0 59 48">
  <defs>
    <style>
      .cls-1 {
        fill: #fff;
        filter: url(#filter-chain-1);
        fill-rule: evenodd;
      }
    </style>

    <filter id="filter-chain-1" filterUnits="userSpaceOnUse">
      <feOffset dy="2" in="SourceAlpha"/>
      <feGaussianBlur stdDeviation="2" result="dropBlur"/>
      <feFlood flood-opacity="0.2"/>
      <feComposite operator="in" in2="dropBlur" result="dropShadowComp"/>
      <feGaussianBlur stdDeviation="1.333" in="SourceAlpha"/>
      <feComposite/>
      <feComposite/>
      <feComposite result="outerGlowBlur"/>
      <feFlood flood-opacity="0.2"/>
      <feComposite operator="in" in2="outerGlowBlur"/>
      <feBlend in2="dropShadowComp" result="outerGlow"/>
      <feComposite in="SourceGraphic" result="shadowed"/>
    </filter>
  </defs>
  <path d="M49.402,37.414 C49.626,38.096 50.000,39.147 50.487,40.192 C51.304,41.949 52.120,42.999 52.120,42.999 C52.120,42.999 50.075,43.131 47.034,41.227 C45.396,40.201 44.611,39.479 44.235,39.032 C43.397,39.151 42.528,39.213 41.640,39.213 C34.427,39.213 28.581,35.096 28.581,30.018 C28.581,24.939 34.427,20.822 41.640,20.822 C48.853,20.822 54.700,24.939 54.700,30.018 C54.700,33.050 52.616,35.739 49.402,37.414 ZM27.573,28.013 C25.626,28.561 23.501,28.862 21.275,28.862 C20.139,28.862 19.029,28.783 17.955,28.634 C17.154,29.411 15.290,31.088 12.976,32.285 C9.870,33.890 7.536,33.938 7.536,33.938 C7.536,33.938 8.622,32.136 9.364,30.645 C9.977,29.412 10.927,27.262 11.239,26.554 C7.031,24.383 4.300,20.883 4.300,16.933 C4.300,10.346 11.900,5.005 21.275,5.005 C30.650,5.005 38.251,10.346 38.251,16.933 C38.251,18.035 38.038,19.102 37.640,20.115 C33.107,20.877 29.346,23.915 27.573,28.013 Z" class="cls-1"/>
</svg>
