<?xml version="1.0" encoding="utf-8"?>
<!-- Generator: Adobe Illustrator 20.1.0, SVG Export Plug-In . SVG Version: 6.00 Build 0)  -->
<svg version="1.1" id="Layer_1" xmlns="http://www.w3.org/2000/svg" xmlns:xlink="http://www.w3.org/1999/xlink" x="0px" y="0px"
	 viewBox="0 0 36 36" style="enable-background:new 0 0 36 36;" xml:space="preserve">
<title>twitter-2</title>
<path d="M29.4,18.7c-0.1-0.9-0.4-1.6-0.9-2.1c-0.6-0.5-1.2-0.7-2.1-0.7c-0.9,0-1.6,0.3-2.1,0.8c-0.5,0.5-0.8,1.2-0.9,2.1H29.4z
	 M32.9,18.4C33,19,33,19.9,33,21.1h-9.8c0.1,1.4,0.5,2.3,1.4,2.8c0.5,0.3,1.2,0.5,1.9,0.5c0.8,0,1.4-0.2,1.9-0.6
	c0.3-0.2,0.5-0.5,0.8-0.9h3.6c-0.1,0.8-0.5,1.6-1.3,2.4c-1.2,1.3-2.8,1.9-5,1.9c-1.8,0-3.3-0.6-4.7-1.7c-1.3-1.1-2-2.9-2-5.4
	c0-2.3,0.6-4.1,1.8-5.3c1.2-1.2,2.8-1.9,4.8-1.9c1.2,0,2.2,0.2,3.1,0.6c0.9,0.4,1.7,1.1,2.3,2C32.4,16.4,32.7,17.3,32.9,18.4
	 M14.4,21.4c0-1-0.4-1.6-1.2-2c-0.4-0.2-1.1-0.3-1.9-0.3h-4v5h3.9c0.8,0,1.4-0.1,1.9-0.3C14,23.4,14.4,22.6,14.4,21.4 M7.3,16h3.9
	c0.8,0,1.5-0.2,2-0.5c0.5-0.3,0.8-0.9,0.8-1.6c0-0.8-0.3-1.4-1-1.7c-0.6-0.2-1.3-0.3-2.2-0.3H7.3V16z M17.6,19
	c0.5,0.8,0.7,1.7,0.7,2.7c0,1.1-0.3,2.1-0.8,3c-0.4,0.6-0.8,1.1-1.3,1.5c-0.6,0.4-1.3,0.8-2.1,0.9c-0.8,0.2-1.7,0.3-2.6,0.3H3V8.7h9
	c2.3,0,3.9,0.7,4.8,2c0.6,0.8,0.9,1.7,0.9,2.8c0,1.1-0.3,2.1-0.9,2.7c-0.3,0.4-0.8,0.8-1.4,1.1C16.4,17.7,17.1,18.2,17.6,19
	 M30.1,11.3h-7.5V9.4h7.5V11.3z"/>
</svg>
