<?xml version="1.0" encoding="utf-8"?>
<!-- Generator: Adobe Illustrator 20.1.0, SVG Export Plug-In . SVG Version: 6.00 Build 0)  -->
<svg version="1.1" id="Layer_1" xmlns="http://www.w3.org/2000/svg" xmlns:xlink="http://www.w3.org/1999/xlink" x="0px" y="0px"
	 viewBox="0 0 36 36" style="enable-background:new 0 0 36 36;" xml:space="preserve">
<title>twitter-2</title>
<path d="M24.6,28.6c-0.6-2.9-1.4-5.5-2.1-7.9c0.8-0.1,1.5-0.2,2.4-0.2l0,0l0,0l0,0c1.4,0,2.9,0.2,4.6,0.6
	C28.9,24.2,27.1,26.9,24.6,28.6 M18,30.7c-2.6,0-5-0.9-7-2.3c0.4-0.7,1.3-2,2.7-3.3c1.4-1.4,3.5-2.8,6.1-3.7
	c0.9,2.5,1.7,5.4,2.3,8.6C20.9,30.4,19.5,30.7,18,30.7 M6.3,19c0-0.1,0-0.1,0-0.2c0.3,0,0.8,0,1.3,0l0,0c2.3,0,6.4-0.2,10.6-1.5
	c0.2,0.5,0.4,1,0.7,1.5c-2.8,0.9-5,2.4-6.6,3.9c-1.5,1.4-2.6,2.8-3.2,3.8C7.4,24.5,6.3,21.9,6.3,19 M12.8,8.5c0.8,1,2.4,3.1,4.2,6.4
	c-3.5,1.1-7.1,1.3-9.2,1.3c-0.1,0-0.1,0-0.2,0l0,0c-0.4,0-0.7,0-0.9,0C7.5,12.8,9.8,10,12.8,8.5 M18,7.3c2.8,0,5.3,1,7.3,2.6
	c-1.5,1.8-3.5,3.1-5.7,4.1c-1.5-3-3-5.1-4-6.4C16.3,7.4,17.1,7.3,18,7.3 M27.2,11.8c1.5,1.9,2.4,4.2,2.5,6.7
	C28,18.1,26.4,18,24.9,18l0,0l0,0c-1.2,0-2.3,0.1-3.4,0.3c-0.3-0.6-0.5-1.2-0.8-1.8C23.1,15.4,25.3,13.9,27.2,11.8 M18,4
	C9.7,4,3,10.7,3,19s6.7,15,15,15s15-6.7,15-15S26.3,4,18,4z"/>
</svg>
