<svg id="Layer_1" data-name="Layer 1" xmlns="http://www.w3.org/2000/svg" viewBox="0 0 36 36"><title>instagram-2</title><path d="M11.7,3H24.3A8.71,8.71,0,0,1,33,11.7V24.3A8.7,8.7,0,0,1,24.3,33H11.7A8.71,8.71,0,0,1,3,24.3V11.7A8.7,8.7,0,0,1,11.7,3m-.3,3A5.4,5.4,0,0,0,6,11.4H6V24.6A5.4,5.4,0,0,0,11.4,30H24.6A5.4,5.4,0,0,0,30,24.6h0V11.4A5.4,5.4,0,0,0,24.6,6H11.4M25.88,8.25A1.88,1.88,0,1,1,24,10.13a1.88,1.88,0,0,1,1.88-1.88M18,10.5A7.5,7.5,0,1,1,10.5,18,7.5,7.5,0,0,1,18,10.5m0,3A4.5,4.5,0,1,0,22.5,18,4.5,4.5,0,0,0,18,13.5Z"/></svg>