<svg id="Layer_1" data-name="Layer 1" xmlns="http://www.w3.org/2000/svg" viewBox="0 0 306.34 160.28"><defs><style>.cls-1{fill:#ff0;}</style></defs><title>title-other</title><path class="cls-1" d="M56.95,92.35q.17-.68,1.53-.34a1.25,1.25,0,0,1-.6,1.19,2.08,2.08,0,0,1-.94.34c-.91,0-1.36.4-1.36,1.19a2.71,2.71,0,0,1-.85,1.53,3.59,3.59,0,0,1-2,1.36,6.8,6.8,0,0,1-2.55-.17,1.64,1.64,0,0,0-2.55,1q-.85,1.87-1.78,3.48t-2,3.49l-1,1a14.11,14.11,0,0,1-5.44,4.59,5.82,5.82,0,0,1-2.55,1.53,2.06,2.06,0,0,0-.76.17,9.42,9.42,0,0,1-1.1.34q-.17.85-1.87.85a2.44,2.44,0,0,0-1.7.85,3.44,3.44,0,0,1-1.53,0,1.59,1.59,0,0,0-.94-.42,1.26,1.26,0,0,0-1.1.42,1.4,1.4,0,0,1-1,.26,7.12,7.12,0,0,0-1.19-.08,12.78,12.78,0,0,1-2.21-.51,4.2,4.2,0,0,0-2.38,0,1.39,1.39,0,0,1-.85-.51,7.77,7.77,0,0,0-2-1.45l-2.21-1.1a6.45,6.45,0,0,0-.68-.59,1.66,1.66,0,0,1-.51-.6,7,7,0,0,0-1-1.36,7.08,7.08,0,0,0-1.36-1,3.42,3.42,0,0,1-1.7-1,10.62,10.62,0,0,1-1.1-2.12,7.61,7.61,0,0,0-1.28-2.12,4.63,4.63,0,0,0-.42-.68,6.7,6.7,0,0,0-.6-.68v-.51A3.41,3.41,0,0,1,4,99.41c-.28-.51-.59-1-.94-1.62A14.38,14.38,0,0,1,1,93a15,15,0,0,1-.85-3.91Q0,87.08,0,85.21a15.82,15.82,0,0,1,.34-3.06,4.06,4.06,0,0,0,.59-1.62A14.73,14.73,0,0,0,1,78.92a5.65,5.65,0,0,1,.85-3.06,6.68,6.68,0,0,1,.85-1.53,17.39,17.39,0,0,0,1-1.53q.34-.85.68-1.62a3.93,3.93,0,0,1,1.19-1.44l.34-1a3.81,3.81,0,0,0,.17-1.19,5.22,5.22,0,0,1,.34-.6,1.28,1.28,0,0,1,.68-.42,4.21,4.21,0,0,0,2.13-1.7q.77-1.19,1.62-2.55a14.58,14.58,0,0,1,1.87-1.87q1-.85,1.87-1.7c.23-.34.45-.51.68-.51a1.39,1.39,0,0,1,.59-.17,2.66,2.66,0,0,0,.77-.17,4.2,4.2,0,0,0,.51-.6,2.31,2.31,0,0,1,.85-.59,1.06,1.06,0,0,1,.77-.34,1,1,0,0,0,.77-.51c.23-.45.51-.6.85-.43a2,2,0,0,0,.85.26,8.24,8.24,0,0,1-1.79,2.8q-1.11,1.11-2.29,2.47a1.55,1.55,0,0,1-.85.85l-1,.34q-1.36.68-.68,1.87A3.74,3.74,0,0,0,16,63.45a7.68,7.68,0,0,1,1.36-.68q-.35,1.19-.61,2a4.14,4.14,0,0,1-1.13,1.7,3.32,3.32,0,0,0-1.92,2.72c0,.68-.23,1.08-.7,1.19a11.9,11.9,0,0,0-.88,1.7,11.8,11.8,0,0,1-.87,1.7A4.12,4.12,0,0,0,11,75.35v3.91a.69.69,0,0,1-.34.68,1.42,1.42,0,0,0,0,1.36A1.63,1.63,0,0,1,11,83a11.46,11.46,0,0,0-.51,5.27.75.75,0,0,1-.08.34.74.74,0,0,0-.08.34,17.82,17.82,0,0,0,.26,3.15,5.29,5.29,0,0,0,1.63,2.81,12.54,12.54,0,0,0,1.38,1.19q-.34,1,.86,1.87l.69.68a2.58,2.58,0,0,0,.69.51,4.45,4.45,0,0,0,3.61.68c.11,0,.4-.45.86-1.36a2.15,2.15,0,0,0,1.55-.68A5.11,5.11,0,0,1,23,96.69a9.93,9.93,0,0,1,1.29-.76,4.14,4.14,0,0,1,.6-.51,2.84,2.84,0,0,0,.43-.34,2.27,2.27,0,0,0,.51-.77c.11-.28,0-.54-.34-.77l-.17-.34a4.39,4.39,0,0,1,.17-1.36c0-.11.14-.14.42-.08a3.81,3.81,0,0,0,.77.08.34.34,0,0,1,.08-.25.68.68,0,0,0,.08-.43c-.34-.68-.11-1.3.68-1.87a17.09,17.09,0,0,0,1-1.7,1.53,1.53,0,0,1,1.36-1,2.33,2.33,0,0,0,.94-.51,2.5,2.5,0,0,0,.08-.85.59.59,0,0,1-.08-.51.28.28,0,0,0-.09-.34,1.66,1.66,0,0,1,.34-1.53,4.19,4.19,0,0,1,.59-.51,2.67,2.67,0,0,0,.43-.34v-.51a4.12,4.12,0,0,0-.77-.6,1.47,1.47,0,0,1-.6-.59,1.68,1.68,0,0,1-.17-.77v-.77a3,3,0,0,0-.34-2,11.73,11.73,0,0,1-.85-1.7A6.47,6.47,0,0,1,27.88,72a2.31,2.31,0,0,0-1-1.53,10.39,10.39,0,0,1-1.7-2.21A15.55,15.55,0,0,0,23.63,66v-.51a3.74,3.74,0,0,0-.51-2.89,4,4,0,0,1-.51-3.06v-.68a1.77,1.77,0,0,1-.68-1.62q.17-.76.34-1.44a10.65,10.65,0,0,0,.51-1.62,2.13,2.13,0,0,1,.85-1.27,1.28,1.28,0,0,0,.76-1,4.16,4.16,0,0,1,.43-1.36.49.49,0,0,1,.17-.34.69.69,0,0,0,.17-.51,1.76,1.76,0,0,1,.17,2.38,6.51,6.51,0,0,0-.25,1,1.61,1.61,0,0,0,.43,1.19q1-.68,2-1.36a4.3,4.3,0,0,0,1.45-2q.17-.34-.68-1.19a3.06,3.06,0,0,1-1.53.51.7.7,0,0,1-.43-.26,2,2,0,0,0-.76-.42,5,5,0,0,1,4.25-1.36,3,3,0,0,1,1.19.17,5.66,5.66,0,0,0,1.27.94,2.29,2.29,0,0,0,1.61.25q.17,0,.26.25a1,1,0,0,0,.25.43A5.8,5.8,0,0,1,35,51l.68,1a2,2,0,0,1,2.21,0l.85.6a.62.62,0,0,1,.17.77,4.44,4.44,0,0,0,.08,1l.25,1a5.83,5.83,0,0,1,1,2,3.63,3.63,0,0,1,.68-.85,12.2,12.2,0,0,1,.51,3.06,2.44,2.44,0,0,1,1.87,2.21l.34,1.7a2.93,2.93,0,0,0,.85,1.53A1.63,1.63,0,0,1,45,66.34c0,.45.28.79.85,1a1.71,1.71,0,0,0,.51,1.87,2,2,0,0,1,.51,2c0,.11.11.23.34.34a2.08,2.08,0,0,1,.51.34,2,2,0,0,0,1.36.34,1.86,1.86,0,0,1,1.53,2.55l-.51.17a2.85,2.85,0,0,1-.26,2.29,5.16,5.16,0,0,0-.76,2,1.53,1.53,0,0,1-.17.68.33.33,0,0,0,.17.51,1.57,1.57,0,0,1,.17,2,2.49,2.49,0,0,0-.17,2,2.3,2.3,0,0,1-.51,2.21v.34a.15.15,0,0,0,.17.17,4.21,4.21,0,0,1,.34,1.53v1.53a4.87,4.87,0,0,0,.51,2.21c0,.45.34.68,1,.68a8.74,8.74,0,0,0,2,.51,6.58,6.58,0,0,0,2.55-.17,5.3,5.3,0,0,1,.93-.51A1.72,1.72,0,0,0,56.95,92.35ZM18.87,61.92c0-.68.23-1,.68-.85l.34.17q-.34.68-.51.68Zm16,6.29a.49.49,0,0,0,.17-.34c0-.34-.06-.51-.17-.51a2.3,2.3,0,0,0-.42-.6L34,66.34Q32.64,66,32.81,65a2.14,2.14,0,0,0-.17-1.53v-.17l.17-.34H33l.17.34v.17c0,.11.17.23.51.34h.17a1.9,1.9,0,0,0-.08-.59,1.35,1.35,0,0,1-.08-.43,7.5,7.5,0,0,1-1-2.38A4.63,4.63,0,0,1,33,59.12q.34-.93.68-1.1,1.53-.51.17-1.36A1.2,1.2,0,0,1,33,55.46a2.16,2.16,0,0,0-.68-1.53,4,4,0,0,0-1.1-.51,7.08,7.08,0,0,1-1.27-.51,1.47,1.47,0,0,0-1,.51,3.93,3.93,0,0,0-1.19,1.44,4.87,4.87,0,0,1-1,1.44v.34q.51.85.25,1.27a4.08,4.08,0,0,0-.43,1.1,1.41,1.41,0,0,1-.08.42.38.38,0,0,0,.08.43q.17.85.34,1.78a9,9,0,0,0,.51,1.79A5.79,5.79,0,0,0,29,66.6l2.63,2.63H32v-.17a5.23,5.23,0,0,0,.25-.59,1.65,1.65,0,0,1,.42-.6c.23-.23.45-.2.68.08s.4.43.51.43A3.19,3.19,0,0,0,34.85,68.21Zm-1.19,2.38a1.26,1.26,0,0,0-.51.42,2.87,2.87,0,0,1-.34.43,1.93,1.93,0,0,1-.59-1c-.06-.34-.31-.4-.77-.17a.47.47,0,0,0-.08.68,1.64,1.64,0,0,0,.6.51,4.11,4.11,0,0,0,1.7,0Zm1.7-11.05c-.23-.23-.4-.34-.51-.34a1.28,1.28,0,0,1-.51-.17.69.69,0,0,0-.17.51C34.28,59.88,34.68,59.88,35.36,59.54ZM35.7,64c-.23-.11-.34-.23-.34-.34a.15.15,0,0,0-.17-.17H35c-.11,0-.17.11-.17.34.11,0,.28.11.51.34ZM69.19,78.24a1.37,1.37,0,0,1,.25,1.61,14,14,0,0,0-.77,1.62q-.34.85-.68,1.53a3.41,3.41,0,0,1-1,1.19L65.7,85.81a1.78,1.78,0,0,1-1.44.77,1.65,1.65,0,0,0-.42.59,6.55,6.55,0,0,1-.77,1.1,1.1,1.1,0,0,0-.51.51,2.24,2.24,0,0,1-2.38,1.7,1,1,0,0,1-.68-.17,4,4,0,0,0,.76-1,3.21,3.21,0,0,1,.6-.85,14.91,14.91,0,0,1,3.4-3.06.67.67,0,0,0,.51-.68,3.69,3.69,0,0,1,1.11-2.12A3.83,3.83,0,0,0,67,80.28,1.4,1.4,0,0,1,67.66,79,9.76,9.76,0,0,1,69.19,78.24Z"/><path class="cls-1" d="M118.15,83.68q.85,1.36.77,1.7a8,8,0,0,1-1.1,1.7c-.23.23-.34.4-.34.51a8.22,8.22,0,0,0,.17,1l-1,.68a5.71,5.71,0,0,0-.85.68,3.05,3.05,0,0,0-.85.85q-.51,1.19-1.1,2.29a6.62,6.62,0,0,1-1.61,2c-.23.11-.34.4-.34.85a7.6,7.6,0,0,0-1.19,1.87l-.51.51a4.8,4.8,0,0,1-1.7,3,11.8,11.8,0,0,0-2.38,2.63,11.9,11.9,0,0,1-.85,1.1,2.32,2.32,0,0,1-1.36.77.35.35,0,0,1-.08.25.34.34,0,0,0-.08.25,2,2,0,0,1-2,1.53c-.91.11-1.36.57-1.36,1.36a1.63,1.63,0,0,1-1,1.53L97.66,112A17.1,17.1,0,0,0,96,113.43a2.6,2.6,0,0,1,.34,1c-.11,0-.17,0-.17.08s-.06.08-.17.08l-1.61.34A2.61,2.61,0,0,0,93,116a3,3,0,0,1-.94.6,2.89,2.89,0,0,0-.94.6,5.86,5.86,0,0,0-1.19,1.19q-.51.85-.77.94a3.75,3.75,0,0,1-1.27-.08A4,4,0,0,0,86,119q-1,.08-2,.26-.17,0-.25.25a.79.79,0,0,1-.43.42,6.31,6.31,0,0,0-3.23-.17,2.56,2.56,0,0,1-1.44.25,14.3,14.3,0,0,0-1.61-.08,2.72,2.72,0,0,1-1.53-1.19q-.85-1.7-2.38-1a1.8,1.8,0,0,1-1.7-.85q-.85-1.53-1.78-3.06t-1.79-2.89q-.68-1-1.44-2a6.15,6.15,0,0,1-1.1-2q-.34-.85-.77-1.7a4.5,4.5,0,0,1-.43-2,10.2,10.2,0,0,0-.25-2.29q-.25-1.1-.59-2.29A4.42,4.42,0,0,1,63,98l-.25-.77L59.67,93.2a2.46,2.46,0,0,1,.51-.42.93.93,0,0,0,.34-.43,4.15,4.15,0,0,0,.25-3.4A17.29,17.29,0,0,1,60,85.38,21.64,21.64,0,0,1,60.6,78a29.8,29.8,0,0,0,.94-7.4q0-4.42-.34-9t-.51-9H46.75V49.68H60.69a71.18,71.18,0,0,1,.17-8.58q.34-4.16,1-8.42l1-5.1q.51-2.55,1.19-4.93a40,40,0,0,0,.85-3.91,9.06,9.06,0,0,0-.17-3.91,3.12,3.12,0,0,1,0-2,6.28,6.28,0,0,0,.42-2.63,5.08,5.08,0,0,1,.6-2.64,1.47,1.47,0,0,0-.51-1,.79.79,0,0,0-.43-.42,1.63,1.63,0,0,1-.59-.42q-1.53-1.19-.34-2.55l.34-.68.34-.68.85-.85a1.27,1.27,0,0,0,1.27,0A1.68,1.68,0,0,1,68,.72h.68a1,1,0,0,0,.68-.34A1.73,1.73,0,0,1,70.72,0a9.62,9.62,0,0,1,1.19.51,3.16,3.16,0,0,0,.68.25,3.63,3.63,0,0,1,.68.25h.68a4,4,0,0,0,2,1.1q1.1.26,2.13.6a12.71,12.71,0,0,0,1.7.68.15.15,0,0,0,.17.17h.17A6.2,6.2,0,0,0,82.19,5,5.27,5.27,0,0,1,84.32,6.5a12,12,0,0,1,2.21,4.08,17.85,17.85,0,0,1,.76,4.59,33.57,33.57,0,0,1-.17,4.76,43.18,43.18,0,0,0-.25,4.59q-.17,3.23-.6,6.38t-1.1,6.37A27.59,27.59,0,0,0,84.74,41a28.35,28.35,0,0,1-.43,3.74q-.17,1.36-.25,2.47a15.24,15.24,0,0,1-.42,2.46h18.19v2.89H83.3A9.93,9.93,0,0,0,83,55q-.68,5.44-.94,11t-.25,11.05q0,3.23.08,6.38t.25,6.38q0,3.23.26,6.38t.59,6.38q.17,2.38.51,4.84a7.44,7.44,0,0,0,2.21,4.33A3.25,3.25,0,0,0,87.89,113a5.84,5.84,0,0,0,2.38-.34,9.93,9.93,0,0,0,2.29-1.19,14.35,14.35,0,0,0,2-1.61q1-.85,2-1.79a8.68,8.68,0,0,1,2.29-1.61,3,3,0,0,1,2.12-.6,1.45,1.45,0,0,0,1.62-1.27,14.09,14.09,0,0,0,.59-1.36,3.33,3.33,0,0,1,.77-1.19q1-1.36,2-2.63a28,28,0,0,0,1.87-2.64,13.77,13.77,0,0,1,1.19-2,14,14,0,0,0,1.19-2A10.5,10.5,0,0,1,111.35,91a6.08,6.08,0,0,0,1-1.87l.51-.51a5.81,5.81,0,0,0,1.28-1.87c.28-.68.59-1.36.93-2a5.83,5.83,0,0,1,.85-1.7l2,.51Zm-10.88,17.68q.51-.85-.51-2.21a4.26,4.26,0,0,0-.43,1.19,2.67,2.67,0,0,1-.42,1C106.59,101.59,107,101.59,107.27,101.36Zm99.11,4.76c.57.34.68.57.34.68a2.78,2.78,0,0,0,.85,2,1.44,1.44,0,0,1,.85,1.19,3.83,3.83,0,0,1-.17,1.19c-.34.68-.65,1.27-.94,1.79s-.6,1-.94,1.61l-.68,1.7a12.23,12.23,0,0,1-.85,1.7q-.68,1.19-1.53,2.38a4.26,4.26,0,0,0-.43,1.19,4.43,4.43,0,0,1-.43,1.19c-.11.23-.4.68-.85,1.36a5.29,5.29,0,0,1-1.11,1.87q-.76.85-1.61,1.7a8.1,8.1,0,0,0-.77,1.61,8.29,8.29,0,0,1-.77,1.62,2.88,2.88,0,0,1-.51,1.1,2.78,2.78,0,0,0-.51,1.1l-.34.17v.17a2.21,2.21,0,0,1,0,1.7q-.34.68-.68,1.53a21.78,21.78,0,0,0-2.72,5.87,38.57,38.57,0,0,1-2.22,5.86q-.86,1.36-1.79,3a12.83,12.83,0,0,1-2,2.63,17.5,17.5,0,0,1-2.74,1.45q-2.05.93-2.22,1.61c-.12,0-.17,0-.17.08s-.06.08-.17.08h-.17q-.86-.51-2.31.94a10.46,10.46,0,0,1-2.14,1.79,8.48,8.48,0,0,1-7.69-1.87,10.55,10.55,0,0,1-4.36-5.44q-1.63-3.91-2.65-6.8a10.56,10.56,0,0,1-.94-4c-.06-1.42-.08-2.86-.08-4.33a65.87,65.87,0,0,1,.59-8.84,51.58,51.58,0,0,0,.43-8.84q-.17-9.18.34-18.53t.17-18.53V77.9a4,4,0,0,1-.25-1.87,2.07,2.07,0,0,0-.59-1.7,6.19,6.19,0,0,1-1.52.17,2.23,2.23,0,0,0-1.85.85,12.89,12.89,0,0,1-1.6,2,16.76,16.76,0,0,0-1.77,2.13,3.9,3.9,0,0,0-.67,1.53,1.05,1.05,0,0,1-.42.25,1.08,1.08,0,0,0-.42.25,2.6,2.6,0,0,1-.67,1.36c-.34.57-.62,1-.85,1.36a11.66,11.66,0,0,0-.67,1.19,10.15,10.15,0,0,0-1.18,2,19.6,19.6,0,0,0-1.1,2.21q-.42,1-.76,2a8.57,8.57,0,0,0-.5.85l-.34.68c-.22.57-.5,1.19-.84,1.87s-.62,1.3-.84,1.87l-.17.34-.17.17a1.8,1.8,0,0,0-1.09,1A4.34,4.34,0,0,0,144,100a4.19,4.19,0,0,0-.6,1.79c-.06.62-.09,1.22-.09,1.79a1,1,0,0,0-.08.68,2.81,2.81,0,0,1,.08.68,13.74,13.74,0,0,0,.17,2.13,15.33,15.33,0,0,1,.17,2.29,26.83,26.83,0,0,1-.94,9.27,33.26,33.26,0,0,0-1.28,9.1,2,2,0,0,1,.09,2.38q-.77,1-1.45,1.87l-.17.34v.17a1,1,0,0,0-.26.42.39.39,0,0,1-.42.26c-.46-.23-.79-.26-1-.08a6,6,0,0,0-.68.59l-.6.6a2.19,2.19,0,0,0-.42.59,3.22,3.22,0,0,1-.77.25,2.94,2.94,0,0,0-.76.26c-.23.45-.51.68-.85.68-.11,0-.2-.11-.25-.34a1.09,1.09,0,0,0-.26-.51,15.47,15.47,0,0,0-1.36.85,3.24,3.24,0,0,1-.77.26c-.28.06-.54-.14-.76-.6l-.51.51a2.28,2.28,0,0,1-1.44,1.27,2.58,2.58,0,0,0-1.45.94,3.64,3.64,0,0,1-.6-.08c-.28-.06-.43-.2-.43-.43q-.17-.85-.68-.94a6,6,0,0,0-1-.08h-.94c-.17,0-.37-.23-.59-.68l-.17-.17a1.42,1.42,0,0,1-1.36-.34,6.7,6.7,0,0,0-1-.85l-1.28-1.27a4.92,4.92,0,0,1-.94-1.27,5.77,5.77,0,0,0-1.1-2.29,10.58,10.58,0,0,1-1.27-2,4.35,4.35,0,0,0-.59-1.1c-.28-.4-.54-.77-.77-1.1-.11-.57-.2-1.1-.25-1.62a11.48,11.48,0,0,0-.26-1.44c0-.23-.06-.34-.17-.34s-.17-.11-.17-.34c-.23-.23-.2-.59.08-1.1s.54-1,.77-1.53a3.59,3.59,0,0,0,.34-1.45c0-.45-.4-.79-1.19-1a9.2,9.2,0,0,1,.08-3.74,7.62,7.62,0,0,0-.08-3.74,1.2,1.2,0,0,0,.51-.08.73.73,0,0,1,.34-.08c-.23.11-.34-.48-.34-1.78s0-3,.08-5,.14-4.25.25-6.63.23-4.65.34-6.8.2-4,.25-5.61.09-2.55.09-2.89q.17-9,0-17.77t.17-17.76V41.61a15.16,15.16,0,0,1,.34-3.31,16.73,16.73,0,0,1,.25-3.06q.25-1.36.6-2.72V28.26a1.35,1.35,0,0,0-1.53-1.53,4.88,4.88,0,0,0-1.7.26,1.8,1.8,0,0,0-1,1.1l-.34.17a2.84,2.84,0,0,0-1.53.42l-1.19.77a2.17,2.17,0,0,1-2.72-.17q.85-.85,1.79-1.87A12.39,12.39,0,0,0,110,25.2a1.1,1.1,0,0,1,.51-.51,1.11,1.11,0,0,0,.51-.51,2.94,2.94,0,0,0,.59-.94,2.1,2.1,0,0,1,.77-.94,2.87,2.87,0,0,0,.34-.42,4,4,0,0,1,.51-.6,5.18,5.18,0,0,0,.59-.34,5.89,5.89,0,0,1,.6-.34h.85a9.11,9.11,0,0,0,4.84-.68,11.52,11.52,0,0,1,5.18-.85q3.91.51,7.14,1.19a20.1,20.1,0,0,1,5.78,2.13,12,12,0,0,1,4.17,3.91,19.1,19.1,0,0,1,2.46,6.54,61.37,61.37,0,0,1,.59,11.65q-.25,5.87-.93,11.81a3.56,3.56,0,0,1-.09.85,3.5,3.5,0,0,0-.08.85,39,39,0,0,1,0,5.1,40.2,40.2,0,0,0,0,5.27c.11.57.22,1.1.34,1.61a10.07,10.07,0,0,0,.51,1.62q.17.34,0,.51a2.63,2.63,0,0,0-.68,1.62v1.61a4.76,4.76,0,0,1-.09.94,3.8,3.8,0,0,0-.08.77,4.27,4.27,0,0,0-.09,1.44,9.07,9.07,0,0,1,.09,1.27v4.08a7.1,7.1,0,0,0,2.13-2,28.33,28.33,0,0,1,1.79-2.29,9.83,9.83,0,0,0,.51-1.19,7.88,7.88,0,0,0,1.19-1.53,15.71,15.71,0,0,1,1.19-1.7l.17-.17c.68.11,1.08,0,1.19-.25a3.66,3.66,0,0,0,.17-1.28,1.82,1.82,0,0,1,.85-1.7,4.59,4.59,0,0,1,.6-.85,4.77,4.77,0,0,0,.59-.85H155a11.85,11.85,0,0,1,3.66-3.48,18.08,18.08,0,0,1,4.67-2,23.41,23.41,0,0,1,5.27-.77q2.72-.08,5.27.09a12.73,12.73,0,0,1,5.87,1.19,14.2,14.2,0,0,1,4,3.06,17.67,17.67,0,0,1,2.89,4.42q1.19,2.55,2.21,5.44a1.66,1.66,0,0,1,.34,1.19V81a2.69,2.69,0,0,0,.09.68,2.91,2.91,0,0,1,.08.68,42.49,42.49,0,0,1,.85,10q-.17,5.1-.51,10.2t-.25,10.11a37.63,37.63,0,0,0,1.45,9.78,2.12,2.12,0,0,1-.34,1.19,13.69,13.69,0,0,1-.51,2,6,6,0,0,0-.34,1.87,12.93,12.93,0,0,0-.08,2.55q.08,1.19.08,2.55a3,3,0,0,0-.17.94.61.61,0,0,1-.34.6,2.1,2.1,0,0,0-.59,1.53,10.12,10.12,0,0,1,.08,1.19.74.74,0,0,0,.09.34c.05.11.2.06.42-.17a2.13,2.13,0,0,0,.77-.17,1,1,0,0,0,.6-.68,1,1,0,0,1,.17-.6,6.39,6.39,0,0,0,.34-.6,5.7,5.7,0,0,1,.42-1.19,6,6,0,0,0,.43-1.19c0-.45.11-.68.34-.68a5,5,0,0,0,1.45-1.87q.42-1,.77-2l.68-.68a2.19,2.19,0,0,0,.51-.85,15.83,15.83,0,0,0,.85-2,1.06,1.06,0,0,0,.34-.76,1,1,0,0,1,.34-.77,41.56,41.56,0,0,1,2.72-3.91c.22-.11.34-.4.34-.85a3.51,3.51,0,0,0,.25-.68,1.28,1.28,0,0,1,.6-.68,7.16,7.16,0,0,1,1.7-2.55v-.34l.17-.17a2.93,2.93,0,0,1,.59-1.7,12.94,12.94,0,0,0,.94-1.53,4.11,4.11,0,0,0,.85-1.61c.11-.51.23-1,.34-1.45a2.57,2.57,0,0,1,.51-1.36Z"/><path class="cls-1" d="M244.63,102.38q.85-1.19,1.7-2.29T248,98a10.41,10.41,0,0,1,1.7-2.21,2.79,2.79,0,0,1-1,2.55,2.24,2.24,0,0,0-.51.77,5.3,5.3,0,0,1-.51.93l.85.85a4.16,4.16,0,0,0-.51,1,2.15,2.15,0,0,1-.51.85l-.34.34a4.16,4.16,0,0,0-1.78,1.19q-.77.85-1.62,1.7a5.9,5.9,0,0,0-1.19,2.55h1v.17a13.23,13.23,0,0,0-2.55,4.08l-.17.17a13.57,13.57,0,0,0-2,3.15,3.6,3.6,0,0,1-2.72,2.13,2,2,0,0,1,0,1.61,4.32,4.32,0,0,1-1.1,1.44l-1.53,1.36a6.61,6.61,0,0,0-1.11,1.19,12.62,12.62,0,0,1-5.1,3.57,14.67,14.67,0,0,1-7.65,1.36,23,23,0,0,1-7.82-1.7,23.68,23.68,0,0,1-6.8-4.25A22.6,22.6,0,0,1,198,111.14a74,74,0,0,1-2-13.69,3.18,3.18,0,0,0-.17-1,.69.69,0,0,0-.17-.51.22.22,0,0,1,0-.34,4.72,4.72,0,0,0,.08-1.53,12.59,12.59,0,0,1-.08-1.53,3,3,0,0,1,.34-1.36c.11-.34.2-.62.25-.85a4.4,4.4,0,0,0,.09-1,2,2,0,0,1,.25-.85l.42-.85c.23-.34.45-.71.68-1.1a1.62,1.62,0,0,0,0-1.45,28.3,28.3,0,0,0,1.19-2.72,28.4,28.4,0,0,1,1.19-2.72q1.53-2.55,3.32-5.27a31,31,0,0,1,4-4.93,16,16,0,0,1,4.93-3.4,12.56,12.56,0,0,1,6.29-.85,14.61,14.61,0,0,1,6.46,2.29,11.23,11.23,0,0,1,4.42,5.19l.94,1.87a15,15,0,0,1,.76,1.87,10.33,10.33,0,0,1,.34,2.47,16.06,16.06,0,0,0,.17,2.29,1.81,1.81,0,0,1,0,1.53l-1.27,2.55a5.16,5.16,0,0,1-2,2,.3.3,0,0,1-.34.34,2.31,2.31,0,0,1-.93,1.7,5.2,5.2,0,0,0-1.28,1.19,6.74,6.74,0,0,1-1.1.6.93.93,0,0,0-.59.94A1.87,1.87,0,0,0,223,93a5.86,5.86,0,0,1-.59,1.19l-.51.77c-.11.17-.46.14-1-.08a1.51,1.51,0,0,0-.76.25,4,4,0,0,0-.77.59,3.68,3.68,0,0,1-2.12.77,5.67,5.67,0,0,1-2.12-.94,1.74,1.74,0,0,1-2.38.17,1.91,1.91,0,0,1-.08.6,1.83,1.83,0,0,0-.08.6l.94.34a8.22,8.22,0,0,0,1.1.34,2.1,2.1,0,0,1-1.19.51,1.91,1.91,0,0,0-.85.17A9.78,9.78,0,0,1,212,100c-.23.57-.45,1.19-.68,1.87q1.19.68.68,2.38a6.42,6.42,0,0,0-.25,2.3,5.57,5.57,0,0,0,.93,2.46v.34a4.45,4.45,0,0,0,.94,3,11.58,11.58,0,0,0,2.13,2q1,1.36,2.21.68a7.44,7.44,0,0,1,3.91-1,2.51,2.51,0,0,0,2.72-.85h.17l.34-.17a1.23,1.23,0,0,0,1.28-.34,2.12,2.12,0,0,1,1.27-.68,1.2,1.2,0,0,0,.51-.08.73.73,0,0,1,.34-.09,14.23,14.23,0,0,1,1.44-.51,4.59,4.59,0,0,1,1.28-.17,6,6,0,0,0,1.87-.34,20.74,20.74,0,0,1,2.29-1.45,6.69,6.69,0,0,0,2-1.61,7.74,7.74,0,0,1,1.79-1.36,12.35,12.35,0,0,0,1.78-1.19,8.57,8.57,0,0,1,.85-.51,2.64,2.64,0,0,0,.68-.51l.59-.59a5.38,5.38,0,0,1,.77-.6A4,4,0,0,1,244.63,102.38ZM213.35,89.46a6.05,6.05,0,0,1-.17,3.74q-.34,1,.68,1a1,1,0,0,1,.68.17.48.48,0,0,0,.34.17,6.1,6.1,0,0,0,1.79.08,3.31,3.31,0,0,0,1.79-.76,1,1,0,0,1,.68-.34,1.51,1.51,0,0,0,.68-.17q.85-.34,1.7-.77a3.07,3.07,0,0,0,1.36-1.44,3.72,3.72,0,0,1,.68-1.53,6.66,6.66,0,0,0,.85-1.53,1.22,1.22,0,0,0-.17-1,14.4,14.4,0,0,1-.51-1.44,7.68,7.68,0,0,0-.51-1.27,13.92,13.92,0,0,0-.59-2.64q-.43-1.28-.76-2.46a5.21,5.21,0,0,0-.85-1.44,11.46,11.46,0,0,1-.85-1.1,3.67,3.67,0,0,0-1-1.79,10.88,10.88,0,0,1-1.36-1.45.3.3,0,0,0-.34-.34l-.34.68a12.41,12.41,0,0,1-.51,1.78q-.34.94-.68,1.79a2.79,2.79,0,0,1-.34,1.53,11.83,11.83,0,0,0-.68,4.08,3.68,3.68,0,0,1-.68,3.06,11.92,11.92,0,0,0-.85,1.7A2.19,2.19,0,0,0,213.35,89.46Zm3.4,8.5a.91.91,0,0,1-.85.25,5.47,5.47,0,0,0-.85-.08q.51-.51.68-.51A4.85,4.85,0,0,1,216.75,98Zm87-3.57a1.89,1.89,0,0,1,1.87.68,2.94,2.94,0,0,1,.68,1.87L306,98a1.6,1.6,0,0,1-1,.85q-1,.68-2,1.28a7.81,7.81,0,0,0-1.79,1.61,1,1,0,0,0-.34.68q-.34,0-1.45,1.87t-2.55,4.51q-1.45,2.63-3.06,5.86l-3,6q-1.36,2.72-2.38,4.67a19.4,19.4,0,0,1-1.19,2.13,15.44,15.44,0,0,1-1.79,1.53,6.65,6.65,0,0,1-2.29,1c-.45.11-.68.51-.68,1.19a1.63,1.63,0,0,0-.42.59,5.46,5.46,0,0,1-.25.6l-1,1a6.67,6.67,0,0,0-.85,1,2,2,0,0,1-2.21.68H277a1.71,1.71,0,0,0-.93.34h-.68c-.57-.23-.91-.28-1-.17a4.43,4.43,0,0,1-3.23-1,8.76,8.76,0,0,1-3.23-2.72,3.26,3.26,0,0,1-.25-.68c-.06-.23-.14-.51-.25-.85a6.77,6.77,0,0,1-.59-1.1c-.17-.4-.31-.77-.43-1.1a6.25,6.25,0,0,1-.42-1.53,12.21,12.21,0,0,0-.25-1.36q-.34-1.19-1.19-1.19a1.12,1.12,0,0,1-.68-.26,6.21,6.21,0,0,1-.68-.59,6.75,6.75,0,0,0,.59-.68,4.7,4.7,0,0,0,.42-.68,2.51,2.51,0,0,0,.08-1.7,1.78,1.78,0,0,0-1.1-1.19q-1-1-.51-1.7a3,3,0,0,1,.34-1.36,3.77,3.77,0,0,1,.08-.77,1.17,1.17,0,0,0-.08-.76,10.14,10.14,0,0,0-.17-1.79,9.35,9.35,0,0,0-.51-1.79,5.81,5.81,0,0,1,.17-2.46c.23-.74.45-1.44.68-2.12a5.26,5.26,0,0,0,.17-2.21,6,6,0,0,1,.08-1,7.43,7.43,0,0,0,.08-1.19,9,9,0,0,1,.59-2.38,20.65,20.65,0,0,0,.77-2.21,14.91,14.91,0,0,0,.68-3.06q.17-1.53.51-3.23a2.59,2.59,0,0,1,.85-1,2.75,2.75,0,0,0,.68-2,2.35,2.35,0,0,1,.08-1.87c.28-.57.59-1.13.94-1.7q1.53-2.89-1.36-4.25a6,6,0,0,1-1.19-1,11.77,11.77,0,0,1-1.53-1.36q-.68,1.19-1.28,2a3.46,3.46,0,0,0-.59,2c-.23.57-.42,1-.6,1.36a5.46,5.46,0,0,0-.42,1.36c-.34.34-.51.57-.51.68-.23.57-.45,1.1-.68,1.62s-.45,1-.68,1.61q-.85,1.36-1.44,2.55a17.94,17.94,0,0,1-1.45,2.38,15.16,15.16,0,0,0-1.53,2.21,17.52,17.52,0,0,0-1.19,2.55,3.38,3.38,0,0,1-.85,1.1c-.34.28-.74.65-1.19,1.1a5.93,5.93,0,0,0-.08-1.1,3.77,3.77,0,0,1-.08-.76,11.74,11.74,0,0,0-1.36,1.53,6.4,6.4,0,0,0-.59.68c-.17.23-.37.51-.6.85a2.41,2.41,0,0,1-2.38,1.7,6.12,6.12,0,0,0-.42,1.62,1.33,1.33,0,0,1-.93,1.1,3,3,0,0,1-1.36.34,3,3,0,0,0-1.36.34,28.23,28.23,0,0,1-3.06,4.5,6.87,6.87,0,0,1-2.55,2.13,1.36,1.36,0,0,1-.17-.59,1.4,1.4,0,0,0-.17-.6c-.23-.23-.37-.34-.43-.34s-.2-.11-.42-.34a1.11,1.11,0,0,0,.25-.43,1,1,0,0,1,.25-.42,1.28,1.28,0,0,1,.51.42,2.67,2.67,0,0,0,.34.43,4.18,4.18,0,0,0,2.38-2.21c.11-.34.25-.71.42-1.1a1.87,1.87,0,0,1,.94-.94c.23-.11.34-.26.34-.43a.57.57,0,0,1,.17-.42,3.25,3.25,0,0,0,.59-.85,3.25,3.25,0,0,1,.59-.85,5.08,5.08,0,0,0,.26-.59,4.51,4.51,0,0,1,.25-.6,3.11,3.11,0,0,1,.68-1.44q.51-.59,1-1.27a8,8,0,0,0,2-3.06,7.46,7.46,0,0,1,.68-1.36c.23-.34.51-.74.85-1.19l.17-.17q1.87-2.89,3.91-6.29a17.41,17.41,0,0,0,1.45-2.89,24.69,24.69,0,0,0,.93-2.89A26.29,26.29,0,0,1,256.61,79a32.82,32.82,0,0,0,1.45-3.15c.23-.34.42-.65.59-.94a4.72,4.72,0,0,0,.42-.94,1.53,1.53,0,0,0-.51-1.36,2.5,2.5,0,0,1-1.19-2.38c0-.11-.11-.28-.34-.51a2,2,0,0,1-.59-.94c-.06-.28-.14-.65-.25-1.1q0-1.19-1.53-1.53a3.17,3.17,0,0,1-2.38-1.7c-.34-.57-.4-1-.17-1.19a2.5,2.5,0,0,0,.25-1.87c-.17-.57-.31-1.13-.42-1.7s-.2-1-.25-1.45-.14-.82-.26-1.27a3.67,3.67,0,0,0,1.7-2,7.78,7.78,0,0,0,.34-2.29,4.86,4.86,0,0,0-.08-.94.81.81,0,0,1,.25-.77,1.15,1.15,0,0,0,.34-.85,6,6,0,0,1,1.27-2.47,4.32,4.32,0,0,1,2.29-1.44,4,4,0,0,1,.77.08,3.76,3.76,0,0,0,.76.08c.45.57.85.68,1.19.34a2.08,2.08,0,0,1,1.53-.08,4.32,4.32,0,0,0,1.53.26,6.41,6.41,0,0,1,1.53.17q.68.17,1,1.19c0,.23.23.45.68.68a2.79,2.79,0,0,0,.34-1.53,3.43,3.43,0,0,1,1.1.85,6.33,6.33,0,0,1,.77,1.19,2.76,2.76,0,0,1,.51.68,2.88,2.88,0,0,1,.68,1.1q0,.25-.85,1.1l-.34.68a1.35,1.35,0,0,0,.59.17.58.58,0,0,1,.42.17l.68.68a1.31,1.31,0,0,0,.08,1.36,1.62,1.62,0,0,1,.08,1.53c-.11.34-.25.74-.42,1.19a1.33,1.33,0,0,0-.08,1,1.85,1.85,0,0,1,0,1.1,3,3,0,0,0-.17,1.1,2.49,2.49,0,0,1-1.19,1.53q-.51.34-.51,1.53.34,1.36.51,2.21a6.73,6.73,0,0,0,3.06.68,7.61,7.61,0,0,1,4.59,1.36.5.5,0,0,1,.34.17,3.62,3.62,0,0,1,2.72.77A6.7,6.7,0,0,0,282,70.93a6.26,6.26,0,0,1,2.89,1.36,6.18,6.18,0,0,0,2.38.85,7.92,7.92,0,0,1,4.25,4.08v.17a2.38,2.38,0,0,1,1,1.79V81.3A11.51,11.51,0,0,1,292,85a38.26,38.26,0,0,1-1.45,3.66q-.51,1.87-1,3.57a32.8,32.8,0,0,0-.85,3.57,3.84,3.84,0,0,1-1.53,2.38,1.49,1.49,0,0,0-.85,1.7,5.75,5.75,0,0,1-.51,3.74,4.32,4.32,0,0,0-1,2q-.17.94-.51,2.29c-.11.45-.23.94-.34,1.44a10.68,10.68,0,0,1-.51,1.62,9.58,9.58,0,0,1-.34,2.21c0,.45-.06.68-.17.68a4.38,4.38,0,0,0-.76,2.13q-.09,1.1-.25,2.13a17.92,17.92,0,0,0-.51,2.3,5.29,5.29,0,0,1-.85,2.13,1.64,1.64,0,0,0,.17,1.87l2-1a10.07,10.07,0,0,0,1.28-.76l1.19-.85a14.36,14.36,0,0,0,1.62-1.45,19.8,19.8,0,0,0,1.19-2l2.46-4.51q1.44-2.64,3.06-5.69t3.06-5.69Q298,99.66,299,97.88t1.36-1.78a7.26,7.26,0,0,0,1-.68A3.67,3.67,0,0,1,303.79,94.39Zm-66,14.45a3.65,3.65,0,0,1,1.7-3.4A4.52,4.52,0,0,1,237.83,108.84ZM258.4,83.51A3.1,3.1,0,0,1,258,84.7a4.9,4.9,0,0,1-.94.85,5,5,0,0,0-1.28.94,2.74,2.74,0,0,0-.76,1.44c0,.11,0,.17-.08.17s-.08.06-.08.17q-.51.85-1.1,1.7a8.37,8.37,0,0,0-.94,1.7l-.34.68a27.18,27.18,0,0,1-2.72,3.23,4.44,4.44,0,0,0,2.89-1.7,3.25,3.25,0,0,0,.59-.85,9.2,9.2,0,0,1,.6-1,1.87,1.87,0,0,1,.25-.42,2,2,0,0,0,.25-.43,4.37,4.37,0,0,0,.51-1,1.64,1.64,0,0,1,.68-.85q-.17,0,.34-.51a5.66,5.66,0,0,1,2.38-2.72l.34-.34.42-.42a2.25,2.25,0,0,1,.59-.43c.57-.11.85-.57.85-1.36a8.2,8.2,0,0,0-.17-1.87Q258.57,82.32,258.4,83.51Zm-6.8-32.13a10.15,10.15,0,0,1-1.19,1.36,2.25,2.25,0,0,1,.17-1.19A1.78,1.78,0,0,1,251.6,51.38ZM254.32,47a1.62,1.62,0,0,1-.77.34,1.39,1.39,0,0,0-.59.17.5.5,0,0,0-.17-.34Q253,46.28,254.32,47ZM253,95.75c.34-.11.65-.23.94-.34s.48-.45.59-1a2,2,0,0,0-1.28.25A1.65,1.65,0,0,0,253,95.75Zm1.19-14.28a.48.48,0,0,0,.17.34l-.34.34a1.94,1.94,0,0,1-.51.34,1.34,1.34,0,0,0-.17-.51,1.1,1.1,0,0,1,.43-.25A1.05,1.05,0,0,0,254.15,81.47Zm9.35-23.12q1.19-.85,1.28-1.19a3.37,3.37,0,0,0-.42-1.53,1,1,0,0,1-.26-.43.78.78,0,0,0-.42-.42c.45-.45.68-.79.68-1q-.17-.85-.34-1.53A3.85,3.85,0,0,0,263.5,51c0-.23-.28-.51-.85-.85a.75.75,0,0,0-.85.85,1.53,1.53,0,0,1-.17.68q-.85-1.19-1.53-.77a4.52,4.52,0,0,1-1.53.6,1.15,1.15,0,0,1-.85-.34,6.87,6.87,0,0,1-.85,1l-.85.85q.85.85,1.36.17a1.48,1.48,0,0,1,1.19-.68.5.5,0,0,1,.17.34,8.66,8.66,0,0,1-.68,4.08,6.4,6.4,0,0,1,1.19,1.53q.68,1.36,1.19,2.64t1.19,2.63a2.26,2.26,0,0,1,1.36-.51q.17-1.36.25-2.55T263.5,58.35Zm-1.19-4.93a6.56,6.56,0,0,1,.42,1.87q.08,1,.25,2a11.74,11.74,0,0,0-.85,1.19,3.56,3.56,0,0,1-.59-2.63q.25-1.28.42-2.46Zm.51,66.64h.34v1.53h-.34Zm3.74-55.59a2.65,2.65,0,0,1,.68-.51q.34-.17,0-.85h-.68c-.34.23-.46.45-.34.68Zm1.19-11.39a4.62,4.62,0,0,0-.08,1.45c.06.17.37.31.94.42a1.83,1.83,0,0,1-.09-1Q268.6,53.25,267.75,53.08Zm1,4.42a2.15,2.15,0,0,1-.51,1q-.34.34.34.68c.23.34.42.42.59.25l.59-.59a2.3,2.3,0,0,0-.42-.6A5.09,5.09,0,0,1,268.77,57.5Z"/></svg>