<svg id="svg-notes" data-name="Layer 1" xmlns="http://www.w3.org/2000/svg" viewBox="0 0 337.53 262.28"><defs><style>.notes-letter{fill:#006cff;}</style></defs><title>Artboard 1</title><path class="notes-letter" d="M49,99.49q.85-1.19,1.7-2.29t1.7-2.12a10.45,10.45,0,0,1,1.7-2.21,2.79,2.79,0,0,1-1,2.55,2.25,2.25,0,0,0-.51.77,5.32,5.32,0,0,1-.51.94L53,98a4.16,4.16,0,0,0-.51,1,2.14,2.14,0,0,1-.51.85l-.34.34a4.16,4.16,0,0,0-1.79,1.19q-.76.85-1.61,1.7A5.92,5.92,0,0,0,47,105.61h1v.17a13.3,13.3,0,0,0-2.55,4.08l-.17.17a13.6,13.6,0,0,0-2,3.15,3.6,3.6,0,0,1-2.72,2.13,2,2,0,0,1,0,1.61,4.32,4.32,0,0,1-1.1,1.45l-1.53,1.36a6.59,6.59,0,0,0-1.1,1.19,12.63,12.63,0,0,1-5.1,3.57,14.68,14.68,0,0,1-7.65,1.36,23,23,0,0,1-7.82-1.7,23.68,23.68,0,0,1-6.8-4.25,22.6,22.6,0,0,1-7.05-11.65,73.47,73.47,0,0,1-2-13.69,3.27,3.27,0,0,0-.17-1A.7.7,0,0,0,.09,93a.21.21,0,0,1,0-.34,4.89,4.89,0,0,0,.08-1.53,12,12,0,0,1-.08-1.53,3,3,0,0,1,.34-1.36c.11-.34.2-.62.25-.85a4.58,4.58,0,0,0,.08-1A2,2,0,0,1,1,85.55l.43-.85c.23-.34.45-.71.68-1.1a1.62,1.62,0,0,0,0-1.44,28.62,28.62,0,0,0,1.19-2.72,28.34,28.34,0,0,1,1.19-2.72Q6,74.16,7.82,71.44a31,31,0,0,1,4-4.93,16,16,0,0,1,4.93-3.4A12.56,12.56,0,0,1,23,62.26a14.62,14.62,0,0,1,6.46,2.29,11.23,11.23,0,0,1,4.42,5.19l.94,1.87a14.86,14.86,0,0,1,.77,1.87A10.32,10.32,0,0,1,36,75.95a16.06,16.06,0,0,0,.17,2.29,1.81,1.81,0,0,1,0,1.53l-1.28,2.55a5.16,5.16,0,0,1-2,2,.3.3,0,0,1-.34.34,2.31,2.31,0,0,1-.94,1.7,5.16,5.16,0,0,0-1.27,1.19,6.73,6.73,0,0,1-1.1.59.93.93,0,0,0-.6.94,1.87,1.87,0,0,0-1.27,1,5.86,5.86,0,0,1-.59,1.19l-.51.77c-.11.17-.45.14-1-.08a1.51,1.51,0,0,0-.76.25,3.9,3.9,0,0,0-.77.6,3.69,3.69,0,0,1-2.12.77,5.67,5.67,0,0,1-2.12-.94,1.74,1.74,0,0,1-2.38.17,1.9,1.9,0,0,1-.08.59,1.84,1.84,0,0,0-.09.6l.94.34a8.31,8.31,0,0,0,1.1.34,2.1,2.1,0,0,1-1.19.51,1.92,1.92,0,0,0-.85.17,9.76,9.76,0,0,1-.51,1.7c-.23.57-.45,1.19-.68,1.87q1.19.68.68,2.38a6.42,6.42,0,0,0-.25,2.29,5.54,5.54,0,0,0,.94,2.46v.34a4.45,4.45,0,0,0,.93,3,11.63,11.63,0,0,0,2.13,2q1,1.36,2.21.68a7.44,7.44,0,0,1,3.91-1A2.51,2.51,0,0,0,29,110.2h.17l.34-.17a1.23,1.23,0,0,0,1.27-.34A2.12,2.12,0,0,1,32,109a1.16,1.16,0,0,0,.51-.08.76.76,0,0,1,.34-.08q.85-.34,1.45-.51a4.69,4.69,0,0,1,1.27-.17,5.91,5.91,0,0,0,1.87-.34,21.61,21.61,0,0,1,2.29-1.44,6.64,6.64,0,0,0,2-1.62,7.84,7.84,0,0,1,1.78-1.36,12.38,12.38,0,0,0,1.79-1.19,8.39,8.39,0,0,1,.85-.51,2.64,2.64,0,0,0,.68-.51l.59-.6a5.28,5.28,0,0,1,.77-.59A4,4,0,0,1,49,99.49ZM17.77,86.57a6.05,6.05,0,0,1-.17,3.74c-.23.68,0,1,.68,1a1,1,0,0,1,.68.17.48.48,0,0,0,.34.17,6.11,6.11,0,0,0,1.78.08A3.31,3.31,0,0,0,22.87,91a1,1,0,0,1,.68-.34,1.51,1.51,0,0,0,.68-.17q.85-.34,1.7-.77a3.07,3.07,0,0,0,1.36-1.45A3.73,3.73,0,0,1,28,86.74a6.66,6.66,0,0,0,.85-1.53,1.22,1.22,0,0,0-.17-1,14.28,14.28,0,0,1-.51-1.45,7.69,7.69,0,0,0-.51-1.27,13.87,13.87,0,0,0-.6-2.63q-.43-1.28-.77-2.47a5.2,5.2,0,0,0-.85-1.44,11.46,11.46,0,0,1-.85-1.1,3.68,3.68,0,0,0-1-1.79,10.88,10.88,0,0,1-1.36-1.44.3.3,0,0,0-.34-.34l-.34.68A12.37,12.37,0,0,1,21,72.72q-.34.94-.68,1.79A2.79,2.79,0,0,1,20,76a11.85,11.85,0,0,0-.68,4.08,3.68,3.68,0,0,1-.68,3.06,12,12,0,0,0-.85,1.7A2.19,2.19,0,0,0,17.77,86.57Zm3.4,8.5a.91.91,0,0,1-.85.25,5.48,5.48,0,0,0-.85-.08q.51-.51.68-.51A4.83,4.83,0,0,1,21.17,95.07ZM62.82,80.62q.17-1.19,1.87-1.87a8.16,8.16,0,0,1,.17,1.87c0,.79-.28,1.25-.85,1.36a2.25,2.25,0,0,0-.6.42l-.42.42-.34.34a5.67,5.67,0,0,0-2.38,2.72c-.34.34-.45.51-.34.51a1.64,1.64,0,0,0-.68.85,4.36,4.36,0,0,1-.51,1,2,2,0,0,1-.25.43,1.9,1.9,0,0,0-.26.42,9.23,9.23,0,0,0-.59,1A3.23,3.23,0,0,1,57,91a4.44,4.44,0,0,1-2.89,1.7,27.12,27.12,0,0,0,2.72-3.23l.34-.68a8.41,8.41,0,0,1,.94-1.7q.59-.85,1.1-1.7c0-.11,0-.17.08-.17s.08-.06.08-.17a2.75,2.75,0,0,1,.77-1.44,5,5,0,0,1,1.27-.94,4.85,4.85,0,0,0,.94-.85A3.1,3.1,0,0,0,62.82,80.62Z"/><path class="notes-letter" d="M105.65,113.94a19.36,19.36,0,0,1-4.59,3.4h-.85a1.77,1.77,0,0,1-1.7.17q-.68-.17-1.36.68l-1,1c-.23.23-.45.17-.68-.17a.83.83,0,0,0-1-.51.5.5,0,0,1-.34.17,1.28,1.28,0,0,0-.51.17c.34.23.11.45-.68.68l-1-1c0-.11,0-.17-.08-.17s-.08-.06-.08-.17v-1.36c0-.57.17-.85.51-.85a.28.28,0,0,0,.25-.17c.06-.11,0-.17-.08-.17s-.11-.28-.34-.51a.49.49,0,0,0-.34-.17.49.49,0,0,1-.34-.17,1.15,1.15,0,0,1-.34-.85,3.69,3.69,0,0,0,0-2.21c-.11-.45-.2-.85-.25-1.19s.14-.62.59-.85q-.51-2.72-.77-4.42t-.51-3.14a15.17,15.17,0,0,1-.25-1.79q-.17-2.38-.43-4.59a24.59,24.59,0,0,1-.08-4.59q.17-1.87.34-3.48a16.49,16.49,0,0,0,0-3.31,10,10,0,0,0-.43-2.81,10.45,10.45,0,0,1-.42-3,8.16,8.16,0,0,1,.08-2.63,13.4,13.4,0,0,0,.25-2.64V69.66A9.27,9.27,0,0,0,89,67.87a3.81,3.81,0,0,1,.08-.76,4,4,0,0,0,.08-.77c0-.11.17-.34.51-.68a.49.49,0,0,1-.34.17h-.17c-.23,0-.37,0-.42-.08a.69.69,0,0,0-.43-.08c.11,0,0,.17-.34.51a5,5,0,0,0-.51.94A5.31,5.31,0,0,1,87,68a11.28,11.28,0,0,0-1.19,2.38,11.89,11.89,0,0,1-.68,1.44q-.34.6-.68,1.27a1.42,1.42,0,0,0,0,1.36.76.76,0,0,1-.08.34.74.74,0,0,0-.09.34,17.89,17.89,0,0,1-.68,2.21.69.69,0,0,0-.17.51,1.69,1.69,0,0,0-.17.76,3,3,0,0,1-.17.94,2.6,2.6,0,0,0-.34,1c.11.34-.06.74-.51,1.19a7.58,7.58,0,0,1-.85,1.53,4.16,4.16,0,0,0-.85-.51l-.17.17v.17c.34,0,.48.08.42.25a.76.76,0,0,0,.08.59,5.44,5.44,0,0,1-.08.85,5.19,5.19,0,0,0-.08.85v.34A3.83,3.83,0,0,0,80,87.42l-.34,1.36A9.5,9.5,0,0,1,78.79,91h-.34v-.85a.67.67,0,0,0-.42.08.67.67,0,0,1-.43.08.61.61,0,0,1,.08.51c-.06.11,0,.23.26.34a.86.86,0,0,1,.34,1,2.62,2.62,0,0,0-.43,1.1,2.67,2.67,0,0,1-.42,1.1c0,.23-.06.37-.17.43s-.17.2-.17.42a8.39,8.39,0,0,1-.43,1.27,1.45,1.45,0,0,0,.08,1.27.35.35,0,0,1-.08.26.34.34,0,0,0-.08.25,4,4,0,0,0,0,3.23,2.39,2.39,0,0,1-.17,2,.35.35,0,0,1-.08.25.34.34,0,0,0-.08.25,2.63,2.63,0,0,1-.51,1.87v.34a3.9,3.9,0,0,1-1.7,3.4.52.52,0,0,1-.51.08.94.94,0,0,0-.68.08,2.19,2.19,0,0,0-.51.77,2.33,2.33,0,0,1-.51.76,1.79,1.79,0,0,0-1.53,0,2.2,2.2,0,0,1-1.7,0,8.5,8.5,0,0,1-1.7-.94,1.7,1.7,0,0,0-1.7-.25l-1.36-.68q-1.19-.34-.85.17l-.34.34a13,13,0,0,1-.77-2.38,2.32,2.32,0,0,0-1.61-1.7.15.15,0,0,1,.17-.17A5.35,5.35,0,0,1,58.22,102q-.34-2.38-.68-4.42a55.79,55.79,0,0,1-.34-6.21q0-3.14.17-6.2a25.94,25.94,0,0,0,.08-5.53q-.25-2.63-.59-5.35,0-1.36-.08-2.8A9.15,9.15,0,0,1,57,68.72c.11-.79.23-1.61.34-2.46a2.41,2.41,0,0,0-.68-2.12,1.33,1.33,0,0,1-.17-.85,1.34,1.34,0,0,0,0-.94q-.17-.42-.34-.77a1.63,1.63,0,0,1-.42-.59,5.38,5.38,0,0,0-.26-.6.69.69,0,0,0-.85-.34c0,.11-.17.17-.51.17a1.2,1.2,0,0,0-1.19.85c-.11,0-.17,0-.17.08s-.06.08-.17.08h-.17a1.63,1.63,0,0,0-1.7.85,6.23,6.23,0,0,1-1.36,1.53,2.93,2.93,0,0,1-1.28.6,3,3,0,0,0-1.27.59,1.25,1.25,0,0,1-.85.6,1.55,1.55,0,0,0-.85.42c-.11.11-.2.17-.26.17s-.14.06-.25.17a.86.86,0,0,1-1-.34c-.23-.23-.4-.34-.51-.34H41.9c-.34,0-.51-.11-.51-.34a1.88,1.88,0,0,0,.17-.85,5.93,5.93,0,0,0,1.7-.17,4.21,4.21,0,0,0,.68-.43,6,6,0,0,0,.68-.59.89.89,0,0,0,.43-.34,1,1,0,0,1,.42-.34,9.78,9.78,0,0,1,2.46-2c1-.57,1.9-1.13,2.81-1.7q3.91-2.89,6.8-2.89t6.8,2.89a17.9,17.9,0,0,1,4.84,4.59q2,2.72,3.83,5.61a1.36,1.36,0,0,1,.17.51,1.28,1.28,0,0,0,.17.51,1.72,1.72,0,0,1,.17.77,1,1,0,0,0,.34.77v.34a2.74,2.74,0,0,0,.08,1.53,3.87,3.87,0,0,1,.25,1.36,8.84,8.84,0,0,1,.42,2q.08.94.26,2a9.43,9.43,0,0,0,.34,2.21,9,9,0,0,0,.17,2,1.84,1.84,0,0,0,.08.6,1.92,1.92,0,0,1,.08.59v.34a3.12,3.12,0,0,0,0,2,6.43,6.43,0,0,1,.34,2c.34.11.54.06.6-.17a3.15,3.15,0,0,1,.26-.68,6.6,6.6,0,0,0,.68-1.87l.34-.68a34,34,0,0,0,1.45-4.25,33.76,33.76,0,0,1,1.45-4.25q1.2-3.23,2.56-6.2t2.74-6a.15.15,0,0,1,.17-.17,2,2,0,0,0,1.11-1.7,5,5,0,0,1,.77-2A14,14,0,0,1,93.67,57a9.71,9.71,0,0,1,6.32-.51c.34,0,.51.06.51.17a12,12,0,0,1,1.2.68.28.28,0,0,1,.25.17.27.27,0,0,0,.26.17,2.9,2.9,0,0,1,1.45.34c.4.23.83.45,1.28.68a.34.34,0,0,0,.08.25.36.36,0,0,1,.08.25,1.54,1.54,0,0,0,.85.85,5.7,5.7,0,0,1,2,2.13,13.9,13.9,0,0,1,1.37,3.23,26.12,26.12,0,0,1,.77,3.65,23.63,23.63,0,0,1,.26,3.06,9.44,9.44,0,0,1-.34,1.87.49.49,0,0,1-.17.34,3.36,3.36,0,0,1,.25,1.62,5.16,5.16,0,0,0,.08,1.61.79.79,0,0,1,.08.6,1.83,1.83,0,0,0-.08.6v.51a2.59,2.59,0,0,1,.17,2.72,2.12,2.12,0,0,0,0,1.7V84q-.51.68.17,1.7v.17a2.68,2.68,0,0,0-.17,1.62,3.93,3.93,0,0,1,0,1.61,4,4,0,0,1-.08.77,3.81,3.81,0,0,0-.08.77v2.72a1.49,1.49,0,0,0,.17.68,10.79,10.79,0,0,1,.67-1.19,1.44,1.44,0,0,0,.17-1.19c0-.23.06-.37.17-.43a.9.9,0,0,0,.34-.42,8.92,8.92,0,0,1,.51-1.19,3.14,3.14,0,0,0,.25-.85,3,3,0,0,1,.26-.85,1,1,0,0,0,.17-.68,6.61,6.61,0,0,0,.26-1.11,1.6,1.6,0,0,1,.42-.93,1.4,1.4,0,0,0,.25-1,.92.92,0,0,1,.25-.85,31.32,31.32,0,0,0,3.22-8.25q1-4.34,2.37-8.58A28,28,0,0,1,122.26,60a8.3,8.3,0,0,1,5.25-4.17,3.09,3.09,0,0,1,.85-.25,3,3,0,0,0,.84-.26.34.34,0,0,0,.26-.08.35.35,0,0,1,.25-.08h1.18a10,10,0,0,0,1.44-.08,4.12,4.12,0,0,0,1.27-.42,4.4,4.4,0,0,0,.67-.43c.23-.17.51-.14.85.08a3.17,3.17,0,0,0,1.69-.17H137a1.53,1.53,0,0,0,1.1.51,2,2,0,0,1,1.1.34,10.66,10.66,0,0,1,2.2,1.36,2.57,2.57,0,0,0,.68.51,2.7,2.7,0,0,1,.68.51l.34.34a15.85,15.85,0,0,1,2.87,5.44q.85,2.89,1.52,6.12v.68a2.81,2.81,0,0,0,.25,2.21,7.84,7.84,0,0,1,.77,2.38,13.22,13.22,0,0,1-.17,3.65,9.83,9.83,0,0,0,0,3.65,19.29,19.29,0,0,1,.34,7.31q-.51,4.08-.85,7.31a23.68,23.68,0,0,1-.68,3.83,23.37,23.37,0,0,0-.68,4,10.52,10.52,0,0,0,.34,2.29q.34,1.45-.34,2c-.34.34-.4.57-.17.68a.49.49,0,0,1,.17.34,4.24,4.24,0,0,1-.17,2.72,1.21,1.21,0,0,1-.08.51,1.14,1.14,0,0,0-.08.51v.17a1.26,1.26,0,0,1,.25.94,4.62,4.62,0,0,0-.08.94,4.86,4.86,0,0,1-.08.94,4.62,4.62,0,0,0-.08.94c0,.23.17.34.51.34s.91-.4,1.36-1.19a4.51,4.51,0,0,1,.85-1.19,1.57,1.57,0,0,0,.17-.43,1.44,1.44,0,0,1,.17-.42.5.5,0,0,0,.17-.34.48.48,0,0,1,.17-.34,1.54,1.54,0,0,0,.85-1,7.15,7.15,0,0,0,.34-.85l6.63-10.54,6-9.52a2,2,0,0,0,.51-.34A1.36,1.36,0,0,0,164,91a1.34,1.34,0,0,1,.25-.34,1.54,1.54,0,0,0,.42-.85A3,3,0,0,1,165,89a3.62,3.62,0,0,0,.68-.85c.23-.45.4-.68.51-.68a.78.78,0,0,1,.59-.08,1.84,1.84,0,0,0,.6.08l.17.34a9.25,9.25,0,0,0-.34,1.87c-.23.34-.28.57-.17.68a2.47,2.47,0,0,0,.17.94c.11.28.23.54.34.77a3,3,0,0,0-.25.85,2.66,2.66,0,0,1-.43,1,1.35,1.35,0,0,1-.17.85c-.34.45-.65.88-.94,1.27a9.56,9.56,0,0,0-.77,1.27,50.08,50.08,0,0,1-4.33,6.29q-2.47,3.06-4.67,6.29-1.19,1.7-2.29,3.31a22.7,22.7,0,0,0-2,3.48,21.14,21.14,0,0,0-1.62,3.23,5.25,5.25,0,0,1-2.29,2.72,1.51,1.51,0,0,0-.59,1.44c.06.62-.37.94-1.27.94a7.58,7.58,0,0,1-.85,1.53,2.07,2.07,0,0,0-.51.94c-.11.4-.23.77-.34,1.1a2.21,2.21,0,0,1-1.19,2,8.64,8.64,0,0,0-.68.77c-.23.28-.45.54-.68.77l-.34.34c-.68.23-1.08.57-1.19,1a1.76,1.76,0,0,0-1.7-.17,6.93,6.93,0,0,1-1.87.17,1.82,1.82,0,0,0-.6.08,1.92,1.92,0,0,1-.59.08,4.51,4.51,0,0,0-.6-.25,1.7,1.7,0,0,1-.59-.42,16.1,16.1,0,0,1-4.08-4.25,18.58,18.58,0,0,1-2.29-5.19,24.51,24.51,0,0,1-.85-5.78q-.09-3-.08-5.86a1.87,1.87,0,0,0,.08-1.45,2,2,0,0,1-.08-1.27,5.48,5.48,0,0,1,.34-1.36q-.68-.34-.17-1h.17q.17-6.63.68-13.17t.68-13.18a24.21,24.21,0,0,0-.34-3.06,5,5,0,0,1,.17-3.06V74a.94.94,0,0,1-.08-.68,2.82,2.82,0,0,0,.08-.68q.17-.85.25-1.62a3.35,3.35,0,0,0-.25-1.61.68.68,0,0,1-.17-.51V66.17a.75.75,0,0,1-.42-.51,1.54,1.54,0,0,0-.43-.68c-.23-.34-.57-.4-1-.17a2.58,2.58,0,0,0-1.27,1,9.6,9.6,0,0,0-.77,1.53q-.34.68-1,2.38c0,.23-.06.37-.17.42a.92.92,0,0,0-.34.43v-.17a15.7,15.7,0,0,1-1.1,2.38,19.92,19.92,0,0,0-1.1,2.21q-.85,1.87-1.7,4.25t-1.36,4.42a21.58,21.58,0,0,0-.68,3.91,11.77,11.77,0,0,1-1,3.91,60.77,60.77,0,0,0-2,6.2q-.85,3.15-1.87,6a29.8,29.8,0,0,1-2.55,5.44A24.81,24.81,0,0,1,105.65,113.94Zm-46.58-8.16-.34.34c0-.11.11.06.34.51v.17h.34c.79-.11,1.19.23,1.19,1v1.7a.34.34,0,0,0-.25.09.68.68,0,0,1-.42.08h-.34l-.59-.6a.81.81,0,0,1-.26-.59,1.22,1.22,0,0,0-.17-1,1.65,1.65,0,0,1-.34-1.19,1.2,1.2,0,0,0-.08-.51c-.06-.11,0-.28.08-.51a2.66,2.66,0,0,1,.68-.51h.17Zm.68-3.74a.57.57,0,0,0,.09-.76c-.17-.28-.31-.54-.43-.77h-.17a3.15,3.15,0,0,0-.08,1.19C59.21,101.82,59.41,101.93,59.75,102Zm21.76-20.4a2.91,2.91,0,0,1-1.19.17,1,1,0,0,0,.34.68c.23.23.4.28.51.17a4,4,0,0,0,.51-.85Zm1-7.31h.68a1,1,0,0,0,.68-.34,2.54,2.54,0,0,1-.68-.51,2.42,2.42,0,0,0-.43.51A1.37,1.37,0,0,1,82.53,74.33Zm8.67,36.38a.3.3,0,0,0,.34.34,3,3,0,0,0,1.19.17v-.17c0-.11,0-.17.09-.17s.08-.06.08-.17h-.17l-.17.34q-.34-.85-.68-.51A.56.56,0,0,1,91.2,110.71Zm.2-2.38q.17.68,1.36.34A5.61,5.61,0,0,0,91.4,108.33Zm.14,4.93a1.21,1.21,0,0,0,.51-.08,1.14,1.14,0,0,1,.51-.08l.17-.17-.17-.17h-1Zm1.7,6.63c-.11.57,0,.85.34.85a.15.15,0,0,0,.17.17l.34.17a3,3,0,0,1-.85.34.78.78,0,0,1-.85-.51.76.76,0,0,0-.08-.34.74.74,0,0,1-.08-.34,1.28,1.28,0,0,1,.51-.17A1.35,1.35,0,0,0,93.24,119.89Zm27.88-55.76c-.11.11-.2.17-.25.17s-.14.11-.25.34l.17.17a.69.69,0,0,0,.51-.17v-.51Zm24.82,55.25c-.57,0-.85.23-.85.68a.45.45,0,0,0,.51.51c.23,0,.45-.23.68-.68a.27.27,0,0,0-.17-.25A.27.27,0,0,1,145.94,119.38Zm19.21-29.24h.68c.11,0,.17,0,.17-.08s.06-.08.17-.08a.5.5,0,0,0-.34-.17.76.76,0,0,0-.34.08.74.74,0,0,1-.34.08Z"/><path class="notes-letter" d="M243.69,85.38c.79.11,1.19.74,1.19,1.87a3.27,3.27,0,0,1-2,3.06c-.23.23-.51.48-.85.77s-.62.54-.85.77l-3.57,4.59a7.54,7.54,0,0,0-1.87,2.38,9.07,9.07,0,0,1-1.7,2.38,10,10,0,0,1-1.36,1,5.44,5.44,0,0,1-1.36,3.4L230.6,107q-.34.68-.68,1.53a6.45,6.45,0,0,1-1.7,2.38,1.14,1.14,0,0,0-.51,1,14.21,14.21,0,0,1-3.06,5.44L224,118a5.38,5.38,0,0,0-.68.85,1.82,1.82,0,0,1-.6.85,8.56,8.56,0,0,0-.77.68,10.63,10.63,0,0,0-1.19.68,6.75,6.75,0,0,0-1,.85,2.66,2.66,0,0,1,.51.68,2.61,2.61,0,0,0,.51.68q-.17.85-1.36,1.19a6.83,6.83,0,0,1-2.47.85,5.43,5.43,0,0,0-2.47,1c-.23.23-.4.34-.51.34a20.62,20.62,0,0,0-4.18.08,7.41,7.41,0,0,1-4-.6,4.29,4.29,0,0,0-1.88-.59,11.83,11.83,0,0,1-2.22-.43v-.51a2.58,2.58,0,0,0-1.37-2.55l-.34-.34q-.85-1.36-1.71-2.63t-1.71-2.64a5.46,5.46,0,0,1-.68-2,18.07,18.07,0,0,0-.51-2.38,4.16,4.16,0,0,1-.43-1.36,12.09,12.09,0,0,0-.26-1.36,16.13,16.13,0,0,1-.17-2.29,16.48,16.48,0,0,0-.17-2.29,3.63,3.63,0,0,1,.17-.94,4.09,4.09,0,0,0,.17-1.1,2.77,2.77,0,0,0-.08-1.53,1.73,1.73,0,0,1,.26-1.53,1.06,1.06,0,0,0-.17-.59,5.12,5.12,0,0,1-.34-.6,1.57,1.57,0,0,0-1.2.17,15.86,15.86,0,0,0-1.71,1.19l-1.71,1.36a11.35,11.35,0,0,1-1,1.19l-1,1a2.67,2.67,0,0,0-2.22.59,5.09,5.09,0,0,1-2,1.1c-.57.23-.91.31-1,.26a10.23,10.23,0,0,1-1-.77,5.77,5.77,0,0,0-.6,1.19,5.83,5.83,0,0,1-.6,1.19,1.7,1.7,0,0,1-1,.42,1.16,1.16,0,0,1-1-.25.48.48,0,0,1-.17-.34,5.54,5.54,0,0,1-2.22.17q-1.37-.34-2.56-.59a3.26,3.26,0,0,1-2-1.62,1.25,1.25,0,0,1-.34-.94,1.07,1.07,0,0,0-.51-.94,17.91,17.91,0,0,1-3.07-4.59,5.69,5.69,0,0,1-.68-2.55,4.54,4.54,0,0,1-.42-1.11,1.51,1.51,0,0,0-.43-.76,23,23,0,0,1-1.19-2.38,9.3,9.3,0,0,1-.68-2.55,44.51,44.51,0,0,1-.43-4.84q-.09-2.46-.42-5.19c.45.11.85.2,1.19.25s.74.14,1.19.25a2.78,2.78,0,0,1,.17-.85,3.25,3.25,0,0,0,.17-1,2.48,2.48,0,0,1,.43-2.29l1.45-1.78a3.9,3.9,0,0,0,.85-1.53,8.31,8.31,0,0,1,3.07-3.74.92.92,0,0,0,.42-.34.93.93,0,0,1,.43-.34,11.1,11.1,0,0,0,1.19-1l1.2-1.19a2.41,2.41,0,0,1,1.28-2,10.74,10.74,0,0,1,2.47-.94l.51-.25a2.36,2.36,0,0,0,.51-.42c.68-.45,1.14-.74,1.37-.85q1.71-.34,3.32-.6a13.1,13.1,0,0,1,3.33-.08c.57,0,1.16,0,1.79.08a4.75,4.75,0,0,0,2-.25.92.92,0,0,1,.85-.25q.51.09,1.2.25a2.31,2.31,0,0,0,1.62-.25,1.53,1.53,0,0,1,1.62.08h.34a2,2,0,0,1,1.79-.68,7.38,7.38,0,0,1,2,.68h.51a2.09,2.09,0,0,1,1.54-.08,9.72,9.72,0,0,0,1.54.42,9.78,9.78,0,0,1,5.12,2.38,12.38,12.38,0,0,0,1.45.94,12.15,12.15,0,0,1,1.62,1.1,4.13,4.13,0,0,1,.85.51,18.7,18.7,0,0,1,3.41,3.74,2.14,2.14,0,0,1,.51.85,1.62,1.62,0,0,0,.68.85,2.6,2.6,0,0,1,.85,1.87v2c.11.45.2.85.26,1.19s.14.74.25,1.19a17.13,17.13,0,0,1,1.37,5.1,5.26,5.26,0,0,1,0,1.87,11.35,11.35,0,0,0-.17,1.87,13.32,13.32,0,0,1,.08,2.55,9.2,9.2,0,0,1-.6,2.55q-.34.34,0,.51a11.82,11.82,0,0,1-.25,4.68,11.73,11.73,0,0,0-.25,4.67,4.53,4.53,0,0,1-1,3.06,1.89,1.89,0,0,0-.17.85,8.42,8.42,0,0,0-.17,1.7,4.55,4.55,0,0,1-.34,1.7,7,7,0,0,0-.68,2.13,12.85,12.85,0,0,1-.51,2.13,1.88,1.88,0,0,0-.17.85v1a3.8,3.8,0,0,1,1.37-.68l.68-.68.69-.68a3.17,3.17,0,0,0,1.44-.85,5.16,5.16,0,0,0,.77-1.36q.68-1,1.36-1a1.1,1.1,0,0,0,.25-.43.77.77,0,0,1,.43-.42,4.17,4.17,0,0,0,.51-.6,1.28,1.28,0,0,1,.68-.42,6.08,6.08,0,0,0,.94-.77,2.45,2.45,0,0,0,.59-1.27l.34-.17a6.09,6.09,0,0,0,2.13-2.21,10.91,10.91,0,0,1,1.79-2.38,2.19,2.19,0,0,0,.77-.85,9.26,9.26,0,0,1,.59-1,4.08,4.08,0,0,1,1.1-1.53q.77-.68,1.45-1.36c.45-.23.68-.51.68-.85a4.63,4.63,0,0,1,1.19-2l1.7-1.7a1.49,1.49,0,0,1,.77-.43,4.62,4.62,0,0,0,1.1-.42q.51-.85,1-1.79A7.87,7.87,0,0,1,242,86.4Q242.67,84.7,243.69,85.38Zm-75.48-3.91a1.71,1.71,0,0,0,.76-1.53,16.62,16.62,0,0,1-.08-1.7q-1,.34-1,.51a9,9,0,0,0-.17,2Q167.7,81,168.21,81.47Zm26.69,8.84a15.57,15.57,0,0,1,.17-2.21,17.08,17.08,0,0,0,.17-2.38q0-1.87-.17-3.83t-.17-3.82q0-2.38-2.21-2.21a18.68,18.68,0,0,0-3.57,1,10.26,10.26,0,0,1-2.46,1l-2.46.68a3.29,3.29,0,0,1-.68.26.79.79,0,0,0-.51.59,2.28,2.28,0,0,1-.94,1.19,4.94,4.94,0,0,1-1.27.51,11.69,11.69,0,0,0-2.38.85,3.23,3.23,0,0,0-1.53,1.87c-.11.45-.28.68-.51.68l-1.36,1a11,11,0,0,0-1.19,1,7.11,7.11,0,0,0-.17,1.7c-.57,0-.91-.06-1-.17a8.33,8.33,0,0,1-1,1.19,3.17,3.17,0,0,0-.34,1.7,4.8,4.8,0,0,1,.34,1.79,9,9,0,0,0,.17,1.78.76.76,0,0,1-.08.34,1.16,1.16,0,0,0-.08.51A10.62,10.62,0,0,1,172,98a1.37,1.37,0,0,0,.25.85c.17.23.37.51.6.85a4.35,4.35,0,0,0,2.64,1.1,15.49,15.49,0,0,1,2.8.43,9.58,9.58,0,0,1,2.81-.6,7.14,7.14,0,0,0,2.8-.77,11.34,11.34,0,0,1,2.81-1.27,4.5,4.5,0,0,0,2.46-2l.68-.34a.58.58,0,0,1,.42-.17,1.36,1.36,0,0,0,.6-.17,16.66,16.66,0,0,1,1.87-2.47q1-1.1,1.87-2.12A1.39,1.39,0,0,0,194.9,90.31Zm-11.73,16.15q.34-.51.51-.51a4.86,4.86,0,0,1,1,.34A2.46,2.46,0,0,1,183.17,106.46Z"/><path class="notes-letter" d="M263.41,115.47a1.45,1.45,0,0,1-.68.6,2,2,0,0,0-.85.94q-.34.51-.77,1.27a6.64,6.64,0,0,1-1.1,1.44,4.27,4.27,0,0,0-.68.94,2.76,2.76,0,0,1-.85.94,4.16,4.16,0,0,0-1.27,1,6.09,6.09,0,0,1-1.45,1.19q-.34.34-.76.68a1.26,1.26,0,0,1-1.28,0,1.26,1.26,0,0,0-.76.34,4.66,4.66,0,0,1-.77.51l-.85.26a3.64,3.64,0,0,1-.85.08q-1.19.34-1.87-1.19a1.84,1.84,0,0,0-.85-.68,9.23,9.23,0,0,1-4.59-3.57,2.63,2.63,0,0,0-.68-.51,2.67,2.67,0,0,1-.68-.51,1,1,0,0,0,.17-.68,2.51,2.51,0,0,0,.26-1.27,2.58,2.58,0,0,0-.77-1.1,2.73,2.73,0,0,1-1.87-2.38q-.17-1-.25-2a11.78,11.78,0,0,0-.43-2.21,7.1,7.1,0,0,1-.25-2.46,6.29,6.29,0,0,0-.42-2.63v-1.36a12.61,12.61,0,0,0,.17-2,9.49,9.49,0,0,1,.17-1.87v-.34a8,8,0,0,1-.25-2.55q.08-1.19.08-2.55V91.84a5.13,5.13,0,0,1-.17-1.53c.11-.68.2-1.39.25-2.12a11.46,11.46,0,0,1,.42-2.29c.23-.23.28-.37.17-.42s-.17-.2-.17-.43a2.85,2.85,0,0,0-.17-.85.77.77,0,0,1,.17-.85,8.09,8.09,0,0,0,.34-2.21,15.56,15.56,0,0,1,.17-2.21,16,16,0,0,0,.17-2.21,5,5,0,0,1,.34-1.87v-.51q-.17-1-.25-2a4.83,4.83,0,0,1,.08-1.62,9.4,9.4,0,0,0-1.19-5.1,1.33,1.33,0,0,0-1.36-1,11.28,11.28,0,0,1-1.87,3.91,17.32,17.32,0,0,0-1.53,1,7.81,7.81,0,0,0-1.36,1.36.36.36,0,0,0-.25.08c-.06.06-.2.08-.42.08v-.68a6.21,6.21,0,0,0,.42-1.79,2.32,2.32,0,0,1,.94-1.62,1,1,0,0,0,.17-.68,2.58,2.58,0,0,1,1-2,9.08,9.08,0,0,0,2.55-2.55l.59-.6.6-.6a2.61,2.61,0,0,1,.42.51,2.3,2.3,0,0,0,.42.51,1.54,1.54,0,0,0,1.7-.68,1.63,1.63,0,0,1,1.7-.34,6.22,6.22,0,0,0,1.78,1,3.69,3.69,0,0,1,1.62,1.19,1,1,0,0,0,.59.68,5.36,5.36,0,0,1,.94.51,8.88,8.88,0,0,1,3.06,2.72q.34,1,1.7.34a4.64,4.64,0,0,1,1.27,1.53q.42.85.77,1.7a6.33,6.33,0,0,0,.94,1.36,1.9,1.9,0,0,1,.25,1.87h1.19a2.2,2.2,0,0,0,.42.59,2.29,2.29,0,0,1,.43.6,1.85,1.85,0,0,1,.51,1.7.39.39,0,0,0,.25.43.39.39,0,0,1,.26.42,1.15,1.15,0,0,0,.08.51,1.79,1.79,0,0,1,.08.68l-.17.34a3.47,3.47,0,0,1,.34,2.55,6.29,6.29,0,0,0-.17,2.55,16.39,16.39,0,0,1,.08,2.89,9.53,9.53,0,0,0,.25,2.89,11.81,11.81,0,0,1,.43,2.21,3.8,3.8,0,0,1-.43,2,2.68,2.68,0,0,0-.17,1.61,3.93,3.93,0,0,1,0,1.62,26.38,26.38,0,0,0,0,4.25,1.18,1.18,0,0,1,.08.77,4.64,4.64,0,0,0-.08.93,2.39,2.39,0,0,1-.17,1q-.34,1.36-.6,2.47A5.23,5.23,0,0,0,258,109a4,4,0,0,1-.08.77,3.8,3.8,0,0,0-.08.76v1.7a10.41,10.41,0,0,0,1-.85,5.81,5.81,0,0,0,.68-.85l2.13-2.46a5,5,0,0,1,3-1.61.9.9,0,0,0,1-1,2.3,2.3,0,0,1,.17-1.53,4,4,0,0,1,.68-1c.45-.57.85-1.1,1.19-1.61a2.85,2.85,0,0,1,1.53-1.1.5.5,0,0,1,.17.34.48.48,0,0,0,.17.34,1.45,1.45,0,0,1,0,1.87,4.78,4.78,0,0,0-1.36,3.06c0,.23-.06.34-.17.34a7.5,7.5,0,0,0-1,1.62c-.23.51-.45,1-.68,1.61a2.63,2.63,0,0,0-.42.94,2.74,2.74,0,0,1-.43.94.35.35,0,0,1-.08.25.34.34,0,0,0-.08.26,1.91,1.91,0,0,1-.68,2A3.12,3.12,0,0,0,263.41,115.47ZM241.31,50q-.34-.68-.51-1.1a5.41,5.41,0,0,0-.51-.93,2.51,2.51,0,0,1-.25-1.45,1.43,1.43,0,0,1,.59-1.1,1.7,1.7,0,0,0,1-.77,9.06,9.06,0,0,0,.34-1.1q.17-1,1.7-1.53a9.13,9.13,0,0,1,1.87-.51,3.46,3.46,0,0,1,1.87.17q.68.68,1.87-.17a2.92,2.92,0,0,1,2.13-.76,9,9,0,0,1,2.13.42,5.33,5.33,0,0,0,1.53.34,5.85,5.85,0,0,1,2,1,.81.81,0,0,1,.42.6,2.63,2.63,0,0,0,.42.94,6.66,6.66,0,0,0,1.53,2,6.8,6.8,0,0,1,1.36,4.08,1.35,1.35,0,0,1-.17.85q-.68.34-.51.94a1.28,1.28,0,0,1-.17,1.1q-.17.68-.51,2.38a1.28,1.28,0,0,0-.77.76q-.25.6-1.1.43-.68,2.21-3.4,1.7a7.79,7.79,0,0,0-1.1-.17,4.14,4.14,0,0,0-1.1.34,8.13,8.13,0,0,1-1.27-.42,8.66,8.66,0,0,0-1.28-.42v.17l-.34-.68a3.72,3.72,0,0,0-1-1.19,4,4,0,0,0-1.53-.51c-.45,0-.79-.28-1-.85A10.25,10.25,0,0,1,244,53.42a10.22,10.22,0,0,0-1.36-1.19,2.17,2.17,0,0,0-.51-.85A1.7,1.7,0,0,1,241.31,50Zm30.94,47.43a9,9,0,0,1-1.7,2.72,15.68,15.68,0,0,1-.85-1.36q.34-.85.68-1.78a4.36,4.36,0,0,1,1-1.62h1a6.68,6.68,0,0,0,.08.94A1.55,1.55,0,0,1,272.25,97.45Zm1.7-3.23c-.23.68-.62.91-1.19.68a10.71,10.71,0,0,0-.17-2c.45.23.82.42,1.1.59A.59.59,0,0,1,274,94.22Zm.51-2.55a2.94,2.94,0,0,0,.59-.94c.17-.4.31-.77.43-1.1l.68.34A1.74,1.74,0,0,1,274.46,91.67Z"/><path class="notes-letter" d="M277,113.94a13.4,13.4,0,0,0-.25-2.64q-.25-1.28-.6-2.63a1.06,1.06,0,0,0-.17-.6,5,5,0,0,1-.34-.59l-3.4-4.59.85-.85a5.48,5.48,0,0,0,.25-3.91,20.4,20.4,0,0,1-.77-3.91,26.56,26.56,0,0,1,.6-8.25,35.41,35.41,0,0,0,.93-8.07q0-5.44-.34-10.71t-.51-10.71a113.39,113.39,0,0,1,1.53-20.57l1-5.44q.51-2.72,1.19-5.61.51-2,.94-4.17a11.05,11.05,0,0,0-.08-4.5,3.12,3.12,0,0,1,0-2,7,7,0,0,0,.42-2.89,5.64,5.64,0,0,1,.6-2.89,1.4,1.4,0,0,0-.34-1,2.55,2.55,0,0,0-.6-.68,3.87,3.87,0,0,1-.59-.51q-1.7-1.19-.51-2.72a1.49,1.49,0,0,0,.42-.77,2.65,2.65,0,0,1,.43-.94l.85-.85a1.6,1.6,0,0,0,1.44,0,2,2,0,0,1,1.44-.17A5.33,5.33,0,0,0,283,.38,1.57,1.57,0,0,1,284.32,0a6.82,6.82,0,0,1,1.36.51q1,.34,1.7.51h.51a6.56,6.56,0,0,0,2.3,1.36q1.1.34,2.29.68a1.5,1.5,0,0,0,.85.43,2.66,2.66,0,0,1,1,.42h.51a6.8,6.8,0,0,0,2.29,1.53A6.79,6.79,0,0,1,299.45,7a12,12,0,0,1,2.38,4.5,21.93,21.93,0,0,1,.77,5.1,42.8,42.8,0,0,1-.17,5.35q-.26,2.72-.26,5.1-.17,3.4-.59,7t-1.1,7a38.11,38.11,0,0,0-.43,4.25,33.61,33.61,0,0,1-.42,4.08q-.51,2.89-.93,5.69t-.77,5.52a110.5,110.5,0,0,0-1,12.24q-.17,6.12-.17,12.24v7q0,3.57.17,7.14.17,3.4.42,6.88t.42,7.06q.34,2.72.68,5.52a7,7,0,0,0,2.55,4.67,3.69,3.69,0,0,0,2.46,1.45,5.77,5.77,0,0,0,2.55-.43,11.76,11.76,0,0,0,2.46-1.36q1.19-.85,2.21-1.7,1.19-1,2.3-2a16.3,16.3,0,0,1,2.46-1.87,5.25,5.25,0,0,1,2.38-.51,1.61,1.61,0,0,0,1.7-1.36,21.34,21.34,0,0,1,1.36-2.89,28.83,28.83,0,0,0,2.46-2.8,24.55,24.55,0,0,0,2-3,16.28,16.28,0,0,1,1.36-2.29,14,14,0,0,0,1.19-2,11.87,11.87,0,0,1,1.53-2.12,5.29,5.29,0,0,0,1.19-2.12c0-.11.11-.28.34-.51a4.66,4.66,0,0,0,1.45-2c.28-.79.59-1.59.93-2.38a5.3,5.3,0,0,0,.51-.94,5.1,5.1,0,0,1,.51-.93c.68.23,1.47.45,2.38.68v.17a4.71,4.71,0,0,1,.85,1.87c0,.34-.4,1-1.19,1.87a.93.93,0,0,0-.34.59,7.3,7.3,0,0,0,.17,1.1l-1,.68-1,.68a.93.93,0,0,0-.42.34,2.48,2.48,0,0,1-.42.51q-.68,1.36-1.28,2.63a5.4,5.4,0,0,1-1.78,2.13.54.54,0,0,0-.34.51v.51a13.9,13.9,0,0,0-1.19,2l-.68.68a5.92,5.92,0,0,1-2,3.23,16.94,16.94,0,0,0-2.64,2.72,10.78,10.78,0,0,1-1,1.44,3.45,3.45,0,0,1-1.36.94.15.15,0,0,0-.17.17.5.5,0,0,1-.17.34,2.72,2.72,0,0,1-2.21,1.7,1.38,1.38,0,0,0-1.36,1.53,1.39,1.39,0,0,1-.34,1l-.68.68q-.85.68-1.87,1.36a12,12,0,0,0-1.87,1.53,2.61,2.61,0,0,1,.34,1l-.34.34a11.71,11.71,0,0,0-1.79.43,4.3,4.3,0,0,0-1.61,1.1,2.89,2.89,0,0,1-1,.59,2.81,2.81,0,0,0-1,.6,5,5,0,0,0-1.19,1.36,6.15,6.15,0,0,1-.93,1c-.17.11-.65.06-1.45-.17a8.08,8.08,0,0,0-2-.08c-.68.06-1.47.14-2.38.25q-.17,0-.25.26a.79.79,0,0,1-.42.42,5.07,5.07,0,0,0-3.4-.17,8.61,8.61,0,0,1-3.4,0,1.76,1.76,0,0,1-1.7-1q-1-2-2.72-1.36-1,.51-1.7-1-1-1.53-2.12-3.15t-2.12-3.32q-.68-1-1.53-2.12a7.33,7.33,0,0,1-1.19-2.12,16.67,16.67,0,0,0-.85-1.78A4.74,4.74,0,0,1,277,113.94Zm47.26-4.59c-.23.57-.42,1-.59,1.36a5.68,5.68,0,0,0-.43,1.19q1.19.34,1.53,0Q325.46,110.88,324.27,109.35Z"/><path class="notes-letter" d="M116.88,259.05q-.34-.17-1.19.34l-.59.59-.6.6a3.66,3.66,0,0,0-.85.76q-.34.42-1.19.08l-.85.34a1.23,1.23,0,0,1-1.1.51,1.52,1.52,0,0,1-1.1-.34,5,5,0,0,0-.94-.51,5.3,5.3,0,0,1-.93-.51h-.34q-.85.34-1.27-.17a3.41,3.41,0,0,0-1.1-.85,1.34,1.34,0,0,1-.17-.85,3.48,3.48,0,0,0-1.53-2,3.92,3.92,0,0,1-.93-1.36,14.2,14.2,0,0,0-.6-1.36,3.73,3.73,0,0,1-.51-2,3.72,3.72,0,0,0-.51-2v-.17l-.17-.17c-.45,0-.65-.11-.6-.34a2.84,2.84,0,0,0,.08-.68,2.73,2.73,0,0,0-.68-2.55,2.31,2.31,0,0,1-.34-1.53c0-.57,0-1.16.09-1.79s.08-1.22.08-1.78v-.51a12,12,0,0,1,.08-1.53A3.75,3.75,0,0,0,99,238a6.9,6.9,0,0,1,.34-2.21,4.22,4.22,0,0,0,.17-2,7.72,7.72,0,0,1,0-2.29,12.61,12.61,0,0,1,.51-2.12,14.38,14.38,0,0,0,.34-2.55,1.18,1.18,0,0,0,.08-.77,4.62,4.62,0,0,1-.08-.93v-1.19q.17-.85.25-1.53a4.15,4.15,0,0,1,.43-1.36,11.21,11.21,0,0,0,.34-2.72,11.11,11.11,0,0,1,.34-2.72,3,3,0,0,0,.34-1.36,7.84,7.84,0,0,1,.17-1.53,1.92,1.92,0,0,0-.08-.59,1.82,1.82,0,0,1-.09-.59q.34-1.36.51-2.21a3,3,0,0,0,.08-1.19,2,2,0,0,1,.25-1.19q.17-.85.26-1.61a3.35,3.35,0,0,0-.26-1.62v-.17a8,8,0,0,0,.17-1.53,7.84,7.84,0,0,1,.17-1.53,2.86,2.86,0,0,0-.08-.68,2.68,2.68,0,0,1-.09-.68.77.77,0,0,0-.08-.34.73.73,0,0,1-.08-.34,5.36,5.36,0,0,0,.17-2.29,15,15,0,0,1-.17-2.29,1.33,1.33,0,0,0-1-1.36l-1-.34a6.14,6.14,0,0,1-.85-.34.78.78,0,0,0-.85.51,12.9,12.9,0,0,1-1.53,3.06.92.92,0,0,1-.34.42,2.46,2.46,0,0,0-.51.42q-.51.51-.51.68a3.58,3.58,0,0,1-1.19,1.87,1.05,1.05,0,0,0-.34.76,1.06,1.06,0,0,1-.34.76,5.12,5.12,0,0,1-.85,1.45,6.29,6.29,0,0,0-.85,1.28q-.68.68-.51,1a.27.27,0,0,1-.17.25.27.27,0,0,0-.17.25,1.84,1.84,0,0,0-.68.85,6.49,6.49,0,0,0-.25,1,1.54,1.54,0,0,1-.42.85,2.64,2.64,0,0,0-.51,1.87v.51c-.23.34-.45.65-.68.93s-.45.59-.68.94l-1,1.53v.34a4.89,4.89,0,0,1-1.19,3.57,1.38,1.38,0,0,0-.34,1,1.51,1.51,0,0,0-.17.68,1.52,1.52,0,0,1-.17.68,5,5,0,0,0-.51.94c-.11.28-.23.59-.34.93a1,1,0,0,0-.34.68,1.39,1.39,0,0,1-.25,1.53,6.44,6.44,0,0,0-.94,1.36,9.19,9.19,0,0,0-.6,1,9.68,9.68,0,0,1-.59,1l-.17.17a1.25,1.25,0,0,1,0,1.27,6.22,6.22,0,0,0-.68,1.11q-.34,1.36-.77,2.72a5.5,5.5,0,0,0-.08,2.89.21.21,0,0,1,0,.34c-.23.79-.42,1.56-.59,2.29s-.37,1.5-.6,2.29l-.51,1a3.21,3.21,0,0,0-.26.68c-.06.23-.25.34-.59.34a1.29,1.29,0,0,1-1,.76c-.45.06-.74.37-.85.94a.5.5,0,0,1-.34.17.48.48,0,0,0-.34.17,5.11,5.11,0,0,0-.85.08,5.48,5.48,0,0,1-.85.08l-.68.34a2.45,2.45,0,0,0-2-.85,1.78,1.78,0,0,1-.94-.25,4,4,0,0,1-.76-.6c-.11,0-.17,0-.17-.08s-.06-.08-.17-.08a1.23,1.23,0,0,1-1.27-.34,11.66,11.66,0,0,1-.77-1,.49.49,0,0,0-.34-.17,1.31,1.31,0,0,1-.51-.17,2.08,2.08,0,0,1-1.36-.59,2.51,2.51,0,0,1-.85-1.27,4.16,4.16,0,0,0-.51-.85,1.28,1.28,0,0,1-.17-.51,1.36,1.36,0,0,0-.17-.51,1.36,1.36,0,0,1-.17-.6.94.94,0,0,0-.34-.59,8.26,8.26,0,0,1-1.36-5.1v-.68a4,4,0,0,1-.25-1.87q.08-1,.08-2a7.45,7.45,0,0,0-.08-1.19c-.06-.34-.14-.74-.26-1.19v-.34a2.06,2.06,0,0,0,.17-1.87,1.7,1.7,0,0,1,.25-1,6.41,6.41,0,0,1,.59-.68,1.16,1.16,0,0,0,.34-.85,5.72,5.72,0,0,1,.17-3.06,2.43,2.43,0,0,0,.08-1.11,7.55,7.55,0,0,1-.08-1.1,2.63,2.63,0,0,0-.34-1,1.86,1.86,0,0,1-.09-1.44,7.37,7.37,0,0,0,.43-1.45v-1a4.64,4.64,0,0,1,.08-.93,1.18,1.18,0,0,0-.08-.76A3.83,3.83,0,0,0,62,206c-.11-.34-.23-.74-.34-1.19v-.34a3.5,3.5,0,0,0-.68-2.55,2.12,2.12,0,0,0-.51-.76,2.53,2.53,0,0,0-.85-.08,1.38,1.38,0,0,1-1-.34.86.86,0,0,0-1-.34,1.53,1.53,0,0,0-1,.85c-.11.11-.17.2-.17.25s-.06.14-.17.25a2.53,2.53,0,0,1-.51.68,3.62,3.62,0,0,1-.68-.85c-.11-.23-.14-.37-.08-.42s.08-.2.08-.42a1,1,0,0,1,.85-1,3.85,3.85,0,0,0,1-.68.54.54,0,0,0,.34-.51.55.55,0,0,1,.34-.51,14.16,14.16,0,0,1,2-1.19,2,2,0,0,1,1.11-.34H61.8a1.67,1.67,0,0,1,1.2.17.92.92,0,0,0,.86.25,1.43,1.43,0,0,1,.86.08,4.09,4.09,0,0,1,.77.08,3.88,3.88,0,0,0,.77.08.7.7,0,0,0,.52.17,1.17,1.17,0,0,1,1.72.17,3.78,3.78,0,0,0,.86.51l1.54.51h1.72a.75.75,0,0,0,.86.85,1.49,1.49,0,0,1,1,.51l1.12.76a9.1,9.1,0,0,0,1.29.77,1.53,1.53,0,0,1,.43.68,1.5,1.5,0,0,0,.43.68A7.2,7.2,0,0,0,78.87,204,7.44,7.44,0,0,1,80,205.16a1.32,1.32,0,0,1,.17.51,1.28,1.28,0,0,0,.17.51,5.62,5.62,0,0,1,.6,2,11.35,11.35,0,0,0,.42,2.21v.34a1.88,1.88,0,0,1,.34,1.87v.85a1.48,1.48,0,0,1,.17,1.53v.85a5.87,5.87,0,0,1-.51,3.06v.34a2.77,2.77,0,0,1-.08,1.53q-.25.68-.6,1.53c-.11.57-.2,1.1-.25,1.61s-.14,1-.25,1.62v2.38h.33a11.19,11.19,0,0,1,.82-2,3.09,3.09,0,0,1,.33-.85,4.34,4.34,0,0,0,.49-1,4.27,4.27,0,0,1,.49-1,9.65,9.65,0,0,1,.74-1.28,9.61,9.61,0,0,0,.74-1.27,2.68,2.68,0,0,0,.41-1.11,4.25,4.25,0,0,1,.41-1.27v-.34a2.15,2.15,0,0,0,.51-.85,4.15,4.15,0,0,1,.51-1,3.37,3.37,0,0,0,.85-1.19l.17-.17a.3.3,0,0,0,.34-.34,6,6,0,0,0,.17-1.7,1.33,1.33,0,0,1,.51-1.19c.23,0,.34-.17.34-.51a6.63,6.63,0,0,0,.42-1.44,6.39,6.39,0,0,1,.42-1.45l.51-1c.11-.11.17-.2.17-.25s.06-.14.17-.25a17.45,17.45,0,0,1,.85-1.87,1.92,1.92,0,0,0-.08-.59c-.06-.17,0-.37.25-.59a3.2,3.2,0,0,0,.34-1.45,3.17,3.17,0,0,1,.34-1.45,5.3,5.3,0,0,0,.51-.93,2.52,2.52,0,0,0,.17-.94,7.43,7.43,0,0,1,.85-1.78A7.55,7.55,0,0,0,94.1,195a3.1,3.1,0,0,1,.68-1.45,6.25,6.25,0,0,0,.85-1.27l.51-1A4.56,4.56,0,0,1,97,190c.23-.34.48-.71.76-1.1s.54-.76.77-1.11.51-.62.85-.51c.11,0,.28-.11.51-.34a.15.15,0,0,0,.17-.17,1.42,1.42,0,0,0,1.36,0,1.43,1.43,0,0,1,1.36,0,15,15,0,0,0,2.89.34h.17a2.63,2.63,0,0,0,1.62.68h1.61a2,2,0,0,1,.85.26l.85.42c.57.23.85.4.85.51a1.87,1.87,0,0,1,.85.68q.85,1.53,2,1.36c.11,0,.28.11.51.34a10.88,10.88,0,0,0,1.36,1.7,3.79,3.79,0,0,1,1.19,1.53l.68,1.7a.94.94,0,0,1,.34.6,1.35,1.35,0,0,0,.17.59,4.67,4.67,0,0,0,.85,1l.34.34a4.3,4.3,0,0,1,.43,1.27,2.6,2.6,0,0,0,.42,1.11,4.31,4.31,0,0,1,0,1.7c-.23.34-.17.79.17,1.36s.45.88.68,1.28a2,2,0,0,1,.17,1.44,1.79,1.79,0,0,0,0,1.53c.11.57.2,1.11.25,1.62a5.32,5.32,0,0,1-.08,1.62,9.21,9.21,0,0,0-.34,2,16.54,16.54,0,0,1-.17,2.46,18.9,18.9,0,0,1-.51,2.29,2.19,2.19,0,0,0,0,1.7,3.13,3.13,0,0,1,0,1.44q-.17.6-.34,1.45l-.34,1a3.75,3.75,0,0,0-.17,1.19,5.37,5.37,0,0,1-.17,1.45q-.17.6-.34,1.44v1a.76.76,0,0,0-.08.59.39.39,0,0,1-.08.42,3.77,3.77,0,0,0-.34,1.7v1.36a.75.75,0,0,1-.08.34,1.17,1.17,0,0,0-.08.51,12.11,12.11,0,0,0,.08,1.53,4.86,4.86,0,0,1-.08,1.53.35.35,0,0,1-.08.25.67.67,0,0,0-.08.42,2.37,2.37,0,0,0-.17,1v.51a3.4,3.4,0,0,0-.17,1.87,12.6,12.6,0,0,1,.17,2,.69.69,0,0,1-.34.68.15.15,0,0,1-.17.17c-.11.45-.2.85-.26,1.19s-.14.74-.25,1.19a1,1,0,0,0,.51,1.36,2.3,2.3,0,0,1,.34,2.21,1.2,1.2,0,0,1-.08.51,1.14,1.14,0,0,0-.08.51v.34a1076049.53,1076049.53,0,0,0,.68-.34,2.44,2.44,0,0,1,1.7-.85l.34-.17a15.83,15.83,0,0,0,2-1.36c.23-.23.34-.4.34-.51q.34-.85,1-.68a.58.58,0,0,0,.77-.34l.43-.85a3.82,3.82,0,0,1,1.36-1.36,8.17,8.17,0,0,0,1.79-1.61q.76-.94,1.44-2a1.51,1.51,0,0,0,.42-.77,3,3,0,0,1,.26-.76,12,12,0,0,0,1.36-1.53.49.49,0,0,0,.34-.17,1.22,1.22,0,0,1,.51-.85,2.64,2.64,0,0,0,.68-.51c.11-.11.2-.17.25-.17s.14-.06.26-.17c.34-.45.65-.85.94-1.19s.59-.74.93-1.19a3.36,3.36,0,0,0,.85-1.19q.85-1.7,2.38-.85a1.28,1.28,0,0,0,.51.17,1.36,1.36,0,0,1,.51.17l.17.17a.15.15,0,0,0,.17.17v1.87a3.8,3.8,0,0,0-1.7,2,1.48,1.48,0,0,0-.42.77c-.06.28-.31.48-.77.59q-.17,0-.25.25a1.1,1.1,0,0,1-.25.42,4,4,0,0,1-.68,1,8,8,0,0,0-1,1.19,8.56,8.56,0,0,0-1.44,1.45,5.24,5.24,0,0,1-1.45,1.28,1.29,1.29,0,0,0-.59.93,6.67,6.67,0,0,1-.26,1.11.35.35,0,0,1-.08.25.34.34,0,0,0-.08.25,12.46,12.46,0,0,0-1.44,1.7,7.49,7.49,0,0,1-1.44,1.53,1.51,1.51,0,0,1-.77.43,1.46,1.46,0,0,0-.77.42,5.94,5.94,0,0,0-.94.76,6.33,6.33,0,0,1-.94.77l-1.53,1a3.78,3.78,0,0,0-2,1.7.39.39,0,0,1-.25.42,1.63,1.63,0,0,0-.6.42l-1.53,1a.5.5,0,0,1-.34.17.48.48,0,0,0-.34.17c-.11,0-.28.11-.51.34l.51.51.17.17A2.47,2.47,0,0,1,116.88,259.05Z"/><path class="notes-letter" d="M188.11,225.39q.17-.68,1.53-.34a1.25,1.25,0,0,1-.6,1.19,2.09,2.09,0,0,1-.94.34c-.91,0-1.36.4-1.36,1.19a2.71,2.71,0,0,1-.85,1.53,3.6,3.6,0,0,1-2,1.36,6.82,6.82,0,0,1-2.55-.17,1.64,1.64,0,0,0-2.55,1q-.85,1.87-1.78,3.49t-2,3.48l-1,1a14.11,14.11,0,0,1-5.44,4.59,5.82,5.82,0,0,1-2.55,1.53,2.05,2.05,0,0,0-.76.17,9.53,9.53,0,0,1-1.1.34q-.17.85-1.87.85a2.44,2.44,0,0,0-1.7.85,3.45,3.45,0,0,1-1.53,0,1.6,1.6,0,0,0-.94-.43,1.26,1.26,0,0,0-1.1.43,1.4,1.4,0,0,1-1,.25,7.12,7.12,0,0,0-1.19-.08,12.78,12.78,0,0,1-2.21-.51,4.2,4.2,0,0,0-2.38,0,1.39,1.39,0,0,1-.85-.51,7.77,7.77,0,0,0-2-1.44l-2.21-1.11a6.45,6.45,0,0,0-.68-.59,1.66,1.66,0,0,1-.51-.59,7,7,0,0,0-1-1.36,7.14,7.14,0,0,0-1.36-1,3.42,3.42,0,0,1-1.7-1,10.61,10.61,0,0,1-1.1-2.12,7.61,7.61,0,0,0-1.28-2.12,4.65,4.65,0,0,0-.42-.68,6.65,6.65,0,0,0-.6-.68v-.51a3.41,3.41,0,0,1-1.27-1.28c-.28-.51-.59-1-.94-1.61a14.38,14.38,0,0,1-2-4.76,15,15,0,0,1-.85-3.91q-.17-2-.17-3.91a15.82,15.82,0,0,1,.34-3.06,4.05,4.05,0,0,0,.59-1.61,14.76,14.76,0,0,0,.08-1.62,5.65,5.65,0,0,1,.85-3.06,6.67,6.67,0,0,1,.85-1.53,17.48,17.48,0,0,0,1-1.53c.23-.57.45-1.11.68-1.62a3.94,3.94,0,0,1,1.19-1.45l.34-1a3.81,3.81,0,0,0,.17-1.19,5.25,5.25,0,0,1,.34-.59,1.28,1.28,0,0,1,.68-.42,4.21,4.21,0,0,0,2.13-1.7q.77-1.19,1.62-2.55a14.62,14.62,0,0,1,1.87-1.87q1-.85,1.87-1.7c.23-.34.45-.51.68-.51a1.39,1.39,0,0,1,.59-.17,2.66,2.66,0,0,0,.77-.17,4.17,4.17,0,0,0,.51-.59,2.32,2.32,0,0,1,.85-.6,1.06,1.06,0,0,1,.77-.34,1,1,0,0,0,.77-.51c.23-.45.51-.59.85-.42a2,2,0,0,0,.85.25,8.24,8.24,0,0,1-1.79,2.8q-1.11,1.11-2.29,2.46a1.55,1.55,0,0,1-.85.85l-1,.34q-1.36.68-.68,1.87a3.75,3.75,0,0,0,1.36-.51,7.61,7.61,0,0,1,1.36-.68q-.35,1.19-.61,2a4.13,4.13,0,0,1-1.13,1.7,3.32,3.32,0,0,0-1.92,2.72c0,.68-.23,1.08-.7,1.19a11.87,11.87,0,0,0-.88,1.7,11.76,11.76,0,0,1-.87,1.7,4.12,4.12,0,0,0-.18,1.53v3.91a.68.68,0,0,1-.34.68,1.42,1.42,0,0,0,0,1.36,1.63,1.63,0,0,1,.34,1.7,11.46,11.46,0,0,0-.51,5.27.75.75,0,0,1-.08.34.75.75,0,0,0-.08.34,17.82,17.82,0,0,0,.26,3.14,5.29,5.29,0,0,0,1.63,2.8,12.5,12.5,0,0,0,1.38,1.19q-.34,1,.86,1.87l.69.68a2.57,2.57,0,0,0,.69.51,4.45,4.45,0,0,0,3.61.68c.11,0,.4-.45.86-1.36a2.15,2.15,0,0,0,1.55-.68,5.09,5.09,0,0,1,1.12-1.11,10,10,0,0,1,1.29-.76,4.17,4.17,0,0,1,.6-.51,2.9,2.9,0,0,0,.43-.34,2.27,2.27,0,0,0,.51-.76c.11-.28,0-.54-.34-.76l-.17-.34a4.4,4.4,0,0,1,.17-1.36c0-.11.14-.14.42-.08a3.77,3.77,0,0,0,.77.08.34.34,0,0,1,.08-.25.67.67,0,0,0,.08-.42c-.34-.68-.11-1.3.68-1.87a17.2,17.2,0,0,0,1-1.7,1.53,1.53,0,0,1,1.36-1,2.32,2.32,0,0,0,.94-.51,2.5,2.5,0,0,0,.08-.85.59.59,0,0,1-.08-.51.28.28,0,0,0-.09-.34,1.66,1.66,0,0,1,.34-1.53,4.14,4.14,0,0,1,.59-.51,2.64,2.64,0,0,0,.43-.34v-.51a4.1,4.1,0,0,0-.77-.59,1.47,1.47,0,0,1-.6-.6,1.67,1.67,0,0,1-.17-.76v-.76a3,3,0,0,0-.34-2,11.75,11.75,0,0,1-.85-1.7A6.47,6.47,0,0,1,159,205a2.32,2.32,0,0,0-1-1.53,10.4,10.4,0,0,1-1.7-2.21,15.52,15.52,0,0,0-1.53-2.21v-.51a3.74,3.74,0,0,0-.51-2.89,4,4,0,0,1-.51-3.06v-.68a1.77,1.77,0,0,1-.68-1.61c.11-.51.23-1,.34-1.45a10.65,10.65,0,0,0,.51-1.62,2.13,2.13,0,0,1,.85-1.27,1.28,1.28,0,0,0,.76-1,4.17,4.17,0,0,1,.43-1.36.49.49,0,0,1,.17-.34.69.69,0,0,0,.17-.51,1.76,1.76,0,0,1,.17,2.38,6.47,6.47,0,0,0-.25,1,1.61,1.61,0,0,0,.43,1.19q1-.68,2-1.36a4.3,4.3,0,0,0,1.45-2c.11-.23-.11-.62-.68-1.19a3.06,3.06,0,0,1-1.53.51.69.69,0,0,1-.43-.25,2,2,0,0,0-.76-.42,5,5,0,0,1,4.25-1.36,3,3,0,0,1,1.19.17,5.61,5.61,0,0,0,1.27.94,2.29,2.29,0,0,0,1.61.25q.17,0,.26.25a1,1,0,0,0,.25.42,5.84,5.84,0,0,1,.68.85l.68,1a2,2,0,0,1,2.21,0c.34.23.62.42.85.59a.63.63,0,0,1,.17.77,4.43,4.43,0,0,0,.08,1l.25,1a5.83,5.83,0,0,1,1,2,3.63,3.63,0,0,1,.68-.85,12.21,12.21,0,0,1,.51,3.06,2.44,2.44,0,0,1,1.87,2.21l.34,1.7a2.93,2.93,0,0,0,.85,1.53,1.63,1.63,0,0,1,.51,1.19c0,.45.28.79.85,1a1.72,1.72,0,0,0,.51,1.87,2,2,0,0,1,.51,2c0,.11.11.23.34.34a2.06,2.06,0,0,1,.51.34,2,2,0,0,0,1.36.34,1.86,1.86,0,0,1,1.53,2.55l-.51.17a2.85,2.85,0,0,1-.26,2.29,5.16,5.16,0,0,0-.76,2,1.52,1.52,0,0,1-.17.68.33.33,0,0,0,.17.51,1.57,1.57,0,0,1,.17,2,2.49,2.49,0,0,0-.17,2,2.3,2.3,0,0,1-.51,2.21v.34a.15.15,0,0,0,.17.17,4.2,4.2,0,0,1,.34,1.53v1.53a4.87,4.87,0,0,0,.51,2.21q0,.68,1,.68a8.76,8.76,0,0,0,2,.51,6.57,6.57,0,0,0,2.55-.17,5.25,5.25,0,0,1,.93-.51A1.72,1.72,0,0,0,188.11,225.39ZM150,195c0-.68.23-1,.68-.85l.34.17c-.23.46-.4.68-.51.68Zm16,6.29a.49.49,0,0,0,.17-.34c0-.34-.06-.51-.17-.51a2.31,2.31,0,0,0-.42-.59l-.42-.42Q163.79,199,164,198a2.14,2.14,0,0,0-.17-1.53v-.17L164,196h.17l.17.34v.17c0,.11.17.23.51.34H165a1.9,1.9,0,0,0-.08-.6,1.35,1.35,0,0,1-.08-.42,7.51,7.51,0,0,1-1-2.38,4.64,4.64,0,0,1,.34-1.28q.34-.93.68-1.1,1.53-.51.17-1.36a1.2,1.2,0,0,1-.85-1.19,2.16,2.16,0,0,0-.68-1.53,4,4,0,0,0-1.1-.51,7.11,7.11,0,0,1-1.27-.51,1.47,1.47,0,0,0-1,.51,3.93,3.93,0,0,0-1.19,1.44,4.86,4.86,0,0,1-1,1.45v.34q.51.85.25,1.28a4.08,4.08,0,0,0-.43,1.1,1.41,1.41,0,0,1-.08.43.38.38,0,0,0,.08.42q.17.85.34,1.79a9,9,0,0,0,.51,1.79,5.79,5.79,0,0,0,1.62,3.14l2.63,2.63h.34v-.17a5.23,5.23,0,0,0,.25-.59,1.65,1.65,0,0,1,.42-.59c.23-.23.45-.2.68.08s.4.42.51.42A3.18,3.18,0,0,0,166,201.25Zm-1.19,2.38a1.26,1.26,0,0,0-.51.42,2.84,2.84,0,0,1-.34.42,1.92,1.92,0,0,1-.59-1c-.06-.34-.31-.4-.77-.17a.47.47,0,0,0-.08.68,1.63,1.63,0,0,0,.6.51,4.09,4.09,0,0,0,1.7,0Zm1.7-11q-.34-.34-.51-.34a1.28,1.28,0,0,1-.51-.17.69.69,0,0,0-.17.51C165.44,192.92,165.84,192.92,166.52,192.58Zm.34,4.42c-.23-.11-.34-.23-.34-.34a.15.15,0,0,0-.17-.17h-.17c-.11,0-.17.11-.17.34.11,0,.28.11.51.34Zm33.49,14.28a1.37,1.37,0,0,1,.25,1.62,14,14,0,0,0-.77,1.62q-.34.85-.68,1.53a3.41,3.41,0,0,1-1,1.19l-1.28,1.62a1.78,1.78,0,0,1-1.44.76,1.65,1.65,0,0,0-.42.6,6.58,6.58,0,0,1-.77,1.1,1.11,1.11,0,0,0-.51.51,2.24,2.24,0,0,1-2.38,1.7,1,1,0,0,1-.68-.17,4,4,0,0,0,.76-1,3.23,3.23,0,0,1,.6-.85,14.93,14.93,0,0,1,3.4-3.06.66.66,0,0,0,.51-.68,3.69,3.69,0,0,1,1.11-2.12,3.83,3.83,0,0,0,1.1-2.3,1.4,1.4,0,0,1,.68-1.27A9.81,9.81,0,0,1,200.35,211.28Z"/><path class="notes-letter" d="M249.3,216.72q.85,1.36.77,1.7a8,8,0,0,1-1.1,1.7c-.23.23-.34.4-.34.51a8.2,8.2,0,0,0,.17,1l-1,.68a5.71,5.71,0,0,0-.85.68,3.05,3.05,0,0,0-.85.85q-.51,1.19-1.1,2.29a6.6,6.6,0,0,1-1.61,2c-.23.11-.34.4-.34.85a7.59,7.59,0,0,0-1.19,1.87l-.51.51a4.8,4.8,0,0,1-1.7,3,11.8,11.8,0,0,0-2.38,2.64,11.9,11.9,0,0,1-.85,1.1,2.31,2.31,0,0,1-1.36.76.35.35,0,0,1-.08.26.34.34,0,0,0-.08.25,2,2,0,0,1-2,1.53c-.91.11-1.36.57-1.36,1.36a1.63,1.63,0,0,1-1,1.53L228.82,245a17.24,17.24,0,0,0-1.62,1.45,2.6,2.6,0,0,1,.34,1c-.11,0-.17,0-.17.08s-.06.08-.17.08l-1.61.34a2.61,2.61,0,0,0-1.44,1,3,3,0,0,1-.94.6,2.89,2.89,0,0,0-.94.59,5.87,5.87,0,0,0-1.19,1.19c-.34.57-.6.88-.77.94a3.75,3.75,0,0,1-1.27-.08,4,4,0,0,0-1.87-.25q-1,.08-2,.25-.17,0-.25.25a.79.79,0,0,1-.43.42,6.31,6.31,0,0,0-3.23-.17,2.56,2.56,0,0,1-1.44.25,14.19,14.19,0,0,0-1.61-.08,2.72,2.72,0,0,1-1.53-1.19q-.85-1.7-2.38-1a1.8,1.8,0,0,1-1.7-.85q-.85-1.53-1.78-3.06T199,243.92c-.45-.68-.94-1.33-1.44-2a6.15,6.15,0,0,1-1.1-2q-.34-.85-.77-1.7a4.5,4.5,0,0,1-.43-2A10.2,10.2,0,0,0,195,234q-.25-1.1-.59-2.29a4.42,4.42,0,0,1-.26-.59l-.25-.77-3.06-4.08a2.46,2.46,0,0,1,.51-.43.92.92,0,0,0,.34-.42,4.15,4.15,0,0,0,.25-3.4,17.3,17.3,0,0,1-.76-3.57,21.64,21.64,0,0,1,.59-7.4,29.79,29.79,0,0,0,.94-7.39q0-4.42-.34-9t-.51-9H177.91v-2.89h13.94a71.18,71.18,0,0,1,.17-8.58q.34-4.16,1-8.42l1-5.1q.51-2.55,1.19-4.93a40,40,0,0,0,.85-3.91,9.06,9.06,0,0,0-.17-3.91,3.12,3.12,0,0,1,0-2,6.28,6.28,0,0,0,.42-2.63,5.08,5.08,0,0,1,.6-2.64,1.47,1.47,0,0,0-.51-1,.79.79,0,0,0-.43-.42,1.63,1.63,0,0,1-.59-.42q-1.53-1.19-.34-2.55l.34-.68.34-.68.85-.85a1.27,1.27,0,0,0,1.27,0,1.68,1.68,0,0,1,1.27-.17h.68a1,1,0,0,0,.68-.34,1.73,1.73,0,0,1,1.36-.34,9.62,9.62,0,0,1,1.19.51,3.16,3.16,0,0,0,.68.25,3.63,3.63,0,0,1,.68.25h.68a4,4,0,0,0,2,1.1q1.1.26,2.13.6a12.71,12.71,0,0,0,1.7.68.15.15,0,0,0,.17.17h.17a6.2,6.2,0,0,0,2.13,1.36,5.27,5.27,0,0,1,2.13,1.53,12,12,0,0,1,2.21,4.08,17.85,17.85,0,0,1,.76,4.59,33.57,33.57,0,0,1-.17,4.76,43.18,43.18,0,0,0-.25,4.59q-.17,3.23-.6,6.38t-1.1,6.38a27.59,27.59,0,0,0-.42,3.74,28.38,28.38,0,0,1-.43,3.74q-.17,1.36-.25,2.46a15.23,15.23,0,0,1-.42,2.46H233v2.89H214.45a9.94,9.94,0,0,0-.34,2.38q-.68,5.44-.94,11t-.25,11q0,3.23.08,6.38t.25,6.38q0,3.23.26,6.38t.59,6.38q.17,2.38.51,4.84a7.44,7.44,0,0,0,2.21,4.33A3.25,3.25,0,0,0,219,246a5.84,5.84,0,0,0,2.38-.34,10,10,0,0,0,2.29-1.19,14.28,14.28,0,0,0,2-1.62q1-.85,2-1.78a8.66,8.66,0,0,1,2.29-1.62,3,3,0,0,1,2.13-.6,1.45,1.45,0,0,0,1.62-1.27,14.2,14.2,0,0,0,.59-1.36,3.32,3.32,0,0,1,.77-1.19q1-1.36,2-2.64a28,28,0,0,0,1.87-2.63,13.78,13.78,0,0,1,1.19-2,13.92,13.92,0,0,0,1.19-2,10.55,10.55,0,0,1,1.19-1.87,6.08,6.08,0,0,0,1-1.87l.51-.51a5.8,5.8,0,0,0,1.28-1.87c.28-.68.59-1.36.93-2a5.82,5.82,0,0,1,.85-1.7l2,.51ZM238.43,234.4q.51-.85-.51-2.21a4.27,4.27,0,0,0-.43,1.19,2.66,2.66,0,0,1-.42,1C237.74,234.63,238.2,234.63,238.43,234.4Z"/><path class="notes-letter" d="M288.57,230.49q.85-1.19,1.7-2.3t1.7-2.12a10.55,10.55,0,0,1,1.7-2.21,2.79,2.79,0,0,1-1,2.55,2.24,2.24,0,0,0-.51.76,5.38,5.38,0,0,1-.51.93l.85.85a4.23,4.23,0,0,0-.51,1,2.14,2.14,0,0,1-.51.85l-.34.34a4.16,4.16,0,0,0-1.79,1.19q-.76.85-1.61,1.7a5.92,5.92,0,0,0-1.19,2.55h1v.17a13.31,13.31,0,0,0-2.55,4.08l-.17.17a13.6,13.6,0,0,0-2,3.15,3.6,3.6,0,0,1-2.72,2.13,2,2,0,0,1,0,1.62,4.32,4.32,0,0,1-1.1,1.44l-1.53,1.36a6.54,6.54,0,0,0-1.1,1.19,12.64,12.64,0,0,1-5.1,3.57,14.68,14.68,0,0,1-7.65,1.36,23,23,0,0,1-7.82-1.7,23.67,23.67,0,0,1-6.8-4.25,22.6,22.6,0,0,1-7.05-11.64,73.49,73.49,0,0,1-2-13.69,3.26,3.26,0,0,0-.17-1,.71.71,0,0,0-.17-.51.21.21,0,0,1,0-.34,4.88,4.88,0,0,0,.08-1.53,12,12,0,0,1-.08-1.53,3,3,0,0,1,.34-1.36c.11-.34.2-.62.25-.85a4.59,4.59,0,0,0,.08-1,2,2,0,0,1,.25-.85l.43-.85c.23-.34.45-.71.68-1.11a1.62,1.62,0,0,0,0-1.45,28.61,28.61,0,0,0,1.19-2.72,28.4,28.4,0,0,1,1.19-2.72q1.53-2.55,3.31-5.27a31.05,31.05,0,0,1,4-4.93,16,16,0,0,1,4.93-3.4,12.57,12.57,0,0,1,6.29-.85,14.61,14.61,0,0,1,6.46,2.29,11.23,11.23,0,0,1,4.42,5.19l.94,1.87a14.89,14.89,0,0,1,.77,1.87,10.33,10.33,0,0,1,.34,2.46,16.07,16.07,0,0,0,.17,2.3,1.81,1.81,0,0,1,0,1.53l-1.28,2.55a5.15,5.15,0,0,1-2,2,.3.3,0,0,1-.34.34,2.31,2.31,0,0,1-.94,1.7,5.19,5.19,0,0,0-1.27,1.19,6.73,6.73,0,0,1-1.1.59.93.93,0,0,0-.6.94,1.87,1.87,0,0,0-1.27,1,5.86,5.86,0,0,1-.59,1.19l-.51.76c-.11.17-.45.14-1-.08a1.51,1.51,0,0,0-.76.25,3.92,3.92,0,0,0-.77.59,3.69,3.69,0,0,1-2.12.77,5.67,5.67,0,0,1-2.12-.94,1.74,1.74,0,0,1-2.38.17,1.91,1.91,0,0,1-.08.6,1.83,1.83,0,0,0-.09.59l.94.34a8.25,8.25,0,0,0,1.1.34,2.1,2.1,0,0,1-1.19.51,1.91,1.91,0,0,0-.85.17,9.74,9.74,0,0,1-.51,1.7q-.34.85-.68,1.87,1.19.68.68,2.38a6.42,6.42,0,0,0-.25,2.29,5.54,5.54,0,0,0,.94,2.47v.34a4.45,4.45,0,0,0,.93,3,11.61,11.61,0,0,0,2.13,2q1,1.36,2.21.68a7.45,7.45,0,0,1,3.91-1,2.51,2.51,0,0,0,2.72-.85h.17L269,241a1.23,1.23,0,0,0,1.27-.34,2.12,2.12,0,0,1,1.28-.68,1.16,1.16,0,0,0,.51-.08.76.76,0,0,1,.34-.08q.85-.34,1.45-.51a4.65,4.65,0,0,1,1.27-.17,5.91,5.91,0,0,0,1.87-.34,21.68,21.68,0,0,1,2.29-1.44,6.66,6.66,0,0,0,2-1.62A7.88,7.88,0,0,1,283,234.4a12.33,12.33,0,0,0,1.79-1.19,8.46,8.46,0,0,1,.85-.51,2.65,2.65,0,0,0,.68-.51l.59-.59a5.31,5.31,0,0,1,.77-.59A4,4,0,0,1,288.57,230.49Zm-31.28-12.92a6.05,6.05,0,0,1-.17,3.74c-.23.68,0,1,.68,1a1,1,0,0,1,.68.17.48.48,0,0,0,.34.17,6.1,6.1,0,0,0,1.78.08,3.31,3.31,0,0,0,1.79-.76,1,1,0,0,1,.68-.34,1.5,1.5,0,0,0,.68-.17q.85-.34,1.7-.76a3.07,3.07,0,0,0,1.36-1.45,3.73,3.73,0,0,1,.68-1.53,6.67,6.67,0,0,0,.85-1.53,1.22,1.22,0,0,0-.17-1,14.23,14.23,0,0,1-.51-1.44,7.66,7.66,0,0,0-.51-1.28,13.88,13.88,0,0,0-.6-2.63q-.43-1.28-.77-2.46a5.19,5.19,0,0,0-.85-1.45,11.28,11.28,0,0,1-.85-1.11,3.68,3.68,0,0,0-1-1.78,11,11,0,0,1-1.36-1.45.3.3,0,0,0-.34-.34l-.34.68a12.39,12.39,0,0,1-.51,1.79q-.34.94-.68,1.79a2.78,2.78,0,0,1-.34,1.53,11.86,11.86,0,0,0-.68,4.08,3.68,3.68,0,0,1-.68,3.06,12,12,0,0,0-.85,1.7A2.19,2.19,0,0,0,257.29,217.57Zm3.4,8.5a.91.91,0,0,1-.85.26,5.36,5.36,0,0,0-.85-.08q.51-.51.68-.51A4.86,4.86,0,0,1,260.69,226.07Zm41.65-14.45q.17-1.19,1.87-1.87a8.2,8.2,0,0,1,.17,1.87q0,1.19-.85,1.36a2.25,2.25,0,0,0-.59.42l-.43.43-.34.34a5.67,5.67,0,0,0-2.38,2.72q-.51.51-.34.51a1.64,1.64,0,0,0-.68.85,4.29,4.29,0,0,1-.51,1,2,2,0,0,1-.26.42,1.88,1.88,0,0,0-.25.43,9.19,9.19,0,0,0-.6,1,3.28,3.28,0,0,1-.59.85,4.45,4.45,0,0,1-2.89,1.7,27.26,27.26,0,0,0,2.72-3.23l.34-.68a8.32,8.32,0,0,1,.93-1.7q.59-.85,1.11-1.7c0-.11,0-.17.09-.17s.08-.06.08-.17a2.75,2.75,0,0,1,.77-1.45,4.92,4.92,0,0,1,1.28-.93,4.88,4.88,0,0,0,.93-.85A3.12,3.12,0,0,0,302.34,211.62Z"/><path class="notes-letter" d="M289.42,237.8a8,8,0,0,1-.08,1.1,8.79,8.79,0,0,0-.08,1.28,3,3,0,0,0,.34.85,4.65,4.65,0,0,0,1.19-2.21,2.78,2.78,0,0,1,2.21-2.21,3.86,3.86,0,0,0,1.53-.85,3.71,3.71,0,0,0,.85-.76,3.79,3.79,0,0,1,.85-.77q1.19-.85,2.38-1.61a22.26,22.26,0,0,0,2.21-1.62c.68-.57,1.39-1.11,2.13-1.62s1.45-1,2.13-1.62a1.89,1.89,0,0,0,.68-1.87,7.79,7.79,0,0,0-.94-3.06c-.51-.91-1-1.81-1.45-2.72a.28.28,0,0,0-.17-.25.27.27,0,0,1-.17-.26,6.75,6.75,0,0,0-1.19-2.8,29.94,29.94,0,0,1-1.7-2.46l-.34-.68a7.54,7.54,0,0,0-1.19-2.55,10.89,10.89,0,0,1-1.36-2.55,4.08,4.08,0,0,0-.68-1,3.68,3.68,0,0,1-1-1.11c-.23-.4-.45-.82-.68-1.27A13.62,13.62,0,0,1,294,203q-.34-1.1-.68-2.12a4.14,4.14,0,0,1-.43-1.28,2.87,2.87,0,0,0-.6-1.28,2.91,2.91,0,0,1-.17-1.19v-1a2.62,2.62,0,0,1,.85-3.06,1.51,1.51,0,0,1-.43-.85,3.1,3.1,0,0,0-.26-.85,2.43,2.43,0,0,1,0-1.79,2.17,2.17,0,0,1,1-1.27,28.11,28.11,0,0,0,2.72-1.7,2,2,0,0,1,1.19-.59,4.18,4.18,0,0,0,1.36-.43l.34.17a18,18,0,0,1,2.38-.51,24.48,24.48,0,0,0,2.55-.51,3.15,3.15,0,0,1,.85-.25,3,3,0,0,0,.85-.25h.68a4.81,4.81,0,0,1,3.57,0,1.09,1.09,0,0,0,.85,0,3.26,3.26,0,0,1,1-.17,1.38,1.38,0,0,1,1,.68c0,.11.28.17.85.17a2.43,2.43,0,0,1,1.87,1,5.73,5.73,0,0,1,1,3.23,15.07,15.07,0,0,0,.17,2.29c.11.74.23,1.5.34,2.29v1.36a5.58,5.58,0,0,0,.17,1.36,2.47,2.47,0,0,1,0,1.27c-.11.4-.23.88-.34,1.45-.11-.11-.2-.17-.25-.17s-.14-.06-.26-.17a5,5,0,0,0-1.19,1.36,4.9,4.9,0,0,0,.34.6,1.06,1.06,0,0,1,.17.59,3,3,0,0,1-1.19,3.06l-1.19,1.19H312a6.39,6.39,0,0,1-.51-1.36c-.46.45-.68.74-.68.85q0,1,.51,1a2.81,2.81,0,0,1,1.28.94l.76,1.1a8.4,8.4,0,0,1,1,1.19,3.72,3.72,0,0,1,.68.85q.85,1.53,1.62,3.06t1.62,3.06a3.55,3.55,0,0,0,.68.85,3.61,3.61,0,0,1,1.53-.93,1.88,1.88,0,0,0,1.19-1.45q.17-.85,1.7-.68a9.47,9.47,0,0,1,.76-1.28,8.83,8.83,0,0,1,.94-1.1l1.19-.77c.45-.28.85-.54,1.19-.76a8.22,8.22,0,0,0,1.7-1.53,4.08,4.08,0,0,1,2-1.36l2.38-.68a1.54,1.54,0,0,1,.68.17l.68.34c.34.23.39.62.17,1.19a5.46,5.46,0,0,0,.34,1.36,10.54,10.54,0,0,1-2.21,1.7,6.76,6.76,0,0,1-2.55.85,2.6,2.6,0,0,0-.34,1,.49.49,0,0,0-.34.17,1.87,1.87,0,0,0-1.7.68,10.51,10.51,0,0,1-1,1.45,11,11,0,0,0-1,1.44l-.68-.34a3,3,0,0,0-.85-.34c-.11,0-.28.23-.51.68-.11.11-.2.17-.26.17s-.14.06-.25.17a.49.49,0,0,0-.34.17,2.59,2.59,0,0,1-1,2.55,9.57,9.57,0,0,0-.68.76,9.31,9.31,0,0,1-.68.76v.68a9.57,9.57,0,0,1,1.19,2.72l.68,2.72a.72.72,0,0,0,.08.34.77.77,0,0,1,.09.34,3.26,3.26,0,0,1,.76,1.61,14.67,14.67,0,0,1,.09,1.62,6.76,6.76,0,0,0,.17,1.87,4.24,4.24,0,0,1,.17,2.63q-.34,1.28-.68,2.46a3.16,3.16,0,0,0-.17,1,3.26,3.26,0,0,1-.17,1,5.09,5.09,0,0,1-1.19,2.72l-.76.76a2.33,2.33,0,0,0-.6.93,5.85,5.85,0,0,1-1,2,21.79,21.79,0,0,1-1.53,1.7q-.34.34-.77.85c-.29.34-.54.62-.77.85a3.25,3.25,0,0,0-1.28,1.36,9.84,9.84,0,0,1-1.1,1.7,2.1,2.1,0,0,1-.51.34,2.55,2.55,0,0,0-.68.51,3.48,3.48,0,0,1,.09-.85,2.91,2.91,0,0,0,.08-.68,14.67,14.67,0,0,0-2.12,1.11,18.88,18.88,0,0,0-2,1.44,8.79,8.79,0,0,0-1.19-.51,3.77,3.77,0,0,1,.17-1.19h-1.7a3.73,3.73,0,0,0-1.19.17,6.56,6.56,0,0,1-2.3.25c-.74-.06-1.44-.14-2.12-.25a19.86,19.86,0,0,1-2.63-.51l-2.63-.68a.35.35,0,0,0-.08-.25.66.66,0,0,1-.09-.42q-.51-.51-.34-.51a5,5,0,0,1-2-1,5.5,5.5,0,0,0-1.62-1,3.4,3.4,0,0,1-2.21-1.36,9.61,9.61,0,0,0,.51-1.19,13.72,13.72,0,0,0-.85-1.44q-.51-.77-1-1.62a.78.78,0,0,1-.17-.85,1.45,1.45,0,0,0,.08-1.27c-.17-.4-.37-.82-.6-1.28a1.63,1.63,0,0,0,.77-1.44,5.34,5.34,0,0,1,.08-1.62,1.69,1.69,0,0,0,.77.17,1.71,1.71,0,0,1,.76.17Zm5.1,1.19a8,8,0,0,0-2,2,3.86,3.86,0,0,0-.43,3,1.81,1.81,0,0,1,.09.93q-.09.42.6.6c.34.23.62.42.85.59s.51.14.85-.08q1.19,1.87,2.55.85a2.77,2.77,0,0,1,2-.51,1.75,1.75,0,0,1,1.7-1.19,1.1,1.1,0,0,0,1-.68,8.51,8.51,0,0,0,1.53-2.55q.68-1.19,1.36-2.29a8.73,8.73,0,0,0,1-2.46q.17-.85.34-1.79a9,9,0,0,1,.51-1.79,1.63,1.63,0,0,0-.51-1.53c-.57.34-1.11.65-1.62.94a5,5,0,0,0-1.45,1.27l-.51.51a11.53,11.53,0,0,0-4.76,4.08,12.93,12.93,0,0,0-1.45,1.7,13.11,13.11,0,0,1-1.45,1.7q-.34.85-1-.17l1-3.06Zm16.66-48.11a6.72,6.72,0,0,0-1.45-.42,4.11,4.11,0,0,1-1.28-.43,4.42,4.42,0,0,0-2.46,0,3.51,3.51,0,0,0-1.45,1.87q-.17.17-.17.25c0,.06-.06.14-.17.26a2.55,2.55,0,0,1,.34,1.7,3.71,3.71,0,0,0,.09,2.38,5.73,5.73,0,0,1,.42,2.21l.51.51c.22.34.42.65.59.93s.37.6.6.94a1.09,1.09,0,0,0,1.19.51l.68-.34c.45.34.57.65.34.93a1.28,1.28,0,0,0-.34.77c.68-.34,1.11-.57,1.28-.68a2.43,2.43,0,0,0,.6-1c.11-.11.2-.17.25-.17s.14-.06.26-.17a3.72,3.72,0,0,0,.94-1.19c.05-.23-.14-.62-.6-1.19a3,3,0,0,0,.34-2.72v-.51a4.53,4.53,0,0,0,.09-2.29Q311.52,191.9,311.18,190.88ZM311,202.61q-1,.51-1.87.85l1,.68A1.23,1.23,0,0,0,311,202.61Z"/></svg>
