<svg id="svg-contat" data-name="Layer 1" xmlns="http://www.w3.org/2000/svg" viewBox="0 0 420.71 142.94"><defs><style>.contact-letter{fill:#FFFF00;}</style></defs><title>Artboard 1</title><path class="contact-letter" d="M31.16,66.34A2.89,2.89,0,0,1,31,65.15q-.17-2.21-.34-4a17.52,17.52,0,0,0-.85-3.83q-.17-.68-.34-1.27t-.34-1.44A2.87,2.87,0,0,0,28.61,53q-.51-.76-1-1.44-.34-.85-1.19-.34a.94.94,0,0,1-1.19.17,1,1,0,0,0-.68-.17q.17,2.55.42,5.18a30.11,30.11,0,0,1,.08,5,33.76,33.76,0,0,1-1.7,8.08q-1.36,4-2.72,7.9a10.37,10.37,0,0,0-.94,3.91,28.87,28.87,0,0,1-.42,3.91A29,29,0,0,1,18.15,90a7,7,0,0,0-.08,4.42,5.59,5.59,0,0,0,1.36,2.81,6.74,6.74,0,0,0,2.72,1.27,11.83,11.83,0,0,0,5.95-.17,3.34,3.34,0,0,0,1.53-.94A10.12,10.12,0,0,1,31,96.09a17.06,17.06,0,0,1,3-2.38,17.15,17.15,0,0,0,3-2.38q1.7-1.7,3.32-3.48t3.15-3.65a25.77,25.77,0,0,1,2.21-2.64,2.23,2.23,0,0,1,3.06-.42.86.86,0,0,1,.43.68.92.92,0,0,1-.25.85c-.34.57-.74,1.16-1.19,1.79s-.91,1.22-1.36,1.78c0,.11-.11.17-.34.17a1.45,1.45,0,0,0-1.19.42,9.5,9.5,0,0,1-.68.77,3.69,3.69,0,0,1-1.1,1,5.23,5.23,0,0,0-1.1.85q-.68.51-1.36,1.1a8.48,8.48,0,0,0-1.19,1.27,6.8,6.8,0,0,1-1.45,1.61,17.89,17.89,0,0,0-1.61,1.45,1.11,1.11,0,0,0-.34,1.36.56.56,0,0,1,.17.68c-.11.23-.4.34-.85.34s-.68.51-.68,1.19a2.18,2.18,0,0,1-1.1,1,6,6,0,0,0-1.27.85q-.85.85-1.7,1.87a6,6,0,0,0-1.19,2.21,2.48,2.48,0,0,1-.85,1.19,3.14,3.14,0,0,0-.76.68,6.17,6.17,0,0,1-.6.68,12.73,12.73,0,0,1-.77,1,11.56,11.56,0,0,0-.76,1,.91.91,0,0,0-.68,1c0,.23-.06.34-.17.34s-.28.11-.51.34a28.29,28.29,0,0,1-10.62-.26q-4.33-1.11-8.75-5.86a11.84,11.84,0,0,1-2.8-4.5A35.47,35.47,0,0,1,.56,94.73,40,40,0,0,1,.39,82.49a60.94,60.94,0,0,1,2.72-11.9Q4.47,67,6.17,63.54t3.74-6.88q1.36-2.21,2.63-4.59A9.66,9.66,0,0,1,16,48.32a3.41,3.41,0,0,1,1.78-1,11,11,0,0,1,2-.17,6.5,6.5,0,0,1,1.87.25,5.88,5.88,0,0,0,1.7.25,2.1,2.1,0,0,0,1.19,0,2.06,2.06,0,0,1,1.36.17,3.64,3.64,0,0,0,1.36.68,3.2,3.2,0,0,0,.85.6,3.29,3.29,0,0,1,.85.59A8.78,8.78,0,0,0,30.65,51,3.93,3.93,0,0,1,32,52.4q.51.68,1.61,2.21T34.39,57q-.51.51,0,.85a4,4,0,0,1,.34,1.36v1.19a1.15,1.15,0,0,0,.08.51.61.61,0,0,1-.08.51q-.34,1.36-.59,2.55a12.17,12.17,0,0,0-.25,2.55v.34a1.07,1.07,0,0,0-.34,1.1c.11.4.23.77.34,1.1a.89.89,0,0,0,.34.43c.11.06.17.2.17.42a1.78,1.78,0,0,1-.17,1h-.68a2.38,2.38,0,0,1-1.78-1.79A17.31,17.31,0,0,1,31.16,66.34Z"/><path class="contact-letter" d="M95.59,92.35q.17-.68,1.53-.34a1.25,1.25,0,0,1-.6,1.19,2.08,2.08,0,0,1-.93.34c-.91,0-1.36.4-1.36,1.19a2.71,2.71,0,0,1-.85,1.53,3.59,3.59,0,0,1-2,1.36,6.8,6.8,0,0,1-2.55-.17,1.64,1.64,0,0,0-2.55,1q-.85,1.87-1.78,3.48t-2,3.49l-1,1A14.11,14.11,0,0,1,76,111.05a5.82,5.82,0,0,1-2.55,1.53,2.06,2.06,0,0,0-.76.17,9.42,9.42,0,0,1-1.1.34q-.17.85-1.87.85a2.44,2.44,0,0,0-1.7.85,3.44,3.44,0,0,1-1.53,0,1.59,1.59,0,0,0-.94-.42,1.26,1.26,0,0,0-1.1.42,1.4,1.4,0,0,1-1,.26,7.12,7.12,0,0,0-1.19-.08,12.78,12.78,0,0,1-2.21-.51,4.2,4.2,0,0,0-2.38,0,1.39,1.39,0,0,1-.85-.51,7.77,7.77,0,0,0-2-1.45l-2.21-1.1a6.45,6.45,0,0,0-.68-.59,1.66,1.66,0,0,1-.51-.6A6,6,0,0,0,49,107.82a3.42,3.42,0,0,1-1.7-1,10.62,10.62,0,0,1-1.1-2.12,7.61,7.61,0,0,0-1.28-2.12,4.63,4.63,0,0,0-.42-.68,6.7,6.7,0,0,0-.6-.68v-.51a3.41,3.41,0,0,1-1.27-1.27c-.28-.51-.59-1-.94-1.62a14.38,14.38,0,0,1-2-4.76,15,15,0,0,1-.85-3.91q-.17-2-.17-3.91A15.82,15.82,0,0,1,39,82.15a4.06,4.06,0,0,0,.59-1.62,14.73,14.73,0,0,0,.08-1.61,5.65,5.65,0,0,1,.85-3.06,6.55,6.55,0,0,1,.85-1.53,17.5,17.5,0,0,0,1-1.53q.34-.85.68-1.62a3.93,3.93,0,0,1,1.19-1.44l.34-1a3.81,3.81,0,0,0,.17-1.19,5.22,5.22,0,0,1,.34-.6,1.28,1.28,0,0,1,.68-.42,4.21,4.21,0,0,0,2.12-1.7q.77-1.19,1.61-2.55a14.56,14.56,0,0,1,1.87-1.87q1-.85,1.87-1.7c.23-.34.45-.51.68-.51a1.39,1.39,0,0,1,.59-.17,2.65,2.65,0,0,0,.76-.17,4.22,4.22,0,0,0,.51-.6,2.32,2.32,0,0,1,.85-.59,1.06,1.06,0,0,1,.77-.34,1,1,0,0,0,.76-.51c.23-.45.51-.6.85-.43a2,2,0,0,0,.85.26,8.23,8.23,0,0,1-1.79,2.8Q57,59.54,55.78,60.9a1.54,1.54,0,0,1-.85.85l-1,.34q-1.36.68-.68,1.87a3.72,3.72,0,0,0,1.36-.51A7.68,7.68,0,0,1,56,62.77q-.35,1.19-.61,2a4.16,4.16,0,0,1-1.13,1.7,3.32,3.32,0,0,0-1.92,2.72c0,.68-.23,1.08-.7,1.19a11.56,11.56,0,0,0-.87,1.7,12.13,12.13,0,0,1-.87,1.7,4.12,4.12,0,0,0-.18,1.53v3.91a.69.69,0,0,1-.34.68,1.42,1.42,0,0,0,0,1.36,1.63,1.63,0,0,1,.34,1.7,11.46,11.46,0,0,0-.51,5.27.75.75,0,0,1-.08.34A.74.74,0,0,0,49,89a17.82,17.82,0,0,0,.26,3.15A5.29,5.29,0,0,0,50.9,94.9a12.54,12.54,0,0,0,1.38,1.19q-.34,1,.86,1.87l.69.68a2.58,2.58,0,0,0,.69.51,4.45,4.45,0,0,0,3.61.68c.11,0,.4-.45.86-1.36a2.15,2.15,0,0,0,1.55-.68,5.11,5.11,0,0,1,1.12-1.1,9.93,9.93,0,0,1,1.29-.76,4.14,4.14,0,0,1,.6-.51,2.84,2.84,0,0,0,.43-.34,2.27,2.27,0,0,0,.51-.77c.11-.28,0-.54-.34-.77L64,93.2a4.39,4.39,0,0,1,.17-1.36c0-.11.14-.14.42-.08a3.81,3.81,0,0,0,.77.08.34.34,0,0,1,.08-.25.68.68,0,0,0,.08-.43c-.34-.68-.11-1.3.68-1.87a17.09,17.09,0,0,0,1-1.7,1.53,1.53,0,0,1,1.36-1,2.33,2.33,0,0,0,.94-.51,2.5,2.5,0,0,0,.08-.85.59.59,0,0,1-.08-.51.28.28,0,0,0-.09-.34,1.66,1.66,0,0,1,.34-1.53,4.19,4.19,0,0,1,.59-.51,2.67,2.67,0,0,0,.43-.34v-.51a4.12,4.12,0,0,0-.77-.6,1.47,1.47,0,0,1-.6-.59,1.68,1.68,0,0,1-.17-.77v-.77a3,3,0,0,0-.34-2A11.73,11.73,0,0,1,68,75,6.47,6.47,0,0,1,66.52,72a2.31,2.31,0,0,0-1-1.53,10.39,10.39,0,0,1-1.7-2.21A15.55,15.55,0,0,0,62.27,66v-.51a3.74,3.74,0,0,0-.51-2.89,4,4,0,0,1-.51-3.06v-.68a1.77,1.77,0,0,1-.68-1.62q.17-.76.34-1.44a10.65,10.65,0,0,0,.51-1.62,2.13,2.13,0,0,1,.85-1.27,1.28,1.28,0,0,0,.76-1,4.16,4.16,0,0,1,.43-1.36.49.49,0,0,1,.17-.34.69.69,0,0,0,.17-.51A1.76,1.76,0,0,1,64,52.06a6.51,6.51,0,0,0-.25,1,1.61,1.61,0,0,0,.43,1.19q1-.68,2-1.36a4.3,4.3,0,0,0,1.45-2q.17-.34-.68-1.19a3.06,3.06,0,0,1-1.53.51.7.7,0,0,1-.43-.26,2,2,0,0,0-.76-.42,5,5,0,0,1,4.25-1.36,3,3,0,0,1,1.19.17,5.66,5.66,0,0,0,1.27.94,2.29,2.29,0,0,0,1.61.25q.17,0,.26.25a1,1,0,0,0,.25.43,5.8,5.8,0,0,1,.68.85l.68,1a2,2,0,0,1,2.21,0l.85.6a.62.62,0,0,1,.17.77,4.44,4.44,0,0,0,.08,1l.25,1a5.83,5.83,0,0,1,1,2,3.63,3.63,0,0,1,.68-.85,12.2,12.2,0,0,1,.51,3.06A2.44,2.44,0,0,1,82,61.92l.34,1.7a2.93,2.93,0,0,0,.85,1.53,1.63,1.63,0,0,1,.51,1.19c0,.45.28.79.85,1A1.71,1.71,0,0,0,85,69.23a2,2,0,0,1,.51,2c0,.11.11.23.34.34a2.08,2.08,0,0,1,.51.34,2,2,0,0,0,1.36.34,1.86,1.86,0,0,1,1.53,2.55l-.51.17a2.85,2.85,0,0,1-.26,2.29,5.16,5.16,0,0,0-.76,2,1.53,1.53,0,0,1-.17.68.33.33,0,0,0,.17.51,1.57,1.57,0,0,1,.17,2,2.49,2.49,0,0,0-.17,2,2.3,2.3,0,0,1-.51,2.21v.34a.15.15,0,0,0,.17.17,4.21,4.21,0,0,1,.34,1.53v1.53a4.87,4.87,0,0,0,.51,2.21c0,.45.34.68,1,.68a8.74,8.74,0,0,0,2,.51,6.57,6.57,0,0,0,2.55-.17,5.27,5.27,0,0,1,.94-.51A1.73,1.73,0,0,0,95.59,92.35ZM57.51,61.92c0-.68.23-1,.68-.85l.34.17q-.34.68-.51.68Zm16,6.29a.49.49,0,0,0,.17-.34c0-.34-.06-.51-.17-.51a2.3,2.3,0,0,0-.42-.6l-.42-.42Q71.27,66,71.45,65a2.14,2.14,0,0,0-.17-1.53v-.17l.17-.34h.17l.17.34v.17c0,.11.17.23.51.34h.17a1.9,1.9,0,0,0-.08-.59,1.35,1.35,0,0,1-.08-.43,7.5,7.5,0,0,1-1-2.38,4.63,4.63,0,0,1,.34-1.27q.34-.93.68-1.1,1.53-.51.17-1.36a1.2,1.2,0,0,1-.85-1.19,2.16,2.16,0,0,0-.68-1.53,4,4,0,0,0-1.1-.51,7.08,7.08,0,0,1-1.27-.51,1.47,1.47,0,0,0-1,.51,3.93,3.93,0,0,0-1.19,1.44,4.87,4.87,0,0,1-1,1.44v.34q.51.85.25,1.27a4.08,4.08,0,0,0-.43,1.1,1.41,1.41,0,0,1-.08.42.38.38,0,0,0,.08.43q.17.85.34,1.78A9,9,0,0,0,66,63.45a5.79,5.79,0,0,0,1.62,3.15l2.63,2.63h.34v-.17a5.23,5.23,0,0,0,.25-.59,1.65,1.65,0,0,1,.42-.6c.23-.23.45-.2.68.08s.4.43.51.43A3.19,3.19,0,0,0,73.49,68.21ZM72.3,70.59a1.26,1.26,0,0,0-.51.42,2.87,2.87,0,0,1-.34.43,1.93,1.93,0,0,1-.59-1c-.06-.34-.31-.4-.77-.17a.47.47,0,0,0-.08.68,1.64,1.64,0,0,0,.6.51,4.11,4.11,0,0,0,1.7,0ZM74,59.54c-.23-.23-.4-.34-.51-.34A1.28,1.28,0,0,1,73,59a.69.69,0,0,0-.17.51C72.92,59.88,73.32,59.88,74,59.54ZM74.34,64c-.23-.11-.34-.23-.34-.34a.15.15,0,0,0-.17-.17h-.17c-.11,0-.17.11-.17.34.11,0,.28.11.51.34Zm105.4,73.27a3.39,3.39,0,0,1-2.7,1.53.86.86,0,0,0-.84.08,4.61,4.61,0,0,1-.68.42,3.67,3.67,0,0,0-.85.77c-.22.28-.45.54-.67.77a4.46,4.46,0,0,0-1.18.85,1.15,1.15,0,0,1-1.35.17.46.46,0,0,0-.59.08,2.33,2.33,0,0,1-.59.42,1.51,1.51,0,0,1-1.44.6,3.08,3.08,0,0,1-1.43-.43,11.25,11.25,0,0,1-1.19-.68,10.69,10.69,0,0,0-1.18-.68h-.34a1.56,1.56,0,0,1-1.6-.17,10.49,10.49,0,0,0-1.44-1,1.67,1.67,0,0,1-.34-1.19,3.16,3.16,0,0,0-.68-1.44,7.35,7.35,0,0,0-1.18-1.1,5,5,0,0,1-1.19-1.79,10.35,10.35,0,0,0-.84-1.79,4.3,4.3,0,0,1-.59-2.46,3.76,3.76,0,0,0-.76-2.46v-.17a.49.49,0,0,0-.17-.34c-.56,0-.82-.14-.76-.42a4.79,4.79,0,0,0,.08-.94,3.37,3.37,0,0,0-.84-3.23,1.27,1.27,0,0,1-.34-.94v-1.1q0-1.19.09-2.29t.08-2.3v-.68c0-.57,0-1.16.09-1.79a6.34,6.34,0,0,0-.09-1.79,9.57,9.57,0,0,1,.43-2.89,6.41,6.41,0,0,0,.25-2.72,5.87,5.87,0,0,1,0-2.8q.34-1.44.68-2.81.17-.85.25-1.62a14.61,14.61,0,0,0,.09-1.61,2.12,2.12,0,0,0,.08-1,7.11,7.11,0,0,1-.08-1.19V93.54a14.71,14.71,0,0,1,.85-3.74,13.86,13.86,0,0,0,.51-3.66,15.16,15.16,0,0,1,.34-3.31,6.51,6.51,0,0,0,.43-1.87,16.23,16.23,0,0,1,.25-1.87,4.11,4.11,0,0,0-.08-.77,3.78,3.78,0,0,1-.09-.77c.11-.57.23-1,.34-1.44s.23-.88.34-1.44a4.86,4.86,0,0,0,.09-1.53,3.09,3.09,0,0,1,.25-1.53,6.78,6.78,0,0,0,0-4.25v-.17a6.18,6.18,0,0,0,.34-2,11.71,11.71,0,0,1,.17-2,4.78,4.78,0,0,0-.09-.94,3.76,3.76,0,0,1-.08-.77.7.7,0,0,0-.17-.51.68.68,0,0,1-.17-.51,5.49,5.49,0,0,0,.26-2.89,17.62,17.62,0,0,1-.26-2.89A1.87,1.87,0,0,0,158,52.91a8.09,8.09,0,0,1-2.38-.85c-.68,0-1.08.23-1.19.68a11.28,11.28,0,0,1-1.87,3.91l-.6.59-.59.6a2.72,2.72,0,0,1-.43.34.58.58,0,0,0-.26.51,4.57,4.57,0,0,1-1.53,2.38,1.58,1.58,0,0,0-.42.94,2.66,2.66,0,0,1-.43,1.1q-.51.85-1.11,1.7t-1.11,1.7l-.59.59a.7.7,0,0,0-.09.77.49.49,0,0,1-.17.34.49.49,0,0,0-.17.34,2.77,2.77,0,0,0-.85,1,4.17,4.17,0,0,0-.43,1.36,1.36,1.36,0,0,1-.59,1,4.52,4.52,0,0,0-.51,2.55V75a2.78,2.78,0,0,1-.94,1.27,2.78,2.78,0,0,0-.94,1.27,3.22,3.22,0,0,0-.59.85,10.22,10.22,0,0,1-.6,1v.51a7,7,0,0,1-1.53,4.59,1.53,1.53,0,0,0-.51,1.36,1.9,1.9,0,0,0-.17.85,1.15,1.15,0,0,1-.34.85l-.59,1.19A5.74,5.74,0,0,0,136,90a1.39,1.39,0,0,0-.51.85,2.15,2.15,0,0,1-.34,2,15.48,15.48,0,0,0-1.19,1.7,9.8,9.8,0,0,1-.77,1.28,6.85,6.85,0,0,0-.77,1.44l-.17.17a1.39,1.39,0,0,1,0,1.62,5.16,5.16,0,0,0-.85,1.44q-.51,1.7-1,3.48a7.93,7.93,0,0,0-.17,3.66q.34.34,0,.51-.34,1.53-.77,3t-.77,3a4.33,4.33,0,0,0-.25.59,5.49,5.49,0,0,1-.26.6,2.6,2.6,0,0,0-.42.94c-.06.28-.31.42-.77.42a1.42,1.42,0,0,1-1.28.94c-.62.06-1,.48-1.11,1.27a.5.5,0,0,1-.34.17c-.34.34-.51.45-.51.34a7.57,7.57,0,0,0-1.11.08,8,8,0,0,1-1.1.08.51.51,0,0,1-.34.17,1.28,1.28,0,0,0-.51.17,3.35,3.35,0,0,0-2.72-1,2.1,2.1,0,0,1-1.19-.34l-1-.68a.15.15,0,0,1-.17-.17.15.15,0,0,0-.17-.17,1.39,1.39,0,0,1-1.62-.34c-.4-.45-.76-.91-1.1-1.36a.58.58,0,0,0-.43-.17.94.94,0,0,1-.6-.34,2.55,2.55,0,0,1-1.7-.77,4.37,4.37,0,0,1-1.19-1.61,6.91,6.91,0,0,0-.68-1,1.52,1.52,0,0,1-.17-.68,1.5,1.5,0,0,0-.17-.68,3,3,0,0,1-.25-.76,1.49,1.49,0,0,0-.43-.77,9.06,9.06,0,0,1-1.7-6.63v-.85a5,5,0,0,1-.43-2.38q.08-1.19.09-2.55a12.44,12.44,0,0,0-.09-1.53q-.09-.68-.25-1.53V93a1.62,1.62,0,0,0,.42-1.19c-.06-.34-.14-.74-.25-1.19a2.06,2.06,0,0,1,.42-1.36c.28-.34.54-.62.77-.85a1.83,1.83,0,0,0,.34-1,10,10,0,0,1,.17-4.08,1.93,1.93,0,0,0,.17-1.36,5.57,5.57,0,0,1-.17-1.36,3,3,0,0,0-.34-1.36,3,3,0,0,1-.08-1.87,15.22,15.22,0,0,0,.42-1.87V74.16a3.78,3.78,0,0,1,.17-1.19,1.13,1.13,0,0,0-.17-1,6.43,6.43,0,0,0-.17-1.53c-.11-.45-.23-1-.34-1.53v-.34a3.1,3.1,0,0,0-.17-1.79,15.56,15.56,0,0,0-.85-1.61c-.23-.57-.43-.88-.6-.94a4.46,4.46,0,0,0-1.11-.08,1.83,1.83,0,0,1-1.36-.51,1.15,1.15,0,0,0-1.36-.42,1.78,1.78,0,0,0-1.19,1.1A5.28,5.28,0,0,1,99,65a1.08,1.08,0,0,1-.68.85,2.24,2.24,0,0,1-.42-.51,2.59,2.59,0,0,0-.43-.51.77.77,0,0,1-.09-.59,1.88,1.88,0,0,0,.09-.6q0-1,1.19-1.19a1.71,1.71,0,0,1,.6-.42,1.66,1.66,0,0,0,.6-.43,2.3,2.3,0,0,0,.51-.76,1.07,1.07,0,0,1,.51-.6,8.43,8.43,0,0,1,2.55-1.53,4.32,4.32,0,0,1,1.45-.43,13.34,13.34,0,0,1,1.45-.08q.51-.34,1.53.34a1.52,1.52,0,0,0,1.11.26,2.42,2.42,0,0,1,1.11.08,4.88,4.88,0,0,1,.94.08,4.64,4.64,0,0,0,.93.08,1,1,0,0,0,.68.34,1.54,1.54,0,0,1,2.21.17,3.88,3.88,0,0,0,1,.68,10.78,10.78,0,0,1,2,.68h2.21a.9.9,0,0,0,1,1,1.62,1.62,0,0,1,1.36.68c.45.34.94.68,1.45,1s1,.68,1.62,1a3.31,3.31,0,0,1,.59.85,3.19,3.19,0,0,0,.6.85,17.67,17.67,0,0,0,1.36,1.53,19.18,19.18,0,0,1,1.36,1.53,1,1,0,0,1,.34.68,1.48,1.48,0,0,0,.17.68,8.51,8.51,0,0,1,.85,2.63q.17,1.28.51,2.81v.34a4.86,4.86,0,0,1,.34,2.55v1a1.92,1.92,0,0,1,.17,2v1a3.58,3.58,0,0,1,.09,2,14.48,14.48,0,0,1-.6,1.87v.51a3.32,3.32,0,0,1-.26,2,19.63,19.63,0,0,0-.76,2q-.17,1-.26,2.13c-.06.74-.14,1.45-.25,2.13v3.06h.34a4.73,4.73,0,0,1,.51-1.44q.34-.59.68-1.27a2.58,2.58,0,0,1,.34-1,5.46,5.46,0,0,0,.77-1.36,13.94,13.94,0,0,1,.59-1.36,6.6,6.6,0,0,1,.94-1.61A16.07,16.07,0,0,0,135,89.12a6.41,6.41,0,0,0,.51-1.44,10.15,10.15,0,0,1,.51-1.62v-.51a2,2,0,0,0,.77-1,13.93,13.93,0,0,1,.59-1.36,3.59,3.59,0,0,0,1-1.53l.17-.17a.45.45,0,0,0,.51-.51,3.53,3.53,0,0,0,.17-1.11v-1.1a1.79,1.79,0,0,1,.68-1.53c.34,0,.51-.23.51-.68l1-3.57.34-.68.34-.68a.49.49,0,0,0,.17-.34c0-.11.11-.23.34-.34a10.63,10.63,0,0,1,1-2.38,4,4,0,0,0-.09-.77.8.8,0,0,1,.26-.77,3.56,3.56,0,0,0,.51-1.87,5,5,0,0,1,.34-1.87,10.93,10.93,0,0,1,.68-1.19,2.09,2.09,0,0,0,.34-1.19,5.77,5.77,0,0,1,1.1-2.3,5.75,5.75,0,0,0,1.1-2.29,4.57,4.57,0,0,1,.76-1.87q.59-.85,1.1-1.7l.34-.68.34-.68q.17-.34.42-.77a4.06,4.06,0,0,1,.59-.77l1-1.36,1-1.36c.22-.79.56-1,1-.68q.17,0,.68-.51h.34v-.17a2,2,0,0,0,1.61,0,2.41,2.41,0,0,1,1.78,0,16.25,16.25,0,0,0,1.77.26c.62.06,1.27.08,1.95.08h.17a3.64,3.64,0,0,0,2,.94c.68.06,1.41.08,2.2.08a2.8,2.8,0,0,1,1.1.25,7,7,0,0,1,1.1.59,4.33,4.33,0,0,0,.59.26.79.79,0,0,1,.43.42,2.5,2.5,0,0,1,1.18.85,3.4,3.4,0,0,0,.93,1.36,1.87,1.87,0,0,0,1.61.34c.22,0,.45.17.68.51s.48.71.76,1.1a8.45,8.45,0,0,0,.93,1.1,5.91,5.91,0,0,1,1.52,1.87,13,13,0,0,1,.84,2.21,1.48,1.48,0,0,1,.42.77,2.93,2.93,0,0,0,.26.76,9.94,9.94,0,0,0,1.19,1.36l.34.34c.22.57.42,1.1.59,1.61a10.66,10.66,0,0,0,.6,1.45,7.34,7.34,0,0,1,0,2.21,1.35,1.35,0,0,0,.17,1.87c.34.57.65,1.1.94,1.61a2.16,2.16,0,0,1,.08,1.79,3.12,3.12,0,0,0,0,2,12.51,12.51,0,0,1,.34,4.08,7.71,7.71,0,0,0-.51,2.72,18.12,18.12,0,0,1-.25,3.15q-.25,1.45-.6,3a3.64,3.64,0,0,0,0,2.21,4.81,4.81,0,0,1,0,1.79,9.49,9.49,0,0,1-.51,1.78c-.12.57-.23,1-.34,1.45a5.26,5.26,0,0,0-.17,1.44,6.49,6.49,0,0,1-.26,1.87,15,15,0,0,0-.42,1.87v1.36a.55.55,0,0,0-.17.68.55.55,0,0,1-.17.68,5.47,5.47,0,0,0-.34,2v1.87a1.45,1.45,0,0,1-.08.42,1.83,1.83,0,0,0-.09.6c0,.68,0,1.36.09,2a6.86,6.86,0,0,1-.09,1.87.7.7,0,0,1-.17.51.69.69,0,0,0-.17.51,2.91,2.91,0,0,0-.17,1.19v.68a4.09,4.09,0,0,0-.25,2.47,13.39,13.39,0,0,1,.25,2.63v.51c0,.11-.17.23-.51.34a.15.15,0,0,1-.17.17q-.34,1.87-.68,3.06a1.54,1.54,0,0,0,.68,1.87,1.44,1.44,0,0,1,.6,1.1,5.38,5.38,0,0,1-.09,1.61,1.54,1.54,0,0,1-.17.68,1.5,1.5,0,0,0-.17.68v.51a.55.55,0,0,0,.51-.34h.34a.15.15,0,0,0,.17-.17,2.29,2.29,0,0,1,2-1h.17l.34-.34a10.15,10.15,0,0,0,1.28-.77l1.28-.93a.67.67,0,0,0,.51-.68,1.11,1.11,0,0,1,1.36-.85.72.72,0,0,0,.94-.42,6.62,6.62,0,0,1,.59-1.1,3.09,3.09,0,0,1,1.7-1.7,10.43,10.43,0,0,0,2.38-2,21.41,21.41,0,0,0,1.87-2.55,1.63,1.63,0,0,0,.42-.94,2.61,2.61,0,0,1,.43-1.1c.34-.34.65-.68.94-1s.54-.68.76-1h.34a.15.15,0,0,0,.17-.17,1.45,1.45,0,0,1,.68-1.1,3.28,3.28,0,0,0,.85-.6c.11-.11.2-.17.25-.17s.14-.11.26-.34a9.29,9.29,0,0,0,1.28-1.53,8.73,8.73,0,0,1,1.28-1.53,3.6,3.6,0,0,0,1-1.53,2,2,0,0,1,3.06-1,1.5,1.5,0,0,0,.68.17,1.54,1.54,0,0,1,.68.17l.17.34a.15.15,0,0,0,.17.17v1.7a.42.42,0,0,1,0,.68,4.88,4.88,0,0,0-2,2.72,2.06,2.06,0,0,0-.51.94,1.17,1.17,0,0,1-1,.77.4.4,0,0,0-.43.34,1.1,1.1,0,0,1-.25.51,1.48,1.48,0,0,0-.43.68,1.55,1.55,0,0,1-.42.68,5.67,5.67,0,0,0-1.36,1.53,13.28,13.28,0,0,0-1.79,1.79,7,7,0,0,1-2,1.61,1.8,1.8,0,0,0-.76,1.28,4.31,4.31,0,0,1-.43,1.44.36.36,0,0,1-.08.25c-.06.06-.09.2-.09.43q-1,1.19-1.79,2.21a8.87,8.87,0,0,1-2,1.87l-.93.6c-.29.17-.6.37-.94.6a4.48,4.48,0,0,0-1.19.85,7.12,7.12,0,0,1-1.36,1,5.83,5.83,0,0,1-.85.68l-1,.68a4.7,4.7,0,0,0-2.72,2.21q0,.34-1,1l-1,.68-1,.68a.5.5,0,0,1-.34.17,1.26,1.26,0,0,0-.51.17.27.27,0,0,0-.26.17.94.94,0,0,1-.42.34.9.9,0,0,1,.42.34,1.34,1.34,0,0,0,.26.34Zm-71.91-59a1.37,1.37,0,0,1,.26,1.61,13.88,13.88,0,0,0-.77,1.62c-.23.57-.45,1.08-.68,1.53a3.41,3.41,0,0,1-1,1.19l-1.28,1.61a1.78,1.78,0,0,1-1.45.77,1.64,1.64,0,0,0-.42.59,1.1,1.1,0,0,1-.26.43,1.09,1.09,0,0,1-.51.68,1.1,1.1,0,0,0-.51.51,2.24,2.24,0,0,1-2.38,1.7,1,1,0,0,1-.68-.17,4,4,0,0,0,.77-1,3.21,3.21,0,0,1,.59-.85,14.94,14.94,0,0,1,3.4-3.06.67.67,0,0,0,.51-.68,3.7,3.7,0,0,1,1.11-2.12,3.84,3.84,0,0,0,1.11-2.29A1.4,1.4,0,0,1,106.3,79,9.75,9.75,0,0,1,107.82,78.24Z"/><path class="contact-letter" d="M255.38,83.68q.85,1.36.76,1.7a8,8,0,0,1-1.11,1.7c-.23.23-.34.4-.34.51a8.22,8.22,0,0,0,.17,1l-1,.68A5.7,5.7,0,0,0,253,90a3,3,0,0,0-.85.85q-.51,1.19-1.1,2.29a6.62,6.62,0,0,1-1.62,2c-.23.11-.34.4-.34.85a7.61,7.61,0,0,0-1.19,1.87l-.51.51a4.8,4.8,0,0,1-1.7,3,11.79,11.79,0,0,0-2.38,2.63,11.89,11.89,0,0,1-.85,1.1,2.32,2.32,0,0,1-1.36.77.35.35,0,0,1-.08.25.34.34,0,0,0-.08.25,2,2,0,0,1-2,1.53q-1.36.17-1.36,1.36a1.63,1.63,0,0,1-1,1.53L234.9,112a17.16,17.16,0,0,0-1.62,1.44,2.61,2.61,0,0,1,.34,1c-.11,0-.17,0-.17.08s-.06.08-.17.08l-1.62.34a2.61,2.61,0,0,0-1.44,1,3,3,0,0,1-.94.6,2.89,2.89,0,0,0-.93.6,5.89,5.89,0,0,0-1.19,1.19q-.51.85-.76.94a3.75,3.75,0,0,1-1.28-.08,4,4,0,0,0-1.87-.26q-1,.08-2,.26c-.11,0-.2.08-.26.25a.78.78,0,0,1-.42.42,6.31,6.31,0,0,0-3.23-.17,2.56,2.56,0,0,1-1.45.25,14.3,14.3,0,0,0-1.62-.08,2.72,2.72,0,0,1-1.53-1.19q-.85-1.7-2.38-1a1.8,1.8,0,0,1-1.7-.85q-.85-1.53-1.79-3.06l-1.79-2.89q-.68-1-1.45-2a6.16,6.16,0,0,1-1.1-2q-.34-.85-.77-1.7a4.5,4.5,0,0,1-.42-2,10.2,10.2,0,0,0-.25-2.29q-.25-1.1-.59-2.29a4.34,4.34,0,0,1-.25-.59l-.25-.77L196.9,93.2a2.45,2.45,0,0,1,.51-.42.92.92,0,0,0,.34-.43A4.15,4.15,0,0,0,198,89a17.36,17.36,0,0,1-.77-3.57,21.62,21.62,0,0,1,.6-7.4,29.82,29.82,0,0,0,.93-7.4q0-4.42-.34-9t-.51-9H184V49.68h13.94a71.08,71.08,0,0,1,.17-8.58q.34-4.16,1-8.42l1-5.1q.51-2.55,1.19-4.93.51-1.87.85-3.91a9.07,9.07,0,0,0-.17-3.91,3.12,3.12,0,0,1,0-2,6.29,6.29,0,0,0,.42-2.63A5.07,5.07,0,0,1,203,7.52a1.47,1.47,0,0,0-.51-1,.79.79,0,0,0-.42-.42,1.63,1.63,0,0,1-.6-.42,1.56,1.56,0,0,1-.34-2.55l.34-.68.34-.68.85-.85a1.27,1.27,0,0,0,1.27,0,1.68,1.68,0,0,1,1.28-.17h.68a1,1,0,0,0,.68-.34A1.73,1.73,0,0,1,208,0a9.62,9.62,0,0,1,1.19.51,3.15,3.15,0,0,0,.68.25,3.65,3.65,0,0,1,.68.25h.68a4,4,0,0,0,2,1.1q1.1.26,2.13.6a12.69,12.69,0,0,0,1.7.68.15.15,0,0,0,.17.17h.17A6.19,6.19,0,0,0,219.43,5a5.27,5.27,0,0,1,2.13,1.53,12,12,0,0,1,2.21,4.08,17.87,17.87,0,0,1,.76,4.59,33.57,33.57,0,0,1-.17,4.76,43.18,43.18,0,0,0-.25,4.59q-.17,3.23-.59,6.38t-1.11,6.37A27.59,27.59,0,0,0,222,41a28.43,28.43,0,0,1-.42,3.74q-.17,1.36-.25,2.47a15.2,15.2,0,0,1-.43,2.46h18.19v2.89H220.53a9.9,9.9,0,0,0-.34,2.38q-.68,5.44-.93,11T219,77.05q0,3.23.08,6.38t.25,6.38q0,3.23.25,6.38t.59,6.38q.17,2.38.51,4.84a7.45,7.45,0,0,0,2.21,4.33,3.25,3.25,0,0,0,2.21,1.28,5.84,5.84,0,0,0,2.38-.34,10,10,0,0,0,2.29-1.19,14.44,14.44,0,0,0,2-1.61q1-.85,2-1.79a8.68,8.68,0,0,1,2.3-1.61,3,3,0,0,1,2.13-.6,1.45,1.45,0,0,0,1.61-1.27,14.35,14.35,0,0,0,.6-1.36,3.33,3.33,0,0,1,.76-1.19q1-1.36,2-2.63A27.94,27.94,0,0,0,245,96.77a13.81,13.81,0,0,1,1.19-2,13.87,13.87,0,0,0,1.19-2A10.5,10.5,0,0,1,248.58,91a6.07,6.07,0,0,0,1-1.87l.51-.51a5.79,5.79,0,0,0,1.28-1.87c.28-.68.59-1.36.93-2a5.79,5.79,0,0,1,.85-1.7l2,.51ZM244.5,101.36q.51-.85-.51-2.21a4.26,4.26,0,0,0-.42,1.19,2.67,2.67,0,0,1-.42,1C243.82,101.59,244.28,101.59,244.5,101.36Z"/><path class="contact-letter" d="M326.61,83.34c.79.11,1.19.74,1.19,1.87a3.27,3.27,0,0,1-2,3.06c-.23.23-.51.48-.85.77s-.62.54-.85.77l-3.57,4.59a7.56,7.56,0,0,0-1.87,2.38,9.05,9.05,0,0,1-1.7,2.38,10,10,0,0,1-1.36,1,5.44,5.44,0,0,1-1.36,3.4l-.68,1.36c-.23.45-.45,1-.68,1.53a6.46,6.46,0,0,1-1.7,2.38,1.14,1.14,0,0,0-.51,1,14.19,14.19,0,0,1-3.06,5.44l-.68.68a5.38,5.38,0,0,0-.68.85,1.82,1.82,0,0,1-.59.85,8.49,8.49,0,0,0-.76.68,10.64,10.64,0,0,0-1.19.68,6.73,6.73,0,0,0-1,.85,2.67,2.67,0,0,1,.51.68,2.61,2.61,0,0,0,.51.68q-.17.85-1.36,1.19a6.83,6.83,0,0,1-2.47.85,5.43,5.43,0,0,0-2.47,1c-.23.23-.4.34-.51.34a20.63,20.63,0,0,0-4.18.08,7.41,7.41,0,0,1-4-.6,4.29,4.29,0,0,0-1.88-.59,11.82,11.82,0,0,1-2.21-.43v-.51a2.58,2.58,0,0,0-1.37-2.55l-.34-.34q-.85-1.36-1.71-2.63t-1.71-2.64a5.42,5.42,0,0,1-.68-2,18.08,18.08,0,0,0-.51-2.38,4.16,4.16,0,0,1-.43-1.36,12,12,0,0,0-.25-1.36,16.06,16.06,0,0,1-.17-2.29,16.56,16.56,0,0,0-.17-2.29,3.63,3.63,0,0,1,.17-.94,4.11,4.11,0,0,0,.17-1.1,2.77,2.77,0,0,0-.08-1.53,1.74,1.74,0,0,1,.25-1.53,1.06,1.06,0,0,0-.17-.59,5,5,0,0,1-.34-.6,1.57,1.57,0,0,0-1.2.17,15.86,15.86,0,0,0-1.71,1.19l-1.71,1.36a11.41,11.41,0,0,1-1,1.19l-1,1a2.67,2.67,0,0,0-2.22.59,5.09,5.09,0,0,1-2,1.1c-.57.23-.91.31-1,.26a10.31,10.31,0,0,1-1-.77,5.87,5.87,0,0,0-.6,1.19,5.86,5.86,0,0,1-.59,1.19,1.7,1.7,0,0,1-1,.42,1.16,1.16,0,0,1-1-.25.48.48,0,0,1-.17-.34,5.54,5.54,0,0,1-2.22.17q-1.37-.34-2.56-.59a3.26,3.26,0,0,1-2-1.62,1.25,1.25,0,0,1-.34-.94,1.07,1.07,0,0,0-.51-.94,17.89,17.89,0,0,1-3.07-4.59,5.68,5.68,0,0,1-.68-2.55,4.55,4.55,0,0,1-.43-1.11,1.51,1.51,0,0,0-.42-.76,22.86,22.86,0,0,1-1.19-2.38,9.3,9.3,0,0,1-.68-2.55,44.51,44.51,0,0,1-.42-4.84q-.09-2.46-.42-5.19c.45.11.85.2,1.19.25s.74.14,1.19.25a2.78,2.78,0,0,1,.17-.85,3.26,3.26,0,0,0,.17-1,2.48,2.48,0,0,1,.42-2.29l1.45-1.78a3.89,3.89,0,0,0,.85-1.53,8.31,8.31,0,0,1,3.07-3.74.92.92,0,0,0,.42-.34.93.93,0,0,1,.43-.34,11,11,0,0,0,1.19-1l1.2-1.19a2.42,2.42,0,0,1,1.28-2,10.73,10.73,0,0,1,2.47-.94l.51-.25a2.36,2.36,0,0,0,.51-.42c.68-.45,1.14-.74,1.37-.85q1.71-.34,3.32-.6a13.1,13.1,0,0,1,3.33-.08c.57,0,1.16,0,1.79.08a4.75,4.75,0,0,0,2-.25.92.92,0,0,1,.85-.25q.51.09,1.2.25a2.3,2.3,0,0,0,1.62-.25,1.53,1.53,0,0,1,1.62.08h.34a2,2,0,0,1,1.79-.68,7.38,7.38,0,0,1,2,.68H284a2.09,2.09,0,0,1,1.54-.08,9.77,9.77,0,0,0,1.54.42,9.77,9.77,0,0,1,5.12,2.38,12.42,12.42,0,0,0,1.45.94,12.15,12.15,0,0,1,1.62,1.1,4.13,4.13,0,0,1,.85.51,18.73,18.73,0,0,1,3.41,3.74,2.15,2.15,0,0,1,.51.85,1.62,1.62,0,0,0,.68.85,2.6,2.6,0,0,1,.85,1.87v2c.11.45.2.85.25,1.19s.14.74.25,1.19a17.13,17.13,0,0,1,1.37,5.1,5.26,5.26,0,0,1,0,1.87,11.35,11.35,0,0,0-.17,1.87,13.32,13.32,0,0,1,.08,2.55,9.22,9.22,0,0,1-.59,2.55q-.34.34,0,.51a11.84,11.84,0,0,1-.25,4.68,11.75,11.75,0,0,0-.26,4.67,4.53,4.53,0,0,1-1,3.06,1.89,1.89,0,0,0-.17.85,8.39,8.39,0,0,0-.17,1.7,4.56,4.56,0,0,1-.34,1.7,7,7,0,0,0-.68,2.13,12.85,12.85,0,0,1-.51,2.13,1.88,1.88,0,0,0-.17.85v1a3.8,3.8,0,0,1,1.37-.68l.68-.68L302,110a3.16,3.16,0,0,0,1.45-.85,5.17,5.17,0,0,0,.76-1.36q.68-1,1.36-1a1.1,1.1,0,0,0,.25-.43.77.77,0,0,1,.42-.42,4.18,4.18,0,0,0,.51-.6,1.28,1.28,0,0,1,.68-.42,6,6,0,0,0,.93-.77,2.44,2.44,0,0,0,.6-1.27l.34-.17a6.1,6.1,0,0,0,2.13-2.21,10.88,10.88,0,0,1,1.79-2.38,2.19,2.19,0,0,0,.76-.85,9.19,9.19,0,0,1,.59-1,4.06,4.06,0,0,1,1.11-1.53q.76-.68,1.44-1.36c.45-.23.68-.51.68-.85a4.63,4.63,0,0,1,1.19-2l1.7-1.7a1.49,1.49,0,0,1,.76-.43,4.62,4.62,0,0,0,1.11-.42q.51-.85,1-1.79a7.9,7.9,0,0,1,1.36-1.78C325.36,83.23,325.93,82.89,326.61,83.34Zm-75.48-3.91a1.71,1.71,0,0,0,.77-1.53,16.48,16.48,0,0,1-.08-1.7q-1,.34-1,.51a9,9,0,0,0-.17,2Q250.62,78.92,251.13,79.43Zm26.69,8.84a15.57,15.57,0,0,1,.17-2.21,17.08,17.08,0,0,0,.17-2.38q0-1.87-.17-3.83T277.82,76q0-2.38-2.21-2.21a18.67,18.67,0,0,0-3.57,1,10.27,10.27,0,0,1-2.46,1l-2.46.68a3.3,3.3,0,0,1-.68.26.79.79,0,0,0-.51.59,2.27,2.27,0,0,1-.93,1.19,4.93,4.93,0,0,1-1.28.51,11.69,11.69,0,0,0-2.38.85,3.24,3.24,0,0,0-1.53,1.87c-.11.45-.28.68-.51.68l-1.36,1a10.92,10.92,0,0,0-1.19,1,7.11,7.11,0,0,0-.17,1.7c-.57,0-.91-.06-1-.17a8.29,8.29,0,0,1-1,1.19,3.17,3.17,0,0,0-.34,1.7,4.8,4.8,0,0,1,.34,1.79,9,9,0,0,0,.17,1.78.76.76,0,0,1-.08.34,1.16,1.16,0,0,0-.08.51,10.62,10.62,0,0,1,.34,2.55,1.37,1.37,0,0,0,.25.85c.17.23.37.51.6.85a4.35,4.35,0,0,0,2.63,1.1,15.49,15.49,0,0,1,2.8.43,9.58,9.58,0,0,1,2.8-.6,7.14,7.14,0,0,0,2.81-.77,11.34,11.34,0,0,1,2.8-1.27,4.5,4.5,0,0,0,2.46-2l.68-.34a.58.58,0,0,1,.42-.17,1.36,1.36,0,0,0,.59-.17,16.66,16.66,0,0,1,1.87-2.47q1-1.1,1.87-2.12A1.39,1.39,0,0,0,277.82,88.27Zm-11.73,16.15q.34-.51.51-.51a4.87,4.87,0,0,1,1,.34A2.46,2.46,0,0,1,266.09,104.42Z"/><path class="contact-letter" d="M351.09,66.34a2.89,2.89,0,0,1-.17-1.19q-.17-2.21-.34-4a17.5,17.5,0,0,0-.85-3.83c-.11-.45-.23-.88-.34-1.27s-.23-.88-.34-1.44a2.87,2.87,0,0,0-.51-1.62q-.51-.76-1-1.44-.34-.85-1.19-.34a.94.94,0,0,1-1.19.17,1,1,0,0,0-.68-.17q.17,2.55.42,5.18a30.17,30.17,0,0,1,.08,5,33.74,33.74,0,0,1-1.7,8.08q-1.36,4-2.72,7.9a10.37,10.37,0,0,0-.93,3.91,28.79,28.79,0,0,1-.43,3.91,29,29,0,0,1-1.1,4.76,7,7,0,0,0-.08,4.42,5.59,5.59,0,0,0,1.36,2.81,6.75,6.75,0,0,0,2.72,1.27,11.83,11.83,0,0,0,6-.17,3.34,3.34,0,0,0,1.53-.94,10.13,10.13,0,0,1,1.36-1.27,17.06,17.06,0,0,1,3-2.38,17.17,17.17,0,0,0,3-2.38q1.7-1.7,3.31-3.48t3.15-3.65a25.83,25.83,0,0,1,2.21-2.64,2.23,2.23,0,0,1,3.06-.42.86.86,0,0,1,.42.68.92.92,0,0,1-.25.85c-.34.57-.74,1.16-1.19,1.79s-.91,1.22-1.36,1.78c0,.11-.11.17-.34.17a1.45,1.45,0,0,0-1.19.42,9.59,9.59,0,0,1-.68.77,3.7,3.7,0,0,1-1.1,1,5.24,5.24,0,0,0-1.11.85q-.68.51-1.36,1.1a8.48,8.48,0,0,0-1.19,1.27,6.8,6.8,0,0,1-1.45,1.61,18,18,0,0,0-1.62,1.45,1.11,1.11,0,0,0-.34,1.36.56.56,0,0,1,.17.68c-.11.23-.4.34-.85.34s-.68.51-.68,1.19a2.18,2.18,0,0,1-1.11,1,6,6,0,0,0-1.28.85q-.85.85-1.7,1.87a6,6,0,0,0-1.19,2.21,2.49,2.49,0,0,1-.85,1.19,3.15,3.15,0,0,0-.77.68,6.21,6.21,0,0,1-.59.68q-.34.51-.76,1a11.77,11.77,0,0,0-.77,1,.91.91,0,0,0-.68,1c0,.23-.06.34-.17.34s-.28.11-.51.34a28.29,28.29,0,0,1-10.62-.26q-4.34-1.11-8.75-5.86a11.84,11.84,0,0,1-2.81-4.5,35.46,35.46,0,0,1-1.44-5.36,40,40,0,0,1-.17-12.24A60.87,60.87,0,0,1,323,70.59q1.36-3.57,3.06-7.06t3.74-6.88q1.36-2.21,2.63-4.59A9.66,9.66,0,0,1,336,48.32a3.41,3.41,0,0,1,1.79-1,11,11,0,0,1,2-.17,6.51,6.51,0,0,1,1.87.25,5.87,5.87,0,0,0,1.7.25,2.1,2.1,0,0,0,1.19,0,2.06,2.06,0,0,1,1.36.17,3.63,3.63,0,0,0,1.36.68,3.18,3.18,0,0,0,.85.6,3.29,3.29,0,0,1,.85.59,8.78,8.78,0,0,0,1.7,1.36,3.92,3.92,0,0,1,1.36,1.36c.34.45.88,1.19,1.62,2.21s1,1.81.77,2.38q-.51.51,0,.85a4,4,0,0,1,.34,1.36v1.19a1.15,1.15,0,0,0,.08.51.61.61,0,0,1-.08.51q-.34,1.36-.6,2.55a12.17,12.17,0,0,0-.25,2.55v.34a1.07,1.07,0,0,0-.34,1.1c.11.4.23.77.34,1.1a.9.9,0,0,0,.34.43c.11.06.17.2.17.42a1.77,1.77,0,0,1-.17,1h-.68a2.38,2.38,0,0,1-1.79-1.79A17.36,17.36,0,0,1,351.09,66.34Z"/><path class="contact-letter" d="M419.94,83.68q.85,1.36.76,1.7a8,8,0,0,1-1.11,1.7c-.23.23-.34.4-.34.51a8.22,8.22,0,0,0,.17,1l-1,.68a5.7,5.7,0,0,0-.85.68,3,3,0,0,0-.85.85q-.51,1.19-1.1,2.29a6.62,6.62,0,0,1-1.62,2c-.23.11-.34.4-.34.85a7.61,7.61,0,0,0-1.19,1.87l-.51.51a4.8,4.8,0,0,1-1.7,3,11.79,11.79,0,0,0-2.38,2.63A11.89,11.89,0,0,1,407,105a2.32,2.32,0,0,1-1.36.77.35.35,0,0,1-.08.25.34.34,0,0,0-.08.25,2,2,0,0,1-2,1.53q-1.36.17-1.36,1.36a1.63,1.63,0,0,1-1,1.53L399.45,112a17.16,17.16,0,0,0-1.62,1.44,2.61,2.61,0,0,1,.34,1c-.11,0-.17,0-.17.08s-.06.08-.17.08l-1.62.34a2.61,2.61,0,0,0-1.44,1,3,3,0,0,1-.94.6,2.89,2.89,0,0,0-.93.6,5.89,5.89,0,0,0-1.19,1.19q-.51.85-.76.94a3.75,3.75,0,0,1-1.28-.08,4,4,0,0,0-1.87-.26q-1,.08-2,.26c-.11,0-.2.08-.26.25a.78.78,0,0,1-.42.42,6.31,6.31,0,0,0-3.23-.17,2.56,2.56,0,0,1-1.45.25,14.3,14.3,0,0,0-1.62-.08,2.72,2.72,0,0,1-1.53-1.19q-.85-1.7-2.38-1a1.8,1.8,0,0,1-1.7-.85q-.85-1.53-1.79-3.06l-1.79-2.89q-.68-1-1.45-2a6.16,6.16,0,0,1-1.1-2q-.34-.85-.77-1.7a4.5,4.5,0,0,1-.42-2,10.2,10.2,0,0,0-.25-2.29q-.25-1.1-.59-2.29a4.34,4.34,0,0,1-.25-.59l-.25-.77-3.06-4.08a2.45,2.45,0,0,1,.51-.42.92.92,0,0,0,.34-.43,4.15,4.15,0,0,0,.25-3.4,17.36,17.36,0,0,1-.77-3.57,21.62,21.62,0,0,1,.6-7.4,29.82,29.82,0,0,0,.93-7.4q0-4.42-.34-9t-.51-9H348.54V49.68h13.94a71.08,71.08,0,0,1,.17-8.58q.34-4.16,1-8.42l1-5.1q.51-2.55,1.19-4.93.51-1.87.85-3.91a9.07,9.07,0,0,0-.17-3.91,3.12,3.12,0,0,1,0-2,6.29,6.29,0,0,0,.42-2.63,5.07,5.07,0,0,1,.59-2.64,1.47,1.47,0,0,0-.51-1,.79.79,0,0,0-.42-.42,1.63,1.63,0,0,1-.6-.42,1.56,1.56,0,0,1-.34-2.55l.34-.68.34-.68.85-.85a1.27,1.27,0,0,0,1.27,0,1.68,1.68,0,0,1,1.28-.17h.68a1,1,0,0,0,.68-.34A1.73,1.73,0,0,1,372.51,0a9.62,9.62,0,0,1,1.19.51,3.15,3.15,0,0,0,.68.25,3.65,3.65,0,0,1,.68.25h.68a4,4,0,0,0,2,1.1q1.1.26,2.13.6a12.69,12.69,0,0,0,1.7.68.15.15,0,0,0,.17.17h.17A6.19,6.19,0,0,0,384,5a5.27,5.27,0,0,1,2.13,1.53,12,12,0,0,1,2.21,4.08,17.87,17.87,0,0,1,.76,4.59,33.57,33.57,0,0,1-.17,4.76,43.18,43.18,0,0,0-.25,4.59q-.17,3.23-.59,6.38T387,37.27a27.59,27.59,0,0,0-.42,3.74,28.43,28.43,0,0,1-.42,3.74q-.17,1.36-.25,2.47a15.2,15.2,0,0,1-.43,2.46h18.19v2.89H385.09a9.9,9.9,0,0,0-.34,2.38q-.68,5.44-.93,11t-.25,11.05q0,3.23.08,6.38t.25,6.38q0,3.23.25,6.38t.59,6.38q.17,2.38.51,4.84a7.45,7.45,0,0,0,2.21,4.33,3.25,3.25,0,0,0,2.21,1.28,5.84,5.84,0,0,0,2.38-.34,10,10,0,0,0,2.29-1.19,14.44,14.44,0,0,0,2-1.61q1-.85,2-1.79a8.68,8.68,0,0,1,2.3-1.61,3,3,0,0,1,2.13-.6,1.45,1.45,0,0,0,1.61-1.27,14.35,14.35,0,0,0,.6-1.36,3.33,3.33,0,0,1,.76-1.19q1-1.36,2-2.63a27.94,27.94,0,0,0,1.87-2.64,13.81,13.81,0,0,1,1.19-2,13.87,13.87,0,0,0,1.19-2A10.5,10.5,0,0,1,413.14,91a6.07,6.07,0,0,0,1-1.87l.51-.51a5.79,5.79,0,0,0,1.28-1.87c.28-.68.59-1.36.93-2a5.79,5.79,0,0,1,.85-1.7l2,.51Zm-10.88,17.68q.51-.85-.51-2.21a4.26,4.26,0,0,0-.42,1.19,2.67,2.67,0,0,1-.42,1C408.38,101.59,408.83,101.59,409.06,101.36Z"/></svg>
