<svg id="svg-podcast" data-name="Layer 1" xmlns="http://www.w3.org/2000/svg" viewBox="0 0 435.63 150.07"><defs><style>.podcast-letter{fill:#ff00eb;}</style></defs><title>Artboard 1</title><path class="podcast-letter" d="M6.63,49.94q.51-.68.85,0c-.23.23-.48.51-.76.85s-.54.62-.77.85l-.17.17a.89.89,0,0,0-.85.08,6.75,6.75,0,0,0-.68.6.59.59,0,0,0-.17.42,1.36,1.36,0,0,1-.17.6.5.5,0,0,0-.17.34.48.48,0,0,1-.17.34l-.34.34a2.54,2.54,0,0,1-1.7,1.53c.11,0,0,.17-.34.51a1,1,0,0,0-.42.34.27.27,0,0,1-.25.17,1.36,1.36,0,0,1-.25-.34A1.34,1.34,0,0,0,0,56.4,5.81,5.81,0,0,1,.85,55,.15.15,0,0,1,1,54.87a3,3,0,0,1,.94-.6,2.89,2.89,0,0,0,.94-.59l.34-.34a3.08,3.08,0,0,1,1.87-2A5.38,5.38,0,0,0,6,50.62ZM88.57,76.12a.4.4,0,0,1,.43.34.71.71,0,0,1-.26.68,10.6,10.6,0,0,1-2.21,1.36,1.36,1.36,0,0,1-.59.17,1.39,1.39,0,0,0-.59.17A7.4,7.4,0,0,1,84.23,80c-.4.34-.76.68-1.1,1H83q-.68-.34-.94.09a3.93,3.93,0,0,1-.59.76,4.59,4.59,0,0,0-1.19.85,6.73,6.73,0,0,1-1,.85,1,1,0,0,0-.34.68,3.18,3.18,0,0,0-.17,1,5.09,5.09,0,0,1-.17,1.19,3,3,0,0,0-.34,1.36c-.11,0-.17.11-.17.34a2.35,2.35,0,0,1,.25,1.36q-.09.68-.25,1.53v.51a1.93,1.93,0,0,1-.17,1.36,1.94,1.94,0,0,0-.59,1.1q-.09.6-.25,1.27a.6.6,0,0,0-.68.68,2.38,2.38,0,0,1-.17,1,3.48,3.48,0,0,0-.17,1.1,5.3,5.3,0,0,1-.17,1.27.35.35,0,0,1-.08.25.66.66,0,0,0-.08.42l-.17-.17a1.31,1.31,0,0,1-.51.17.49.49,0,0,0-.34.17,1.06,1.06,0,0,1-.42.25,1.1,1.1,0,0,0-.43.25,1.36,1.36,0,0,0-.17.6,1.39,1.39,0,0,1-.17.59,1.78,1.78,0,0,1-.17,1,1.79,1.79,0,0,0-.68,1.53,2.12,2.12,0,0,1-.25,1.61,3,3,0,0,1-1.11.94l-.34.34a2,2,0,0,1-.51.34,1,1,0,0,1-.68.34c-.23,0-.45.23-.68.68a2.68,2.68,0,0,1-.51,1.78,5.45,5.45,0,0,1-1.36,1.1,2.57,2.57,0,0,0-1,.85,2.66,2.66,0,0,1-.17-.77,1.4,1.4,0,0,0-.17-.59.69.69,0,0,0-.08-.43.34.34,0,0,1-.08-.25c-.11,0-.29.11-.51.34a3,3,0,0,1-.76.26.8.8,0,0,1-.76-.26q-.51-.34-.85,0a.57.57,0,0,1-.42.17,1.39,1.39,0,0,0-.59.17,11.55,11.55,0,0,0-1.19.68q-.68,1-1.36.17-1.19-.51-1.36.85l-.68.34a3.81,3.81,0,0,1-.77-.08,4,4,0,0,0-.76-.08,1.92,1.92,0,0,0-.85.17h-.68a1.86,1.86,0,0,0-1.36-.43,4.71,4.71,0,0,1-1.53-.08,5.12,5.12,0,0,1-2-1.7c-.23-.34-.42-.65-.6-.94a1.59,1.59,0,0,0-1.1-.6.91.91,0,0,1-.68-.42c-.23-.28-.45-.54-.68-.77s-.48-.45-.76-.68a.91.91,0,0,1-.25-1,1.83,1.83,0,0,1,.08-.59,1.91,1.91,0,0,0,.08-.6,1.52,1.52,0,0,0,.17-.68,1.51,1.51,0,0,1,.17-.68,1.87,1.87,0,0,1,.94-.94,6.78,6.78,0,0,0,1.1-.59,10.21,10.21,0,0,0,1-.85,5.67,5.67,0,0,1,.85-.68,1,1,0,0,1,.68-.68,9.5,9.5,0,0,1,1.19-.51,13.2,13.2,0,0,1,1.36-.51,9.7,9.7,0,0,1,1-.6,2,2,0,0,0,.85-.94,3.06,3.06,0,0,1,.85-.85,2.15,2.15,0,0,1,.85-.51,2.11,2.11,0,0,0,.85-.51h.17c.68.23,1.13.08,1.36-.42a2.5,2.5,0,0,1,.85-1.1,3.62,3.62,0,0,0,.85-.68v-.34a6.37,6.37,0,0,1-.34-2,9.72,9.72,0,0,0-.17-1.87,4.64,4.64,0,0,1,.08-.94,4,4,0,0,0,.08-.76A2.56,2.56,0,0,0,61,88a2,2,0,0,0-.34-2.38,13.74,13.74,0,0,0-.34,1.53L60.18,87c-.45,0-.68-.08-.68-.25v-3a3.94,3.94,0,0,0,.17-2c-.11-.62-.23-1.27-.34-2a1.15,1.15,0,0,1,.34-.85q.68-1.19-.51-1.7c-.34,0-.4-.23-.17-.68a2.15,2.15,0,0,0,0-2,.3.3,0,0,0,.34-.34c.23-.45.17-.74-.17-.85a1.47,1.47,0,0,1-.51-1,2.6,2.6,0,0,1-.42-1.1,6.73,6.73,0,0,0-.25-1.1,10.41,10.41,0,0,0-.85-3.06,2.12,2.12,0,0,0-.68-1.53,2.56,2.56,0,0,1-.34-1A1.69,1.69,0,0,0,56,63.37l-.59-1.19a.36.36,0,0,0-.08-.26c-.06-.06-.08-.2-.08-.42a.48.48,0,0,1-.17-.34,4.34,4.34,0,0,0-.6-.51,2.53,2.53,0,0,1-.42-.34,1.63,1.63,0,0,1-.42-.6,1.73,1.73,0,0,0-.42-.59,1.51,1.51,0,0,1-.43-.85,1.54,1.54,0,0,0-.42-.85,1.29,1.29,0,0,0-1-.76A11.08,11.08,0,0,0,50,56.57c-.79,0-1.25.23-1.36.68a1.06,1.06,0,0,0-.34.77,1.7,1.7,0,0,1-.17.77,11.05,11.05,0,0,1-1,1.19,4.57,4.57,0,0,0-.85,1.19A1.36,1.36,0,0,1,46.09,63a1.54,1.54,0,0,0-.37.76,3.4,3.4,0,0,1-.22.77c-.1.57-.18,1.1-.22,1.61s-.12,1-.22,1.62a1.63,1.63,0,0,0-.77,1.44,5.29,5.29,0,0,1-.08,1.62c-.11.57-.25,1.19-.42,1.87a14.63,14.63,0,0,1-.59,1.87v.51a.78.78,0,0,1,.34.94,4,4,0,0,0-.17,1.1,5.27,5.27,0,0,1,0,1.87,3,3,0,0,1-.17,1.19c0,.11-.11.28-.34.51A.94.94,0,0,1,43,82.07a1.77,1.77,0,0,0-.17,1,9.16,9.16,0,0,1-.08,1.28,8.78,8.78,0,0,0-.08,1.27V86a2,2,0,0,0-.42,1.44,2,2,0,0,1-.43,1.45c-.23.11-.31.34-.25.68a5.48,5.48,0,0,1,.08.85,6,6,0,0,1-.17,1.7A10.16,10.16,0,0,0,41,93.71c-.11.51-.23,1-.34,1.45a8.19,8.19,0,0,0-.17,1.61,6,6,0,0,1-.17,1.45,8.6,8.6,0,0,0-.43,2,17.37,17.37,0,0,1-.25,1.79,1.82,1.82,0,0,1,.25,1.1,2.71,2.71,0,0,1-.42.94.76.76,0,0,0-.08.6,1.92,1.92,0,0,1,.08.59v1.62a8.39,8.39,0,0,1-.17,1.61,3.67,3.67,0,0,1-.68,2,.35.35,0,0,1-.08.25.34.34,0,0,0-.08.26,24.74,24.74,0,0,0-.51,2.55,25.64,25.64,0,0,1-.51,2.55,2.76,2.76,0,0,1-.34,1.19l-.51.51q-.17,1-.25,2c-.06.68-.08,1.36-.08,2s-.28,1.3-.51,2.21a5.53,5.53,0,0,0-.17,1.36v1.36a5.91,5.91,0,0,0,.34,1.87,3.16,3.16,0,0,1,0,2c-.11.23-.23.48-.34.77a.66.66,0,0,0,.17.77,1.88,1.88,0,0,1,.34,1.87,12.69,12.69,0,0,0,.08,1.45,13.35,13.35,0,0,1,.08,1.44,2.41,2.41,0,0,1-.17,1,8,8,0,0,1-.17,1.87,1.93,1.93,0,0,1-.17.85,1.92,1.92,0,0,0,.17,2,2.1,2.1,0,0,1-.34,3.23,3.67,3.67,0,0,0-.69,1.36,1.67,1.67,0,0,0-.43.59,1.7,1.7,0,0,1-.43.6A2.16,2.16,0,0,1,33,149a1.63,1.63,0,0,0-.94.68.35.35,0,0,1-.26-.08.35.35,0,0,0-.26-.09,2.94,2.94,0,0,1-.69-.08,1,1,0,0,0-.69.08,3,3,0,0,1-2.4,0H25.92a.74.74,0,0,0-.34.09.79.79,0,0,1-.34.08,10.44,10.44,0,0,1-1.72.34.67.67,0,0,1-.69-.51,4.39,4.39,0,0,0-.52-1,1.78,1.78,0,0,0-1.2-.68c-.23,0-.34-.06-.34-.17a1.3,1.3,0,0,0-.77-.94,3,3,0,0,1-.95-.59,1.75,1.75,0,0,1-1.2-1.7,8.75,8.75,0,0,0-.34-1.79,7,7,0,0,0-1-1.44,4.24,4.24,0,0,0,.34-3.4v-.51a18.12,18.12,0,0,0-.25-3.15q-.25-1.45-.43-3.14c-.11-.11-.17-.2-.17-.26s-.06-.14-.17-.25c-.45-.34-.68-.57-.68-.68s.28-.34.85-.68a12.82,12.82,0,0,1-.68-1.7q-.17-.17,0-.25a.28.28,0,0,0,.17-.25h.34a13.37,13.37,0,0,0-.51-1.36q-.51-1.19.17-1.36a5.23,5.23,0,0,0,.17-1.53v-.94a3.52,3.52,0,0,0-.17-1.1,12.59,12.59,0,0,0-.08-1.53,2.31,2.31,0,0,1,.25-1.36.73.73,0,0,0,0-.68,1.5,1.5,0,0,1-.17-.68A2.29,2.29,0,0,1,16,114.2v-2.55h.17c.11,0-.17-.11-.85-.34a1.92,1.92,0,0,0,.42-.25,2,2,0,0,1,.42-.26.71.71,0,0,0,.26-.68c-.06-.23-.14-.51-.26-.85a11.46,11.46,0,0,1-.51-1.53,2.46,2.46,0,0,1,.17-1.53.91.91,0,0,0,.08-1,3.46,3.46,0,0,1-.25-1.19,1.55,1.55,0,0,0-.17-.68l.68.34a.69.69,0,0,0,.17-.51c0-.23.06-.34.17-.34a1.92,1.92,0,0,0-.17-2q-.34-.85.34-1c.23,0,.31-.14.25-.42s-.2-.43-.42-.43c-.57-.11-.85-.51-.85-1.19a6.31,6.31,0,0,0-.08-1,5.11,5.11,0,0,1-.08-.85q-.34-1.36.85-1a1.47,1.47,0,0,1-.51-1,5.11,5.11,0,0,0-.17-1.19V88.36a7.84,7.84,0,0,1,.17-1.53h.51a11.1,11.1,0,0,1-.26-1.36,4.28,4.28,0,0,0-.42-1.36c-.23-.34-.11-.62.34-.85s.68-.62.34-1.19a1.25,1.25,0,0,1-.26-.34,1.46,1.46,0,0,0-.25-.34,1.34,1.34,0,0,1,.17-.85,2.74,2.74,0,0,1,.08-.68,1.12,1.12,0,0,0-.25-.85c-.34-.34-.23-.62.34-.85.23-.11.34-.45.34-1,0-.34-.23-.51-.68-.51s-.57-.34-.34-1a2.24,2.24,0,0,0,.17-2.21q-.34-.17,0-.51a13,13,0,0,0,.17-2.38,5.89,5.89,0,0,1-.17-1.45,6,6,0,0,0-.17-1.44,1.51,1.51,0,0,1,.17-.68,1.53,1.53,0,0,0,.17-.68v-1a1.62,1.62,0,0,1-.17-1.87,1.79,1.79,0,0,0,0-1.53,1.93,1.93,0,0,1-.34-1.1,7.75,7.75,0,0,0-.17-1.44A17.26,17.26,0,0,1,15,56.82a9,9,0,0,0-.34-2.47c0-.23-.06-.37-.17-.42a.89.89,0,0,1-.34-.42,1.43,1.43,0,0,0-.09-.43.38.38,0,0,1,.09-.42.88.88,0,0,0-.34-1.19.3.3,0,0,1-.34-.34,2.39,2.39,0,0,0-.51-.94,2.42,2.42,0,0,0-1,.09,1,1,0,0,1-.68-.17c-.34-.57-.6-.85-.77-.85s-.48.23-.94.68c-.23-.11-.48-.23-.76-.34s-.54-.23-.77-.34a.15.15,0,0,1-.17-.17L9,48.49a7.9,7.9,0,0,1,1-.43.66.66,0,0,0,.51-.68q-.34-1.19.68-1.36a1.5,1.5,0,0,0,.68-.17l.68-.34a4.6,4.6,0,0,1,2,.17,4,4,0,0,0,2.56.17,4.44,4.44,0,0,1,2.06.85,16.46,16.46,0,0,0,1.71,1,1.44,1.44,0,0,0,1.37,0,3.62,3.62,0,0,1,3.26.17.48.48,0,0,0,.34.17c.57-.11.94,0,1.11.34a9.3,9.3,0,0,0,.6,1q.51.68.86,1.1a3,3,0,0,0,1,.76l.17.17A5.26,5.26,0,0,0,30.64,53a11,11,0,0,1,1.12,1.53q.34.85.68,1.53A6.85,6.85,0,0,1,33,57.42a14.34,14.34,0,0,0,.94,2.64,14.64,14.64,0,0,1,.94,2.63,15.6,15.6,0,0,0,.34,3.06,6.14,6.14,0,0,1,.34,2,11.79,11.79,0,0,0,.17,2c.11.57.23,1.1.34,1.61s.23,1.1.34,1.79a.62.62,0,0,1,.08.51,1.16,1.16,0,0,0-.08.51,6.31,6.31,0,0,1-.08,1,7.12,7.12,0,0,0-.08,1.19c.11.45.23.88.34,1.27s.23.82.34,1.27A3,3,0,0,1,36.72,80a2.83,2.83,0,0,1-.08.68,2.72,2.72,0,0,0-.08.68,5.94,5.94,0,0,0-.17,1.7,3.77,3.77,0,0,0,.08.77,4,4,0,0,1,.08.77,2.81,2.81,0,0,1,0,1.36,1.42,1.42,0,0,0,.17,1.19c.23.34.25.62.08.85a3,3,0,0,0-.42.85,4.51,4.51,0,0,0,.17,2h.34a1.71,1.71,0,0,0,.17-.77,1.69,1.69,0,0,1,.17-.77,3.43,3.43,0,0,1,.68-2.21.68.68,0,0,0,.34-.68v-1a1.83,1.83,0,0,1,0-1.87,14.65,14.65,0,0,1,.51-2.29,4.56,4.56,0,0,0,0-2.47,3.1,3.1,0,0,1,0-2,1,1,0,0,1,.17-.59,5.89,5.89,0,0,0,.34-.6,1.71,1.71,0,0,0,.17-.76,3,3,0,0,1,.17-.94q.34-1,.51-1.7a3,3,0,0,0,.17-.94,3,3,0,0,1,.17-.94,1,1,0,0,1,.34-.68c.34-.57.62-1.08.85-1.53s.45-1,.68-1.53A7.12,7.12,0,0,0,42.16,64a3.11,3.11,0,0,1,0-1.44q.17-.76.34-1.44.17-.85.25-1.53a2,2,0,0,1,.59-1.19l-.17-.85c0-.11.13-.28.4-.51s.53-.51.79-1.19a3.28,3.28,0,0,1,.51-1.7q0-.34.68-.68c.34-.34.51-.45.51-.34A2.77,2.77,0,0,1,47,51.89a8.8,8.8,0,0,0,1.1-.94l.34-.34a4.46,4.46,0,0,0,1.69-.34,2.64,2.64,0,0,1,1.86,0,.94.94,0,0,0,1,.08,2.25,2.25,0,0,1,1-.26,2.91,2.91,0,0,1,1.18-.17,1.82,1.82,0,0,0,.59-.08,1.9,1.9,0,0,1,.59-.08,4.8,4.8,0,0,1,.93.08,5.65,5.65,0,0,0,1.1.08,6.26,6.26,0,0,1,1,.08,5.91,5.91,0,0,0,1,.08,2.81,2.81,0,0,1,.67.08,2.69,2.69,0,0,0,.68.09.42.42,0,0,0,.67,0,1.11,1.11,0,0,1,1.36.34,6.7,6.7,0,0,0,2.88,1.7,5.13,5.13,0,0,1,3.38,2.55,2.79,2.79,0,0,1,.42.94,2.65,2.65,0,0,0,.42.94l.34.68.34.68c.22.23.34.4.34.51a.88.88,0,0,0,.08.85,6.22,6.22,0,0,0,.59.68l1,1.53a1,1,0,0,1,.34.68,1.65,1.65,0,0,0,.34.85l1,1.53a6.93,6.93,0,0,1,.17,1.87,3.53,3.53,0,0,1,.17,1.1,1,1,0,0,0,.67.94c.11,0,.17.11.17.34A11,11,0,0,1,77,70.59a10.47,10.47,0,0,0,.51,1.61,7.75,7.75,0,0,1,.17,1.45v1.27a1.92,1.92,0,0,1,.17.85,1.15,1.15,0,0,0,.34.85,1.73,1.73,0,0,1,.51,1.87,1.58,1.58,0,0,0-.08.94,8,8,0,0,1,.08,1.1,1.33,1.33,0,0,1,.51-.17,1.28,1.28,0,0,0,.51-.17q-.17.68-.51,1.7c0,.23.06.34.17.34h.51a2.7,2.7,0,0,1,1.19-1.53l1.7-1a1.1,1.1,0,0,0,.25-.42,1.65,1.65,0,0,1,.42-.6,2.36,2.36,0,0,0,1-.17.91.91,0,0,0,1-.68,3,3,0,0,1,.42-.85c.17-.23.37-.51.59-.85a1,1,0,0,1-.68-.34l.34-.34a7.27,7.27,0,0,1,1.19.34A2.1,2.1,0,0,1,88.57,76.12Zm-46.92.34A9.44,9.44,0,0,0,42,74.59l-.34-.68a.15.15,0,0,1-.17.17l-.17,1a5.88,5.88,0,0,1-.34.59,5.23,5.23,0,0,0-.34.6v.34a.74.74,0,0,0,.34-.08.76.76,0,0,1,.34-.08ZM43,69.15q1.36-1,0-2.38a1.31,1.31,0,0,0-.17.51,1.33,1.33,0,0,1-.17.51,1.19,1.19,0,0,1-.08.51,1.16,1.16,0,0,0-.08.51l.34.34Zm2-8.67a.49.49,0,0,0,.17-.34.49.49,0,0,1,.17-.34c-.23-.23-.34-.4-.34-.51a2.69,2.69,0,0,1-.68,1c0,.11.11.17.34.17Zm12.76,42.16q.16-.85.25-1.62c.06-.51.14-1,.25-1.61a10.41,10.41,0,0,0-1.74.76,2.43,2.43,0,0,0-1.08,1.28,1.42,1.42,0,0,1-.66.59,1.29,1.29,0,0,0-.66.77,4.32,4.32,0,0,1-1.16,1.1,9.28,9.28,0,0,1-1.5.77q-1,.17-.16,1a3.54,3.54,0,0,0,1.33,1.53,1.68,1.68,0,0,0,2.16.17.67.67,0,0,1,.5-.17,1.43,1.43,0,0,0,.66.17,1.48,1.48,0,0,1,.66.17,2.32,2.32,0,0,1-.08-1.61,2.82,2.82,0,0,1,.58-1.1,2.64,2.64,0,0,0,.5-.68,1.92,1.92,0,0,0,.17-.85Zm26.85-25.5-.68.34-.68.34h-.17a1.37,1.37,0,0,0,.25-.34.92.92,0,0,1,.42-.34,2.48,2.48,0,0,0,.42-.51,1.34,1.34,0,0,1,.25-.34.38.38,0,0,1,.51.17A1,1,0,0,1,84.66,77.14Z"/><path class="podcast-letter" d="M139.91,99.92q.17-.68,1.53-.34a1.25,1.25,0,0,1-.59,1.19,2.08,2.08,0,0,1-.93.34c-.91,0-1.36.4-1.36,1.19a2.71,2.71,0,0,1-.85,1.53,3.59,3.59,0,0,1-2,1.36,6.8,6.8,0,0,1-2.55-.17,1.64,1.64,0,0,0-2.55,1q-.85,1.87-1.79,3.48t-2,3.49l-1,1a14.11,14.11,0,0,1-5.44,4.59,5.81,5.81,0,0,1-2.55,1.53,2.06,2.06,0,0,0-.76.17,9.38,9.38,0,0,1-1.11.34q-.17.85-1.87.85a2.43,2.43,0,0,0-1.7.85,3.44,3.44,0,0,1-1.53,0,1.59,1.59,0,0,0-.94-.42,1.26,1.26,0,0,0-1.1.42,1.4,1.4,0,0,1-1,.26,7.12,7.12,0,0,0-1.19-.08,12.79,12.79,0,0,1-2.21-.51,4.2,4.2,0,0,0-2.38,0,1.39,1.39,0,0,1-.85-.51,7.75,7.75,0,0,0-2-1.45L96.9,119a6.45,6.45,0,0,0-.68-.59,1.66,1.66,0,0,1-.51-.6,6,6,0,0,0-2.38-2.38,3.42,3.42,0,0,1-1.7-1,10.7,10.7,0,0,1-1.11-2.12,7.62,7.62,0,0,0-1.27-2.12,4.67,4.67,0,0,0-.42-.68,6.89,6.89,0,0,0-.6-.68v-.51A3.41,3.41,0,0,1,87,107c-.28-.51-.6-1-.94-1.62a14.38,14.38,0,0,1-2-4.76,15,15,0,0,1-.85-3.91q-.17-2-.17-3.91a15.85,15.85,0,0,1,.34-3.06,4.07,4.07,0,0,0,.59-1.62A14.86,14.86,0,0,0,84,86.49a5.65,5.65,0,0,1,.85-3.06,6.66,6.66,0,0,1,.85-1.53,17.61,17.61,0,0,0,1-1.53q.34-.85.68-1.62a3.93,3.93,0,0,1,1.19-1.44l.34-1a3.82,3.82,0,0,0,.17-1.19,5.15,5.15,0,0,1,.34-.6,1.28,1.28,0,0,1,.68-.42,4.21,4.21,0,0,0,2.13-1.7q.76-1.19,1.62-2.55A14.55,14.55,0,0,1,95.71,68q1-.85,1.87-1.7c.23-.34.45-.51.68-.51a1.39,1.39,0,0,1,.59-.17,2.67,2.67,0,0,0,.77-.17,4.22,4.22,0,0,0,.51-.6,2.31,2.31,0,0,1,.85-.59,1.06,1.06,0,0,1,.77-.34,1,1,0,0,0,.76-.51c.23-.45.51-.6.85-.43a2,2,0,0,0,.85.26,8.24,8.24,0,0,1-1.79,2.8q-1.11,1.11-2.29,2.47a1.54,1.54,0,0,1-.85.85l-1,.34q-1.36.68-.68,1.87A3.73,3.73,0,0,0,98.94,71a7.68,7.68,0,0,1,1.36-.68q-.35,1.19-.61,2a4.14,4.14,0,0,1-1.13,1.7,3.32,3.32,0,0,0-1.92,2.72c0,.68-.23,1.08-.7,1.19a11.84,11.84,0,0,0-.88,1.7,11.86,11.86,0,0,1-.87,1.7A4.13,4.13,0,0,0,94,82.92v3.91a.69.69,0,0,1-.34.68,1.42,1.42,0,0,0,0,1.36,1.63,1.63,0,0,1,.34,1.7,11.46,11.46,0,0,0-.51,5.27.76.76,0,0,1-.08.34.74.74,0,0,0-.08.34,17.91,17.91,0,0,0,.26,3.15,5.3,5.3,0,0,0,1.63,2.81,12.64,12.64,0,0,0,1.38,1.19q-.34,1,.86,1.87l.68.68a2.59,2.59,0,0,0,.69.51,4.45,4.45,0,0,0,3.61.68c.11,0,.4-.45.86-1.36a2.15,2.15,0,0,0,1.55-.68,5.13,5.13,0,0,1,1.12-1.1,10,10,0,0,1,1.29-.76,4.17,4.17,0,0,1,.6-.51,2.87,2.87,0,0,0,.43-.34,2.28,2.28,0,0,0,.51-.77c.11-.28,0-.54-.34-.77l-.17-.34a4.4,4.4,0,0,1,.17-1.36c0-.11.14-.14.42-.08a3.8,3.8,0,0,0,.76.08.35.35,0,0,1,.08-.25.68.68,0,0,0,.08-.43c-.34-.68-.11-1.3.68-1.87a17.26,17.26,0,0,0,1-1.7,1.53,1.53,0,0,1,1.36-1,2.32,2.32,0,0,0,.93-.51,2.5,2.5,0,0,0,.08-.85.59.59,0,0,1-.08-.51.28.28,0,0,0-.08-.34,1.66,1.66,0,0,1,.34-1.53,4.25,4.25,0,0,1,.6-.51,2.69,2.69,0,0,0,.42-.34V89a4.14,4.14,0,0,0-.76-.6,1.46,1.46,0,0,1-.6-.59,1.67,1.67,0,0,1-.17-.77v-.77a3,3,0,0,0-.34-2,11.67,11.67,0,0,1-.85-1.7,6.46,6.46,0,0,1-1.53-3.06,2.31,2.31,0,0,0-1-1.53,10.39,10.39,0,0,1-1.7-2.21,15.63,15.63,0,0,0-1.53-2.21v-.51a3.75,3.75,0,0,0-.51-2.89,4,4,0,0,1-.51-3.06v-.68a1.77,1.77,0,0,1-.68-1.62q.17-.76.34-1.44a10.59,10.59,0,0,0,.51-1.62,2.14,2.14,0,0,1,.85-1.27,1.28,1.28,0,0,0,.76-1,4.17,4.17,0,0,1,.42-1.36.49.49,0,0,1,.17-.34.7.7,0,0,0,.17-.51,1.76,1.76,0,0,1,.17,2.38,6.51,6.51,0,0,0-.25,1,1.61,1.61,0,0,0,.42,1.19q1-.68,2-1.36a4.3,4.3,0,0,0,1.44-2q.17-.34-.68-1.19a3.06,3.06,0,0,1-1.53.51.69.69,0,0,1-.42-.26,2,2,0,0,0-.76-.42,5,5,0,0,1,4.25-1.36,3,3,0,0,1,1.19.17,5.67,5.67,0,0,0,1.28.94,2.29,2.29,0,0,0,1.62.25q.17,0,.25.25a1,1,0,0,0,.25.43,5.83,5.83,0,0,1,.68.85l.68,1a2,2,0,0,1,2.21,0l.85.6a.62.62,0,0,1,.17.77,4.41,4.41,0,0,0,.08,1l.25,1a5.83,5.83,0,0,1,1,2,3.61,3.61,0,0,1,.68-.85,12.19,12.19,0,0,1,.51,3.06,2.44,2.44,0,0,1,1.87,2.21c.11.57.23,1.13.34,1.7a2.94,2.94,0,0,0,.85,1.53,1.63,1.63,0,0,1,.51,1.19c0,.45.28.79.85,1a1.72,1.72,0,0,0,.51,1.87,2,2,0,0,1,.51,2c0,.11.11.23.34.34a2.09,2.09,0,0,1,.51.34,2,2,0,0,0,1.36.34,1.86,1.86,0,0,1,1.53,2.55l-.51.17a2.84,2.84,0,0,1-.25,2.29,5.16,5.16,0,0,0-.76,2,1.53,1.53,0,0,1-.17.68.33.33,0,0,0,.17.51,1.57,1.57,0,0,1,.17,2,2.49,2.49,0,0,0-.17,2,2.3,2.3,0,0,1-.51,2.21v.34a.15.15,0,0,0,.17.17,4.22,4.22,0,0,1,.34,1.53v1.53a4.87,4.87,0,0,0,.51,2.21c0,.45.34.68,1,.68a8.72,8.72,0,0,0,2,.51,6.58,6.58,0,0,0,2.55-.17,5.3,5.3,0,0,1,.93-.51A1.72,1.72,0,0,0,139.91,99.92ZM101.83,69.49c0-.68.23-1,.68-.85l.34.17q-.34.68-.51.68Zm16,6.29a.49.49,0,0,0,.17-.34c0-.34-.06-.51-.17-.51a2.3,2.3,0,0,0-.42-.6l-.42-.42q-1.36-.34-1.19-1.36A2.15,2.15,0,0,0,115.6,71v-.17l.17-.34h.17l.17.34V71c0,.11.17.23.51.34h.17a1.92,1.92,0,0,0-.08-.59,1.34,1.34,0,0,1-.08-.43,7.47,7.47,0,0,1-1-2.38,4.62,4.62,0,0,1,.34-1.27q.34-.93.68-1.1,1.53-.51.17-1.36a1.2,1.2,0,0,1-.85-1.19,2.16,2.16,0,0,0-.68-1.53,4,4,0,0,0-1.11-.51,7.08,7.08,0,0,1-1.27-.51,1.47,1.47,0,0,0-1,.51,3.93,3.93,0,0,0-1.19,1.44,4.85,4.85,0,0,1-1,1.44v.34q.51.85.25,1.27a4.06,4.06,0,0,0-.42,1.1,1.42,1.42,0,0,1-.08.42.38.38,0,0,0,.08.43q.17.85.34,1.78a9,9,0,0,0,.51,1.79,5.79,5.79,0,0,0,1.61,3.15l2.64,2.63h.34v-.17a5.23,5.23,0,0,0,.25-.59,1.65,1.65,0,0,1,.42-.6c.23-.23.45-.2.68.08s.4.43.51.43A3.19,3.19,0,0,0,117.81,75.78Zm-1.19,2.38a1.27,1.27,0,0,0-.51.42,2.9,2.9,0,0,1-.34.43,1.93,1.93,0,0,1-.59-1c-.06-.34-.31-.4-.76-.17a.47.47,0,0,0-.08.68,1.64,1.64,0,0,0,.59.51,4.11,4.11,0,0,0,1.7,0Zm1.7-11.05c-.23-.23-.4-.34-.51-.34a1.28,1.28,0,0,1-.51-.17.69.69,0,0,0-.17.51C117.24,67.45,117.64,67.45,118.32,67.11Zm.34,4.42c-.23-.11-.34-.23-.34-.34a.15.15,0,0,0-.17-.17H118c-.11,0-.17.11-.17.34.11,0,.28.11.51.34Zm33.49,14.28a1.37,1.37,0,0,1,.25,1.61,13.88,13.88,0,0,0-.76,1.62q-.34.85-.68,1.53a3.4,3.4,0,0,1-1,1.19l-1.27,1.61a1.78,1.78,0,0,1-1.45.77,1.65,1.65,0,0,0-.42.59,6.44,6.44,0,0,1-.77,1.1,1.11,1.11,0,0,0-.51.51,2.24,2.24,0,0,1-2.38,1.7,1,1,0,0,1-.68-.17,4,4,0,0,0,.76-1,3.21,3.21,0,0,1,.59-.85,14.92,14.92,0,0,1,3.4-3.06.67.67,0,0,0,.51-.68,3.69,3.69,0,0,1,1.11-2.12,3.83,3.83,0,0,0,1.1-2.29,1.4,1.4,0,0,1,.68-1.27A9.75,9.75,0,0,1,152.15,85.81Z"/><path class="podcast-letter" d="M166.26,56.74a13,13,0,0,1,2.38.17,1.17,1.17,0,0,1,.77-1,14.77,14.77,0,0,0,1.44-.51,1.93,1.93,0,0,0,.51-.34,2,2,0,0,1,.51-.34,1.52,1.52,0,0,1,.68-.17,1.51,1.51,0,0,0,.68-.17.69.69,0,0,0,.51-.17c.23,0,.37-.06.42-.17s.2-.17.42-.17a2.48,2.48,0,0,0,2-.43,16.25,16.25,0,0,1,1.62-1.1.39.39,0,0,0,.42-.25,1.65,1.65,0,0,1,.42-.59l-.34-.34h.68a1.69,1.69,0,0,0,.17-.76,1.69,1.69,0,0,1,.17-.77,9.41,9.41,0,0,0-1.28.59,9.32,9.32,0,0,1-1.28.6V49.43c.34-.23.65-.43.94-.6s.54-.31.76-.42h.85a2.12,2.12,0,0,0,.51-.94c.11-.4.51-.65,1.19-.77a4,4,0,0,0-.08-.77,3.76,3.76,0,0,1-.08-.76A5.28,5.28,0,0,1,181.9,43V40.59a1,1,0,0,1,.17-.68,1.73,1.73,0,0,0,.51-1.87l.17-.17c.45-.11.65-.31.59-.6a4.62,4.62,0,0,1-.08-.94,2.37,2.37,0,0,1,.17-1,28.49,28.49,0,0,1,.51-2.8l1.1-5.35q.59-2.89,1.11-5.27a20.61,20.61,0,0,1,.68-2.72,3,3,0,0,0,.17-.94v-.76a14.4,14.4,0,0,0,.34-2.38q.34-1.36.68-1.53v-1.7a1.36,1.36,0,0,0,.6.17.58.58,0,0,1,.42.17.36.36,0,0,1,.25.08.34.34,0,0,0,.25.08c.34-.11.62-.48.85-1.1a1.6,1.6,0,0,0,0-1.45.42.42,0,0,1,0-.68,1.43,1.43,0,0,0-.33-1c-.22-.34-.41-.62-.58-.85a4.2,4.2,0,0,1-.41-.68q-.16-1.19,1.15-1.36h.5q.17-1-.58-1.27a2,2,0,0,1-1.08-.77,1,1,0,0,1-.16.68l-.82.34a1.85,1.85,0,0,0,0-2,.43.43,0,0,1,0-.68,1,1,0,0,1,.78-.34q.17-1.53,1.53-1a6.12,6.12,0,0,1,.59.34c.17.11.08.34-.25.68a.58.58,0,0,0-.17.43c0,.17.11.31.34.42l.34.34c0,.45.11.68.34.68a2.85,2.85,0,0,1,.68.08c.23.06.4-.08.51-.42,0-.11.11-.28.34-.51,0-.11.28-.28.85-.51a5.26,5.26,0,0,0,.68,2.21,1.14,1.14,0,0,0,.08.51c.06.11.2.06.42-.17a.89.89,0,0,0,.34.43,1,1,0,0,1,.34.42q.34.68.85.34H198q.34-1.19-.85-1.36c0-.57.15-.82.44-.77a5.07,5.07,0,0,0,1,.08h1.78a5.22,5.22,0,0,1,.36,1.53,1.35,1.35,0,0,1,.18.59.91.91,0,0,0,.35.6.76.76,0,0,1-.08.34.74.74,0,0,0-.08.34,2.69,2.69,0,0,0,.08.68,1,1,0,0,1-.08.68c-.11.34-.23.65-.34.94a8.79,8.79,0,0,0-.34,1.1l.17.17q1.12-.34,1.36-.17a2.77,2.77,0,0,1,.56,1.19,5.47,5.47,0,0,0,.32.59,5.82,5.82,0,0,1,.32.6,13,13,0,0,0-2.38.17c0,.11,0,.17-.08.17s-.08.06-.08.17a6,6,0,0,1,.6.34,1,1,0,0,0,.59.17c.11,0,.28-.11.51-.34l1-.51v-.59c0-.17.23-.2.68-.08a31.1,31.1,0,0,0,.34,4.42q.34,2.38.59,5.69t.26,7.82a78.7,78.7,0,0,1-.85,10.63q-.33,4.93-.82,9.86t-1.31,9.86q-1.81,10.2-2.64,20.48a156.59,156.59,0,0,0-.32,20.49q0,1.53.08,5.1a62.13,62.13,0,0,0,.58,7.14,27.58,27.58,0,0,0,1.65,6.46q1.16,2.89,3.47,3.23,3.23.68,6-2.21a2.33,2.33,0,0,0,.6-.42l.59-.6a5.17,5.17,0,0,0,1-.94,3.14,3.14,0,0,0,.68-1.44,5.12,5.12,0,0,1,2-2.55.3.3,0,0,0,.34-.34l.34-.34a2.65,2.65,0,0,1,.68-.51l.68-.34a3,3,0,0,0,.34-.85q1-1.36,1.7-2.38a4.57,4.57,0,0,0,.85-1.19,5.27,5.27,0,0,0,.25-.6,1.05,1.05,0,0,1,.25-.42,19,19,0,0,1,2.38-2.89,1.16,1.16,0,0,1,.85-.34v.68a1.2,1.2,0,0,1-.08,1c-.17.23-.37.51-.6.85s-.34.4-.34.51-.11.23-.34.34a4.09,4.09,0,0,1-.42,1.1,4,4,0,0,1-.59.77.15.15,0,0,1-.17.17,6.25,6.25,0,0,1-.85.34,6.9,6.9,0,0,0-.85.34.54.54,0,0,0,.34.51c.23.11.23.34,0,.68s-.42.65-.59.94a4,4,0,0,1-.6.76l-.93.94a2.28,2.28,0,0,0-.59,1.1,3,3,0,0,1-.34.85,3.83,3.83,0,0,0-2,2.89h-1.19v1.7a6.36,6.36,0,0,0,1.19-.76,11.72,11.72,0,0,1,1-.77h.17l-.85.85-2.47,2.8a21.35,21.35,0,0,0-2.12,2.81q-1.19,1.7-2.38,3.23t-2.55,3.06q-1.19,1.19-2.21,2a7.79,7.79,0,0,1-2.55,1.36,5.13,5.13,0,0,0-1.53.17,11.61,11.61,0,0,1-3.57.17,19.68,19.68,0,0,1-8.67-2.89,6.41,6.41,0,0,1-2.55-2.72,6.61,6.61,0,0,0-1.19-.85,9.54,9.54,0,0,1-1.53-2q-.68-1.19-1.36-2.21a2.87,2.87,0,0,0-.51-1.1,1.71,1.71,0,0,1-.34-1.1,4.66,4.66,0,0,0-.76-2,8.37,8.37,0,0,1-.94-1.7,11.8,11.8,0,0,0-.17-2.21c0-.45-.23-.62-.68-.51a6.73,6.73,0,0,0-.85,1c-.23-.23-.34-.4-.34-.51l-.17-.17a3.29,3.29,0,0,0,.59-.85l.6-1.19-.94.59a3.82,3.82,0,0,0-.76.6q-1.36,1-2.38,1.7c-.23.23-.48.45-.77.68s-.59.45-.93.68a.76.76,0,0,1-.34-.08.74.74,0,0,0-.34-.09,1.12,1.12,0,0,1-.43.26,1,1,0,0,0-.42.25c-.23.34-.42.62-.59.85a2.91,2.91,0,0,0-.42.85c-.23.23-.4.34-.51.34a3.24,3.24,0,0,1-.76.25,1.45,1.45,0,0,0-.76.43,1.92,1.92,0,0,0,.85.17c.34,0,.45.34.34,1a10.74,10.74,0,0,1-2,.17,16.65,16.65,0,0,0-2.38.17,2.56,2.56,0,0,0-1,.34.34.34,0,0,0-.25.08.36.36,0,0,1-.26.08,64,64,0,0,1-9.26-1.44,14.75,14.75,0,0,1-8.08-4.84c0-.11,0-.17-.08-.17s-.08-.06-.08-.17a1,1,0,0,0-.51-.85,1.65,1.65,0,0,1-.68-1q-.68-1.36-.51-1.7c0-.45-.11-.68-.34-.68a2.53,2.53,0,0,1-.76-1.61c-.06-.62-.14-1.28-.25-2a23.83,23.83,0,0,0-.94-3.57,11.2,11.2,0,0,1-.59-3.74,53,53,0,0,1,2.1-14.88,39.93,39.93,0,0,1,6.65-13.17,4.21,4.21,0,0,1,.76-.94,17.12,17.12,0,0,0,1.26-1.45l1.68-2c-.11-.23-.11-.37,0-.42a2.37,2.37,0,0,0,.51-.42,6.72,6.72,0,0,1,1.09-.6,1.27,1.27,0,0,0,.76-.77,3,3,0,0,0,.25-.76c.06-.28.31-.31.76-.08a.15.15,0,0,0,.17-.17v-.34a1,1,0,0,1,.17-1,1.16,1.16,0,0,0,.34-.85,1,1,0,0,1,.85-1,.49.49,0,0,0,.34-.17,5.6,5.6,0,0,1,1.36-.34c.34.11.54.08.59-.08a1.66,1.66,0,0,1,.43-.6,10.07,10.07,0,0,1,1.39-1q.69-.34,0-1,.69-1.19,1.38-.85c.23.11.4.09.52-.08a.58.58,0,0,1,.52-.25,4.19,4.19,0,0,1,.78.08,3.9,3.9,0,0,0,.78.08,7.84,7.84,0,0,0,2.6-.68,6.86,6.86,0,0,0,.61-.68,6.5,6.5,0,0,1,.61-.68l-2,.68a4.2,4.2,0,0,1-2.38,0,1.31,1.31,0,0,0-.17.51,1.33,1.33,0,0,1-.17.51,1.62,1.62,0,0,1-.08-.85c.06-.11.25-.45.59-1l-.68-.68c0-.23.23-.45.68-.68.23,0,.34.17.34.51s.23.4.68.17Zm-7.14,36.72a57.09,57.09,0,0,0-2,9.86,18.66,18.66,0,0,0,1.45,9.86,4.36,4.36,0,0,1,.51,1,2.1,2.1,0,0,0,.51.85l.59,1.19a2,2,0,0,0,1.11.85,6.22,6.22,0,0,1,1.87,1,.35.35,0,0,0,.25-.08c.06-.06.2-.08.42-.08v-.68a8.36,8.36,0,0,0,5.27-2c.11-.11.2-.14.25-.08s.14,0,.25-.09a3.26,3.26,0,0,1-.17,1,2.08,2.08,0,0,1,.76.17.66.66,0,0,0,.76-.17,2.31,2.31,0,0,0,.51-.76,2.19,2.19,0,0,1,.51-.77q1.36,0,1.7-.77a7.48,7.48,0,0,0,.51-1.78h-.68v-.34a.92.92,0,0,1,.34-.42,2.43,2.43,0,0,0,.51-.43c0-.34.06-.51.17-.51a6.27,6.27,0,0,1,.85-1.27q.51-.59,1-1.27,1.7-1.7.68-3.23c-.11-.11-.11-.17,0-.17v-3.91q.85-.85,0-1.36a.55.55,0,0,1-.17-.68,2.48,2.48,0,0,1,.17-.94c.11-.28.23-.6.34-.94V96q-1.19-1.19.34-1.87a1.43,1.43,0,0,1-1-1.87,3.38,3.38,0,0,0,.34-1.53q.34-2,.77-4.33t.59-4.34a23.7,23.7,0,0,0,.17-2.89V76.29a14.91,14.91,0,0,0-.08-1.62,12.64,12.64,0,0,1-.08-1.44,14.18,14.18,0,0,1,.08-1.61,12.19,12.19,0,0,0,.08-1.28,5.57,5.57,0,0,0-.08-1.27c-.06-.17-.37-.31-.93-.42a.69.69,0,0,1-.51-.17v-.85a1.14,1.14,0,0,0-.17-1.53,7.61,7.61,0,0,0-.85-1.53,3.92,3.92,0,0,0-.51.85,1.84,1.84,0,0,1-.6-.08,1.9,1.9,0,0,0-.59-.08h-.85a9.05,9.05,0,0,1-1.36,1.7,10.63,10.63,0,0,1-1.7,1.7,65.43,65.43,0,0,0-6,10.54,100.84,100.84,0,0,0-4.33,11.39,14.63,14.63,0,0,0-.51,1.45C159.52,92.41,159.35,92.89,159.12,93.46Zm1.19-32.64c.34.23.51.43.51.6a5.19,5.19,0,0,1-.68,1.44,6.22,6.22,0,0,0-.34-.59.56.56,0,0,1,0-.6.49.49,0,0,1,.17-.34A2,2,0,0,0,160.31,60.82Zm6.12-4.08a2.14,2.14,0,0,0-.25-.43,1.75,1.75,0,0,1-.25-.42,3.53,3.53,0,0,0,1.36-.17.15.15,0,0,0,.17.17,5.88,5.88,0,0,0-.59.34,4.12,4.12,0,0,0-.6.51Zm1,63.07q.85.17,1,0a5.38,5.38,0,0,0,.51-1.53h-.51v.85a3.18,3.18,0,0,0-.93.26C167.48,119.44,167.45,119.58,167.45,119.81Zm1-3.06v1.53a2.54,2.54,0,0,1,.68-.51.55.55,0,0,0,.34-.51,1.39,1.39,0,0,1-.85-.51ZM169,59.46a1.88,1.88,0,0,0,.17.85,7,7,0,0,0,1.19-.34l-1-.51Zm.51,4.08a2.53,2.53,0,0,0,2.13.6l2.13-.6a1,1,0,0,0-.68-.34q-.85,0-1.78.08A17.74,17.74,0,0,0,169.49,63.54Zm3.23,4.59a.78.78,0,0,0,.85.51c-.11,0-.28.11-.51.34-.11-.23-.23-.34-.34-.34a.48.48,0,0,1-.34-.17Zm1-15.64a.4.4,0,0,1,.34-.43,11.48,11.48,0,0,1,1.87-.08c-.11.34-.28.54-.51.6A6.38,6.38,0,0,1,173.74,52.49Zm.85,67.15q-.34,0-.51-.51a.48.48,0,0,1,.17-.34,3.63,3.63,0,0,1,.68.85Zm2-57.63c-.34-.11-.65,0-.93.42a1.15,1.15,0,0,0-.08,1.27,3.92,3.92,0,0,0,.59-.77A4.7,4.7,0,0,0,176.63,62Zm7.14-24.14V39.4a1.4,1.4,0,0,1,.34-.25,1.34,1.34,0,0,0,.34-.25,2.63,2.63,0,0,0-.34-1Zm4.51-26a3,3,0,0,0,.17-.94v-.76l.34-.17a.15.15,0,0,0,.17-.17c.11,0,.17.17.17.51Q189.47,11.35,188.28,11.86Zm3.82-1.36a.35.35,0,0,0,.26-.08.35.35,0,0,1,.25-.08,3.18,3.18,0,0,1-.17-1,1.91,1.91,0,0,0-.17-.85h-.34a5.21,5.21,0,0,0,.08.85A7.45,7.45,0,0,1,192.1,10.5Zm1.19-2.38a.68.68,0,0,1,.08.85c-.17.34,0,.57.59.68s.65.17.6-.17a5.11,5.11,0,0,1-.08-.85Q194.65,7.78,193.29,8.12Zm28.39,105.74q-.68-.68-.34-1a2.66,2.66,0,0,0,.51-.68c.11-.11.31-.11.6,0s.54.23.76.34v.34a1.91,1.91,0,0,0-.85.17,2.46,2.46,0,0,0-.43.51A1.33,1.33,0,0,1,221.68,113.86Zm1.87-3.4a1,1,0,0,0-.25.43q-.09.25-.25.25a2.54,2.54,0,0,1-.51-.68v-.17h.85Zm2.89-3.74h.51l.51.51a3.73,3.73,0,0,1-.68,1.36,1.15,1.15,0,0,1-1,.51q-.85-.17-1,.51a4.51,4.51,0,0,0-.25.6c-.06.17-.31.2-.77.08a3.32,3.32,0,0,1,.51-2.21,2.15,2.15,0,0,0,.51-.85,1.64,1.64,0,0,1,.68-.85q.17,0,.25-.25a1.05,1.05,0,0,1,.25-.42c.11-.11.2-.17.25-.17s.14-.06.26-.17Zm0-1.36c-.11-.68.28-1.13,1.19-1.36a3.58,3.58,0,0,1,.17,1.36Z"/><path class="podcast-letter" d="M255,73.91a2.89,2.89,0,0,1-.17-1.19q-.17-2.21-.34-4a17.5,17.5,0,0,0-.85-3.83c-.11-.45-.23-.88-.34-1.27s-.23-.88-.34-1.44a2.87,2.87,0,0,0-.51-1.62q-.51-.76-1-1.44-.34-.85-1.19-.34a.94.94,0,0,1-1.19.17,1,1,0,0,0-.68-.17q.17,2.55.42,5.18a30.17,30.17,0,0,1,.08,5,33.74,33.74,0,0,1-1.7,8.08q-1.36,4-2.72,7.9a10.37,10.37,0,0,0-.93,3.91,28.79,28.79,0,0,1-.43,3.91,29,29,0,0,1-1.1,4.76,7,7,0,0,0-.08,4.42,5.59,5.59,0,0,0,1.36,2.81A6.75,6.75,0,0,0,246,106a11.83,11.83,0,0,0,6-.17,3.34,3.34,0,0,0,1.53-.94,10.13,10.13,0,0,1,1.36-1.27,17.06,17.06,0,0,1,3-2.38,17.17,17.17,0,0,0,3-2.38q1.7-1.7,3.31-3.48t3.15-3.65a25.83,25.83,0,0,1,2.21-2.64,2.23,2.23,0,0,1,3.06-.42.86.86,0,0,1,.42.68.92.92,0,0,1-.25.85c-.34.57-.74,1.16-1.19,1.79s-.91,1.22-1.36,1.78c0,.11-.11.17-.34.17a1.45,1.45,0,0,0-1.19.42,9.59,9.59,0,0,1-.68.77,3.7,3.7,0,0,1-1.1,1,5.24,5.24,0,0,0-1.11.85q-.68.51-1.36,1.1a8.48,8.48,0,0,0-1.19,1.27,6.8,6.8,0,0,1-1.45,1.61,18,18,0,0,0-1.62,1.45,1.11,1.11,0,0,0-.34,1.36.56.56,0,0,1,.17.68c-.11.23-.4.34-.85.34s-.68.51-.68,1.19a2.18,2.18,0,0,1-1.11,1,6,6,0,0,0-1.28.85q-.85.85-1.7,1.87a6,6,0,0,0-1.19,2.21,2.49,2.49,0,0,1-.85,1.19,3.15,3.15,0,0,0-.77.68,6.21,6.21,0,0,1-.59.68q-.34.51-.76,1a11.77,11.77,0,0,0-.77,1,.91.91,0,0,0-.68,1c0,.23-.06.34-.17.34s-.28.11-.51.34A28.29,28.29,0,0,1,237.4,118q-4.34-1.11-8.75-5.86a11.84,11.84,0,0,1-2.81-4.5,35.46,35.46,0,0,1-1.44-5.36,40,40,0,0,1-.17-12.24,60.87,60.87,0,0,1,2.72-11.9q1.36-3.57,3.06-7.06t3.74-6.88q1.36-2.21,2.63-4.59a9.66,9.66,0,0,1,3.49-3.74,3.41,3.41,0,0,1,1.79-1,11,11,0,0,1,2-.17,6.51,6.51,0,0,1,1.87.25,5.87,5.87,0,0,0,1.7.25,2.1,2.1,0,0,0,1.19,0,2.06,2.06,0,0,1,1.36.17,3.63,3.63,0,0,0,1.36.68,3.18,3.18,0,0,0,.85.6,3.29,3.29,0,0,1,.85.59,8.78,8.78,0,0,0,1.7,1.36A3.92,3.92,0,0,1,255.85,60c.34.45.88,1.19,1.62,2.21s1,1.81.77,2.38q-.51.51,0,.85a4,4,0,0,1,.34,1.36V68a1.15,1.15,0,0,0,.08.51.61.61,0,0,1-.08.51q-.34,1.36-.6,2.55a12.17,12.17,0,0,0-.25,2.55v.34a1.07,1.07,0,0,0-.34,1.1c.11.4.23.77.34,1.1a.9.9,0,0,0,.34.43c.11.06.17.2.17.42a1.77,1.77,0,0,1-.17,1h-.68a2.38,2.38,0,0,1-1.79-1.79A17.36,17.36,0,0,1,255,73.91Z"/><path class="podcast-letter" d="M345.61,90.91c.79.11,1.19.74,1.19,1.87a3.27,3.27,0,0,1-2,3.06c-.23.23-.51.48-.85.77s-.62.54-.85.77L339.49,102a7.56,7.56,0,0,0-1.87,2.38,9.05,9.05,0,0,1-1.7,2.38,10,10,0,0,1-1.36,1,5.44,5.44,0,0,1-1.36,3.4l-.68,1.36c-.23.45-.45,1-.68,1.53a6.46,6.46,0,0,1-1.7,2.38,1.14,1.14,0,0,0-.51,1,14.19,14.19,0,0,1-3.06,5.44l-.68.68a5.38,5.38,0,0,0-.68.85,1.82,1.82,0,0,1-.59.85,8.49,8.49,0,0,0-.76.68,10.64,10.64,0,0,0-1.19.68,6.73,6.73,0,0,0-1,.85,2.67,2.67,0,0,1,.51.68,2.61,2.61,0,0,0,.51.68q-.17.85-1.36,1.19a6.83,6.83,0,0,1-2.47.85,5.43,5.43,0,0,0-2.47,1c-.23.23-.4.34-.51.34a20.63,20.63,0,0,0-4.18.08,7.41,7.41,0,0,1-4-.6,4.29,4.29,0,0,0-1.88-.59,11.82,11.82,0,0,1-2.21-.43v-.51a2.58,2.58,0,0,0-1.37-2.55l-.34-.34q-.85-1.36-1.71-2.63T298.44,122a5.42,5.42,0,0,1-.68-2,18.08,18.08,0,0,0-.51-2.38,4.16,4.16,0,0,1-.43-1.36,12,12,0,0,0-.25-1.36,16.06,16.06,0,0,1-.17-2.29,16.56,16.56,0,0,0-.17-2.29,3.63,3.63,0,0,1,.17-.94,4.11,4.11,0,0,0,.17-1.1,2.77,2.77,0,0,0-.08-1.53,1.74,1.74,0,0,1,.25-1.53,1.06,1.06,0,0,0-.17-.59,5,5,0,0,1-.34-.6,1.57,1.57,0,0,0-1.2.17,15.86,15.86,0,0,0-1.71,1.19l-1.71,1.36a11.41,11.41,0,0,1-1,1.19l-1,1a2.67,2.67,0,0,0-2.22.59,5.09,5.09,0,0,1-2,1.1c-.57.23-.91.31-1,.26a10.31,10.31,0,0,1-1-.77,5.87,5.87,0,0,0-.6,1.19,5.86,5.86,0,0,1-.59,1.19,1.7,1.7,0,0,1-1,.42,1.16,1.16,0,0,1-1-.25.48.48,0,0,1-.17-.34,5.54,5.54,0,0,1-2.22.17q-1.37-.34-2.56-.59a3.26,3.26,0,0,1-2-1.62,1.25,1.25,0,0,1-.34-.94,1.07,1.07,0,0,0-.51-.94,17.89,17.89,0,0,1-3.07-4.59,5.68,5.68,0,0,1-.68-2.55,4.55,4.55,0,0,1-.43-1.11,1.51,1.51,0,0,0-.42-.76A22.86,22.86,0,0,1,266.39,97a9.3,9.3,0,0,1-.68-2.55,44.51,44.51,0,0,1-.42-4.84q-.09-2.46-.42-5.19c.45.11.85.2,1.19.25s.74.14,1.19.25a2.78,2.78,0,0,1,.17-.85,3.26,3.26,0,0,0,.17-1,2.48,2.48,0,0,1,.42-2.29L269.45,79a3.89,3.89,0,0,0,.85-1.53,8.31,8.31,0,0,1,3.07-3.74.92.92,0,0,0,.42-.34.93.93,0,0,1,.43-.34,11,11,0,0,0,1.19-1l1.2-1.19a2.42,2.42,0,0,1,1.28-2,10.73,10.73,0,0,1,2.47-.94l.51-.25a2.36,2.36,0,0,0,.51-.42c.68-.45,1.14-.74,1.37-.85q1.71-.34,3.32-.6a13.1,13.1,0,0,1,3.33-.08c.57,0,1.16,0,1.79.08a4.75,4.75,0,0,0,2-.25.92.92,0,0,1,.85-.25q.51.09,1.2.25a2.3,2.3,0,0,0,1.62-.25,1.53,1.53,0,0,1,1.62.08h.34a2,2,0,0,1,1.79-.68,7.38,7.38,0,0,1,2,.68H303a2.09,2.09,0,0,1,1.54-.08,9.77,9.77,0,0,0,1.54.42,9.77,9.77,0,0,1,5.12,2.38,12.42,12.42,0,0,0,1.45.94,12.15,12.15,0,0,1,1.62,1.1,4.13,4.13,0,0,1,.85.51,18.73,18.73,0,0,1,3.41,3.74,2.15,2.15,0,0,1,.51.85,1.62,1.62,0,0,0,.68.85,2.6,2.6,0,0,1,.85,1.87v2c.11.45.2.85.25,1.19s.14.74.25,1.19a17.13,17.13,0,0,1,1.37,5.1,5.26,5.26,0,0,1,0,1.87,11.35,11.35,0,0,0-.17,1.87,13.32,13.32,0,0,1,.08,2.55,9.22,9.22,0,0,1-.59,2.55q-.34.34,0,.51a11.84,11.84,0,0,1-.25,4.68,11.75,11.75,0,0,0-.26,4.67,4.53,4.53,0,0,1-1,3.06,1.89,1.89,0,0,0-.17.85,8.39,8.39,0,0,0-.17,1.7,4.56,4.56,0,0,1-.34,1.7,7,7,0,0,0-.68,2.13,12.85,12.85,0,0,1-.51,2.13,1.88,1.88,0,0,0-.17.85v1a3.8,3.8,0,0,1,1.37-.68l.68-.68.68-.68a3.16,3.16,0,0,0,1.45-.85,5.17,5.17,0,0,0,.76-1.36q.68-1,1.36-1a1.1,1.1,0,0,0,.25-.43.77.77,0,0,1,.42-.42,4.18,4.18,0,0,0,.51-.6,1.28,1.28,0,0,1,.68-.42,6,6,0,0,0,.93-.77,2.44,2.44,0,0,0,.6-1.27l.34-.17a6.1,6.1,0,0,0,2.13-2.21,10.88,10.88,0,0,1,1.79-2.38,2.19,2.19,0,0,0,.76-.85,9.19,9.19,0,0,1,.59-1,4.06,4.06,0,0,1,1.11-1.53q.76-.68,1.44-1.36c.45-.23.68-.51.68-.85A4.63,4.63,0,0,1,338,98l1.7-1.7a1.49,1.49,0,0,1,.76-.43,4.62,4.62,0,0,0,1.11-.42q.51-.85,1-1.79a7.9,7.9,0,0,1,1.36-1.78C344.36,90.8,344.93,90.46,345.61,90.91ZM270.13,87a1.71,1.71,0,0,0,.77-1.53,16.48,16.48,0,0,1-.08-1.7q-1,.34-1,.51a9,9,0,0,0-.17,2Q269.62,86.49,270.13,87Zm26.69,8.84a15.57,15.57,0,0,1,.17-2.21,17.08,17.08,0,0,0,.17-2.38q0-1.87-.17-3.83t-.17-3.82q0-2.38-2.21-2.21a18.67,18.67,0,0,0-3.57,1,10.27,10.27,0,0,1-2.46,1l-2.46.68a3.3,3.3,0,0,1-.68.26.79.79,0,0,0-.51.59,2.27,2.27,0,0,1-.93,1.19,4.93,4.93,0,0,1-1.28.51,11.69,11.69,0,0,0-2.38.85,3.24,3.24,0,0,0-1.53,1.87c-.11.45-.28.68-.51.68l-1.36,1a10.92,10.92,0,0,0-1.19,1,7.11,7.11,0,0,0-.17,1.7c-.57,0-.91-.06-1-.17a8.29,8.29,0,0,1-1,1.19,3.17,3.17,0,0,0-.34,1.7,4.8,4.8,0,0,1,.34,1.79,9,9,0,0,0,.17,1.78.76.76,0,0,1-.08.34,1.16,1.16,0,0,0-.08.51,10.62,10.62,0,0,1,.34,2.55,1.37,1.37,0,0,0,.25.85c.17.23.37.51.6.85a4.35,4.35,0,0,0,2.63,1.1,15.49,15.49,0,0,1,2.8.43,9.58,9.58,0,0,1,2.8-.6,7.14,7.14,0,0,0,2.81-.77,11.34,11.34,0,0,1,2.8-1.27,4.5,4.5,0,0,0,2.46-2l.68-.34a.58.58,0,0,1,.42-.17,1.36,1.36,0,0,0,.59-.17A16.66,16.66,0,0,1,294.61,99q1-1.1,1.87-2.12A1.39,1.39,0,0,0,296.82,95.84ZM285.09,112q.34-.51.51-.51a4.87,4.87,0,0,1,1,.34A2.46,2.46,0,0,1,285.09,112Z"/><path class="podcast-letter" d="M336.26,112.33a8,8,0,0,1-.08,1.1,8.78,8.78,0,0,0-.08,1.27,2.94,2.94,0,0,0,.34.85,4.66,4.66,0,0,0,1.19-2.21,2.77,2.77,0,0,1,2.21-2.21,3.87,3.87,0,0,0,1.53-.85,3.7,3.7,0,0,0,.85-.77,3.77,3.77,0,0,1,.85-.76q1.19-.85,2.38-1.62a22,22,0,0,0,2.21-1.61c.68-.57,1.39-1.11,2.13-1.62s1.45-1,2.13-1.62a1.89,1.89,0,0,0,.68-1.87,7.76,7.76,0,0,0-.94-3.06q-.76-1.36-1.44-2.72a.28.28,0,0,0-.17-.25.27.27,0,0,1-.17-.25,6.73,6.73,0,0,0-1.19-2.81,29.79,29.79,0,0,1-1.7-2.46l-.34-.68a7.53,7.53,0,0,0-1.19-2.55,10.89,10.89,0,0,1-1.36-2.55,4.08,4.08,0,0,0-.68-1,3.66,3.66,0,0,1-1-1.1q-.34-.59-.68-1.27a13.57,13.57,0,0,1-.85-2.12q-.34-1.1-.68-2.12a4.1,4.1,0,0,1-.42-1.27,2.88,2.88,0,0,0-.6-1.27A2.89,2.89,0,0,1,339,71.7v-1a2.62,2.62,0,0,1,.85-3.06,1.5,1.5,0,0,1-.42-.85,3.14,3.14,0,0,0-.26-.85,2.42,2.42,0,0,1,0-1.78,2.17,2.17,0,0,1,1-1.28,28.06,28.06,0,0,0,2.72-1.7,2,2,0,0,1,1.19-.6,4.15,4.15,0,0,0,1.36-.42l.34.17a18,18,0,0,1,2.38-.51,24.49,24.49,0,0,0,2.55-.51,3.13,3.13,0,0,1,.85-.25,3,3,0,0,0,.85-.25h.68a4.81,4.81,0,0,1,3.57,0,1.09,1.09,0,0,0,.85,0,3.25,3.25,0,0,1,1-.17,1.37,1.37,0,0,1,1,.68c0,.11.28.17.85.17a2.43,2.43,0,0,1,1.87,1,5.73,5.73,0,0,1,1,3.23,14.94,14.94,0,0,0,.17,2.29q.17,1.11.34,2.29v1.36A5.53,5.53,0,0,0,364,71a2.47,2.47,0,0,1,0,1.27q-.17.6-.34,1.45c-.11-.11-.2-.17-.25-.17s-.14-.06-.25-.17a5,5,0,0,0-1.19,1.36,5,5,0,0,0,.34.59,1.06,1.06,0,0,1,.17.6A3,3,0,0,1,361.25,79l-1.19,1.19h-1.19a6.43,6.43,0,0,1-.51-1.36c-.45.45-.68.74-.68.85q0,1,.51,1a2.81,2.81,0,0,1,1.28.94l.76,1.1a8.5,8.5,0,0,1,1,1.19,3.7,3.7,0,0,1,.68.85q.85,1.53,1.62,3.06t1.62,3.06a3.56,3.56,0,0,0,.68.85,3.61,3.61,0,0,1,1.53-.94,1.88,1.88,0,0,0,1.19-1.45c.11-.57.68-.79,1.7-.68a9.51,9.51,0,0,1,.76-1.28,8.79,8.79,0,0,1,.94-1.1l1.19-.76c.45-.28.85-.54,1.19-.77a8.25,8.25,0,0,0,1.7-1.53,4.08,4.08,0,0,1,2-1.36l2.38-.68a1.54,1.54,0,0,1,.68.17l.68.34q.51.34.17,1.19a5.46,5.46,0,0,0,.34,1.36,10.49,10.49,0,0,1-2.21,1.7,6.76,6.76,0,0,1-2.55.85,2.59,2.59,0,0,0-.34,1,.49.49,0,0,0-.34.17,1.88,1.88,0,0,0-1.7.68,10.47,10.47,0,0,1-1,1.44,10.9,10.9,0,0,0-1,1.44l-.68-.34a3,3,0,0,0-.85-.34c-.11,0-.28.23-.51.68-.11.11-.2.17-.25.17s-.14.06-.25.17a.49.49,0,0,0-.34.17,2.59,2.59,0,0,1-1,2.55,9.31,9.31,0,0,0-.68.77,9.59,9.59,0,0,1-.68.77v.68a9.6,9.6,0,0,1,1.19,2.72l.68,2.72a.72.72,0,0,0,.08.34.78.78,0,0,1,.08.34,3.26,3.26,0,0,1,.76,1.62,14.89,14.89,0,0,1,.08,1.61,6.8,6.8,0,0,0,.17,1.87,4.23,4.23,0,0,1,.17,2.63c-.23.85-.45,1.67-.68,2.47a3.18,3.18,0,0,0-.17,1,3.27,3.27,0,0,1-.17,1,5.09,5.09,0,0,1-1.19,2.72l-.76.77a2.34,2.34,0,0,0-.59.94,5.83,5.83,0,0,1-1,2,21.57,21.57,0,0,1-1.53,1.7q-.34.34-.77.85c-.28.34-.54.62-.76.85a3.24,3.24,0,0,0-1.28,1.36,9.89,9.89,0,0,1-1.1,1.7,2.09,2.09,0,0,1-.51.34,2.54,2.54,0,0,0-.68.51,3.47,3.47,0,0,1,.08-.85,2.86,2.86,0,0,0,.08-.68,14.57,14.57,0,0,0-2.12,1.1,18.69,18.69,0,0,0-2,1.45,8.92,8.92,0,0,0-1.19-.51,3.74,3.74,0,0,1,.17-1.19h-1.7a3.73,3.73,0,0,0-1.19.17,6.54,6.54,0,0,1-2.3.25c-.74-.06-1.44-.14-2.12-.25A20,20,0,0,1,345,128l-2.63-.68a.35.35,0,0,0-.08-.25.67.67,0,0,1-.08-.43c-.34-.34-.45-.51-.34-.51a5,5,0,0,1-2-1,5.49,5.49,0,0,0-1.62-1,3.4,3.4,0,0,1-2.21-1.36,9.71,9.71,0,0,0,.51-1.19,13.81,13.81,0,0,0-.85-1.45q-.51-.76-1-1.61a.78.78,0,0,1-.17-.85,1.45,1.45,0,0,0,.08-1.27c-.17-.4-.37-.82-.59-1.28a1.63,1.63,0,0,0,.76-1.44,5.35,5.35,0,0,1,.08-1.61,1.69,1.69,0,0,0,.77.17,1.71,1.71,0,0,1,.76.17Zm5.1,1.19a8,8,0,0,0-2,2,3.86,3.86,0,0,0-.43,3,1.83,1.83,0,0,1,.08.94c-.06.28.14.48.6.59s.62.43.85.6.51.14.85-.08q1.19,1.87,2.55.85a2.77,2.77,0,0,1,2-.51,1.74,1.74,0,0,1,1.7-1.19,1.1,1.1,0,0,0,1-.68,8.53,8.53,0,0,0,1.53-2.55q.68-1.19,1.36-2.29a8.75,8.75,0,0,0,1-2.47q.17-.85.34-1.78a9,9,0,0,1,.51-1.79,1.63,1.63,0,0,0-.51-1.53c-.57.34-1.11.65-1.62.94a5,5,0,0,0-1.45,1.28l-.51.51a11.54,11.54,0,0,0-4.76,4.08,12.86,12.86,0,0,0-1.45,1.7,13.2,13.2,0,0,1-1.44,1.7q-.34.85-1-.17l1-3.06ZM358,65.41a6.7,6.7,0,0,0-1.44-.43,4.1,4.1,0,0,1-1.28-.42,4.42,4.42,0,0,0-2.46,0,3.5,3.5,0,0,0-1.45,1.87c-.11.11-.17.2-.17.25s-.06.14-.17.25a2.55,2.55,0,0,1,.34,1.7,3.71,3.71,0,0,0,.08,2.38,5.72,5.72,0,0,1,.42,2.21l.51.51c.23.34.42.65.59.93s.37.6.59.94a1.09,1.09,0,0,0,1.19.51l.68-.34c.45.34.57.65.34.93a1.28,1.28,0,0,0-.34.77q1-.51,1.28-.68a2.44,2.44,0,0,0,.59-1c.11-.11.2-.17.25-.17s.14-.06.25-.17a3.72,3.72,0,0,0,.94-1.19q.08-.34-.6-1.19a3,3,0,0,0,.34-2.72v-.51a4.54,4.54,0,0,0,.08-2.29Q358.36,66.43,358,65.41Zm-.17,11.73q-1,.51-1.87.85l1,.68A1.23,1.23,0,0,0,357.85,77.14Z"/><path class="podcast-letter" d="M434.85,91.25q.85,1.36.76,1.7a8,8,0,0,1-1.11,1.7c-.23.23-.34.4-.34.51a8.22,8.22,0,0,0,.17,1l-1,.68a5.7,5.7,0,0,0-.85.68,3,3,0,0,0-.85.85q-.51,1.19-1.1,2.29a6.62,6.62,0,0,1-1.62,2c-.23.11-.34.4-.34.85a7.61,7.61,0,0,0-1.19,1.87l-.51.51a4.8,4.8,0,0,1-1.7,3,11.79,11.79,0,0,0-2.38,2.63,11.89,11.89,0,0,1-.85,1.1,2.32,2.32,0,0,1-1.36.77.35.35,0,0,1-.08.25.34.34,0,0,0-.08.25,2,2,0,0,1-2,1.53q-1.36.17-1.36,1.36a1.63,1.63,0,0,1-1,1.53l-1.62,1.27a17.16,17.16,0,0,0-1.62,1.44,2.61,2.61,0,0,1,.34,1c-.11,0-.17,0-.17.08s-.06.08-.17.08l-1.62.34a2.61,2.61,0,0,0-1.44,1,3,3,0,0,1-.94.6,2.89,2.89,0,0,0-.93.6,5.89,5.89,0,0,0-1.19,1.19q-.51.85-.76.94a3.75,3.75,0,0,1-1.28-.08,4,4,0,0,0-1.87-.26q-1,.08-2,.26c-.11,0-.2.08-.26.25a.78.78,0,0,1-.42.42,6.31,6.31,0,0,0-3.23-.17,2.56,2.56,0,0,1-1.45.25,14.3,14.3,0,0,0-1.62-.08,2.72,2.72,0,0,1-1.53-1.19q-.85-1.7-2.38-1a1.8,1.8,0,0,1-1.7-.85q-.85-1.53-1.79-3.06l-1.79-2.89q-.68-1-1.45-2a6.16,6.16,0,0,1-1.1-2q-.34-.85-.77-1.7a4.5,4.5,0,0,1-.42-2,10.2,10.2,0,0,0-.25-2.29q-.25-1.1-.59-2.29a4.34,4.34,0,0,1-.25-.59l-.25-.77-3.06-4.08a2.45,2.45,0,0,1,.51-.42.92.92,0,0,0,.34-.43,4.15,4.15,0,0,0,.25-3.4,17.36,17.36,0,0,1-.77-3.57,21.62,21.62,0,0,1,.6-7.4,29.82,29.82,0,0,0,.93-7.4q0-4.42-.34-9t-.51-9H363.45V57.25H377.4a71.08,71.08,0,0,1,.17-8.58q.34-4.16,1-8.42l1-5.1q.51-2.55,1.19-4.93.51-1.87.85-3.91a9.07,9.07,0,0,0-.17-3.91,3.12,3.12,0,0,1,0-2,6.29,6.29,0,0,0,.42-2.63,5.07,5.07,0,0,1,.59-2.64,1.47,1.47,0,0,0-.51-1,.79.79,0,0,0-.42-.42,1.63,1.63,0,0,1-.6-.42,1.56,1.56,0,0,1-.34-2.55L381,10l.34-.68.85-.85a1.27,1.27,0,0,0,1.27,0,1.68,1.68,0,0,1,1.28-.17h.68a1,1,0,0,0,.68-.34,1.73,1.73,0,0,1,1.36-.34,9.62,9.62,0,0,1,1.19.51,3.15,3.15,0,0,0,.68.25,3.65,3.65,0,0,1,.68.25h.68a4,4,0,0,0,2,1.1q1.1.26,2.13.6a12.69,12.69,0,0,0,1.7.68.15.15,0,0,0,.17.17h.17a6.19,6.19,0,0,0,2.13,1.36A5.27,5.27,0,0,1,401,14.07a12,12,0,0,1,2.21,4.08,17.87,17.87,0,0,1,.76,4.59,33.57,33.57,0,0,1-.17,4.76,43.18,43.18,0,0,0-.25,4.59q-.17,3.23-.59,6.38t-1.11,6.38a27.59,27.59,0,0,0-.42,3.74,28.43,28.43,0,0,1-.42,3.74q-.17,1.36-.25,2.47a15.2,15.2,0,0,1-.43,2.46h18.19v2.89H400a9.9,9.9,0,0,0-.34,2.38q-.68,5.44-.93,11t-.25,11.05q0,3.23.08,6.38t.25,6.38q0,3.23.25,6.38t.59,6.38q.17,2.38.51,4.84a7.45,7.45,0,0,0,2.21,4.33,3.25,3.25,0,0,0,2.21,1.28,5.84,5.84,0,0,0,2.38-.34,10,10,0,0,0,2.29-1.19,14.44,14.44,0,0,0,2-1.61q1-.85,2-1.79a8.68,8.68,0,0,1,2.3-1.61,3,3,0,0,1,2.13-.6,1.45,1.45,0,0,0,1.61-1.27,14.35,14.35,0,0,0,.6-1.36,3.33,3.33,0,0,1,.76-1.19q1-1.36,2-2.63a27.93,27.93,0,0,0,1.87-2.64,13.81,13.81,0,0,1,1.19-2,13.87,13.87,0,0,0,1.19-2,10.5,10.5,0,0,1,1.19-1.87,6.07,6.07,0,0,0,1-1.87l.51-.51a5.79,5.79,0,0,0,1.28-1.87c.28-.68.59-1.36.93-2a5.79,5.79,0,0,1,.85-1.7l2,.51ZM424,108.93q.51-.85-.51-2.21a4.26,4.26,0,0,0-.42,1.19,2.67,2.67,0,0,1-.42,1C423.29,109.16,423.75,109.16,424,108.93Z"/></svg>
