<svg id="Layer_1" data-name="Layer 1" xmlns="http://www.w3.org/2000/svg" viewBox="0 0 301.58 101.83"><defs><style>.cls-1{fill:#ff0;}</style></defs><title>title-more</title><path class="cls-1" d="M64.26,82.11a19.36,19.36,0,0,1-4.59,3.4h-.85a1.77,1.77,0,0,1-1.7.17q-.68-.17-1.36.68l-1,1c-.23.23-.45.17-.68-.17a.83.83,0,0,0-1-.51.5.5,0,0,1-.34.17,1.28,1.28,0,0,0-.51.17c.34.23.11.45-.68.68l-1-1c0-.11,0-.17-.08-.17s-.08-.06-.08-.17V85c0-.57.17-.85.51-.85a.28.28,0,0,0,.25-.17c.06-.11,0-.17-.08-.17s-.11-.28-.34-.51a.49.49,0,0,0-.34-.17A.49.49,0,0,1,50,83a1.15,1.15,0,0,1-.34-.85,3.69,3.69,0,0,0,0-2.21c-.11-.45-.2-.85-.25-1.19s.14-.62.59-.85q-.51-2.72-.77-4.42t-.51-3.14a15.17,15.17,0,0,1-.25-1.79q-.17-2.38-.43-4.59a24.59,24.59,0,0,1-.08-4.59q.17-1.87.34-3.48a16.49,16.49,0,0,0,0-3.31,10,10,0,0,0-.43-2.81,10.45,10.45,0,0,1-.42-3,8.16,8.16,0,0,1,.08-2.63,13.4,13.4,0,0,0,.25-2.64V37.83A9.27,9.27,0,0,0,47.6,36a3.81,3.81,0,0,1,.08-.76,4,4,0,0,0,.08-.77c0-.11.17-.34.51-.68a.49.49,0,0,1-.34.17h-.17c-.23,0-.37,0-.42-.08a.69.69,0,0,0-.43-.08c.11,0,0,.17-.34.51a5,5,0,0,0-.51.94,5.31,5.31,0,0,1-.51.93,11.28,11.28,0,0,0-1.19,2.38A11.89,11.89,0,0,1,43.69,40q-.34.6-.68,1.27a1.42,1.42,0,0,0,0,1.36.76.76,0,0,1-.08.34.74.74,0,0,0-.09.34,17.89,17.89,0,0,1-.68,2.21.69.69,0,0,0-.17.51,1.69,1.69,0,0,0-.17.76,3,3,0,0,1-.17.94,2.6,2.6,0,0,0-.34,1c.11.34-.06.74-.51,1.19A7.58,7.58,0,0,1,40,51.51,4.16,4.16,0,0,0,39.1,51l-.17.17v.17c.34,0,.48.08.42.25a.76.76,0,0,0,.08.59,5.44,5.44,0,0,1-.08.85,5.19,5.19,0,0,0-.08.85v.34a3.83,3.83,0,0,0-.68,1.36L38.25,57a9.5,9.5,0,0,1-.85,2.21h-.34v-.85a.67.67,0,0,0-.42.08.67.67,0,0,1-.43.08.61.61,0,0,1,.08.51c-.06.11,0,.23.26.34a.86.86,0,0,1,.34,1,2.62,2.62,0,0,0-.43,1.1,2.67,2.67,0,0,1-.42,1.1c0,.23-.06.37-.17.43s-.17.2-.17.42a8.39,8.39,0,0,1-.43,1.27A1.45,1.45,0,0,0,35.36,66a.35.35,0,0,1-.08.26.34.34,0,0,0-.08.25,4,4,0,0,0,0,3.23,2.39,2.39,0,0,1-.17,2,.35.35,0,0,1-.08.25.34.34,0,0,0-.08.25,2.63,2.63,0,0,1-.51,1.87v.34a3.9,3.9,0,0,1-1.7,3.4.52.52,0,0,1-.51.08.94.94,0,0,0-.68.08,2.19,2.19,0,0,0-.51.77,2.33,2.33,0,0,1-.51.76,1.79,1.79,0,0,0-1.53,0,2.2,2.2,0,0,1-1.7,0,8.5,8.5,0,0,1-1.7-.94,1.7,1.7,0,0,0-1.7-.25l-1.36-.68q-1.19-.34-.85.17l-.34.34a13,13,0,0,1-.77-2.38,2.32,2.32,0,0,0-1.61-1.7A.15.15,0,0,1,19,74a5.35,5.35,0,0,1-2.21-3.74q-.34-2.38-.68-4.42a55.79,55.79,0,0,1-.34-6.21q0-3.14.17-6.2a25.94,25.94,0,0,0,.08-5.53q-.25-2.63-.59-5.35,0-1.36-.08-2.8a9.15,9.15,0,0,1,.25-2.81c.11-.79.23-1.61.34-2.46a2.41,2.41,0,0,0-.68-2.12,1.33,1.33,0,0,1-.17-.85,1.34,1.34,0,0,0,0-.94q-.17-.42-.34-.77a1.63,1.63,0,0,1-.42-.59,5.38,5.38,0,0,0-.26-.6.69.69,0,0,0-.85-.34c0,.11-.17.17-.51.17a1.2,1.2,0,0,0-1.19.85c-.11,0-.17,0-.17.08s-.06.08-.17.08h-.17a1.63,1.63,0,0,0-1.7.85A6.23,6.23,0,0,1,8,31.79a2.93,2.93,0,0,1-1.28.6A3,3,0,0,0,5.44,33a1.25,1.25,0,0,1-.85.6,1.55,1.55,0,0,0-.85.42c-.11.11-.2.17-.26.17s-.14.06-.25.17a.86.86,0,0,1-1-.34c-.23-.23-.4-.34-.51-.34H.51c-.34,0-.51-.11-.51-.34a1.88,1.88,0,0,0,.17-.85,5.93,5.93,0,0,0,1.7-.17,4.21,4.21,0,0,0,.68-.43,6,6,0,0,0,.68-.59.89.89,0,0,0,.43-.34,1,1,0,0,1,.42-.34,9.78,9.78,0,0,1,2.46-2c1-.57,1.9-1.13,2.81-1.7Q13.26,24,16.15,24T23,26.86a17.9,17.9,0,0,1,4.84,4.59q2,2.72,3.83,5.61a1.36,1.36,0,0,1,.17.51,1.28,1.28,0,0,0,.17.51,1.72,1.72,0,0,1,.17.77,1,1,0,0,0,.34.77V40a2.74,2.74,0,0,0,.08,1.53,3.87,3.87,0,0,1,.25,1.36,8.84,8.84,0,0,1,.42,2q.08.94.26,2A9.43,9.43,0,0,0,33.83,49,9,9,0,0,0,34,51a1.84,1.84,0,0,0,.08.6,1.92,1.92,0,0,1,.08.59v.34a3.12,3.12,0,0,0,0,2,6.43,6.43,0,0,1,.34,2c.34.11.54.06.6-.17a3.15,3.15,0,0,1,.26-.68A6.6,6.6,0,0,0,36,53.89l.34-.68A34,34,0,0,0,37.84,49a33.76,33.76,0,0,1,1.45-4.25q1.2-3.23,2.56-6.2t2.74-6a.15.15,0,0,1,.17-.17,2,2,0,0,0,1.11-1.7,5,5,0,0,1,.77-2,14,14,0,0,1,5.64-3.4,9.71,9.71,0,0,1,6.32-.51c.34,0,.51.06.51.17a12,12,0,0,1,1.2.68.28.28,0,0,1,.25.17.27.27,0,0,0,.26.17,2.9,2.9,0,0,1,1.45.34c.4.23.83.45,1.28.68a.34.34,0,0,0,.08.25.36.36,0,0,1,.08.25,1.54,1.54,0,0,0,.85.85,5.7,5.7,0,0,1,2,2.13A13.9,13.9,0,0,1,68,33.58a26.12,26.12,0,0,1,.77,3.65A23.63,23.63,0,0,1,69,40.29a9.44,9.44,0,0,1-.34,1.87.49.49,0,0,1-.17.34,3.36,3.36,0,0,1,.25,1.62,5.16,5.16,0,0,0,.08,1.61.79.79,0,0,1,.08.6,1.83,1.83,0,0,0-.08.6v.51A2.59,2.59,0,0,1,69,50.15a2.12,2.12,0,0,0,0,1.7v.34q-.51.68.17,1.7v.17A2.68,2.68,0,0,0,69,55.68a3.93,3.93,0,0,1,0,1.61,4,4,0,0,1-.08.77,3.81,3.81,0,0,0-.08.77v2.72a1.49,1.49,0,0,0,.17.68A10.79,10.79,0,0,1,69.69,61a1.44,1.44,0,0,0,.17-1.19c0-.23.06-.37.17-.43a.9.9,0,0,0,.34-.42,8.92,8.92,0,0,1,.51-1.19,3.14,3.14,0,0,0,.25-.85,3,3,0,0,1,.26-.85,1,1,0,0,0,.17-.68,6.61,6.61,0,0,0,.26-1.11,1.6,1.6,0,0,1,.42-.93,1.4,1.4,0,0,0,.25-1,.92.92,0,0,1,.25-.85A31.32,31.32,0,0,0,76,43.27q1-4.34,2.37-8.58a28,28,0,0,1,2.54-6.54A8.3,8.3,0,0,1,86.11,24a3.09,3.09,0,0,1,.85-.25,3,3,0,0,0,.84-.26.34.34,0,0,0,.26-.08.35.35,0,0,1,.25-.08H89.5a10,10,0,0,0,1.44-.08,4.12,4.12,0,0,0,1.27-.42,4.4,4.4,0,0,0,.67-.43c.23-.17.51-.14.85.08a3.17,3.17,0,0,0,1.69-.17h.17a1.53,1.53,0,0,0,1.1.51,2,2,0,0,1,1.1.34,10.66,10.66,0,0,1,2.2,1.36,2.57,2.57,0,0,0,.68.51,2.7,2.7,0,0,1,.68.51l.34.34a15.85,15.85,0,0,1,2.87,5.44q.85,2.89,1.52,6.12v.68a2.81,2.81,0,0,0,.25,2.21,7.84,7.84,0,0,1,.77,2.38,13.22,13.22,0,0,1-.17,3.65,9.83,9.83,0,0,0,0,3.65,19.29,19.29,0,0,1,.34,7.31q-.51,4.08-.85,7.31a23.68,23.68,0,0,1-.68,3.83,23.37,23.37,0,0,0-.68,4,10.52,10.52,0,0,0,.34,2.29q.34,1.45-.34,2c-.34.34-.4.57-.17.68a.49.49,0,0,1,.17.34,4.24,4.24,0,0,1-.17,2.72,1.21,1.21,0,0,1-.08.51,1.14,1.14,0,0,0-.08.51v.17a1.26,1.26,0,0,1,.25.94,4.62,4.62,0,0,0-.08.94,4.86,4.86,0,0,1-.08.94,4.62,4.62,0,0,0-.08.94c0,.23.17.34.51.34s.91-.4,1.36-1.19a4.51,4.51,0,0,1,.85-1.19,1.57,1.57,0,0,0,.17-.43,1.44,1.44,0,0,1,.17-.42.5.5,0,0,0,.17-.34.48.48,0,0,1,.17-.34,1.54,1.54,0,0,0,.85-1,7.15,7.15,0,0,0,.34-.85l6.63-10.54,6-9.52a2,2,0,0,0,.51-.34,1.36,1.36,0,0,0,.26-.34,1.34,1.34,0,0,1,.25-.34,1.54,1.54,0,0,0,.42-.85,3,3,0,0,1,.25-.85,3.62,3.62,0,0,0,.68-.85c.23-.45.4-.68.51-.68a.78.78,0,0,1,.59-.08,1.84,1.84,0,0,0,.6.08l.17.34a9.25,9.25,0,0,0-.34,1.87c-.23.34-.28.57-.17.68a2.47,2.47,0,0,0,.17.94c.11.28.23.54.34.77a3,3,0,0,0-.25.85,2.66,2.66,0,0,1-.43,1,1.35,1.35,0,0,1-.17.85c-.34.45-.65.88-.94,1.27a9.56,9.56,0,0,0-.77,1.27,50.08,50.08,0,0,1-4.33,6.29q-2.47,3.06-4.67,6.29-1.19,1.7-2.29,3.31a22.7,22.7,0,0,0-2,3.48,21.14,21.14,0,0,0-1.62,3.23,5.25,5.25,0,0,1-2.29,2.72,1.51,1.51,0,0,0-.59,1.44c.06.62-.37.94-1.27.94a7.58,7.58,0,0,1-.85,1.53,2.07,2.07,0,0,0-.51.94c-.11.4-.23.77-.34,1.1a2.21,2.21,0,0,1-1.19,2,8.64,8.64,0,0,0-.68.77c-.23.28-.45.54-.68.77l-.34.34c-.68.23-1.08.57-1.19,1a1.76,1.76,0,0,0-1.7-.17,6.93,6.93,0,0,1-1.87.17,1.82,1.82,0,0,0-.6.08,1.92,1.92,0,0,1-.59.08,4.51,4.51,0,0,0-.6-.25,1.7,1.7,0,0,1-.59-.42,16.1,16.1,0,0,1-4.08-4.25,18.58,18.58,0,0,1-2.29-5.19,24.51,24.51,0,0,1-.85-5.78q-.09-3-.08-5.86a1.87,1.87,0,0,0,.08-1.45,2,2,0,0,1-.08-1.27A5.48,5.48,0,0,1,85.85,76q-.68-.34-.17-1h.17q.17-6.63.68-13.17t.68-13.18a24.21,24.21,0,0,0-.34-3.06A5,5,0,0,1,87,42.5v-.34a.94.94,0,0,1-.08-.68A2.82,2.82,0,0,0,87,40.8q.17-.85.25-1.62A3.35,3.35,0,0,0,87,37.57a.68.68,0,0,1-.17-.51V34.34a.75.75,0,0,1-.42-.51,1.54,1.54,0,0,0-.43-.68c-.23-.34-.57-.4-1-.17a2.58,2.58,0,0,0-1.27,1A9.6,9.6,0,0,0,83,35.53q-.34.68-1,2.38c0,.23-.06.37-.17.42a.92.92,0,0,0-.34.43v-.17A15.7,15.7,0,0,1,80.33,41a19.92,19.92,0,0,0-1.1,2.21q-.85,1.87-1.7,4.25t-1.36,4.42a21.58,21.58,0,0,0-.68,3.91,11.77,11.77,0,0,1-1,3.91,60.77,60.77,0,0,0-2,6.2q-.85,3.15-1.87,6A29.8,29.8,0,0,1,68,77.35,24.81,24.81,0,0,1,64.26,82.11ZM17.68,74l-.34.34c0-.11.11.06.34.51V75H18c.79-.11,1.19.23,1.19,1v1.7a.34.34,0,0,0-.25.09.68.68,0,0,1-.42.08h-.34l-.59-.6a.81.81,0,0,1-.26-.59,1.22,1.22,0,0,0-.17-1,1.65,1.65,0,0,1-.34-1.19,1.2,1.2,0,0,0-.08-.51c-.06-.11,0-.28.08-.51a2.66,2.66,0,0,1,.68-.51h.17Zm.68-3.74a.57.57,0,0,0,.09-.76c-.17-.28-.31-.54-.43-.77h-.17a3.15,3.15,0,0,0-.08,1.19C17.82,70,18,70.1,18.36,70.21Zm21.76-20.4a2.91,2.91,0,0,1-1.19.17,1,1,0,0,0,.34.68c.23.23.4.28.51.17a4,4,0,0,0,.51-.85Zm1-7.31h.68a1,1,0,0,0,.68-.34,2.54,2.54,0,0,1-.68-.51,2.42,2.42,0,0,0-.43.51A1.37,1.37,0,0,1,41.14,42.5Zm8.67,36.38a.3.3,0,0,0,.34.34,3,3,0,0,0,1.19.17v-.17c0-.11,0-.17.09-.17s.08-.06.08-.17h-.17l-.17.34q-.34-.85-.68-.51A.56.56,0,0,1,49.81,78.88ZM50,76.5q.17.68,1.36.34A5.61,5.61,0,0,0,50,76.5Zm.14,4.93a1.21,1.21,0,0,0,.51-.08,1.14,1.14,0,0,1,.51-.08l.17-.17-.17-.17h-1Zm1.7,6.63c-.11.57,0,.85.34.85a.15.15,0,0,0,.17.17l.34.17a3,3,0,0,1-.85.34.78.78,0,0,1-.85-.51.76.76,0,0,0-.08-.34.74.74,0,0,1-.08-.34,1.28,1.28,0,0,1,.51-.17A1.35,1.35,0,0,0,51.85,88.06ZM79.73,32.3c-.11.11-.2.17-.25.17s-.14.11-.25.34l.17.17a.69.69,0,0,0,.51-.17V32.3Zm24.82,55.25c-.57,0-.85.23-.85.68a.45.45,0,0,0,.51.51c.23,0,.45-.23.68-.68a.27.27,0,0,0-.17-.25A.27.27,0,0,1,104.55,87.55Zm19.21-29.24h.68c.11,0,.17,0,.17-.08s.06-.08.17-.08a.5.5,0,0,0-.34-.17.76.76,0,0,0-.34.08.74.74,0,0,1-.34.08Z"/><path class="cls-1" d="M176.12,62.56q.17-.68,1.53-.34a1.25,1.25,0,0,1-.59,1.19,2.08,2.08,0,0,1-.93.34c-.91,0-1.36.4-1.36,1.19a2.71,2.71,0,0,1-.85,1.53,3.59,3.59,0,0,1-2,1.36,6.8,6.8,0,0,1-2.55-.17,1.64,1.64,0,0,0-2.55,1q-.85,1.87-1.79,3.48t-2,3.49l-1,1a14.11,14.11,0,0,1-5.44,4.59A5.81,5.81,0,0,1,154,82.79a2.06,2.06,0,0,0-.76.17,9.38,9.38,0,0,1-1.11.34q-.17.85-1.87.85a2.43,2.43,0,0,0-1.7.85A3.44,3.44,0,0,1,147,85a1.59,1.59,0,0,0-.94-.42A1.26,1.26,0,0,0,145,85a1.4,1.4,0,0,1-1,.26,7.12,7.12,0,0,0-1.19-.08,12.79,12.79,0,0,1-2.21-.51,4.2,4.2,0,0,0-2.38,0,1.39,1.39,0,0,1-.85-.51,7.75,7.75,0,0,0-2-1.45l-2.21-1.1a6.45,6.45,0,0,0-.68-.59,1.66,1.66,0,0,1-.51-.6A6,6,0,0,0,129.54,78a3.42,3.42,0,0,1-1.7-1,10.62,10.62,0,0,1-1.1-2.12,7.61,7.61,0,0,0-1.28-2.12,4.63,4.63,0,0,0-.42-.68,6.7,6.7,0,0,0-.6-.68v-.51a3.41,3.41,0,0,1-1.27-1.27c-.28-.51-.59-1-.94-1.62a14.38,14.38,0,0,1-2-4.76,15,15,0,0,1-.85-3.91q-.17-2-.17-3.91a15.82,15.82,0,0,1,.34-3.06,4.06,4.06,0,0,0,.59-1.62,14.73,14.73,0,0,0,.08-1.61,5.65,5.65,0,0,1,.85-3.06,6.68,6.68,0,0,1,.85-1.53,17.39,17.39,0,0,0,1-1.53q.34-.85.68-1.62A3.93,3.93,0,0,1,124.78,40l.34-1a3.81,3.81,0,0,0,.17-1.19,5.22,5.22,0,0,1,.34-.6,1.28,1.28,0,0,1,.68-.42,4.21,4.21,0,0,0,2.12-1.7q.77-1.19,1.62-2.55a14.55,14.55,0,0,1,1.87-1.87q1-.85,1.87-1.7c.23-.34.45-.51.68-.51a1.39,1.39,0,0,1,.59-.17,2.67,2.67,0,0,0,.77-.17,4.22,4.22,0,0,0,.51-.6,2.31,2.31,0,0,1,.85-.59,1.06,1.06,0,0,1,.77-.34,1,1,0,0,0,.76-.51c.23-.45.51-.6.85-.43a2,2,0,0,0,.85.26,8.24,8.24,0,0,1-1.79,2.8q-1.11,1.11-2.29,2.47a1.54,1.54,0,0,1-.85.85l-1,.34q-1.36.68-.68,1.87a3.73,3.73,0,0,0,1.36-.51,7.68,7.68,0,0,1,1.36-.68q-.35,1.19-.61,2a4.14,4.14,0,0,1-1.13,1.7,3.32,3.32,0,0,0-1.92,2.72c0,.68-.23,1.08-.7,1.19a11.84,11.84,0,0,0-.88,1.7,11.86,11.86,0,0,1-.87,1.7,4.13,4.13,0,0,0-.17,1.53v3.91a.69.69,0,0,1-.34.68,1.42,1.42,0,0,0,0,1.36,1.63,1.63,0,0,1,.34,1.7,11.46,11.46,0,0,0-.51,5.27.76.76,0,0,1-.08.34.74.74,0,0,0-.09.34,17.91,17.91,0,0,0,.26,3.15,5.3,5.3,0,0,0,1.63,2.81,12.64,12.64,0,0,0,1.38,1.19q-.34,1,.86,1.87l.68.68a2.59,2.59,0,0,0,.69.51,4.45,4.45,0,0,0,3.61.68c.11,0,.4-.45.86-1.36a2.15,2.15,0,0,0,1.55-.68,5.13,5.13,0,0,1,1.12-1.1,10,10,0,0,1,1.29-.76,4.17,4.17,0,0,1,.6-.51,2.87,2.87,0,0,0,.43-.34,2.28,2.28,0,0,0,.51-.77c.11-.28,0-.54-.34-.77l-.17-.34a4.4,4.4,0,0,1,.17-1.36c0-.11.14-.14.42-.08a3.8,3.8,0,0,0,.76.08.35.35,0,0,1,.08-.25.68.68,0,0,0,.08-.43c-.34-.68-.11-1.3.68-1.87a17.26,17.26,0,0,0,1-1.7,1.53,1.53,0,0,1,1.36-1,2.32,2.32,0,0,0,.93-.51,2.5,2.5,0,0,0,.08-.85.59.59,0,0,1-.08-.51.28.28,0,0,0-.08-.34,1.66,1.66,0,0,1,.34-1.53,4.25,4.25,0,0,1,.6-.51,2.69,2.69,0,0,0,.42-.34v-.51a4.14,4.14,0,0,0-.76-.6,1.46,1.46,0,0,1-.6-.59,1.67,1.67,0,0,1-.17-.77V49a3,3,0,0,0-.34-2,11.67,11.67,0,0,1-.85-1.7A6.46,6.46,0,0,1,147,42.16a2.31,2.31,0,0,0-1-1.53,10.39,10.39,0,0,1-1.7-2.21,15.63,15.63,0,0,0-1.53-2.21V35.7a3.75,3.75,0,0,0-.51-2.89,4,4,0,0,1-.51-3.06v-.68a1.77,1.77,0,0,1-.68-1.62q.17-.76.34-1.44a10.59,10.59,0,0,0,.51-1.62,2.14,2.14,0,0,1,.85-1.27,1.28,1.28,0,0,0,.76-1,4.17,4.17,0,0,1,.42-1.36.49.49,0,0,1,.17-.34.7.7,0,0,0,.17-.51,1.76,1.76,0,0,1,.17,2.38,6.51,6.51,0,0,0-.25,1,1.61,1.61,0,0,0,.42,1.19q1-.68,2-1.36a4.3,4.3,0,0,0,1.44-2q.17-.34-.68-1.19a3.06,3.06,0,0,1-1.53.51.69.69,0,0,1-.42-.26,2,2,0,0,0-.76-.42,5,5,0,0,1,4.25-1.36,3,3,0,0,1,1.19.17,5.67,5.67,0,0,0,1.28.94,2.29,2.29,0,0,0,1.62.25q.17,0,.25.25a1,1,0,0,0,.25.43,5.83,5.83,0,0,1,.68.85l.68,1a2,2,0,0,1,2.21,0l.85.6a.62.62,0,0,1,.17.77,4.41,4.41,0,0,0,.08,1l.25,1a5.83,5.83,0,0,1,1,2,3.61,3.61,0,0,1,.68-.85,12.19,12.19,0,0,1,.51,3.06,2.44,2.44,0,0,1,1.87,2.21c.11.57.23,1.13.34,1.7a2.94,2.94,0,0,0,.85,1.53,1.63,1.63,0,0,1,.51,1.19c0,.45.28.79.85,1a1.72,1.72,0,0,0,.51,1.87,2,2,0,0,1,.51,2c0,.11.11.23.34.34a2.09,2.09,0,0,1,.51.34,2,2,0,0,0,1.36.34,1.86,1.86,0,0,1,1.53,2.55l-.51.17a2.84,2.84,0,0,1-.25,2.29,5.16,5.16,0,0,0-.76,2,1.53,1.53,0,0,1-.17.68.33.33,0,0,0,.17.51,1.57,1.57,0,0,1,.17,2,2.49,2.49,0,0,0-.17,2,2.3,2.3,0,0,1-.51,2.21v.34a.15.15,0,0,0,.17.17A4.22,4.22,0,0,1,168.3,59v1.53a4.87,4.87,0,0,0,.51,2.21c0,.45.34.68,1,.68a8.72,8.72,0,0,0,2,.51,6.58,6.58,0,0,0,2.55-.17,5.3,5.3,0,0,1,.93-.51A1.72,1.72,0,0,0,176.12,62.56ZM138,32.13c0-.68.23-1,.68-.85l.34.17q-.34.68-.51.68Zm16,6.29a.49.49,0,0,0,.17-.34c0-.34-.06-.51-.17-.51a2.3,2.3,0,0,0-.42-.6l-.42-.42q-1.36-.34-1.19-1.36a2.15,2.15,0,0,0-.17-1.53v-.17l.17-.34h.17l.17.34v.17c0,.11.17.23.51.34H153a1.92,1.92,0,0,0-.08-.59,1.34,1.34,0,0,1-.08-.43,7.47,7.47,0,0,1-1-2.38,4.62,4.62,0,0,1,.34-1.27q.34-.93.68-1.1,1.53-.51.17-1.36a1.2,1.2,0,0,1-.85-1.19,2.16,2.16,0,0,0-.68-1.53,4,4,0,0,0-1.11-.51,7.08,7.08,0,0,1-1.27-.51,1.47,1.47,0,0,0-1,.51,3.93,3.93,0,0,0-1.19,1.44,4.85,4.85,0,0,1-1,1.44v.34q.51.85.25,1.27a4.06,4.06,0,0,0-.42,1.1,1.42,1.42,0,0,1-.08.42.38.38,0,0,0,.08.43q.17.85.34,1.78a9,9,0,0,0,.51,1.79,5.79,5.79,0,0,0,1.61,3.15l2.64,2.63h.34v-.17a5.23,5.23,0,0,0,.25-.59,1.65,1.65,0,0,1,.42-.6c.23-.23.45-.2.68.08s.4.43.51.43A3.19,3.19,0,0,0,154,38.42Zm-1.19,2.38a1.27,1.27,0,0,0-.51.42,2.9,2.9,0,0,1-.34.43,1.93,1.93,0,0,1-.59-1c-.06-.34-.31-.4-.76-.17a.47.47,0,0,0-.08.68,1.64,1.64,0,0,0,.59.51,4.11,4.11,0,0,0,1.7,0Zm1.7-11.05c-.23-.23-.4-.34-.51-.34a1.28,1.28,0,0,1-.51-.17.69.69,0,0,0-.17.51C153.45,30.09,153.85,30.09,154.53,29.75Zm.34,4.42c-.23-.11-.34-.23-.34-.34a.15.15,0,0,0-.17-.17h-.17c-.11,0-.17.11-.17.34.11,0,.28.11.51.34Zm86,15.47a1.89,1.89,0,0,1,1.87.68,3.18,3.18,0,0,1,.68,2l-.34,1a1.6,1.6,0,0,1-1,.85q-1,.68-2,1.28a6.17,6.17,0,0,0-1.87,1.78,1,1,0,0,0-.34.68q-.34,0-1.45,1.87t-2.63,4.67q-1.53,2.81-3.15,6l-3.06,6.12-2.46,4.93a19.58,19.58,0,0,1-1.19,2.21A12.45,12.45,0,0,1,222,85.34a7.65,7.65,0,0,1-2.38,1c-.45.11-.68.51-.68,1.19a1.63,1.63,0,0,0-.42.59,5.3,5.3,0,0,1-.26.6,7.54,7.54,0,0,1-1.1,1.19,5,5,0,0,0-.94,1,2,2,0,0,1-2.21.68h-.76a1.71,1.71,0,0,0-.93.34h-.68c-.68-.11-1.08-.17-1.19-.17a4.44,4.44,0,0,1-3.23-1,8,8,0,0,1-3.4-2.89,3.33,3.33,0,0,1-.26-.68c-.06-.23-.14-.51-.25-.85a6.77,6.77,0,0,1-.59-1.1c-.17-.4-.31-.77-.42-1.1a6.12,6.12,0,0,1-.42-1.62,11.56,11.56,0,0,0-.25-1.44,6.79,6.79,0,0,0-.34-.85c-.11-.23-.45-.34-1-.34a1.12,1.12,0,0,1-.68-.26,6.21,6.21,0,0,1-.68-.59,4.15,4.15,0,0,0,.6-.77c.17-.28.31-.54.42-.77a2.52,2.52,0,0,0,.08-1.7,1.79,1.79,0,0,0-1.11-1.19q-1-1-.51-1.87a3,3,0,0,1,.34-1.36,3.81,3.81,0,0,1,.08-.77,1.18,1.18,0,0,0-.08-.77,11.68,11.68,0,0,0-.17-1.87,9.18,9.18,0,0,0-.51-1.87,5.81,5.81,0,0,1,.17-2.47q.34-1.1.68-2.29a5.25,5.25,0,0,0,.17-2.21,6.09,6.09,0,0,1,.08-1,7.32,7.32,0,0,0,.08-1.19,10.41,10.41,0,0,1,.6-2.46q.42-1.1.76-2.3a12.49,12.49,0,0,0,.85-3.23q.17-1.53.51-3.4a2.58,2.58,0,0,1,.85-1,2.74,2.74,0,0,0,.68-2,2.58,2.58,0,0,1,.08-2,17.89,17.89,0,0,1,.94-1.79q1.53-2.89-1.36-4.42a6,6,0,0,1-1.19-1c-.23-.23-.48-.45-.77-.68s-.59-.45-.93-.68q-.68,1.19-1.28,2a3.77,3.77,0,0,0-.59,2.21c-.23.57-.42,1-.59,1.36a5.45,5.45,0,0,0-.42,1.36c-.34.34-.51.57-.51.68q-.34,1-.68,1.78T195.5,43a15,15,0,0,0-1.62,2.63,15.63,15.63,0,0,1-1.45,2.47,13.23,13.23,0,0,0-1.53,2.29q-.68,1.28-1.36,2.63a3.36,3.36,0,0,1-.85,1.1c-.34.28-.74.65-1.19,1.1a5.93,5.93,0,0,0-.08-1.1,3.77,3.77,0,0,1-.08-.76A11.82,11.82,0,0,0,186,54.91a6.4,6.4,0,0,0-.59.68c-.17.23-.37.51-.59.85a3.45,3.45,0,0,1-.94,1.36,2.4,2.4,0,0,1-1.62.51,6.16,6.16,0,0,0-.42,1.62,1.33,1.33,0,0,1-.93,1.1,3.17,3.17,0,0,1-1.45.34,3.2,3.2,0,0,0-1.45.34,25.55,25.55,0,0,1-3.14,4.76,7.25,7.25,0,0,1-2.63,2.21,1.35,1.35,0,0,1-.17-.6,2.77,2.77,0,0,0-.17-.76c-.23-.23-.37-.34-.43-.34s-.2-.11-.42-.34a1.1,1.1,0,0,0,.25-.42,1.05,1.05,0,0,1,.25-.43,1.3,1.3,0,0,1,.51.43,2.53,2.53,0,0,0,.34.42,6.66,6.66,0,0,0,1.53-.85,3.11,3.11,0,0,0,1-1.36c.11-.34.25-.71.42-1.1a1.88,1.88,0,0,1,.94-.94.54.54,0,0,0,.34-.51.69.69,0,0,1,.17-.51,3.24,3.24,0,0,0,.59-.85,3.24,3.24,0,0,1,.59-.85,5.12,5.12,0,0,0,.26-.6,4.51,4.51,0,0,1,.25-.6,3.24,3.24,0,0,1,.76-1.53q.59-.68,1.11-1.36a8.07,8.07,0,0,0,2-3.06,11,11,0,0,1,1.53-2.72l.17-.17a32.51,32.51,0,0,0,2.21-3.23q1-1.7,1.87-3.23a22.41,22.41,0,0,0,2.55-6,32.18,32.18,0,0,1,1.45-3.4q.76-1.53,1.45-3.23a9.62,9.62,0,0,0,.59-1,7.9,7.9,0,0,0,.42-1,1.53,1.53,0,0,0-.51-1.36,2.5,2.5,0,0,1-1.19-2.38l-.34-.68a2,2,0,0,1-.59-.94c-.06-.28-.14-.65-.25-1.1q0-1.19-1.53-1.53a5.9,5.9,0,0,1-1.53-.51,2.18,2.18,0,0,1-1-1.36c-.34-.57-.4-1-.17-1.19a2.5,2.5,0,0,0,.25-1.87c-.17-.57-.31-1.13-.42-1.7s-.2-1.08-.25-1.53a12.43,12.43,0,0,0-.25-1.36,3.67,3.67,0,0,0,1.7-2,8.35,8.35,0,0,0,.34-2.46,4.86,4.86,0,0,0-.08-.94.8.8,0,0,1,.25-.77,1.16,1.16,0,0,0,.34-.85,6.22,6.22,0,0,1,1.36-2.55A4.58,4.58,0,0,1,193.12,0a4,4,0,0,1,.76.08,3.77,3.77,0,0,0,.76.09,1.46,1.46,0,0,0,.77.42A.64.64,0,0,0,196,.51a2.08,2.08,0,0,1,1.53-.08,4.32,4.32,0,0,0,1.53.25,7.56,7.56,0,0,1,1.62.17A1.59,1.59,0,0,1,201.79,2c0,.11.23.4.68.85a3.79,3.79,0,0,0,.34-1.7,3.79,3.79,0,0,1,1.87,2.21,2.75,2.75,0,0,1,.51.68c.57.57.82.94.77,1.1a4.76,4.76,0,0,1-.94,1.1l-.34.68a1.35,1.35,0,0,0,.59.17.58.58,0,0,1,.42.17,1.26,1.26,0,0,0,.34.25,1.48,1.48,0,0,1,.34.26l.17.17a1.6,1.6,0,0,0,.08,1.53,1.62,1.62,0,0,1,.08,1.53,9.52,9.52,0,0,1-.51,1.19q-.34.68,0,1a1.83,1.83,0,0,1-.08,1.27,2.13,2.13,0,0,0-.25,1.1,2.49,2.49,0,0,1-1.19,1.53q-.51.34-.51,1.53.17.68.25,1.19c.06.34.14.74.25,1.19a7.13,7.13,0,0,0,3.23.68,8.39,8.39,0,0,1,4.76,1.36.5.5,0,0,1,.34.17,3.44,3.44,0,0,1,2.72.85,6.16,6.16,0,0,0,2.72,1.36,6.26,6.26,0,0,1,2.89,1.36,3.69,3.69,0,0,0,1.19.51l1.36.34A9.4,9.4,0,0,1,228.31,32v.17a2.38,2.38,0,0,1,1,1.78v2.29a10.9,10.9,0,0,1-.68,3.74q-.68,1.87-1.53,3.74-.51,1.87-1,3.66T225.25,51a3.22,3.22,0,0,1-1.53,2.55,1.49,1.49,0,0,0-.85,1.7,5.46,5.46,0,0,1-.68,3.91,4.3,4.3,0,0,0-1,2q-.17,1-.51,2.38-.17.68-.34,1.45a10.71,10.71,0,0,1-.51,1.61,10,10,0,0,1-.34,2.38c0,.45-.06.68-.17.68a4.39,4.39,0,0,0-.76,2.13q-.09,1.11-.26,2.29a18.12,18.12,0,0,0-.51,2.29,5.44,5.44,0,0,1-1,2.29q-.68.85.34,1.87l2-1a10.19,10.19,0,0,0,1.27-.76c.4-.28.79-.6,1.19-.94l1.79-1.53a19.06,19.06,0,0,0,1.19-2q1-1.87,2.47-4.67t3.14-6q1.7-3.14,3.14-5.78t2.55-4.5q1.1-1.87,1.44-1.87a1.71,1.71,0,0,1,.6-.43.77.77,0,0,0,.42-.42A5,5,0,0,1,240.89,49.64Zm-68.17,15A4.2,4.2,0,0,1,174.59,61,4.49,4.49,0,0,1,172.72,64.6Zm15.64-16.15a9.75,9.75,0,0,0-1.53.77,1.4,1.4,0,0,0-.68,1.27,3.83,3.83,0,0,1-1.1,2.29,3.69,3.69,0,0,0-1.11,2.13.67.67,0,0,1-.51.68,14.92,14.92,0,0,0-3.4,3.06,3.21,3.21,0,0,0-.59.85,4,4,0,0,1-.76,1,1,1,0,0,0,.68.17,2.24,2.24,0,0,0,2.38-1.7,1.11,1.11,0,0,1,.51-.51,6.44,6.44,0,0,0,.77-1.1,1.65,1.65,0,0,1,.42-.59,1.78,1.78,0,0,0,1.45-.77l1.27-1.61a3.4,3.4,0,0,0,1-1.19q.34-.68.68-1.53a13.88,13.88,0,0,1,.76-1.62A1.37,1.37,0,0,0,188.36,48.45ZM187,5.27a10.12,10.12,0,0,1-1.19,1.36A2.25,2.25,0,0,1,186,5.44,1.78,1.78,0,0,1,187,5.27ZM189.72.68A1.62,1.62,0,0,1,189,1a1.4,1.4,0,0,0-.6.17.5.5,0,0,0-.17-.34Q188.36,0,189.72.68ZM188.36,51c.34-.11.65-.23.94-.34a1.71,1.71,0,0,0,.76-1,2.44,2.44,0,0,0-1.45.25A1.65,1.65,0,0,0,188.36,51Zm1.19-14.62a.48.48,0,0,0,.17.34l-.34.34a2,2,0,0,1-.51.34,1.35,1.35,0,0,0-.17-.51,1.11,1.11,0,0,1,.43-.25A1.05,1.05,0,0,0,189.55,36.38Zm9.69-24q1.36-.85,1.45-1.19t-.59-1.53a1,1,0,0,1-.25-.42.79.79,0,0,0-.42-.42,1.87,1.87,0,0,0,.68-1.19q-.17-.85-.34-1.53a3.82,3.82,0,0,0-.51-1.19c0-.23-.28-.51-.85-.85a.75.75,0,0,0-.85.85,1.53,1.53,0,0,1-.17.68q-.85-1.19-1.53-.77a4.58,4.58,0,0,1-1.7.59,1.14,1.14,0,0,1-.85-.34,6.88,6.88,0,0,1-.85,1l-.85.85q.85,1,1.36.25a1.44,1.44,0,0,1,1.19-.77.5.5,0,0,1,.17.34,9.13,9.13,0,0,1-.68,4.25,6.39,6.39,0,0,1,1.19,1.53,15.34,15.34,0,0,1,1.36,2.72A27.59,27.59,0,0,0,197.37,18a2.25,2.25,0,0,1,1.36-.51q.17-1.36.25-2.55T199.24,12.41ZM198,7.31a8.89,8.89,0,0,1,.42,2q.08,1,.25,2a11.64,11.64,0,0,0-.85,1.19,3.55,3.55,0,0,1-.59-2.63c.17-.85.31-1.73.42-2.64Zm.51,68.85h.34v1.53h-.34Zm3.91-57.46a2.66,2.66,0,0,1,.68-.51c.23-.11.23-.4,0-.85h-.68c-.34.23-.45.45-.34.68ZM203.66,7a5.83,5.83,0,0,0-.09,1.61c.06.17.37.31.94.43a2.08,2.08,0,0,1-.08-1.1C204.48,7.4,204.23,7.08,203.66,7Zm1,4.59a2.16,2.16,0,0,1-.51,1c-.23.23-.11.45.34.68.23.45.42.57.59.34a6.51,6.51,0,0,1,.59-.68,2.28,2.28,0,0,0-.42-.6A5.09,5.09,0,0,1,204.68,11.56Z"/><path class="cls-1" d="M285.77,67.66q.85-1.19,1.7-2.29t1.7-2.13a10.47,10.47,0,0,1,1.7-2.21,2.79,2.79,0,0,1-1,2.55,2.24,2.24,0,0,0-.51.77,5.33,5.33,0,0,1-.51.94l.85.85a4.18,4.18,0,0,0-.51,1,2.15,2.15,0,0,1-.51.85l-.34.34a4.16,4.16,0,0,0-1.79,1.19q-.76.85-1.62,1.7a5.92,5.92,0,0,0-1.19,2.55h1V74A13.32,13.32,0,0,0,282.2,78l-.17.17a13.58,13.58,0,0,0-2,3.15,3.6,3.6,0,0,1-2.72,2.13,2,2,0,0,1,0,1.61,4.31,4.31,0,0,1-1.11,1.45l-1.53,1.36a6.54,6.54,0,0,0-1.11,1.19,12.64,12.64,0,0,1-5.1,3.57A14.68,14.68,0,0,1,260.78,94a23,23,0,0,1-7.82-1.7,23.68,23.68,0,0,1-6.8-4.25,22.6,22.6,0,0,1-7.05-11.65,73.52,73.52,0,0,1-2-13.69,3.27,3.27,0,0,0-.17-1,.7.7,0,0,0-.17-.51.21.21,0,0,1,0-.34,4.89,4.89,0,0,0,.08-1.53,12,12,0,0,1-.08-1.53,3,3,0,0,1,.34-1.36c.11-.34.2-.62.25-.85a4.58,4.58,0,0,0,.08-1,2,2,0,0,1,.25-.85l.42-.85c.23-.34.45-.71.68-1.1a1.62,1.62,0,0,0,0-1.44A28.49,28.49,0,0,0,240,47.6a28.35,28.35,0,0,1,1.19-2.72q1.53-2.55,3.31-5.27a31.12,31.12,0,0,1,4-4.93,16,16,0,0,1,4.93-3.4,12.56,12.56,0,0,1,6.29-.85,14.62,14.62,0,0,1,6.46,2.29,11.24,11.24,0,0,1,4.42,5.19l.93,1.87a14.93,14.93,0,0,1,.77,1.87,10.32,10.32,0,0,1,.34,2.46,16.06,16.06,0,0,0,.17,2.29,1.81,1.81,0,0,1,0,1.53l-1.28,2.55a5.16,5.16,0,0,1-2,2,.3.3,0,0,1-.34.34,2.31,2.31,0,0,1-.93,1.7,5.15,5.15,0,0,0-1.28,1.19,6.74,6.74,0,0,1-1.1.59.93.93,0,0,0-.6.94,1.87,1.87,0,0,0-1.27,1,5.81,5.81,0,0,1-.6,1.19l-.51.77c-.11.17-.45.14-1-.08a1.52,1.52,0,0,0-.77.25,3.91,3.91,0,0,0-.76.6,3.69,3.69,0,0,1-2.12.77,5.67,5.67,0,0,1-2.12-.94,1.74,1.74,0,0,1-2.38.17,1.9,1.9,0,0,1-.08.59,1.84,1.84,0,0,0-.08.6l.93.34a8.3,8.3,0,0,0,1.11.34,2.1,2.1,0,0,1-1.19.51,1.92,1.92,0,0,0-.85.17,9.72,9.72,0,0,1-.51,1.7c-.23.57-.45,1.19-.68,1.87q1.19.68.68,2.38a6.46,6.46,0,0,0-.25,2.29,5.55,5.55,0,0,0,.94,2.46v.34a4.45,4.45,0,0,0,.93,3,11.64,11.64,0,0,0,2.13,2q1,1.36,2.21.68a7.45,7.45,0,0,1,3.91-1,2.51,2.51,0,0,0,2.72-.85h.17l.34-.17a1.23,1.23,0,0,0,1.27-.34,2.12,2.12,0,0,1,1.28-.68,1.16,1.16,0,0,0,.51-.08.76.76,0,0,1,.34-.08c.57-.23,1-.4,1.45-.51a4.69,4.69,0,0,1,1.28-.17,5.9,5.9,0,0,0,1.87-.34,21.66,21.66,0,0,1,2.29-1.44,6.63,6.63,0,0,0,2-1.62,7.85,7.85,0,0,1,1.79-1.36A12.35,12.35,0,0,0,282,70.38a8.5,8.5,0,0,1,.85-.51,2.62,2.62,0,0,0,.68-.51l.59-.6a5.27,5.27,0,0,1,.76-.59A4,4,0,0,1,285.77,67.66ZM254.49,54.74a6.06,6.06,0,0,1-.17,3.74c-.23.68,0,1,.68,1a1,1,0,0,1,.68.17.48.48,0,0,0,.34.17,6.11,6.11,0,0,0,1.79.08,3.32,3.32,0,0,0,1.79-.77,1,1,0,0,1,.68-.34,1.51,1.51,0,0,0,.68-.17q.85-.34,1.7-.77A3.08,3.08,0,0,0,264,56.44a3.72,3.72,0,0,1,.68-1.53,6.65,6.65,0,0,0,.85-1.53,1.22,1.22,0,0,0-.17-1,14.16,14.16,0,0,1-.51-1.45,7.69,7.69,0,0,0-.51-1.27,13.84,13.84,0,0,0-.6-2.63q-.43-1.28-.76-2.47a5.21,5.21,0,0,0-.85-1.44,11.64,11.64,0,0,1-.85-1.1,3.68,3.68,0,0,0-1-1.79,11,11,0,0,1-1.36-1.44.3.3,0,0,0-.34-.34l-.34.68a12.43,12.43,0,0,1-.51,1.79q-.34.94-.68,1.79a2.79,2.79,0,0,1-.34,1.53,11.85,11.85,0,0,0-.68,4.08,3.68,3.68,0,0,1-.68,3.06,11.85,11.85,0,0,0-.85,1.7A2.19,2.19,0,0,0,254.49,54.74Zm3.4,8.5a.91.91,0,0,1-.85.25,5.47,5.47,0,0,0-.85-.08c.34-.34.57-.51.68-.51A4.84,4.84,0,0,1,257.89,63.24Zm41.65-14.45q.17-1.19,1.87-1.87a8.19,8.19,0,0,1,.17,1.87q0,1.19-.85,1.36a2.25,2.25,0,0,0-.59.42l-.43.42-.34.34A5.66,5.66,0,0,0,297,54.06c-.34.34-.45.51-.34.51a1.63,1.63,0,0,0-.68.85,4.33,4.33,0,0,1-.51,1,2,2,0,0,1-.25.43,1.89,1.89,0,0,0-.25.42,9.23,9.23,0,0,0-.59,1,3.24,3.24,0,0,1-.59.85,4.44,4.44,0,0,1-2.89,1.7,27.22,27.22,0,0,0,2.72-3.23l.34-.68a8.38,8.38,0,0,1,.93-1.7q.59-.85,1.11-1.7c0-.11,0-.17.08-.17s.08-.06.08-.17a2.75,2.75,0,0,1,.76-1.44,5,5,0,0,1,1.28-.94,4.86,4.86,0,0,0,.93-.85A3.1,3.1,0,0,0,299.54,48.79Z"/></svg>